<svg width="40" height="40" viewBox="0 0 40 40" fill="none" xmlns="http://www.w3.org/2000/svg">
<path d="M36.2048 20C38.3008 20 40.0364 21.7141 39.641 23.7726C39.1396 26.383 38.1203 28.8802 36.6294 31.1114C34.4318 34.4004 31.3082 36.9638 27.6537 38.4776C23.9991 39.9913 19.9778 40.3874 16.0982 39.6157C12.2186 38.844 8.65491 36.9392 5.85786 34.1421C3.06081 31.3451 1.156 27.7814 0.384294 23.9018C-0.38741 20.0222 0.00865672 16.0009 1.52241 12.3463C3.03616 8.69181 5.59961 5.56824 8.8886 3.37061C11.1198 1.87973 13.617 0.860434 16.2274 0.359016C18.2859 -0.0363686 20 1.69918 20 3.79522C20 5.89126 18.2624 7.53519 16.2636 8.16628C15.1506 8.51772 14.0867 9.02631 13.1056 9.68182C11.0649 11.0454 9.47431 12.9835 8.53506 15.2511C7.5958 17.5186 7.35005 20.0138 7.82888 22.421C8.3077 24.8282 9.4896 27.0394 11.2251 28.7749C12.9606 30.5104 15.1718 31.6923 17.579 32.1711C19.9862 32.6499 22.4814 32.4042 24.7489 31.4649C27.0165 30.5257 28.9546 28.9351 30.3182 26.8944C30.9737 25.9133 31.4823 24.8494 31.8337 23.7364C32.4648 21.7376 34.1087 20 36.2048 20Z" fill="url(#paint0_linear_952_1535)" fill-opacity="0.9"/>
<defs>
<linearGradient id="paint0_linear_952_1535" x1="40" y1="20" x2="-1.08079e-08" y2="20" gradientUnits="userSpaceOnUse">
<stop stop-color="#BEA0E6"/>
<stop offset="1" stop-color="#586EFF" stop-opacity="0.9"/>
</linearGradient>
</defs>
</svg>
