<svg width="1280" height="832" viewBox="0 0 1280 832" fill="none" xmlns="http://www.w3.org/2000/svg">
<mask id="mask0_1358_4165" style="mask-type:luminance" maskUnits="userSpaceOnUse" x="0" y="0" width="1280" height="832">
<path d="M1280 0H0V832H1280V0Z" fill="white"/>
</mask>
<g mask="url(#mask0_1358_4165)">
<path d="M1280 0H0V832H1280V0Z" fill="#798BFF"/>
<path d="M161 832H1119C1119.55 832 1120 831.552 1120 831V208.401C1120 208.143 1119.9 207.896 1119.72 207.71L921.598 0.309314C921.409 0.111804 921.148 4.91335e-05 920.875 4.91097e-05L359.125 0C358.852 -2.387e-08 358.591 0.111755 358.402 0.309265L160.277 207.71C160.099 207.896 160 208.144 160 208.401V831C160 831.552 160.448 832 161 832Z" fill="white"/>
<path d="M1049.75 24H829.415C823.755 24 819.167 28.5005 819.167 34.0521V241.795C819.167 247.347 823.755 251.847 829.415 251.847H1049.75C1055.41 251.847 1060 247.347 1060 241.795V34.0521C1060 28.5005 1055.41 24 1049.75 24Z" fill="#F5F5F5"/>
<path d="M819 33.4444C819 28.2284 823.228 24 828.444 24H1050.39C1055.6 24 1059.83 28.2284 1059.83 33.4444V163.306H819V33.4444Z" fill="#FECDBD"/>
<path d="M888.62 185.5L909.403 89.5H969.593L989.386 185.5H888.62Z" fill="#FD7E55" stroke="#F5F5F5"/>
<path d="M929 89L920 186" stroke="#F5F5F5"/>
<path d="M958 186L949 89" stroke="#F5F5F5"/>
<path d="M1060 163.306H819V223.306H1060V163.306Z" fill="#F5F5F5"/>
<path d="M845.969 185.144H844.057V187.005H845.872V188.568H835.046V187.005H836.855V185.144H834.949V183.62H845.969V185.144ZM833.773 189.327H847.173V190.948H841.478V191.907H845.535V195.537H837.351V196.341H845.918V197.859H835.331V194.133H843.504V193.379H835.32V191.907H839.412V190.948H833.773V189.327ZM841.985 187.005V185.144H838.909V187.005H841.985ZM860.116 185.795V186.091C860.113 186.879 860.097 187.571 860.071 188.169C860.048 188.762 859.987 189.455 859.888 190.246C859.793 191.038 859.646 191.896 859.449 192.82L857.434 192.62C857.662 191.566 857.824 190.564 857.919 189.613L849.393 190.092L849.107 188.34L858.039 188.043C858.066 187.495 858.083 186.864 858.09 186.149H849.587V184.499H860.116V185.795ZM848.057 194.584H852.851V191.039H854.894V194.584H861.457V196.261H848.057V194.584ZM870.069 185.201C870.065 185.932 870.272 186.649 870.691 187.353C871.109 188.053 871.714 188.662 872.506 189.179C873.297 189.693 874.227 190.041 875.297 190.223L874.389 191.936C873.548 191.768 872.776 191.504 872.072 191.142C871.372 190.781 870.761 190.341 870.24 189.824C869.719 189.306 869.298 188.732 868.979 188.1C868.655 188.728 868.231 189.301 867.706 189.818C867.181 190.336 866.567 190.777 865.863 191.142C865.163 191.504 864.396 191.768 863.563 191.936L862.678 190.223C863.728 190.037 864.645 189.685 865.429 189.168C866.217 188.646 866.82 188.036 867.238 187.336C867.657 186.636 867.868 185.924 867.872 185.201V184.145H870.069V185.201ZM862.341 194.464H875.776V196.159H862.341V194.464ZM887.957 194.372H880.897V184.659H887.957V194.372ZM885.908 192.74V186.274H882.929V192.74H885.908ZM889.96 183.261H892.02V188.808H894.189V190.526H892.02V197.962H889.96V183.261ZM906.305 188.814H908.473V190.52H906.305V197.996H904.267V183.261H906.305V188.814ZM895.313 184.499H902.104V190.189H897.379V192.86C898.52 192.852 899.547 192.816 900.46 192.752C901.377 192.687 902.302 192.577 903.234 192.421L903.417 194.064C902.359 194.258 901.305 194.391 900.255 194.464C899.205 194.532 897.974 194.568 896.563 194.572H895.33V188.563H900.05V186.16H895.313V184.499ZM922.404 193.014H908.969V191.359H914.642V190.292H910.653V183.746H920.834V185.321H912.707V186.257H920.492V187.775H912.707V188.734H920.96V190.292H916.708V191.359H922.404V193.014ZM910.619 193.722H912.645V196.045H921.034V197.705H910.619V193.722ZM939.065 191.473H934.801V194.606H940.531V196.284H927.097V194.606H932.764V191.473H928.678V184.305H938.962V185.943H930.738V189.847H939.065V191.473ZM953.76 194.007H951.705V188.745H949.303V187.084H951.705V183.284H953.76V194.007ZM941.295 190.703C942.075 190.455 942.73 190.096 943.259 189.624C943.788 189.152 944.179 188.616 944.434 188.015C944.693 187.414 944.824 186.79 944.828 186.143V185.92H941.883V184.271H949.85V185.92H946.923V186.154C946.923 186.744 947.044 187.32 947.288 187.883C947.535 188.443 947.912 188.949 948.418 189.402C948.928 189.851 949.556 190.197 950.301 190.44L949.285 192.072C948.494 191.814 947.815 191.433 947.248 190.931C946.681 190.425 946.232 189.83 945.901 189.145C945.566 189.902 945.1 190.558 944.503 191.114C943.909 191.669 943.192 192.088 942.351 192.369L941.295 190.703ZM944.012 193.071H946.067V196.045H954.108V197.705H944.012V193.071Z" fill="#242424"/>
<path d="M919.322 104H917.557V97.1921H917.507L915.559 98.4145V96.8482L917.66 95.5139H919.322V104Z" fill="white"/>
<path d="M935.659 102.728L938.709 99.9226C939.01 99.6325 939.242 99.3935 939.405 99.2057C939.57 99.0151 939.699 98.8245 939.79 98.6339C939.881 98.4405 939.927 98.2347 939.927 98.0165C939.927 97.7706 939.867 97.5565 939.749 97.3742C939.633 97.1891 939.472 97.0482 939.268 96.9516C939.066 96.8521 938.837 96.8024 938.58 96.8024C938.315 96.8024 938.081 96.8563 937.88 96.964C937.681 97.069 937.528 97.2209 937.42 97.4198C937.312 97.6187 937.258 97.8521 937.258 98.1201H935.584C935.584 97.5731 935.71 97.0952 935.961 96.6864C936.213 96.2748 936.566 95.9571 937.022 95.7333C937.478 95.5096 938.001 95.3977 938.593 95.3977C939.192 95.3977 939.721 95.504 940.18 95.7168C940.638 95.9295 940.993 96.2264 941.244 96.6076C941.499 96.9861 941.626 97.4184 941.626 97.9046C941.623 98.2389 941.557 98.5607 941.427 98.8701C941.3 99.1767 941.076 99.5179 940.756 99.8935C940.438 100.269 939.988 100.721 939.405 101.249L938.112 102.496V102.554H941.742V104H935.663L935.659 102.728Z" fill="white"/>
<path d="M960.812 104.116C960.196 104.116 959.644 104.011 959.155 103.801C958.669 103.588 958.286 103.293 958.007 102.914C957.731 102.533 957.588 102.099 957.58 101.613H959.358C959.366 101.818 959.434 102 959.561 102.16C959.691 102.318 959.865 102.441 960.083 102.529C960.301 102.615 960.546 102.657 960.816 102.657C961.095 102.657 961.344 102.609 961.562 102.512C961.783 102.416 961.954 102.28 962.076 102.106C962.2 101.93 962.262 101.729 962.262 101.506C962.262 101.276 962.198 101.072 962.068 100.892C961.938 100.713 961.751 100.573 961.508 100.474C961.265 100.374 960.981 100.325 960.655 100.325H959.867V99.0192H960.655C960.934 99.0192 961.181 98.9723 961.396 98.8784C961.612 98.7844 961.779 98.6518 961.898 98.4806C962.017 98.3093 962.076 98.1132 962.076 97.8922C962.076 97.6795 962.023 97.4902 961.919 97.3245C961.816 97.1587 961.67 97.0303 961.479 96.9391C961.291 96.848 961.075 96.8024 960.829 96.8024C960.577 96.8024 960.348 96.8466 960.141 96.935C959.934 97.0234 959.767 97.1491 959.64 97.3121C959.515 97.4723 959.449 97.6587 959.441 97.8714H957.75C957.758 97.3935 957.898 96.9668 958.169 96.5911C958.439 96.2154 958.808 95.9226 959.275 95.7126C959.742 95.5027 960.262 95.3977 960.837 95.3977C961.412 95.3977 961.923 95.5027 962.37 95.7126C962.818 95.9226 963.164 96.2098 963.41 96.5745C963.656 96.9364 963.778 97.3397 963.775 97.7844C963.778 98.0966 963.711 98.3784 963.576 98.6297C963.443 98.8811 963.254 99.0883 963.008 99.2513C962.765 99.4143 962.483 99.5248 962.163 99.5828V99.6491C962.575 99.6988 962.925 99.8121 963.215 99.9889C963.506 100.166 963.725 100.394 963.874 100.673C964.023 100.952 964.097 101.268 964.094 101.622C964.097 102.099 963.957 102.528 963.675 102.906C963.396 103.285 963.007 103.581 962.507 103.797C962.007 104.01 961.442 104.116 960.812 104.116Z" fill="white"/>
<path d="M248.398 394.644V398.504C248.38 403.017 248.38 408.927 247.093 416.908L240.474 416.386C241.574 409.412 241.686 404.266 241.704 400.015H223.524V394.644H248.398ZM221.007 422.689C223.711 422.67 226.694 422.651 229.827 422.577V408.405H236.446V422.372C241.164 422.166 245.956 421.831 250.375 421.271L250.767 426.25C240.921 427.928 230.05 428.096 221.641 428.059L221.007 422.689ZM252.631 437.867V389.834H259.419V409.133H265.963V414.764H259.419V437.867H252.631ZM308.55 389.834V418.363H301.837V407.026H294.341V401.544H301.837V389.834H308.55ZM267.789 413.048C275.62 410.438 279.219 404.191 279.368 398.169H269.747V392.761H295.777V398.169H286.211C286.379 403.744 289.81 409.375 297.25 411.836L293.931 417.132C288.635 415.398 284.999 411.93 282.892 407.622C280.804 412.508 276.963 416.423 271.276 418.381L267.789 413.048ZM275.657 428.674C275.639 422.856 281.923 419.425 292.141 419.425C302.396 419.425 308.662 422.856 308.68 428.674C308.662 434.492 302.396 437.904 292.141 437.923C281.923 437.904 275.639 434.492 275.657 428.674ZM282.352 428.674C282.333 431.415 285.782 432.795 292.141 432.776C298.518 432.795 301.986 431.415 302.005 428.674C301.986 425.914 298.518 424.535 292.141 424.535C285.782 424.535 282.333 425.914 282.352 428.674ZM371.003 413.198V418.586H327.221V413.198H345.7V406.858H352.375V413.198H371.003ZM329.458 404.452C340.087 403.147 345.588 397.646 345.606 392.239V390.654H352.45V392.239C352.45 397.852 357.82 403.147 368.635 404.452L366.043 409.711C357.969 408.499 352.002 405.086 348.963 400.276C345.905 405.068 339.956 408.499 331.864 409.711L329.458 404.452ZM332.069 427.22V421.999H365.67V437.867H358.938V427.22H332.069ZM404.46 396.378C404.423 402.811 407.742 408.741 415.462 411.128L411.882 416.386C406.717 414.615 403.23 411.296 401.216 406.988C399.072 411.985 395.212 415.92 389.45 417.859L385.87 412.489C394.112 409.841 397.636 403.408 397.673 396.695V392.351H404.46V396.378ZM393.888 428.562C393.869 422.67 400.153 419.22 410.371 419.22C420.627 419.22 426.892 422.67 426.911 428.562C426.892 434.492 420.627 437.867 410.371 437.848C400.153 437.867 393.869 434.492 393.888 428.562ZM400.582 428.562C400.563 431.229 404.013 432.627 410.371 432.608C416.748 432.627 420.217 431.229 420.235 428.562C420.217 425.821 416.748 424.441 410.371 424.441C404.013 424.441 400.563 425.821 400.582 428.562ZM411.061 404.154V398.653H420.068V389.834H426.78V417.99H420.068V404.154H411.061ZM460.286 393.078V398.448H450.702C450.739 404.042 454.132 409.45 461.777 411.724L458.589 416.983C453.256 415.379 449.583 412.153 447.457 408.051C445.331 412.862 441.434 416.703 435.691 418.586L432.279 413.272C440.222 410.755 443.84 404.546 443.914 398.448H434.106V393.078H460.286ZM438.898 428.525C438.88 422.67 445.182 419.258 455.326 419.276C465.339 419.258 471.53 422.67 471.53 428.525C471.53 434.38 465.339 437.867 455.326 437.848C445.182 437.867 438.88 434.38 438.898 428.525ZM445.63 428.525C445.611 431.266 449.042 432.627 455.326 432.608C461.572 432.627 464.891 431.266 464.891 428.525C464.891 425.821 461.572 424.497 455.326 424.516C449.042 424.497 445.611 425.821 445.63 428.525ZM464.332 418.344V389.834H471.082V401.003H477.534V406.485H471.082V418.344H464.332ZM261.749 459.834V507.867H254.943V459.834H261.749ZM221.585 494.273C233.966 488.4 239.43 480.829 240.511 470.164H224.158V464.887H247.373C247.354 479.431 242.245 491.532 225.09 499.625L221.585 494.273ZM311.943 485.603V490.973H268.05V485.603H286.678V482.116H273.513V468.914H299.898V465.987H273.439V460.785H306.648V473.762H280.207V476.951H307.524V482.116H293.334V485.603H311.943ZM272.954 498.991V493.695H306.909V507.643H300.122V498.991H272.954ZM371.003 483.198V488.586H327.221V483.198H345.7V476.858H352.375V483.198H371.003ZM329.458 474.452C340.087 473.147 345.588 467.646 345.606 462.239V460.654H352.45V462.239C352.45 467.852 357.82 473.147 368.635 474.452L366.043 479.711C357.969 478.499 352.002 475.086 348.963 470.276C345.905 475.068 339.956 478.499 331.864 479.711L329.458 474.452ZM332.069 497.22V491.999H365.67V507.867H358.938V497.22H332.069ZM426.78 459.908V495.299H420.068V483.589H411.229V487.729H388.369V463.041H395.119V470.406H404.572V463.041H411.229V467.926H420.068V459.908H426.78ZM394.82 507.028V491.775H401.626V501.602H427.806V507.028H394.82ZM395.119 482.433H404.572V475.515H395.119V482.433ZM411.229 478.2H420.068V473.334H411.229V478.2ZM471.38 459.834V479.375H477.646V484.95H471.38V507.867H464.593V459.834H471.38ZM432.428 494.311C435.934 494.311 439.998 494.311 444.25 494.218V490.078C439.159 489.09 435.859 485.827 435.878 481.407C435.859 476.019 440.707 472.364 447.699 472.364C454.561 472.364 459.465 476.019 459.503 481.407C459.465 485.845 456.09 489.127 451.019 490.097V493.956C454.822 493.751 458.626 493.453 462.206 492.95L462.654 497.835C452.417 499.737 441.416 499.793 433.323 499.793L432.428 494.311ZM433.36 470.481V465.204H444.25V460.113H451.019V465.204H461.833V470.481H433.36ZM442.273 481.407C442.255 483.925 444.418 485.286 447.699 485.286C450.888 485.286 453.032 483.925 453.032 481.407C453.032 478.909 450.888 477.492 447.699 477.492C444.418 477.492 442.255 478.909 442.273 481.407Z" fill="#242424"/>
<path d="M236.602 544.541V546.075H229.517V553.664H227.652V546.075H220.649V544.541H225.007C225.677 542.021 225.801 540.128 225.829 538.83H221.92V537.325H227.659V538.05C227.659 539.258 227.659 541.434 226.906 544.541H232.334C232.887 542.021 232.963 540.156 232.977 538.83H228.923V537.325H234.814V538.243C234.814 539.528 234.814 541.599 234.206 544.541H236.602ZM252.451 536.993V538.485H247.14C247.223 540.384 249.744 542.062 253.01 542.477L252.306 543.941C249.309 543.54 246.843 542.145 245.897 540.177C244.951 542.145 242.499 543.54 239.502 543.941L238.818 542.477C242.085 542.062 244.578 540.384 244.675 538.485H239.392V536.993H252.451ZM237.907 546.579V545.066H253.922V546.579H246.981V549.963H245.144V546.579H237.907ZM239.903 553.298V548.291H241.753V551.779H252.147V553.298H239.903ZM268.969 536.171V541.8H271.504V543.347H268.969V549.272H267.112V536.171H268.969ZM255.24 539.707V538.215H259.536V536.164H261.38V538.215H265.655V539.707H255.24ZM256.193 543.865C256.186 541.855 257.913 540.55 260.454 540.55C262.961 540.55 264.688 541.855 264.695 543.865C264.688 545.84 262.961 547.131 260.454 547.131C257.913 547.131 256.186 545.84 256.193 543.865ZM257.878 553.298V548.229H259.722V551.779H269.715V553.298H257.878ZM257.982 543.865C257.968 544.997 258.963 545.695 260.454 545.688C261.932 545.695 262.927 544.997 262.94 543.865C262.927 542.704 261.932 541.986 260.454 541.986C258.963 541.986 257.968 542.704 257.982 543.865ZM291.932 536.157V553.657H290.067V536.157H291.932ZM277.553 548.968C282.208 546.758 284.473 543.602 284.839 539.521H278.403V538.043H286.731C286.718 543.16 284.542 547.601 278.534 550.467L277.553 548.968ZM310.66 545.709V547.221H294.645V545.709H301.744V544.051H296.703V539.597H306.793V538.036H296.655V536.565H308.644V540.971H298.54V542.594H309.003V544.051H303.568V545.709H310.66ZM296.441 549.928V548.436H308.74V553.519H306.876V549.928H296.441ZM319.92 537.207C323.595 537.214 326.391 539.155 326.391 542.097C326.391 545.052 323.595 546.993 319.92 546.979C316.26 546.993 313.47 545.052 313.47 542.097C313.47 539.155 316.26 537.214 319.92 537.207ZM311.958 551.392V549.859H327.973V551.392H311.958ZM315.252 542.097C315.245 544.141 317.241 545.46 319.92 545.46C322.6 545.46 324.582 544.141 324.582 542.097C324.582 540.073 322.6 538.706 319.92 538.72C317.241 538.706 315.245 540.073 315.252 542.097ZM345.258 550.018V551.558H329.243V550.018H336.287V546.938H331.19V541.372H341.467V538.913H331.156V537.401H343.297V542.863H333.034V545.419H343.704V546.938H338.124V550.018H345.258ZM236.637 576.206V577.704H229.496V583.644H227.673V577.704H220.622V576.206H236.637ZM222.631 573.982V567.09H234.62V573.982H222.631ZM224.454 572.532H232.783V568.588H224.454V572.532ZM251.684 566.171V571.8H254.219V573.347H251.684V579.272H249.827V566.171H251.684ZM237.955 569.707V568.215H242.251V566.164H244.095V568.215H248.369V569.707H237.955ZM238.908 573.865C238.901 571.855 240.628 570.55 243.169 570.55C245.676 570.55 247.403 571.855 247.409 573.865C247.403 575.84 245.676 577.131 243.169 577.131C240.628 577.131 238.901 575.84 238.908 573.865ZM240.593 583.298V578.229H242.437V581.779H252.43V583.298H240.593ZM240.697 573.865C240.683 574.997 241.677 575.695 243.169 575.688C244.647 575.695 245.642 574.997 245.655 573.865C245.642 572.704 244.647 571.986 243.169 571.986C241.677 571.986 240.683 572.704 240.697 573.865ZM268.969 566.171V571.8H271.504V573.347H268.969V579.272H267.112V566.171H268.969ZM255.24 569.707V568.215H259.536V566.164H261.38V568.215H265.655V569.707H255.24ZM256.193 573.865C256.186 571.855 257.913 570.55 260.454 570.55C262.961 570.55 264.688 571.855 264.695 573.865C264.688 575.84 262.961 577.131 260.454 577.131C257.913 577.131 256.186 575.84 256.193 573.865ZM257.878 583.298V578.229H259.722V581.779H269.715V583.298H257.878ZM257.982 573.865C257.968 574.997 258.963 575.695 260.454 575.688C261.932 575.695 262.927 574.997 262.94 573.865C262.927 572.704 261.932 571.986 260.454 571.986C258.963 571.986 257.968 572.704 257.982 573.865ZM283.603 568.789C283.589 571.227 285.178 573.416 287.829 574.279L286.821 575.729C284.894 575.032 283.479 573.685 282.719 571.931C281.959 573.934 280.433 575.494 278.313 576.261L277.318 574.769C280.115 573.816 281.738 571.489 281.752 568.865V567.131H283.603V568.789ZM280.198 580.322C280.184 578.202 282.436 576.972 286.11 576.972C289.777 576.972 292.021 578.202 292.028 580.322C292.021 582.435 289.777 583.63 286.11 583.63C282.436 583.63 280.184 582.435 280.198 580.322ZM282.035 580.322C282.021 581.489 283.548 582.166 286.11 582.166C288.665 582.166 290.184 581.489 290.191 580.322C290.184 579.113 288.665 578.43 286.11 578.43C283.548 578.43 282.021 579.113 282.035 580.322ZM286.434 571.247V569.721H290.122V566.157H291.973V576.489H290.122V571.247H286.434ZM300.778 569.39C300.778 571.606 302.325 573.637 304.983 574.486L304.099 575.936C302.104 575.294 300.653 573.975 299.887 572.311C299.127 574.224 297.587 575.743 295.481 576.475L294.534 574.997C297.262 574.093 298.913 571.827 298.927 569.403V568.92H295.073V567.414H304.555V568.92H300.778V569.39ZM296.896 580.343C296.896 578.285 299.127 577.09 302.767 577.09C306.378 577.09 308.581 578.285 308.581 580.343C308.581 582.421 306.378 583.63 302.767 583.63C299.127 583.63 296.896 582.421 296.896 580.343ZM298.754 580.343C298.74 581.51 300.239 582.166 302.767 582.166C305.287 582.166 306.765 581.51 306.765 580.343C306.765 579.196 305.287 578.554 302.767 578.561C300.239 578.554 298.74 579.196 298.754 580.343ZM306.565 576.662V566.157H308.423V570.488H310.957V572.021H308.423V576.662H306.565ZM319.92 566.448C323.864 566.448 326.164 567.511 326.164 569.452C326.164 571.42 323.864 572.483 319.92 572.497C315.977 572.483 313.664 571.42 313.664 569.452C313.664 567.511 315.977 566.448 319.92 566.448ZM311.958 575.046V573.561H327.911V575.046H311.958ZM313.857 577.78V576.392H325.887V580.488H315.708V582.055H326.391V583.492H313.891V579.155H324.064V577.78H313.857ZM315.604 569.452C315.59 570.543 317.137 571.102 319.92 571.102C322.724 571.102 324.264 570.543 324.264 569.452C324.264 568.43 322.724 567.822 319.92 567.829C317.137 567.822 315.59 568.43 315.604 569.452ZM348.711 566.171V576.544H346.861V574.396H342.448V572.877H346.861V570.75H342.627C341.495 573.561 338.87 575.55 335.079 576.641L334.333 575.177C338.49 573.996 340.901 571.765 341.225 568.948H335.238V567.428H343.242C343.242 568.077 343.18 568.692 343.062 569.279H346.861V566.171H348.711ZM337.047 580.142C337.047 578.022 339.361 576.731 342.952 576.731C346.495 576.731 348.815 578.022 348.822 580.142C348.815 582.269 346.495 583.575 342.952 583.575C339.361 583.575 337.047 582.269 337.047 580.142ZM338.891 580.142C338.891 581.378 340.452 582.09 342.952 582.09C345.403 582.09 346.964 581.378 346.971 580.142C346.964 578.899 345.403 578.188 342.952 578.195C340.452 578.188 338.891 578.899 338.891 580.142ZM365.997 566.157V576.758H364.146V572.946H361.411V571.413H364.146V566.157H365.997ZM351.432 569.39V567.891H355.651V565.999H357.474V567.891H361.68V569.39H351.432ZM352.447 573.312C352.447 571.475 354.153 570.184 356.563 570.184C358.966 570.184 360.658 571.475 360.672 573.312C360.658 575.198 358.966 576.441 356.563 576.448C354.153 576.441 352.447 575.198 352.447 573.312ZM354.229 573.312C354.215 574.376 355.161 575.039 356.563 575.046C357.937 575.039 358.89 574.376 358.89 573.312C358.89 572.283 357.937 571.599 356.563 571.599C355.161 571.599 354.215 572.283 354.229 573.312ZM354.443 583.436V577.622H365.997V583.436H354.443ZM356.3 581.931H364.18V579.099H356.3V581.931ZM377.336 569.058V570.557H368.655V569.058H372.094V566.675H373.931V569.058H377.336ZM369.221 575.633C369.207 573.278 370.809 571.606 373.012 571.606C375.222 571.606 376.804 573.278 376.818 575.633C376.804 578.022 375.222 579.7 373.012 579.7C370.809 579.7 369.207 578.022 369.221 575.633ZM370.851 575.633C370.851 577.117 371.749 578.119 373.012 578.105C374.269 578.119 375.174 577.117 375.174 575.633C375.174 574.175 374.269 573.16 373.012 573.153C371.749 573.16 370.851 574.175 370.851 575.633ZM378.15 582.836V566.551H379.898V573.45H381.914V566.157H383.682V583.657H381.914V574.963H379.898V582.836H378.15ZM401.996 579.956V581.489H385.981V579.956H393.025V576.365H387.804V567.352H389.662V570.37H398.253V567.352H400.097V576.365H394.862V579.956H401.996ZM389.662 574.859H398.253V571.862H389.662V574.859ZM408.598 570.936C408.598 573.74 409.765 576.717 412.113 578.146L411.07 579.583C409.433 578.595 408.329 576.841 407.728 574.818C407.085 577.035 405.884 578.927 404.185 579.963L403.025 578.581C405.504 577.104 406.802 574.003 406.802 571.019V567.753H408.598V570.936ZM410.207 573.851V572.311H412.935V566.496H414.682V582.794H412.935V573.851H410.207ZM416.533 583.657V566.157H418.315V583.657H416.533ZM436.567 579.942V581.475H420.552V579.942H424.384V575.363C422.941 574.576 422.064 573.319 422.064 571.751C422.064 568.996 424.764 567.186 428.514 567.173C432.278 567.186 434.985 568.996 434.985 571.751C434.985 573.298 434.136 574.535 432.727 575.329V579.942H436.567ZM423.866 571.751C423.866 573.623 425.773 574.845 428.514 574.845C431.242 574.845 433.176 573.623 433.176 571.751C433.176 569.859 431.242 568.657 428.514 568.671C425.773 568.657 423.866 569.859 423.866 571.751ZM426.208 579.942H430.855V576.04C430.137 576.206 429.35 576.296 428.514 576.296C427.685 576.296 426.912 576.206 426.208 576.047V579.942Z" fill="#AEAEAE"/>
<path d="M784.585 207H564.248C558.588 207 554 211.5 554 217.052V424.795C554 430.347 558.588 434.847 564.248 434.847H784.585C790.245 434.847 794.833 430.347 794.833 424.795V217.052C794.833 211.5 790.245 207 784.585 207Z" fill="#F5F5F5"/>
<path d="M582.006 372.944V374.593H576.311V375.683C578.867 375.871 580.385 376.79 580.397 378.303C580.385 380.009 578.456 380.962 575.278 380.957C572.064 380.962 570.135 380.009 570.135 378.303C570.135 376.785 571.665 375.866 574.273 375.683V374.593H568.606V372.944H582.006ZM569.194 370.769C571.91 370.535 573.417 369.537 573.794 368.521H569.822V366.894H580.796V368.521H576.79C577.155 369.548 578.65 370.535 581.436 370.769L580.716 372.384C577.937 372.122 576.071 371.078 575.283 369.645C574.507 371.072 572.664 372.122 569.884 372.384L569.194 370.769ZM572.236 378.303C572.224 379.022 573.246 379.41 575.278 379.404C577.275 379.41 578.325 379.022 578.331 378.303C578.325 377.572 577.275 377.213 575.278 377.201C573.246 377.213 572.224 377.572 572.236 378.303ZM587.016 367.071C589.294 367.065 591.017 368.538 591.029 370.627C591.017 372.704 589.294 374.182 587.016 374.188C584.722 374.182 582.982 372.704 582.993 370.627C582.982 368.538 584.722 367.065 587.016 367.071ZM584.694 378.069C584.688 376.242 586.657 375.152 589.722 375.152C592.752 375.152 594.681 376.242 594.681 378.069C594.681 379.878 592.752 380.962 589.722 380.957C586.657 380.962 584.688 379.878 584.694 378.069ZM585.008 370.627C584.996 371.774 585.864 372.447 587.016 372.447C588.146 372.447 589.014 371.774 589.02 370.627C589.014 369.502 588.152 368.795 587.016 368.8C585.864 368.795 584.996 369.502 585.008 370.627ZM586.754 378.069C586.748 378.93 587.798 379.324 589.722 379.324C591.633 379.324 592.649 378.93 592.649 378.069C592.649 377.207 591.633 376.785 589.722 376.779C587.798 376.785 586.748 377.207 586.754 378.069ZM592.478 374.856V366.261H594.544V369.622H596.519V371.289H594.544V374.856H592.478ZM604.257 368.509V370.147H597.146V368.509H599.714V366.677H601.74V368.509H604.257ZM597.5 374.285C597.494 372.253 598.864 370.809 600.736 370.809C602.613 370.809 603.955 372.253 603.96 374.285C603.955 376.345 602.613 377.795 600.736 377.795C598.864 377.795 597.494 376.345 597.5 374.285ZM599.309 374.285C599.303 375.409 599.885 376.054 600.736 376.048C601.563 376.054 602.145 375.409 602.151 374.285C602.145 373.183 601.563 372.516 600.736 372.516C599.885 372.516 599.303 373.183 599.309 374.285ZM604.799 380.329V366.552H606.728V372.247H607.921V366.261H609.878V380.962H607.921V373.891H606.728V380.329H604.799ZM618.992 367.676C618.981 372.19 617.765 375.98 612.469 378.736L611.339 377.184C613.667 375.957 615.117 374.593 615.962 372.967L611.704 373.36L611.419 371.608L616.601 371.317C616.772 370.689 616.88 370.027 616.938 369.325H612.206V367.676H618.992ZM618.964 373.6V371.916H621.783V366.261H623.832V380.962H621.783V373.6H618.964ZM639.143 374.359V376.014H625.709V374.359H631.382V373.292H627.392V366.746H637.574V368.321H629.447V369.257H637.231V370.775H629.447V371.734H637.699V373.292H633.448V374.359H639.143ZM627.358 380.705V376.722H629.384V379.045H637.774V380.705H627.358ZM657.254 374.479V376.163H651.512V380.974H649.475V376.163H643.819V374.479H657.254ZM645.166 370.09C645.16 368.053 647.346 366.757 650.497 366.757C653.653 366.757 655.856 368.053 655.856 370.09C655.856 372.093 653.653 373.366 650.497 373.366C647.346 373.366 645.16 372.093 645.166 370.09ZM647.289 370.09C647.278 371.146 648.528 371.74 650.497 371.74C652.483 371.74 653.727 371.146 653.727 370.09C653.727 369.012 652.483 368.407 650.497 368.401C648.528 368.407 647.278 369.012 647.289 370.09ZM665.882 366.98C665.877 368.521 667.589 370.233 670.842 370.604L670.088 372.225C667.6 371.888 665.762 370.815 664.827 369.371C663.885 370.821 662.053 371.888 659.559 372.225L658.771 370.604C662.036 370.233 663.754 368.532 663.759 366.98V366.495H665.882V366.98ZM658.121 374.65V373.035H671.521V374.65H658.121ZM659.65 378.314C659.65 376.585 661.579 375.637 664.792 375.643C667.971 375.637 669.9 376.585 669.912 378.314C669.9 380.009 667.971 380.974 664.792 380.979C661.579 380.974 659.65 380.009 659.65 378.314ZM661.75 378.314C661.739 379.067 662.761 379.41 664.792 379.404C666.79 379.41 667.84 379.067 667.846 378.314C667.84 377.549 666.79 377.207 664.792 377.196C662.761 377.207 661.739 377.549 661.75 378.314ZM687.799 366.261V371.894H689.877V373.594H687.799V380.928H685.739V366.261H687.799ZM676.054 376.813C679.524 375.067 681.39 372.727 681.778 369.451H676.882V367.767H683.879C683.867 372.162 682.149 375.963 677.213 378.388L676.054 376.813ZM703.933 377.578V379.25H690.498V377.578H696.165V374.856H691.919V367.202H693.985V369.491H700.389V367.202H702.443V374.856H698.203V377.578H703.933ZM693.985 373.212H700.389V371.123H693.985V373.212ZM710.204 370.267C710.193 372.51 711.386 375.095 713.8 376.208L712.653 377.823C711.015 377.07 709.85 375.575 709.2 373.811C708.538 375.757 707.328 377.401 705.639 378.2L704.44 376.573C706.889 375.432 708.121 372.698 708.133 370.267V369.365H705.022V367.682H713.161V369.365H710.204V370.267ZM714.308 380.962V366.261H716.368V371.876H718.537V373.594H716.368V380.962H714.308ZM731.166 367.539V368.932C731.16 370.769 731.16 372.835 730.578 375.963L728.501 375.746C729.06 372.967 729.089 370.901 729.1 369.177H720.448V367.539H731.166ZM719.067 379.159V377.487H723.861V372.436H725.904V377.487H732.467V379.159H719.067ZM736.695 367.785L736.479 375.974H734.413L734.196 367.785H736.695ZM734.093 378.263C734.082 377.521 734.704 376.916 735.451 376.916C736.17 376.916 736.798 377.521 736.804 378.263C736.798 379.01 736.17 379.615 735.451 379.615C734.704 379.615 734.082 379.01 734.093 378.263Z" fill="#242424"/>
<path d="M554 216.444C554 211.228 558.228 207 563.444 207H785.389C790.605 207 794.833 211.228 794.833 216.444V346.306H554V216.444Z" fill="#CBD2FF"/>
<path d="M699.208 232.973H648.444C649.625 250.287 656.354 284.917 673.826 284.917C691.299 284.917 698.028 250.287 699.208 232.973Z" fill="#FFF848"/>
<path d="M673.826 284.917C691.298 284.917 698.028 250.287 699.208 232.973H690.502C690.502 251.862 683.743 283.973 673.826 284.917Z" fill="#E8E242"/>
<path fill-rule="evenodd" clip-rule="evenodd" d="M696.847 248.319C704.974 248.319 708.104 232.578 708.653 224.708H696.847V232.972H705.111C704.727 236.907 702.536 244.777 696.847 244.777V248.319Z" fill="#FFF848"/>
<path fill-rule="evenodd" clip-rule="evenodd" d="M651.986 248.319C643.859 248.319 640.73 232.578 640.181 224.708H651.986V232.972V244.777M651.986 232.972V244.777C646.297 244.777 644.107 236.907 643.722 232.972H651.986Z" fill="#FFF848"/>
<path d="M662.611 317.973H685.042C684.52 310.102 681.547 294.362 673.826 294.362C666.106 294.362 663.133 310.102 662.611 317.973Z" fill="#FFF848"/>
<mask id="mask1_1358_4165" style="mask-type:alpha" maskUnits="userSpaceOnUse" x="640" y="334" width="69" height="13">
<path d="M708.653 334.406H640.181V346.306H708.653V334.406Z" fill="#D9D9D9"/>
</mask>
<g mask="url(#mask1_1358_4165)">
<path d="M693.246 308.375L653.533 311.536L640.865 346.307H707.968L693.246 308.375Z" fill="#CBB3EB"/>
</g>
<mask id="mask2_1358_4165" style="mask-type:alpha" maskUnits="userSpaceOnUse" x="649" y="317" width="51" height="18">
<path d="M699.067 317.973H649.767V334.406H699.067V317.973Z" fill="#D9D9D9"/>
</mask>
<g mask="url(#mask2_1358_4165)">
<path d="M687.974 282.024L659.38 286.39L650.26 334.406H698.574L687.974 282.024Z" fill="#CBB3EB"/>
</g>
<path d="M673.827 284.917C663.438 284.917 656.708 254.223 656.708 232.973H664.972C664.972 266.618 670.875 279.408 673.827 284.917Z" fill="#FFFA84"/>
<path d="M675.267 261.864H676.471V264.319H675.267H672.811H671.607V261.864H672.811V250.719L672.055 251.546L670.214 249.94L672.008 247.886H672.811H675.267V261.864Z" fill="#B5B033"/>
<path d="M673.826 296.722C678.296 296.722 681.198 287.278 681.5 282.556L673.826 284.326L666.153 282.556C666.455 287.278 669.357 296.722 673.826 296.722Z" fill="#FFF848"/>
<path d="M784.585 458.848H564.248C558.588 458.848 554 463.348 554 468.9V676.643C554 682.194 558.588 686.695 564.248 686.695H784.585C790.245 686.695 794.833 682.194 794.833 676.643V468.9C794.833 463.348 790.245 458.848 784.585 458.848Z" fill="#F5F5F5"/>
<path d="M577.441 619.592V621.179H574.519C574.576 622.343 575.614 623.399 577.789 623.793L576.978 625.374C575.318 625.06 574.17 624.323 573.52 623.336C572.875 624.42 571.705 625.242 569.981 625.585L569.137 623.987C571.357 623.581 572.39 622.423 572.447 621.179H569.531V619.592H572.464V618.143H574.519V619.592H577.441ZM568.634 626.212C571.34 626.218 574.958 626.195 578.051 625.807L578.194 627.291C576.984 627.502 575.74 627.634 574.519 627.725V632.353H572.453V627.833C571.174 627.885 569.964 627.89 568.886 627.89L568.634 626.212ZM578.942 632.798V618.131H580.985V632.798H578.942ZM586.982 618.742C588.86 618.73 590.361 619.809 590.766 621.384H593.214V618.108H595.269V626.013H593.214V623.022H590.772C590.389 624.637 588.877 625.733 586.982 625.733C584.722 625.733 583.061 624.266 583.073 622.217C583.061 620.203 584.722 618.73 586.982 618.742ZM585.025 622.217C585.025 623.313 585.835 624.01 586.982 624.01C588.101 624.01 588.9 623.313 588.911 622.217C588.9 621.122 588.101 620.448 586.982 620.454C585.835 620.448 585.025 621.122 585.025 622.217ZM585.47 632.644V626.658H587.496V628.073H593.214V626.658H595.269V632.644H585.47ZM587.496 630.978H593.214V629.654H587.496V630.978ZM608.76 618.108V623.867H610.929V625.562H608.76V632.81H606.722V618.108H608.76ZM597.095 621.955V620.306H600.422V618.342H602.476V620.306H605.729V621.955H597.095ZM597.688 626.281C597.682 624.232 599.28 622.777 601.449 622.777C603.589 622.777 605.193 624.232 605.199 626.281C605.193 628.335 603.589 629.779 601.449 629.785C599.28 629.779 597.682 628.335 597.688 626.281ZM599.663 626.281C599.657 627.422 600.41 628.102 601.449 628.096C602.476 628.102 603.218 627.422 603.23 626.281C603.218 625.157 602.476 624.46 601.449 624.449C600.41 624.46 599.657 625.157 599.663 626.281ZM623.387 622.126V623.741H613.125V618.633H615.174V622.126H623.387ZM611.442 626.926V625.311H624.876V626.926H611.442ZM612.988 632.485V628.13H615.049V630.83H623.478V632.485H612.988ZM641.297 619.467V621.224C641.292 623.245 641.292 625.242 640.772 628.284L638.684 628.119C639.237 625.282 639.237 623.188 639.243 621.224V621.122H630.939V619.467H641.297ZM629.552 630.875V629.197H642.952V630.875H629.552ZM655.49 618.108V620.865H657.465V622.56H655.49V625.379H653.424V618.108H655.49ZM644.424 624.968V618.759H646.49V623.262C648.254 623.228 650.166 623.074 652.197 622.685L652.431 624.363C650.017 624.848 647.763 624.968 645.68 624.968H644.424ZM645.743 627.588V625.984H655.49V630.025H647.826V630.995H655.913V632.644H645.765V628.478H653.407V627.588H645.743ZM669.883 618.108V623.878H671.835V625.573H669.883V632.81H667.817V618.108H669.883ZM657.818 628.535C659.821 626.372 660.409 624.226 660.535 621.304H658.475V619.621H662.504C662.492 623.65 662.07 626.806 659.433 629.694L657.818 628.535ZM661.979 629.494C663.965 627.04 664.513 624.529 664.632 621.304H663V619.621H666.573C666.567 623.81 666.208 627.445 663.605 630.635L661.979 629.494ZM678.089 622.115C678.089 624.495 679.316 627.034 681.776 628.056L680.669 629.671C678.934 628.94 677.741 627.479 677.079 625.699C676.417 627.634 675.201 629.243 673.466 630.036L672.296 628.421C674.728 627.331 675.989 624.609 675.995 622.115V621.213H672.873V619.529H681.165V621.213H678.089V622.115ZM682.615 632.81V618.108H684.698V632.81H682.615Z" fill="#242424"/>
<path d="M554 468.292C554 463.076 558.228 458.848 563.444 458.848H785.389C790.605 458.848 794.833 463.076 794.833 468.292V598.153H554V468.292Z" fill="#EBE2F7"/>
<g filter="url(#filter0_d_1358_4165)">
<path fill-rule="evenodd" clip-rule="evenodd" d="M695.674 482.121C695.145 480.126 693.101 478.946 691.109 479.485L633.162 495.165C631.17 495.704 629.985 497.757 630.514 499.752L653.16 585.097C653.689 587.092 655.732 588.272 657.724 587.733L715.671 572.053C717.663 571.514 718.849 569.461 718.32 567.466L695.674 482.121ZM659.741 500.374C658.145 500.806 656.508 499.861 656.084 498.263C655.66 496.666 656.61 495.021 658.206 494.589L669.135 491.631C670.731 491.2 672.368 492.145 672.792 493.742C673.216 495.34 672.266 496.985 670.671 497.417L659.741 500.374Z" fill="#F1FBF4"/>
</g>
<path d="M654.269 478.275L664.155 495.744V468.292" stroke="#FEB0C7" stroke-width="1.86808" stroke-linejoin="bevel"/>
<path d="M698.527 542.362L686.039 513.132L634.894 516.569L648.535 567.976L698.527 542.362Z" fill="#A2E4B2"/>
<path d="M654.737 552.911C654.344 553.109 653.996 553.342 654.147 553.646C654.298 553.951 654.837 553.847 655.768 553.602C657.778 553.065 658.22 553.786 658.438 554.226C658.902 555.162 658.149 556.05 656.936 556.664C656.082 557.095 654.927 557.172 654.131 556.56C653.806 556.329 653.778 556.019 653.975 555.736C654.166 555.47 654.537 555.367 654.862 555.598C655.361 555.952 656.079 555.842 656.506 555.626C656.73 555.513 657.494 555.155 657.281 554.726C657.102 554.366 656.687 554.463 655.643 554.737C654.582 555.006 653.499 555.201 653.029 554.254C652.42 553.025 653.532 552.265 654.34 551.856C654.947 551.549 655.94 551.287 656.759 551.662C657.101 551.814 657.201 552.101 657.027 552.429C656.852 552.729 656.544 552.787 656.308 552.736C655.736 552.631 655.175 552.689 654.737 552.911ZM658.753 548.454L659.161 549.277C659.211 549.378 659.262 549.367 659.34 549.327L660.317 548.833C660.71 548.634 660.974 548.825 661.102 549.085C661.209 549.299 661.258 549.682 660.843 549.893L659.877 550.381C659.776 550.432 659.776 550.517 659.804 550.573L660.805 552.591C661.006 552.997 661.348 553.12 661.887 552.848L662.224 552.677C662.505 552.535 662.825 552.529 663.02 552.923C663.216 553.318 663.008 553.578 662.739 553.714L662.402 553.885C661.357 554.413 660.353 554.427 659.704 553.12L658.72 551.136C658.698 551.09 658.642 551.006 658.552 551.051L658.114 551.273C657.699 551.483 657.413 551.247 657.295 551.01C657.184 550.785 657.151 550.435 657.588 550.213L657.97 550.02C658.049 549.98 658.133 549.952 658.049 549.783L657.809 549.298C657.601 549.248 657.394 549.141 657.299 548.95C657.148 548.645 657.255 548.295 657.569 548.136C658.03 547.903 658.467 548.105 658.753 548.454ZM665.909 550.813C666.594 550.467 666.869 550.031 666.976 549.822C667.106 549.517 667.314 549.115 667.785 549.244C668.093 549.328 668.166 549.7 668.109 549.954C667.917 550.841 667.147 551.498 666.418 551.868C665.137 552.515 663.55 552.317 662.728 550.66C662.007 549.205 662.621 547.668 663.912 547.015C665.394 546.265 666.902 547.011 667.417 548.048C667.573 548.364 667.612 548.81 666.927 549.156L664.288 550.491C664.153 550.559 664.215 550.711 664.355 550.796C664.797 551.094 665.403 551.069 665.909 550.813ZM663.796 549.555L665.952 548.465C666.165 548.357 666.064 548.239 665.879 548.121C665.42 547.845 664.937 547.836 664.443 548.086C663.915 548.353 663.617 548.856 663.605 549.37C663.611 549.522 663.672 549.618 663.796 549.555ZM671.289 552.337C670.93 552.518 670.622 552.35 670.465 552.034L667.658 546.375C667.439 546.359 667.243 546.218 667.154 546.038C667.003 545.733 667.11 545.383 667.424 545.224C667.795 545.036 668.131 545.148 668.406 545.362C668.738 544.672 669.204 544.366 669.619 544.156C670.866 543.525 672.442 543.758 673.236 545.358C673.795 546.486 673.658 548.163 671.996 549.004C671.58 549.214 671.137 549.311 670.683 549.273C670.582 549.268 670.447 549.251 670.486 549.33L671.554 551.483C671.705 551.788 671.694 552.132 671.289 552.337ZM671.47 547.916C672.189 547.552 672.577 546.777 672.147 545.909C671.705 545.019 670.909 544.829 670.134 545.221C669.483 545.551 668.988 546.224 669.418 547.177L669.496 547.335C669.95 548.163 670.752 548.279 671.47 547.916ZM677.014 549.441C676.654 549.623 676.346 549.454 676.19 549.139L673.382 543.479C673.164 543.463 672.967 543.323 672.878 543.142C672.727 542.838 672.834 542.487 673.149 542.328C673.519 542.141 673.856 542.253 674.13 542.466C674.462 541.777 674.928 541.47 675.344 541.26C676.59 540.63 678.166 540.862 678.96 542.463C679.52 543.59 679.382 545.267 677.72 546.108C677.305 546.318 676.862 546.415 676.407 546.377C676.306 546.372 676.172 546.355 676.211 546.434L677.279 548.588C677.43 548.892 677.418 549.236 677.014 549.441ZM677.195 545.02C677.913 544.656 678.302 543.882 677.871 543.014C677.429 542.123 676.633 541.934 675.858 542.326C675.207 542.655 674.712 543.328 675.143 544.281L675.221 544.439C675.674 545.267 676.476 545.384 677.195 545.02ZM682.852 542.243C683.537 541.897 683.812 541.461 683.919 541.252C684.049 540.947 684.257 540.545 684.728 540.674C685.036 540.757 685.109 541.13 685.052 541.384C684.86 542.271 684.09 542.928 683.36 543.297C682.08 543.945 680.493 543.747 679.671 542.089C678.95 540.635 679.563 539.098 680.855 538.444C682.337 537.695 683.845 538.441 684.36 539.478C684.516 539.794 684.555 540.239 683.87 540.586L681.231 541.921C681.096 541.989 681.158 542.141 681.298 542.225C681.74 542.523 682.346 542.499 682.852 542.243ZM680.739 540.985L682.895 539.895C683.108 539.787 683.007 539.668 682.822 539.55C682.363 539.275 681.88 539.265 681.386 539.515C680.858 539.782 680.56 540.286 680.548 540.799C680.554 540.952 680.615 541.048 680.739 540.985ZM686.239 541.164L684.578 537.816C684.36 537.8 684.163 537.659 684.074 537.479C683.923 537.174 684.03 536.824 684.345 536.665C684.738 536.466 685.063 536.612 685.337 536.854C685.546 536.255 685.967 535.887 686.495 535.62C687.337 535.194 688.089 535.208 688.756 535.562C688.896 535.646 688.986 535.742 689.047 535.866C689.131 536.035 689.136 536.187 689.086 536.34C688.967 536.639 688.546 536.782 688.272 536.653C687.874 536.502 687.402 536.486 686.987 536.696C686.324 537.031 685.97 537.874 686.372 538.685L687.328 540.613C687.507 540.974 687.384 541.262 687.035 541.438C686.665 541.626 686.39 541.469 686.239 541.164Z" fill="#40764D"/>
<path d="M1049.75 276.653H829.415C823.755 276.653 819.167 281.154 819.167 286.705V494.448C819.167 500 823.755 504.501 829.415 504.501H1049.75C1055.41 504.501 1060 500 1060 494.448V286.705C1060 281.154 1055.41 276.653 1049.75 276.653Z" fill="#F5F5F5"/>
<path d="M819.167 286.098C819.167 280.882 823.395 276.653 828.611 276.653H1050.56C1055.77 276.653 1060 280.882 1060 286.098V415.959H819.167V286.098Z" fill="#FFDAE5"/>
<mask id="mask3_1358_4165" style="mask-type:alpha" maskUnits="userSpaceOnUse" x="869" y="340" width="141" height="76">
<path d="M869.931 349.848C869.931 344.632 874.159 340.403 879.375 340.403H999.792C1005.01 340.403 1009.24 344.632 1009.24 349.848V415.959H869.931V349.848Z" fill="#FFDAE5"/>
</mask>
<g mask="url(#mask3_1358_4165)">
<path d="M939.583 479.709C978.051 479.709 1009.24 448.524 1009.24 410.056C1009.24 371.588 978.051 340.403 939.583 340.403C901.115 340.403 869.93 371.588 869.93 410.056C869.93 448.524 901.115 479.709 939.583 479.709Z" fill="#FEFEFE"/>
<path d="M939.583 341.797V372.444" stroke="#AEAEAE" stroke-width="3.34333" stroke-linecap="square"/>
<path d="M939.583 341.797V364.086" stroke="#FD5E2B" stroke-width="3.34333" stroke-linecap="square"/>
<path d="M882.468 372.443L901.771 383.588" stroke="#AEAEAE" stroke-width="3.34333" stroke-linecap="square"/>
<path d="M904.757 350.154L915.901 369.457" stroke="#AEAEAE" stroke-width="1.39306" stroke-linecap="square"/>
<path d="M974.41 350.154L963.265 369.457" stroke="#AEAEAE" stroke-width="1.39306" stroke-linecap="square"/>
<path d="M996.699 372.443L977.396 383.588" stroke="#AEAEAE" stroke-width="3.34333" stroke-linecap="square"/>
<path d="M933.889 391.296C933.283 391.296 932.739 391.193 932.258 390.986C931.78 390.777 931.404 390.486 931.129 390.114C930.857 389.739 930.718 389.312 930.709 388.834H932.458C932.466 389.035 932.533 389.214 932.658 389.372C932.786 389.527 932.957 389.648 933.172 389.734C933.386 389.819 933.627 389.861 933.893 389.861C934.168 389.861 934.412 389.813 934.627 389.718C934.844 389.623 935.013 389.49 935.132 389.319C935.255 389.145 935.316 388.948 935.316 388.728C935.316 388.502 935.252 388.301 935.124 388.124C934.997 387.948 934.813 387.81 934.574 387.713C934.335 387.615 934.055 387.566 933.734 387.566H932.96V386.282H933.734C934.009 386.282 934.252 386.235 934.464 386.143C934.676 386.051 934.84 385.92 934.957 385.752C935.074 385.583 935.132 385.39 935.132 385.173C935.132 384.964 935.081 384.777 934.977 384.614C934.877 384.451 934.733 384.325 934.545 384.235C934.361 384.146 934.147 384.101 933.905 384.101C933.658 384.101 933.432 384.144 933.229 384.231C933.025 384.318 932.86 384.442 932.735 384.602C932.613 384.76 932.548 384.943 932.54 385.152H930.877C930.885 384.682 931.022 384.262 931.288 383.893C931.555 383.523 931.917 383.235 932.377 383.029C932.836 382.822 933.348 382.719 933.914 382.719C934.479 382.719 934.982 382.822 935.422 383.029C935.862 383.235 936.203 383.518 936.445 383.877C936.687 384.233 936.806 384.629 936.804 385.067C936.806 385.374 936.741 385.651 936.608 385.898C936.478 386.146 936.291 386.35 936.05 386.51C935.81 386.67 935.533 386.779 935.218 386.836V386.901C935.623 386.95 935.968 387.062 936.253 387.236C936.539 387.41 936.755 387.634 936.902 387.908C937.048 388.183 937.12 388.494 937.118 388.842C937.12 389.312 936.983 389.733 936.706 390.105C936.431 390.478 936.048 390.77 935.556 390.982C935.064 391.191 934.509 391.296 933.889 391.296ZM941.576 391.361C940.88 391.361 940.281 391.19 939.778 390.847C939.275 390.502 938.889 390.005 938.62 389.355C938.354 388.703 938.222 387.923 938.225 387.015C938.225 386.113 938.359 385.34 938.628 384.696C938.897 384.052 939.282 383.561 939.782 383.224C940.285 382.887 940.883 382.719 941.576 382.719C942.269 382.719 942.867 382.889 943.369 383.228C943.872 383.565 944.257 384.056 944.523 384.7C944.792 385.344 944.927 386.116 944.927 387.015C944.927 387.926 944.792 388.707 944.523 389.359C944.257 390.009 943.872 390.505 943.369 390.847C942.867 391.19 942.269 391.361 941.576 391.361ZM939.99 387.036C939.99 387.664 940.054 388.194 940.182 388.626C940.312 389.055 940.495 389.378 940.732 389.596C940.971 389.811 941.252 389.918 941.576 389.918C941.902 389.918 942.183 389.809 942.42 389.592C942.656 389.374 942.838 389.05 942.966 388.618C943.096 388.183 943.161 387.649 943.161 387.015C943.161 386.39 943.096 385.863 942.966 385.434C942.835 385.004 942.652 384.682 942.415 384.468C942.179 384.253 941.899 384.146 941.576 384.146C941.25 384.146 940.967 384.254 940.728 384.472C940.491 384.689 940.309 385.014 940.182 385.446C940.054 385.878 939.99 386.408 939.99 387.036Z" fill="#AEAEAE"/>
</g>
<path d="M838.55 449.285C836.113 449.285 834.327 447.847 834.281 445.838H836.638C836.695 446.745 837.528 447.373 838.55 447.373C839.76 447.373 840.621 446.517 840.616 445.296C840.621 444.063 839.743 443.195 838.51 443.19C837.637 443.19 837.02 443.515 836.684 444.166H834.475L835.114 437.437H842.305V439.429H837.112L836.792 442.379H836.883C837.317 441.803 838.202 441.386 839.229 441.386C841.375 441.386 842.967 442.99 842.961 445.233C842.967 447.595 841.175 449.285 838.55 449.285ZM844.683 449.125V437.437H847.108V442.619H847.263L851.509 437.437H854.425L850.07 442.67L854.476 449.125H851.566L848.336 444.297L847.108 445.786V449.125H844.683ZM862.731 441.204C862.411 440.102 861.532 439.429 860.248 439.429C858.445 439.429 857.218 440.815 857.218 443.27C857.218 445.741 858.411 447.133 860.277 447.133C861.932 447.133 862.931 446.197 862.965 444.725H860.437V442.887H865.31V444.348C865.31 447.419 863.204 449.285 860.26 449.285C856.978 449.285 854.758 446.991 854.758 443.292C854.758 439.503 857.126 437.277 860.208 437.277C862.845 437.277 864.877 438.898 865.202 441.204H862.731ZM882.001 435.913V439.132H883.976V440.821H882.001V444.131H879.935V435.913H882.001ZM870.182 442.824C873.48 442.008 875.307 440.376 875.632 438.418H870.906V436.781H877.88C877.875 440.667 875.415 443.304 870.998 444.468L870.182 442.824ZM872.385 450.432V444.685H882.001V450.432H872.385ZM874.433 448.817H879.964V446.346H874.433V448.817ZM898.271 437.899V439.606H896.285V441.004H898.271V442.699H896.285V444.793H894.219V435.936H896.285V437.899H898.271ZM885.139 438.424V436.803H891.897V441.175H887.217V442.471C889.637 442.459 891.286 442.368 893.152 442.042L893.369 443.68C891.269 444.08 889.38 444.16 886.395 444.154H885.162V439.64H889.888V438.424H885.139ZM886.406 447.847C886.406 446.083 888.33 445.022 891.434 445.016C894.493 445.022 896.422 446.083 896.422 447.847C896.422 449.587 894.493 450.597 891.434 450.592C888.33 450.597 886.406 449.587 886.406 447.847ZM888.438 447.847C888.427 448.651 889.477 449.062 891.434 449.057C893.375 449.062 894.391 448.651 894.391 447.847C894.391 447.03 893.375 446.614 891.434 446.614C889.477 446.614 888.427 447.03 888.438 447.847ZM910.501 435.913V441.672H912.67V443.367H910.501V450.615H908.464V435.913H910.501ZM898.836 439.76V438.11H902.163V436.147H904.218V438.11H907.471V439.76H898.836ZM899.429 444.086C899.424 442.037 901.022 440.581 903.19 440.581C905.33 440.581 906.934 442.037 906.94 444.086C906.934 446.14 905.33 447.584 903.19 447.59C901.022 447.584 899.424 446.14 899.429 444.086ZM901.404 444.086C901.398 445.227 902.152 445.906 903.19 445.9C904.218 445.906 904.959 445.227 904.971 444.086C904.959 442.961 904.218 442.265 903.19 442.254C902.152 442.265 901.398 442.961 901.404 444.086ZM925.539 435.913V450.615H923.456V435.913H925.539ZM913.246 446.454C917.035 444.656 918.707 442.339 919.038 439.075H914.033V437.46H921.138C921.133 441.911 919.569 445.615 914.318 448.092L913.246 446.454Z" fill="#242424"/>
<path d="M162 208L361 0H120V208H162Z" fill="#798BFF"/>
<path d="M1120 208L921 0H1162V208H1120Z" fill="#798BFF"/>
<path d="M1049.75 528.5H829.415C823.755 528.5 819.167 533 819.167 538.552V746.295C819.167 751.847 823.755 756.347 829.415 756.347H1049.75C1055.41 756.347 1060 751.847 1060 746.295V538.552C1060 533 1055.41 528.5 1049.75 528.5Z" fill="#F5F5F5"/>
<path d="M819 538.444C819 533.228 823.228 529 828.444 529H1050.39C1055.6 529 1059.83 533.228 1059.83 538.444V668.306H819V538.444Z" fill="#D4F2DB"/>
<path d="M835.348 689.285H837.06L836.261 693.879H833.956L835.348 689.285ZM843.616 694.815C843.563 694.503 843.409 694.255 843.154 694.073C842.899 693.89 842.574 693.799 842.178 693.799C841.923 693.799 841.691 693.837 841.482 693.913C841.276 693.985 841.115 694.09 840.997 694.227C840.879 694.36 840.82 694.512 840.82 694.683C840.82 694.893 840.907 695.073 841.082 695.226C841.261 695.374 841.548 695.49 841.944 695.574L843.525 695.893C844.374 696.068 845.005 696.35 845.42 696.738C845.835 697.126 846.044 697.636 846.048 698.267C846.048 698.838 845.886 699.34 845.562 699.774C845.239 700.208 844.784 700.545 844.198 700.784C843.613 701.024 842.935 701.144 842.167 701.144C841.387 701.144 840.711 701.034 840.141 700.813C839.57 700.588 839.121 700.271 838.794 699.86C838.47 699.445 838.276 698.95 838.212 698.376H840.609C840.67 698.715 840.833 698.973 841.1 699.152C841.366 699.327 841.722 699.415 842.167 699.415C842.604 699.415 842.954 699.335 843.217 699.175C843.479 699.011 843.613 698.789 843.616 698.507C843.613 698.279 843.516 698.092 843.325 697.948C843.135 697.8 842.834 697.683 842.424 697.6L840.974 697.314C840.137 697.151 839.505 696.858 839.079 696.436C838.653 696.013 838.442 695.477 838.446 694.826C838.446 694.271 838.596 693.787 838.897 693.376C839.197 692.966 839.625 692.65 840.181 692.429C840.74 692.205 841.392 692.092 842.138 692.092C842.869 692.092 843.506 692.203 844.05 692.423C844.594 692.644 845.02 692.96 845.328 693.371C845.637 693.778 845.812 694.259 845.854 694.815H843.616ZM852.143 694.004H850.488V698.285C850.488 698.623 850.565 698.855 850.717 698.981C850.869 699.103 851.093 699.164 851.39 699.164C851.561 699.164 851.851 699.15 852.258 699.124V701.007C851.9 701.064 851.48 701.093 850.996 701.093C850.095 701.093 849.385 700.885 848.868 700.47C848.35 700.056 848.093 699.436 848.097 698.61V694.004H846.893V692.207H848.097V690.106H850.488V692.207H852.143V694.004ZM857.513 701.144C856.627 701.144 855.856 700.961 855.202 700.596C854.551 700.231 854.051 699.709 853.701 699.032C853.351 698.351 853.176 697.55 853.176 696.63C853.176 695.735 853.351 694.946 853.701 694.261C854.051 693.572 854.546 693.04 855.185 692.663C855.828 692.283 856.572 692.092 857.416 692.092C858.2 692.092 858.902 692.26 859.522 692.595C860.146 692.926 860.637 693.424 860.995 694.09C861.352 694.756 861.531 695.572 861.531 696.538V697.206H855.539C855.539 697.644 855.62 698.024 855.784 698.347C855.951 698.671 856.185 698.92 856.486 699.095C856.79 699.266 857.146 699.352 857.553 699.352C857.953 699.352 858.295 699.274 858.58 699.118C858.87 698.958 859.075 698.745 859.197 698.479H861.468C861.354 699.019 861.122 699.489 860.772 699.888C860.422 700.288 859.969 700.598 859.414 700.819C858.858 701.035 858.225 701.144 857.513 701.144ZM859.277 695.711C859.273 695.361 859.193 695.047 859.037 694.769C858.885 694.491 858.672 694.274 858.398 694.118C858.124 693.959 857.812 693.879 857.462 693.879C857.104 693.879 856.783 693.961 856.497 694.124C856.212 694.288 855.986 694.51 855.818 694.792C855.651 695.07 855.558 695.376 855.539 695.711H859.277ZM863.026 692.207H865.383V693.679H865.491C865.693 693.238 865.994 692.863 866.393 692.555C866.793 692.246 867.323 692.092 867.985 692.092C868.647 692.092 869.249 692.264 869.789 692.606C870.329 692.948 870.757 693.458 871.073 694.136C871.389 694.813 871.547 695.635 871.547 696.601C871.547 697.548 871.391 698.363 871.079 699.044C870.771 699.725 870.346 700.24 869.806 700.59C869.27 700.94 868.663 701.115 867.985 701.115C867.339 701.115 866.812 700.967 866.405 700.67C865.997 700.373 865.693 700.008 865.491 699.574H865.417V704.26H863.026V692.207ZM865.366 696.59C865.366 697.115 865.438 697.575 865.583 697.971C865.731 698.363 865.946 698.667 866.228 698.884C866.509 699.101 866.846 699.209 867.238 699.209C867.634 699.209 867.97 699.101 868.248 698.884C868.53 698.663 868.743 698.357 868.887 697.965C869.032 697.569 869.104 697.111 869.104 696.59C869.104 696.072 869.032 695.619 868.887 695.231C868.746 694.843 868.535 694.543 868.254 694.33C867.976 694.113 867.637 694.004 867.238 694.004C866.842 694.004 866.503 694.109 866.222 694.318C865.94 694.527 865.727 694.826 865.583 695.214C865.438 695.602 865.366 696.061 865.366 696.59ZM873.081 692.207H875.438V693.679H875.547C875.749 693.238 876.049 692.863 876.449 692.555C876.848 692.246 877.379 692.092 878.041 692.092C878.703 692.092 879.304 692.264 879.844 692.606C880.385 692.948 880.813 693.458 881.128 694.136C881.444 694.813 881.602 695.635 881.602 696.601C881.602 697.548 881.446 698.363 881.134 699.044C880.826 699.725 880.402 700.24 879.861 700.59C879.325 700.94 878.718 701.115 878.041 701.115C877.394 701.115 876.867 700.967 876.46 700.67C876.053 700.373 875.749 700.008 875.547 699.574H875.473V704.26H873.081V692.207ZM875.421 696.59C875.421 697.115 875.494 697.575 875.638 697.971C875.787 698.363 876.002 698.667 876.283 698.884C876.565 699.101 876.901 699.209 877.293 699.209C877.689 699.209 878.026 699.101 878.303 698.884C878.585 698.663 878.798 698.357 878.943 697.965C879.087 697.569 879.16 697.111 879.16 696.59C879.16 696.072 879.087 695.619 878.943 695.231C878.802 694.843 878.591 694.543 878.309 694.33C878.031 694.113 877.693 694.004 877.293 694.004C876.898 694.004 876.559 694.109 876.277 694.318C875.996 694.527 875.783 694.826 875.638 695.214C875.494 695.602 875.421 696.061 875.421 696.59ZM887.115 701.144C886.228 701.144 885.458 700.961 884.803 700.596C884.153 700.231 883.652 699.709 883.302 699.032C882.952 698.351 882.777 697.55 882.777 696.63C882.777 695.735 882.952 694.946 883.302 694.261C883.652 693.572 884.147 693.04 884.786 692.663C885.429 692.283 886.173 692.092 887.018 692.092C887.802 692.092 888.503 692.26 889.124 692.595C889.748 692.926 890.238 693.424 890.596 694.09C890.954 694.756 891.133 695.572 891.133 696.538V697.206H885.14C885.14 697.644 885.222 698.024 885.386 698.347C885.553 698.671 885.787 698.92 886.087 699.095C886.392 699.266 886.748 699.352 887.155 699.352C887.554 699.352 887.897 699.274 888.182 699.118C888.471 698.958 888.677 698.745 888.798 698.479H891.07C890.956 699.019 890.724 699.489 890.374 699.888C890.023 700.288 889.571 700.598 889.015 700.819C888.46 701.035 887.826 701.144 887.115 701.144ZM888.878 695.711C888.874 695.361 888.795 695.047 888.639 694.769C888.486 694.491 888.273 694.274 887.999 694.118C887.725 693.959 887.413 693.879 887.063 693.879C886.706 693.879 886.384 693.961 886.099 694.124C885.814 694.288 885.587 694.51 885.42 694.792C885.252 695.07 885.159 695.376 885.14 695.711H888.878ZM892.627 692.207H894.945V693.73H895.036C895.192 693.201 895.456 692.794 895.829 692.509C896.206 692.224 896.645 692.081 897.147 692.081C897.395 692.081 897.65 692.106 897.912 692.155V694.29C897.798 694.255 897.64 694.225 897.439 694.198C897.237 694.172 897.054 694.158 896.891 694.158C896.533 694.158 896.212 694.236 895.926 694.392C895.645 694.548 895.422 694.765 895.258 695.043C895.099 695.321 895.019 695.637 895.019 695.99V700.973H892.627V692.207ZM900.762 693.884H899.05L899.849 689.29H902.155L900.762 693.884ZM919.813 696.812H917.839V687.761H919.813V696.812ZM906.921 693.211C910.17 693.211 912.668 693.076 914.415 692.806L914.552 694.17C913.794 694.345 912.891 694.48 911.841 694.575V696.727H909.866V694.706C909.181 694.733 908.262 694.746 907.109 694.746L906.921 693.211ZM907.532 690.466C907.532 690.021 907.665 689.633 907.931 689.302C908.201 688.971 908.58 688.716 909.067 688.537C909.558 688.358 910.125 688.269 910.768 688.269C911.407 688.269 911.97 688.358 912.457 688.537C912.948 688.716 913.328 688.971 913.598 689.302C913.869 689.633 914.004 690.021 914.004 690.466C914.004 690.903 913.867 691.29 913.593 691.624C913.323 691.955 912.942 692.212 912.451 692.395C911.964 692.578 911.403 692.669 910.768 692.669C910.128 692.669 909.563 692.578 909.073 692.395C908.586 692.212 908.207 691.955 907.937 691.624C907.667 691.29 907.532 690.903 907.532 690.466ZM909.312 697.274H911.356V698.256H917.759V697.274H919.813V702.297H909.312V697.274ZM909.398 690.466C909.398 690.972 909.855 691.229 910.768 691.236C911.205 691.233 911.548 691.168 911.795 691.042C912.042 690.917 912.168 690.725 912.172 690.466C912.168 690.211 912.044 690.019 911.801 689.889C911.557 689.76 911.222 689.695 910.796 689.695C909.864 689.695 909.398 689.952 909.398 690.466ZM917.759 700.704V699.82H911.356V700.704H917.759ZM912.822 694.923H915.031V688.012H916.971V696.789H915.031V696.299H912.822V694.923ZM930.67 691.094C930.666 692.041 930.794 692.947 931.053 693.81C931.311 694.67 931.707 695.433 932.24 696.099C932.772 696.761 933.432 697.261 934.22 697.6L932.976 699.238C932.177 698.853 931.498 698.315 930.938 697.623C930.383 696.926 929.947 696.11 929.632 695.174C929.304 696.171 928.852 697.042 928.273 697.788C927.699 698.53 927.004 699.103 926.19 699.506L924.9 697.834C925.707 697.468 926.384 696.936 926.932 696.236C927.484 695.536 927.895 694.742 928.165 693.856C928.435 692.966 928.572 692.045 928.576 691.094V688.896H930.67V691.094ZM932.588 692.389H935.464V687.761H937.502V702.496H935.464V694.05H932.588V692.389ZM951.689 702.496H949.606V687.761H951.689V702.496ZM940.126 688.942H942.187V692.509H945.354V688.942H947.38V699.055H940.126V688.942ZM945.354 697.383V694.113H942.187V697.383H945.354ZM961.407 689.701C961.404 690.432 961.611 691.149 962.03 691.853C962.448 692.553 963.053 693.162 963.844 693.679C964.636 694.193 965.566 694.541 966.635 694.723L965.728 696.436C964.887 696.268 964.115 696.004 963.411 695.642C962.711 695.281 962.1 694.841 961.579 694.324C961.057 693.806 960.637 693.232 960.317 692.6C959.994 693.228 959.57 693.801 959.045 694.318C958.52 694.836 957.905 695.277 957.201 695.642C956.501 696.004 955.735 696.268 954.901 696.436L954.017 694.723C955.067 694.537 955.984 694.185 956.768 693.668C957.555 693.146 958.158 692.536 958.577 691.836C958.995 691.136 959.206 690.424 959.21 689.701V688.645H961.407V689.701ZM953.68 698.964H967.115V700.659H953.68V698.964ZM985.139 695.528H979.478V696.453H983.536V700.037H975.352V700.841H983.918V702.359H973.331V698.656H981.504V697.925H973.32V696.453H977.441V695.528H971.802V694.027H985.139V695.528ZM972.327 692.115C973.72 692.054 974.817 691.874 975.62 691.573C976.427 691.269 976.944 690.89 977.172 690.437H973.058V688.914H977.429V687.755H979.472V688.914H983.872V690.437H979.723C979.948 690.89 980.463 691.269 981.27 691.573C982.08 691.874 983.191 692.054 984.603 692.115L983.998 693.633C982.647 693.561 981.502 693.359 980.562 693.028C979.623 692.697 978.919 692.254 978.451 691.699C977.983 692.254 977.279 692.697 976.339 693.028C975.399 693.359 974.25 693.561 972.892 693.633L972.327 692.115ZM991.776 691.094C991.772 692.014 991.909 692.903 992.187 693.759C992.465 694.615 992.881 695.376 993.437 696.042C993.996 696.708 994.679 697.21 995.486 697.548L994.27 699.198C993.452 698.825 992.748 698.292 992.159 697.6C991.569 696.907 991.103 696.093 990.76 695.157C990.418 696.181 989.94 697.071 989.328 697.828C988.719 698.585 987.979 699.162 987.108 699.557L985.864 697.845C986.693 697.495 987.393 696.974 987.964 696.281C988.535 695.589 988.963 694.796 989.248 693.902C989.537 693.004 989.684 692.068 989.687 691.094V688.896H991.776V691.094ZM996.268 687.761H998.351V702.496H996.268V687.761ZM1011.93 693.519H1014.1V695.214H1011.93V702.462H1009.89V687.761H1011.93V693.519ZM1000.26 689.958H1003.59V687.995H1005.64V689.958H1008.9V691.607H1000.26V689.958ZM1000.86 695.933C1000.86 695.26 1001.02 694.657 1001.34 694.124C1001.66 693.591 1002.11 693.177 1002.68 692.88C1003.26 692.579 1003.9 692.429 1004.62 692.429C1005.32 692.429 1005.96 692.579 1006.53 692.88C1007.1 693.177 1007.55 693.591 1007.88 694.124C1008.2 694.657 1008.37 695.26 1008.37 695.933C1008.37 696.607 1008.2 697.21 1007.88 697.742C1007.55 698.275 1007.1 698.692 1006.53 698.992C1005.96 699.289 1005.32 699.437 1004.62 699.437C1003.9 699.437 1003.26 699.289 1002.68 698.992C1002.11 698.692 1001.66 698.275 1001.34 697.742C1001.02 697.21 1000.86 696.607 1000.86 695.933ZM1002.83 695.933C1002.83 696.306 1002.9 696.63 1003.05 696.903C1003.21 697.177 1003.42 697.389 1003.69 697.537C1003.96 697.682 1004.27 697.752 1004.62 697.748C1004.96 697.752 1005.26 697.682 1005.53 697.537C1005.8 697.389 1006.01 697.177 1006.16 696.903C1006.32 696.63 1006.39 696.306 1006.4 695.933C1006.39 695.564 1006.32 695.243 1006.16 694.969C1006.01 694.695 1005.8 694.484 1005.53 694.335C1005.26 694.183 1004.96 694.105 1004.62 694.101C1004.27 694.105 1003.96 694.183 1003.69 694.335C1003.42 694.484 1003.21 694.695 1003.05 694.969C1002.9 695.243 1002.83 695.564 1002.83 695.933ZM1026.96 702.462H1024.88V687.761H1026.96V702.462ZM1014.67 698.302C1015.93 697.704 1016.96 697.044 1017.78 696.321C1018.59 695.598 1019.21 694.796 1019.65 693.913C1020.08 693.026 1020.35 692.03 1020.46 690.922H1015.46V689.307H1022.56C1022.56 690.879 1022.35 692.307 1021.93 693.593C1021.5 694.879 1020.79 696.059 1019.79 697.132C1018.78 698.205 1017.44 699.141 1015.74 699.94L1014.67 698.302Z" fill="#242424"/>
<path d="M999 570H879C876.791 570 875 571.791 875 574V638C875 640.209 876.791 642 879 642H999C1001.21 642 1003 640.209 1003 638V574C1003 571.791 1001.21 570 999 570Z" fill="#B2BCFF"/>
<mask id="mask4_1358_4165" style="mask-type:luminance" maskUnits="userSpaceOnUse" x="875" y="570" width="128" height="12">
<path d="M875 570H1003V582H875V570Z" fill="white"/>
</mask>
<g mask="url(#mask4_1358_4165)">
<path d="M1003 581.2H875V582.8H1003V581.2Z" fill="#CBD2FF"/>
</g>
<path d="M885 578C886.105 578 887 577.105 887 576C887 574.895 886.105 574 885 574C883.895 574 883 574.895 883 576C883 577.105 883.895 578 885 578Z" fill="white"/>
<path d="M891 578C892.105 578 893 577.105 893 576C893 574.895 892.105 574 891 574C889.895 574 889 574.895 889 576C889 577.105 889.895 578 891 578Z" fill="#DFDFDF"/>
<path d="M897 578C898.105 578 899 577.105 899 576C899 574.895 898.105 574 897 574C895.895 574 895 574.895 895 576C895 577.105 895.895 578 897 578Z" fill="#DFDFDF"/>
<path d="M898.508 598.757H899.483V599.456H899.544C899.649 599.248 899.794 599.07 899.98 598.923C900.166 598.775 900.426 598.702 900.759 598.702C901.091 598.702 901.388 598.786 901.652 598.956C901.917 599.125 902.126 599.375 902.279 599.704C902.432 600.032 902.508 600.425 902.508 600.884C902.508 601.337 902.433 601.729 902.281 602.061C902.132 602.39 901.925 602.642 901.66 602.815C901.397 602.988 901.097 603.075 900.762 603.075C900.436 603.075 900.177 603.002 899.986 602.856C899.796 602.711 899.649 602.536 899.544 602.331H899.502V604.591H898.508V598.757ZM899.483 600.878C899.483 601.155 899.522 601.397 899.599 601.605C899.678 601.813 899.793 601.974 899.944 602.088C900.095 602.203 900.276 602.26 900.486 602.26C900.701 602.26 900.885 602.201 901.036 602.083C901.188 601.965 901.304 601.802 901.381 601.594C901.458 601.386 901.497 601.147 901.497 600.878C901.497 600.611 901.458 600.376 901.381 600.171C901.305 599.965 901.191 599.805 901.038 599.691C900.887 599.576 900.703 599.519 900.486 599.519C900.272 599.519 900.09 599.575 899.939 599.685C899.79 599.796 899.677 599.953 899.599 600.157C899.522 600.362 899.483 600.602 899.483 600.878ZM903.297 598.757H904.261V599.464H904.305C904.381 599.221 904.513 599.032 904.7 598.898C904.89 598.763 905.107 598.696 905.352 598.696C905.409 598.696 905.472 598.699 905.54 598.704C905.61 598.71 905.668 598.716 905.714 598.724V599.638C905.668 599.623 905.599 599.61 905.507 599.599C905.415 599.587 905.329 599.58 905.25 599.58C905.07 599.58 904.906 599.62 904.758 599.699C904.613 599.778 904.499 599.888 904.416 600.028C904.333 600.166 904.292 600.323 904.292 600.5V603H903.297V598.757ZM906.305 598.757H907.299V603H906.305V598.757ZM906.805 598.152C906.7 598.152 906.602 598.128 906.512 598.08C906.424 598.032 906.354 597.967 906.302 597.884C906.251 597.801 906.225 597.711 906.225 597.613C906.225 597.514 906.251 597.423 906.302 597.34C906.354 597.257 906.424 597.192 906.512 597.144C906.602 597.096 906.7 597.072 906.805 597.072C906.908 597.072 907.003 597.097 907.089 597.146C907.178 597.194 907.248 597.26 907.299 597.343C907.353 597.425 907.379 597.516 907.379 597.613C907.379 597.711 907.353 597.801 907.299 597.884C907.248 597.967 907.178 598.032 907.089 598.08C907.003 598.128 906.908 598.152 906.805 598.152ZM909.252 603H908.258V598.757H909.208V599.478H909.261C909.36 599.235 909.518 599.045 909.733 598.909C909.949 598.771 910.212 598.702 910.523 598.702C910.816 598.702 911.071 598.764 911.288 598.89C911.508 599.015 911.677 599.198 911.797 599.439C911.916 599.679 911.976 599.965 911.976 600.298V603H910.982V600.45C910.982 600.262 910.949 600.1 910.882 599.964C910.816 599.828 910.72 599.724 910.595 599.652C910.472 599.58 910.324 599.544 910.153 599.544C909.976 599.544 909.82 599.583 909.683 599.66C909.549 599.736 909.443 599.847 909.366 599.994C909.29 600.14 909.252 600.313 909.252 600.514V603ZM915.04 599.525H914.206V601.724C914.206 601.858 914.226 601.962 914.267 602.036C914.309 602.108 914.365 602.157 914.435 602.182C914.507 602.208 914.594 602.221 914.695 602.221C914.787 602.221 914.922 602.215 915.098 602.202V603.017C914.929 603.044 914.741 603.058 914.535 603.058C914.279 603.058 914.051 603.016 913.85 602.931C913.651 602.844 913.494 602.714 913.38 602.539C913.268 602.364 913.212 602.147 913.212 601.89V599.525H912.609V598.757H913.212V597.74H914.206V598.757H915.04V599.525ZM917.954 599.525H917.078V603H916.083V599.525H915.451V598.757H916.083V598.354C916.083 598.083 916.137 597.852 916.244 597.66C916.35 597.469 916.503 597.324 916.702 597.227C916.901 597.127 917.136 597.077 917.407 597.077C917.629 597.077 917.839 597.099 918.036 597.141V597.925C917.898 597.909 917.78 597.901 917.683 597.901C917.478 597.901 917.327 597.944 917.227 598.03C917.128 598.117 917.078 598.254 917.078 598.442V598.757H917.954V599.525ZM918.921 600.691C918.921 600.006 919.012 599.373 919.194 598.793C919.376 598.213 919.65 597.675 920.015 597.18H920.948C920.764 597.421 920.596 597.735 920.443 598.122C920.292 598.506 920.172 598.924 920.084 599.376C919.997 599.825 919.954 600.263 919.954 600.691C919.954 601.12 919.997 601.56 920.084 602.011C920.172 602.46 920.292 602.878 920.443 603.262C920.596 603.647 920.764 603.96 920.948 604.202H920.015C919.65 603.706 919.376 603.169 919.194 602.591C919.012 602.011 918.921 601.378 918.921 600.691ZM922.355 599.423H921.595V597.343H922.355V599.423ZM923.778 599.423H923.018V597.343H923.778V599.423ZM924.727 597.343H925.741V602.144H928.238V603H924.727V597.343ZM929.008 598.757H930.002V603H929.008V598.757ZM929.508 598.152C929.403 598.152 929.305 598.128 929.215 598.08C929.127 598.032 929.057 597.967 929.005 597.884C928.954 597.801 928.928 597.711 928.928 597.613C928.928 597.514 928.954 597.423 929.005 597.34C929.057 597.257 929.127 597.192 929.215 597.144C929.305 597.096 929.403 597.072 929.508 597.072C929.611 597.072 929.706 597.097 929.793 597.146C929.881 597.194 929.951 597.26 930.002 597.343C930.056 597.425 930.083 597.516 930.083 597.613C930.083 597.711 930.056 597.801 930.002 597.884C929.951 597.967 929.881 598.032 929.793 598.08C929.706 598.128 929.611 598.152 929.508 598.152ZM930.961 597.343H931.956V600.464H932.025L933.555 598.757H934.715L933.069 600.586L934.815 603H933.627L932.32 601.182L931.956 601.572V603H930.961V597.343ZM937.011 603.083C936.59 603.083 936.223 602.994 935.912 602.818C935.603 602.639 935.365 602.386 935.199 602.058C935.034 601.728 934.951 601.343 934.951 600.903C934.951 600.471 935.034 600.087 935.199 599.754C935.365 599.421 935.599 599.162 935.901 598.978C936.205 598.794 936.557 598.702 936.956 598.702C937.317 598.702 937.644 598.779 937.937 598.934C938.23 599.088 938.463 599.327 938.636 599.649C938.809 599.97 938.895 600.368 938.895 600.845V601.152H935.937C935.941 601.391 935.988 601.599 936.078 601.773C936.168 601.947 936.294 602.079 936.456 602.171C936.618 602.263 936.807 602.309 937.023 602.309C937.231 602.309 937.408 602.269 937.556 602.188C937.705 602.107 937.813 601.999 937.882 601.865H938.854C938.793 602.11 938.68 602.324 938.514 602.508C938.348 602.691 938.138 602.832 937.882 602.934C937.626 603.033 937.336 603.083 937.011 603.083ZM937.94 600.478C937.94 600.286 937.898 600.115 937.815 599.964C937.734 599.811 937.62 599.692 937.473 599.608C937.327 599.521 937.161 599.478 936.973 599.478C936.779 599.478 936.605 599.523 936.451 599.613C936.298 599.703 936.177 599.825 936.089 599.978C936 600.129 935.951 600.296 935.94 600.478H937.94ZM940.667 603H939.672V597.343H940.667V603ZM941.625 598.757H942.62V603H941.625V598.757ZM942.125 598.152C942.02 598.152 941.923 598.128 941.832 598.08C941.744 598.032 941.674 597.967 941.622 597.884C941.571 597.801 941.545 597.711 941.545 597.613C941.545 597.514 941.571 597.423 941.622 597.34C941.674 597.257 941.744 597.192 941.832 597.144C941.923 597.096 942.02 597.072 942.125 597.072C942.228 597.072 942.323 597.097 942.41 597.146C942.498 597.194 942.568 597.26 942.62 597.343C942.673 597.425 942.7 597.516 942.7 597.613C942.7 597.711 942.673 597.801 942.62 597.884C942.568 597.967 942.498 598.032 942.41 598.08C942.323 598.128 942.228 598.152 942.125 598.152ZM945.429 603.083C945.02 603.083 944.662 602.993 944.355 602.812C944.049 602.63 943.812 602.374 943.645 602.044C943.479 601.713 943.396 601.33 943.396 600.895C943.396 600.46 943.479 600.077 943.645 599.746C943.812 599.414 944.049 599.157 944.355 598.975C944.662 598.793 945.02 598.702 945.429 598.702C945.838 598.702 946.195 598.793 946.501 598.975C946.809 599.157 947.045 599.414 947.211 599.746C947.377 600.077 947.46 600.46 947.46 600.895C947.46 601.33 947.377 601.713 947.211 602.044C947.045 602.374 946.809 602.63 946.501 602.812C946.195 602.993 945.838 603.083 945.429 603.083ZM944.402 600.892C944.402 601.157 944.44 601.395 944.518 601.605C944.595 601.815 944.711 601.982 944.866 602.105C945.02 602.227 945.209 602.287 945.432 602.287C945.651 602.287 945.837 602.227 945.99 602.105C946.143 601.982 946.258 601.815 946.335 601.605C946.413 601.395 946.451 601.157 946.451 600.892C946.451 600.627 946.413 600.389 946.335 600.177C946.258 599.965 946.143 599.797 945.99 599.674C945.837 599.551 945.651 599.489 945.432 599.489C945.209 599.489 945.02 599.551 944.866 599.674C944.711 599.797 944.595 599.965 944.518 600.177C944.44 600.389 944.402 600.627 944.402 600.892ZM949.237 603H948.242V598.757H949.193V599.478H949.245C949.345 599.235 949.502 599.045 949.718 598.909C949.933 598.771 950.196 598.702 950.508 598.702C950.8 598.702 951.055 598.764 951.273 598.89C951.492 599.015 951.661 599.198 951.781 599.439C951.901 599.679 951.961 599.965 951.961 600.298V603H950.966V600.45C950.966 600.262 950.933 600.1 950.867 599.964C950.8 599.828 950.705 599.724 950.579 599.652C950.456 599.58 950.309 599.544 950.137 599.544C949.961 599.544 949.804 599.583 949.668 599.66C949.533 599.736 949.427 599.847 949.35 599.994C949.275 600.14 949.237 600.313 949.237 600.514V603ZM954.036 601.34H953.152L953.061 597.343H954.124L954.036 601.34ZM952.989 602.456C952.987 602.347 953.013 602.247 953.066 602.155C953.121 602.063 953.195 601.99 953.287 601.936C953.381 601.883 953.483 601.856 953.594 601.856C953.701 601.856 953.8 601.883 953.892 601.936C953.986 601.99 954.061 602.063 954.116 602.155C954.171 602.247 954.199 602.347 954.199 602.456C954.199 602.564 954.171 602.666 954.116 602.76C954.061 602.852 953.986 602.925 953.892 602.981C953.8 603.034 953.701 603.061 953.594 603.061C953.483 603.061 953.381 603.034 953.287 602.981C953.195 602.925 953.121 602.852 953.066 602.76C953.013 602.666 952.987 602.564 952.989 602.456ZM954.842 597.077H955.712L957.536 603.851H956.666L954.842 597.077ZM959.096 603H958.102V598.757H959.052V599.478H959.105C959.204 599.235 959.361 599.045 959.577 598.909C959.792 598.771 960.056 598.702 960.367 598.702C960.66 598.702 960.915 598.764 961.132 598.89C961.351 599.015 961.521 599.198 961.64 599.439C961.76 599.679 961.82 599.965 961.82 600.298V603H960.826V600.45C960.826 600.262 960.792 600.1 960.726 599.964C960.66 599.828 960.564 599.724 960.439 599.652C960.315 599.58 960.168 599.544 959.997 599.544C959.82 599.544 959.663 599.583 959.527 599.66C959.393 599.736 959.287 599.847 959.209 599.994C959.134 600.14 959.096 600.313 959.096 600.514V603ZM963.464 599.423H962.705V597.343H963.464V599.423ZM964.887 599.423H964.127V597.343H964.887V599.423ZM967.568 600.693C967.568 601.378 967.477 602.011 967.295 602.591C967.112 603.171 966.839 603.709 966.474 604.204H965.541C965.725 603.963 965.892 603.649 966.043 603.262C966.196 602.878 966.316 602.46 966.403 602.011C966.491 601.56 966.535 601.121 966.535 600.693C966.535 600.264 966.491 599.825 966.403 599.376C966.316 598.924 966.196 598.506 966.043 598.122C965.892 597.737 965.725 597.424 965.541 597.182H966.474C966.839 597.678 967.112 598.215 967.295 598.796C967.477 599.374 967.568 600.006 967.568 600.693ZM969.262 604.63H968.519L968.92 602.439H969.914L969.262 604.63ZM969.397 600.16C969.287 600.16 969.185 600.134 969.091 600.08C968.999 600.025 968.925 599.951 968.87 599.859C968.816 599.765 968.791 599.664 968.792 599.555C968.791 599.447 968.816 599.346 968.87 599.254C968.925 599.162 968.999 599.089 969.091 599.036C969.185 598.983 969.287 598.956 969.397 598.956C969.504 598.956 969.604 598.983 969.696 599.036C969.79 599.089 969.864 599.162 969.92 599.254C969.975 599.346 970.002 599.447 970.002 599.555C970.002 599.664 969.975 599.765 969.92 599.859C969.864 599.951 969.79 600.025 969.696 600.08C969.604 600.134 969.504 600.16 969.397 600.16ZM924.52 610.757H925.484V611.464H925.528C925.604 611.221 925.735 611.032 925.923 610.898C926.113 610.763 926.33 610.696 926.575 610.696C926.632 610.696 926.695 610.699 926.763 610.704C926.833 610.71 926.891 610.716 926.937 610.724V611.638C926.891 611.623 926.822 611.61 926.73 611.599C926.638 611.587 926.552 611.58 926.473 611.58C926.292 611.58 926.128 611.62 925.981 611.699C925.836 611.778 925.721 611.888 925.639 612.028C925.556 612.166 925.514 612.323 925.514 612.5V615H924.52V610.757ZM929.273 615.083C928.851 615.083 928.485 614.994 928.174 614.818C927.864 614.639 927.627 614.386 927.461 614.058C927.295 613.728 927.212 613.343 927.212 612.903C927.212 612.471 927.295 612.087 927.461 611.754C927.627 611.421 927.861 611.162 928.163 610.978C928.467 610.794 928.818 610.702 929.218 610.702C929.579 610.702 929.906 610.779 930.199 610.934C930.491 611.088 930.724 611.327 930.897 611.649C931.071 611.97 931.157 612.368 931.157 612.845V613.152H928.199C928.202 613.391 928.249 613.599 928.339 613.773C928.43 613.947 928.556 614.079 928.718 614.171C928.88 614.263 929.069 614.309 929.284 614.309C929.492 614.309 929.67 614.269 929.817 614.188C929.967 614.107 930.075 613.999 930.143 613.865H931.116C931.055 614.11 930.942 614.324 930.776 614.508C930.61 614.691 930.399 614.832 930.143 614.934C929.887 615.033 929.597 615.083 929.273 615.083ZM930.201 612.478C930.201 612.286 930.16 612.115 930.077 611.964C929.996 611.811 929.882 611.692 929.735 611.608C929.589 611.521 929.422 611.478 929.235 611.478C929.041 611.478 928.867 611.523 928.712 611.613C928.56 611.703 928.439 611.825 928.351 611.978C928.262 612.129 928.212 612.296 928.201 612.478H930.201ZM934.044 611.525H933.21V613.724C933.21 613.858 933.23 613.962 933.271 614.036C933.313 614.108 933.369 614.157 933.439 614.182C933.511 614.208 933.598 614.221 933.699 614.221C933.791 614.221 933.926 614.215 934.102 614.202V615.017C933.933 615.044 933.745 615.058 933.539 615.058C933.283 615.058 933.054 615.016 932.854 614.931C932.655 614.844 932.498 614.714 932.384 614.539C932.272 614.364 932.216 614.147 932.216 613.89V611.525H931.613V610.757H932.216V609.74H933.21V610.757H934.044V611.525ZM937.521 610.757H938.513V615H937.551V614.249H937.507C937.406 614.494 937.245 614.69 937.024 614.837C936.805 614.983 936.54 615.055 936.231 615.055C935.951 615.055 935.704 614.993 935.491 614.867C935.279 614.742 935.113 614.56 934.993 614.32C934.876 614.079 934.817 613.792 934.817 613.459V610.757H935.811V613.307C935.811 613.483 935.844 613.638 935.911 613.771C935.977 613.903 936.071 614.006 936.192 614.077C936.314 614.149 936.455 614.185 936.615 614.185C936.77 614.185 936.916 614.148 937.054 614.075C937.192 614.001 937.305 613.891 937.391 613.746C937.478 613.599 937.521 613.422 937.521 613.215V610.757ZM939.473 610.757H940.437V611.464H940.481C940.557 611.221 940.688 611.032 940.876 610.898C941.066 610.763 941.283 610.696 941.528 610.696C941.585 610.696 941.648 610.699 941.716 610.704C941.786 610.71 941.844 610.716 941.89 610.724V611.638C941.844 611.623 941.775 611.61 941.683 611.599C941.591 611.587 941.505 611.58 941.426 611.58C941.245 611.58 941.082 611.62 940.934 611.699C940.789 611.778 940.675 611.888 940.592 612.028C940.509 612.166 940.467 612.323 940.467 612.5V615H939.473V610.757ZM943.475 615H942.481V610.757H943.431V611.478H943.483C943.583 611.235 943.74 611.045 943.956 610.909C944.171 610.771 944.435 610.702 944.746 610.702C945.039 610.702 945.294 610.764 945.511 610.89C945.73 611.015 945.9 611.198 946.019 611.439C946.139 611.679 946.199 611.965 946.199 612.298V615H945.204V612.45C945.204 612.262 945.171 612.1 945.105 611.964C945.039 611.828 944.943 611.724 944.818 611.652C944.694 611.58 944.547 611.544 944.376 611.544C944.199 611.544 944.042 611.583 943.906 611.66C943.772 611.736 943.666 611.847 943.588 611.994C943.513 612.14 943.475 612.313 943.475 612.514V615ZM951.126 615.108C950.673 615.108 950.283 614.993 949.957 614.762C949.631 614.53 949.382 614.195 949.208 613.757C949.037 613.317 948.952 612.79 948.952 612.177C948.952 611.565 949.038 611.041 949.211 610.605C949.384 610.169 949.634 609.836 949.96 609.608C950.286 609.379 950.674 609.265 951.126 609.265C951.575 609.265 951.963 609.38 952.289 609.61C952.615 609.839 952.864 610.171 953.037 610.608C953.212 611.044 953.3 611.567 953.3 612.177C953.3 612.792 953.213 613.32 953.04 613.76C952.867 614.198 952.617 614.532 952.291 614.762C951.967 614.993 951.579 615.108 951.126 615.108ZM949.976 612.177C949.976 612.624 950.022 613.003 950.115 613.312C950.207 613.62 950.338 613.853 950.51 614.011C950.683 614.168 950.888 614.246 951.126 614.246C951.363 614.246 951.568 614.168 951.739 614.011C951.91 613.853 952.042 613.62 952.134 613.312C952.226 613.003 952.272 612.624 952.272 612.177C952.272 611.733 952.225 611.357 952.131 611.05C952.039 610.74 951.907 610.507 951.736 610.351C951.565 610.192 951.361 610.113 951.126 610.113C950.888 610.113 950.684 610.192 950.512 610.351C950.341 610.507 950.208 610.74 950.115 611.05C950.022 611.357 949.976 611.733 949.976 612.177ZM954.641 616.63H953.898L954.298 614.439H955.293L954.641 616.63ZM954.776 612.16C954.666 612.16 954.564 612.134 954.47 612.08C954.378 612.025 954.304 611.951 954.249 611.859C954.195 611.765 954.17 611.664 954.171 611.555C954.17 611.447 954.195 611.346 954.249 611.254C954.304 611.162 954.378 611.089 954.47 611.036C954.564 610.983 954.666 610.956 954.776 610.956C954.883 610.956 954.983 610.983 955.075 611.036C955.169 611.089 955.243 611.162 955.298 611.254C955.354 611.346 955.381 611.447 955.381 611.555C955.381 611.664 955.354 611.765 955.298 611.859C955.243 611.951 955.169 612.025 955.075 612.08C954.983 612.134 954.883 612.16 954.776 612.16Z" fill="#F5F5F5"/>
<path d="M1029 623H943C940.791 623 939 624.791 939 627V651C939 653.209 940.791 655 943 655H1029C1031.21 655 1033 653.209 1033 651V627C1033 624.791 1031.21 623 1029 623Z" fill="white" fill-opacity="0.6"/>
<path d="M985.867 595C985.867 596.178 986.822 597.133 988 597.133C989.178 597.133 990.133 596.178 990.133 595C990.133 593.822 989.178 592.867 988 592.867C986.822 592.867 985.867 593.822 985.867 595ZM1014 595H1014.4V594.6H1014V595ZM1011.87 623C1011.87 624.178 1012.82 625.133 1014 625.133C1015.18 625.133 1016.13 624.178 1016.13 623C1016.13 621.822 1015.18 620.867 1014 620.867C1012.82 620.867 1011.87 621.822 1011.87 623ZM988 595.4H1014V594.6H988V595.4ZM1013.6 595V623H1014.4V595H1013.6Z" fill="white"/>
<path d="M784.585 711H564.248C558.588 711 554 715.5 554 721.052V928.795C554 934.347 558.588 938.847 564.248 938.847H784.585C790.245 938.847 794.833 934.347 794.833 928.795V721.052C794.833 715.5 790.245 711 784.585 711Z" fill="#F5F5F5"/>
<path d="M554 720.444C554 715.228 558.228 711 563.444 711H785.389C790.605 711 794.833 715.228 794.833 720.444V850.306H554V720.444Z" fill="#FFFDC6"/>
<path d="M709 765H640C635.582 765 632 768.582 632 773V856C632 860.418 635.582 864 640 864H709C713.418 864 717 860.418 717 856V773C717 768.582 713.418 765 709 765Z" fill="#D3BFEE"/>
<path d="M704 771H645C640.582 771 637 774.582 637 779V847C637 851.418 640.582 855 645 855H704C708.418 855 712 851.418 712 847V779C712 774.582 708.418 771 704 771Z" fill="white"/>
<path d="M654 797C658.418 797 662 793.418 662 789C662 784.582 658.418 781 654 781C649.582 781 646 784.582 646 789C646 793.418 649.582 797 654 797Z" fill="#DFDFDF"/>
<path d="M698 800H648C646.895 800 646 800.895 646 802V804C646 805.105 646.895 806 648 806H698C699.105 806 700 805.105 700 804V802C700 800.895 699.105 800 698 800Z" fill="#DFDFDF"/>
<path d="M684 808H648C646.895 808 646 808.895 646 810V812C646 813.105 646.895 814 648 814H684C685.105 814 686 813.105 686 812V810C686 808.895 685.105 808 684 808Z" fill="#DFDFDF"/>
<path d="M676 816H648C646.895 816 646 816.895 646 818V820C646 821.105 646.895 822 648 822H676C677.105 822 678 821.105 678 820V818C678 816.895 677.105 816 676 816Z" fill="#DFDFDF"/>
</g>
<defs>
<filter id="filter0_d_1358_4165" x="626.652" y="479.354" width="95.5302" height="115.981" filterUnits="userSpaceOnUse" color-interpolation-filters="sRGB">
<feFlood flood-opacity="0" result="BackgroundImageFix"/>
<feColorMatrix in="SourceAlpha" type="matrix" values="0 0 0 0 0 0 0 0 0 0 0 0 0 0 0 0 0 0 127 0" result="hardAlpha"/>
<feOffset dy="3.73616"/>
<feGaussianBlur stdDeviation="1.86808"/>
<feComposite in2="hardAlpha" operator="out"/>
<feColorMatrix type="matrix" values="0 0 0 0 0 0 0 0 0 0 0 0 0 0 0 0 0 0 0.04 0"/>
<feBlend mode="normal" in2="BackgroundImageFix" result="effect1_dropShadow_1358_4165"/>
<feBlend mode="normal" in="SourceGraphic" in2="effect1_dropShadow_1358_4165" result="shape"/>
</filter>
</defs>
</svg>
