<svg width="1280" height="832" viewBox="0 0 1280 832" fill="none" xmlns="http://www.w3.org/2000/svg">
<g clip-path="url(#clip0_1358_4360)">
<mask id="mask0_1358_4360" style="mask-type:luminance" maskUnits="userSpaceOnUse" x="0" y="0" width="1280" height="832">
<path d="M1280 0H0V832H1280V0Z" fill="white"/>
</mask>
<g mask="url(#mask0_1358_4360)">
<path d="M1280 0H0V832H1280V0Z" fill="#798BFF"/>
<path d="M1 832H1279C1279.55 832 1280 831.552 1280 831V208.486C1280 208.179 1279.86 207.889 1279.62 207.7L1015.34 0.213506C1015.17 0.0751998 1014.95 6.55384e-05 1014.72 6.55188e-05L265.276 0C265.052 -1.96e-08 264.835 0.0751342 264.658 0.21344L0.382501 207.7C0.141046 207.889 5.44487e-05 208.179 5.44219e-05 208.486L0 831C-4.82821e-08 831.552 0.447754 832 1 832Z" fill="white"/>
<path d="M1 674H1279V832H1V674Z" fill="white"/>
<mask id="mask1_1358_4360" style="mask-type:luminance" maskUnits="userSpaceOnUse" x="1" y="674" width="1278" height="158">
<path d="M1 674H1279V832H1V674Z" fill="white"/>
</mask>
<g mask="url(#mask1_1358_4360)">
<path d="M1 675H1279V673H1V675Z" fill="#DFDFDF"/>
</g>
<path d="M251.07 723.218H247.407V724.051H250.76V725.203H247.407V726.077C248.454 726.075 249.294 726.057 249.927 726.023C250.562 725.99 251.193 725.921 251.82 725.816L251.97 726.981C251.323 727.091 250.667 727.166 250.001 727.204C249.338 727.24 248.49 727.258 247.457 727.258H246.823H245.899V722.021H251.07V723.218ZM247.097 728.191H254.244V731.961H247.097V728.191ZM252.778 730.764V729.351H248.572V730.764H252.778ZM252.744 721.424H254.244V727.756H252.744V721.424ZM267.117 732.106H265.605V721.407H267.117V732.106ZM258.503 725.957C258.503 725.198 258.623 724.532 258.863 723.96C259.103 723.385 259.438 722.942 259.866 722.63C260.294 722.318 260.78 722.162 261.324 722.162C261.86 722.162 262.341 722.318 262.766 722.63C263.192 722.942 263.526 723.385 263.769 723.96C264.012 724.532 264.134 725.198 264.134 725.957C264.134 726.722 264.012 727.394 263.769 727.971C263.526 728.548 263.192 728.993 262.766 729.305C262.341 729.615 261.86 729.769 261.324 729.769C260.78 729.769 260.294 729.615 259.866 729.305C259.438 728.993 259.103 728.55 258.863 727.975C258.623 727.398 258.503 726.725 258.503 725.957ZM259.949 725.957C259.946 726.479 260.001 726.925 260.114 727.296C260.228 727.663 260.388 727.942 260.595 728.133C260.802 728.32 261.045 728.414 261.324 728.414C261.598 728.414 261.837 728.32 262.041 728.133C262.246 727.942 262.404 727.663 262.518 727.296C262.631 726.925 262.688 726.479 262.688 725.957C262.688 725.441 262.631 724.999 262.518 724.631C262.404 724.264 262.246 723.986 262.041 723.798C261.837 723.608 261.598 723.512 261.324 723.512C261.045 723.512 260.802 723.608 260.595 723.798C260.388 723.986 260.228 724.264 260.114 724.631C260.001 724.999 259.946 725.441 259.949 725.957ZM278.173 727.975H268.418V726.798H278.173V727.975ZM269.616 721.61H276.996V724.457H271.12V725.079H277.191V726.218H269.633V723.384H275.496V722.767H269.616V721.61ZM269.67 728.634H277.037V731.961H269.67V728.634ZM275.558 730.764V729.819H271.137V730.764H275.558Z" fill="#AEAEAE"/>
<path d="M301.78 723.674H303.222V724.892H301.78V727.432H300.28V721.424H301.78V723.674ZM293.746 721.925H295.246V725.638C296.663 725.61 298.05 725.465 299.406 725.203L299.58 726.421C298.765 726.584 297.952 726.699 297.14 726.765C296.327 726.831 295.5 726.866 294.657 726.869H293.746V721.925ZM294.794 727.921H301.78V731.949H294.794V727.921ZM300.314 730.776V729.077H296.261V730.776H300.314ZM309.148 726.504H313.287V727.698H303.558V726.504H307.665V725.186H309.148V726.504ZM304.055 724.656C304.812 724.562 305.461 724.378 306.003 724.105C306.544 723.831 306.952 723.506 307.225 723.127C307.502 722.749 307.641 722.354 307.644 721.942V721.59H309.165V721.942C309.165 722.367 309.3 722.769 309.571 723.148C309.841 723.526 310.247 723.849 310.789 724.117C311.33 724.383 311.988 724.562 312.761 724.656L312.185 725.825C311.296 725.692 310.525 725.445 309.873 725.083C309.224 724.718 308.729 724.267 308.39 723.728C308.047 724.267 307.55 724.718 306.898 725.083C306.249 725.445 305.479 725.692 304.59 725.825L304.055 724.656ZM304.669 730.188C304.669 729.787 304.816 729.445 305.112 729.16C305.41 728.876 305.839 728.659 306.397 728.51C306.957 728.36 307.626 728.286 308.402 728.286C309.176 728.286 309.84 728.36 310.395 728.51C310.95 728.659 311.376 728.876 311.671 729.16C311.967 729.445 312.116 729.787 312.119 730.188C312.116 730.591 311.967 730.934 311.671 731.215C311.379 731.5 310.955 731.714 310.399 731.858C309.844 732.004 309.178 732.077 308.402 732.077C307.626 732.077 306.957 732.004 306.397 731.858C305.839 731.714 305.41 731.5 305.112 731.215C304.816 730.934 304.669 730.591 304.669 730.188ZM306.194 730.188C306.191 730.45 306.372 730.645 306.736 730.772C307.101 730.899 307.656 730.963 308.402 730.963C309.14 730.963 309.692 730.899 310.06 730.772C310.43 730.645 310.616 730.45 310.619 730.188C310.616 729.928 310.43 729.736 310.06 729.612C309.692 729.485 309.14 729.421 308.402 729.421C307.653 729.421 307.097 729.483 306.732 729.608C306.37 729.732 306.191 729.925 306.194 730.188ZM322.731 732.106H321.243V721.407H322.731V732.106ZM314.361 722.307H319.428V726.417H315.911V728.377C316.767 728.372 317.556 728.341 318.277 728.286C318.998 728.231 319.732 728.141 320.481 728.017L320.609 729.231C319.789 729.377 318.97 729.477 318.152 729.529C317.337 729.581 316.395 729.608 315.326 729.608H314.369V725.24H317.904V723.512H314.361V722.307ZM330.163 731.116C329.547 731.116 328.995 731.011 328.506 730.801C328.019 730.588 327.637 730.293 327.358 729.914C327.082 729.533 326.939 729.099 326.931 728.613H328.709C328.717 728.818 328.785 729 328.912 729.16C329.042 729.318 329.216 729.441 329.434 729.529C329.652 729.615 329.896 729.657 330.167 729.657C330.446 729.657 330.695 729.609 330.913 729.512C331.134 729.416 331.305 729.28 331.427 729.106C331.551 728.93 331.613 728.729 331.613 728.506C331.613 728.276 331.548 728.072 331.419 727.892C331.289 727.713 331.102 727.573 330.859 727.474C330.616 727.374 330.332 727.325 330.006 727.325H329.218V726.019H330.006C330.285 726.019 330.532 725.972 330.747 725.878C330.963 725.785 331.13 725.652 331.249 725.481C331.367 725.309 331.427 725.113 331.427 724.892C331.427 724.68 331.374 724.49 331.269 724.325C331.167 724.159 331.021 724.03 330.83 723.939C330.642 723.848 330.425 723.802 330.18 723.802C329.928 723.802 329.699 723.847 329.492 723.935C329.285 724.023 329.117 724.149 328.99 724.312C328.866 724.472 328.8 724.659 328.792 724.872H327.101C327.109 724.394 327.249 723.967 327.519 723.591C327.79 723.215 328.159 722.923 328.626 722.713C329.093 722.503 329.613 722.398 330.188 722.398C330.763 722.398 331.274 722.503 331.721 722.713C332.169 722.923 332.515 723.21 332.761 723.575C333.007 723.936 333.129 724.34 333.126 724.785C333.129 725.097 333.062 725.378 332.927 725.63C332.794 725.881 332.605 726.088 332.359 726.251C332.116 726.414 331.834 726.525 331.514 726.583V726.649C331.925 726.699 332.276 726.812 332.566 726.989C332.856 727.166 333.076 727.394 333.225 727.673C333.374 727.952 333.448 728.268 333.445 728.622C333.448 729.099 333.308 729.528 333.026 729.906C332.747 730.285 332.358 730.581 331.858 730.797C331.358 731.01 330.793 731.116 330.163 731.116ZM343.19 729.289H341.698V725.448H339.734V727.606H334.654V722.12H336.154V723.757H338.255V722.12H339.734V724.25H341.698V721.424H343.19V729.289ZM336.087 728.506H337.6V730.689H343.417V731.895H336.087V728.506ZM338.255 726.43V724.892H336.154V726.43H338.255ZM348.568 724.316C348.568 724.907 348.669 725.488 348.871 726.057C349.075 726.626 349.378 727.138 349.778 727.594C350.181 728.047 350.67 728.392 351.245 728.63L350.441 729.802C349.828 729.546 349.302 729.169 348.862 728.671C348.426 728.171 348.083 727.587 347.835 726.919C347.586 727.645 347.239 728.282 346.795 728.829C346.353 729.376 345.825 729.789 345.212 730.068L344.362 728.895C344.929 728.641 345.413 728.272 345.817 727.789C346.223 727.302 346.528 726.757 346.733 726.152C346.94 725.547 347.045 724.935 347.047 724.316V723.662H344.781V722.439H350.802V723.662H348.568V724.316ZM351.854 721.407H353.367V732.081H351.854V721.407Z" fill="#AEAEAE"/>
<path d="M251.07 749.218H247.407V750.051H250.76V751.203H247.407V752.077C248.454 752.075 249.294 752.057 249.927 752.023C250.562 751.99 251.193 751.921 251.82 751.816L251.97 752.981C251.323 753.091 250.667 753.166 250.001 753.204C249.338 753.24 248.49 753.258 247.457 753.258H246.823H245.899V748.021H251.07V749.218ZM247.097 754.191H254.244V757.961H247.097V754.191ZM252.778 756.764V755.351H248.572V756.764H252.778ZM252.744 747.424H254.244V753.756H252.744V747.424ZM266.777 748.994C266.775 749.456 266.768 749.847 266.757 750.167C266.748 750.488 266.725 750.854 266.686 751.265C266.648 751.674 266.585 752.11 266.5 752.575H267.921V753.78H263.761V758.09H262.253V753.78H258.192V752.575H264.992C265.113 751.956 265.192 751.391 265.228 750.88C265.266 750.366 265.287 749.815 265.29 749.227H259.306V748.037H266.777V748.994ZM272.458 748.862C272.456 749.354 272.541 749.816 272.715 750.25C272.889 750.681 273.159 751.061 273.523 751.39C273.891 751.718 274.351 751.968 274.903 752.14L274.108 753.308C273.547 753.115 273.069 752.841 272.674 752.488C272.279 752.134 271.967 751.711 271.738 751.22C271.492 751.791 271.15 752.285 270.714 752.699C270.278 753.113 269.747 753.425 269.123 753.635L268.327 752.442C268.916 752.251 269.405 751.978 269.794 751.622C270.186 751.265 270.476 750.858 270.664 750.399C270.852 749.938 270.947 749.449 270.95 748.932V747.967H272.458V748.862ZM270.109 756.014C270.109 755.58 270.255 755.209 270.548 754.899C270.841 754.587 271.262 754.349 271.812 754.186C272.365 754.021 273.018 753.938 273.772 753.938C274.529 753.938 275.182 754.021 275.732 754.186C276.284 754.349 276.708 754.587 277.004 754.899C277.3 755.209 277.447 755.58 277.447 756.014C277.447 756.448 277.3 756.819 277.004 757.128C276.708 757.441 276.284 757.677 275.732 757.837C275.182 757.997 274.529 758.077 273.772 758.077C273.015 758.077 272.362 757.997 271.812 757.837C271.262 757.677 270.841 757.441 270.548 757.128C270.255 756.819 270.109 756.448 270.109 756.014ZM271.597 756.014C271.594 756.307 271.776 756.53 272.144 756.685C272.511 756.837 273.044 756.913 273.743 756.913C274.464 756.913 275.014 756.837 275.392 756.685C275.771 756.533 275.961 756.309 275.964 756.014C275.961 755.71 275.773 755.482 275.4 755.33C275.028 755.175 274.485 755.098 273.772 755.098C273.062 755.098 272.521 755.175 272.148 755.33C271.778 755.482 271.594 755.71 271.597 756.014ZM273.925 749.367H275.927V747.407H277.418V753.664H275.927V750.59H273.925V749.367ZM287.703 755.483H286.203V754.63H284.164V753.61H286.203V747.424H287.703V755.483ZM278.624 752.152C280.028 752.141 281.272 752.116 282.358 752.077C283.443 752.036 284.482 751.952 285.474 751.825L285.561 752.898C284.793 753.028 283.934 753.128 282.984 753.2V755.227H281.484V756.689H287.939V757.895H279.988V754.709H281.484V753.287C280.704 753.318 279.811 753.333 278.803 753.333L278.624 752.152ZM279.416 749.699C279.416 749.326 279.529 748.994 279.756 748.704C279.982 748.412 280.298 748.185 280.704 748.025C281.111 747.865 281.575 747.785 282.097 747.785C282.611 747.785 283.069 747.865 283.472 748.025C283.876 748.185 284.191 748.412 284.417 748.704C284.646 748.994 284.761 749.326 284.761 749.699C284.761 750.075 284.646 750.405 284.417 750.689C284.191 750.974 283.876 751.193 283.472 751.348C283.072 751.503 282.613 751.58 282.097 751.58C281.572 751.58 281.106 751.503 280.7 751.348C280.294 751.193 279.978 750.974 279.751 750.689C279.528 750.405 279.416 750.075 279.416 749.699ZM280.833 749.699C280.83 749.953 280.943 750.151 281.173 750.291C281.402 750.43 281.71 750.499 282.097 750.499C282.467 750.499 282.765 750.43 282.992 750.291C283.221 750.151 283.337 749.953 283.34 749.699C283.337 749.439 283.221 749.238 282.992 749.094C282.765 748.95 282.467 748.878 282.097 748.878C281.71 748.878 281.402 748.95 281.173 749.094C280.943 749.238 280.83 749.439 280.833 749.699Z" fill="#AEAEAE"/>
<path d="M301.78 750.026H303.214V751.236H301.78V753.822H300.28V747.407H301.78V750.026ZM293.634 748.083H295.117V749.504H297.305V748.083H298.797V753.258H293.634V748.083ZM294.599 754.286H301.78V758.081H300.28V755.479H294.599V754.286ZM297.305 752.077V750.664H295.117V752.077H297.305ZM313.287 754.054H303.558V752.865H313.287V754.054ZM304.532 749.919C304.532 749.471 304.691 749.083 305.008 748.754C305.329 748.425 305.782 748.174 306.368 748C306.953 747.823 307.636 747.735 308.415 747.735C309.191 747.735 309.87 747.823 310.453 748C311.039 748.174 311.492 748.425 311.812 748.754C312.133 749.083 312.293 749.471 312.293 749.919C312.293 750.369 312.133 750.761 311.812 751.095C311.492 751.427 311.039 751.682 310.453 751.862C309.87 752.039 309.191 752.127 308.415 752.127C307.636 752.127 306.953 752.039 306.368 751.862C305.782 751.682 305.329 751.427 305.008 751.095C304.691 750.761 304.532 750.369 304.532 749.919ZM304.731 754.771H306.231V756.689H312.177V757.895H304.731V754.771ZM306.086 749.919C306.083 750.247 306.281 750.496 306.678 750.664C307.076 750.83 307.645 750.913 308.386 750.913C309.145 750.913 309.729 750.83 310.138 750.664C310.547 750.499 310.752 750.25 310.752 749.919C310.752 749.598 310.547 749.352 310.138 749.181C309.732 749.01 309.158 748.923 308.415 748.92C307.671 748.923 307.097 749.01 306.691 749.181C306.285 749.352 306.083 749.598 306.086 749.919ZM323.527 754.493H319.37V758.081H317.891V754.493H313.797V753.296H323.527V754.493ZM314.274 751.506C314.97 751.423 315.572 751.262 316.08 751.025C316.591 750.787 316.989 750.504 317.274 750.175C317.561 749.847 317.732 749.503 317.788 749.144H314.676V747.975H322.652V749.144H319.544C319.594 749.503 319.76 749.847 320.042 750.175C320.326 750.504 320.724 750.787 321.235 751.025C321.749 751.262 322.358 751.423 323.062 751.506L322.52 752.678C321.6 752.554 320.808 752.305 320.145 751.932C319.485 751.557 318.991 751.09 318.662 750.532C318.333 751.09 317.839 751.557 317.178 751.932C316.521 752.305 315.736 752.554 314.825 752.678L314.274 751.506ZM325.267 759.465H324.024L324.604 756.13H326.278L325.267 759.465ZM338.522 753.449H337.022V747.424H338.522V753.449ZM329.758 750.478C329.758 749.981 329.884 749.537 330.135 749.148C330.389 748.758 330.739 748.454 331.184 748.236C331.628 748.018 332.126 747.909 332.675 747.909C333.225 747.909 333.721 748.018 334.163 748.236C334.608 748.454 334.956 748.758 335.207 749.148C335.461 749.537 335.588 749.981 335.588 750.478C335.588 750.961 335.461 751.398 335.207 751.787C334.953 752.174 334.603 752.478 334.159 752.699C333.717 752.92 333.222 753.03 332.675 753.03C332.126 753.03 331.628 752.92 331.184 752.699C330.739 752.478 330.389 752.174 330.135 751.787C329.884 751.398 329.758 750.961 329.758 750.478ZM331.221 750.478C331.218 750.74 331.278 750.97 331.399 751.166C331.523 751.359 331.696 751.508 331.917 751.613C332.138 751.718 332.391 751.771 332.675 751.771C332.952 751.771 333.199 751.718 333.417 751.613C333.635 751.508 333.805 751.359 333.927 751.166C334.051 750.97 334.113 750.74 334.113 750.478C334.113 750.207 334.051 749.972 333.927 749.773C333.805 749.575 333.635 749.423 333.417 749.318C333.202 749.213 332.954 749.162 332.675 749.164C332.391 749.162 332.138 749.213 331.917 749.318C331.696 749.423 331.523 749.575 331.399 749.773C331.278 749.972 331.218 750.207 331.221 750.478ZM331.374 753.93H338.522V757.961H331.374V753.93ZM337.055 756.764V755.115H332.849V756.764H337.055ZM345.425 752.517H349.565V753.714H339.836V752.517H343.942V751.232H345.425V752.517ZM340.254 750.673C340.89 750.612 341.442 750.501 341.912 750.341C342.384 750.181 342.76 749.989 343.039 749.765C343.32 749.541 343.508 749.302 343.602 749.048H340.718V747.867H348.686V749.048H345.782C345.876 749.302 346.062 749.541 346.341 749.765C346.623 749.989 347 750.181 347.472 750.341C347.945 750.501 348.501 750.612 349.142 750.673L348.612 751.837C347.628 751.74 346.8 751.519 346.126 751.174C345.454 750.829 344.974 750.394 344.684 749.869C344.394 750.396 343.916 750.833 343.25 751.178C342.584 751.523 341.76 751.743 340.776 751.837L340.254 750.673ZM340.946 756.188C340.946 755.787 341.094 755.448 341.39 755.169C341.688 754.887 342.116 754.673 342.674 754.526C343.235 754.377 343.903 754.302 344.68 754.302C345.456 754.302 346.122 754.376 346.677 754.522C347.232 754.669 347.656 754.883 347.949 755.164C348.244 755.446 348.394 755.787 348.396 756.188C348.394 756.591 348.244 756.934 347.949 757.215C347.656 757.5 347.232 757.714 346.677 757.858C346.122 758.004 345.456 758.077 344.68 758.077C343.903 758.077 343.235 758.004 342.674 757.858C342.116 757.714 341.688 757.5 341.39 757.215C341.094 756.934 340.946 756.591 340.946 756.188ZM342.471 756.188C342.468 756.45 342.649 756.645 343.014 756.772C343.378 756.899 343.934 756.963 344.68 756.963C345.417 756.963 345.97 756.899 346.337 756.772C346.707 756.645 346.894 756.45 346.896 756.188C346.894 755.936 346.707 755.75 346.337 755.628C345.967 755.504 345.414 755.442 344.68 755.442C343.934 755.442 343.378 755.504 343.014 755.628C342.649 755.75 342.468 755.936 342.471 756.188ZM359.062 755.55H357.571V753.536H356.124V752.351H357.571V751.282H356.124V750.076H357.571V747.424H359.062V755.55ZM350.095 748.543H352.391V747.399H353.879V748.543H356.021V749.72H350.095V748.543ZM350.622 752.193C350.619 751.79 350.724 751.43 350.937 751.112C351.152 750.794 351.45 750.546 351.832 750.366C352.213 750.186 352.642 750.097 353.12 750.097C353.601 750.097 354.033 750.186 354.417 750.366C354.801 750.543 355.101 750.791 355.316 751.112C355.535 751.43 355.645 751.79 355.648 752.193C355.645 752.597 355.535 752.957 355.316 753.275C355.101 753.593 354.801 753.84 354.417 754.017C354.036 754.193 353.604 754.282 353.12 754.282C352.642 754.282 352.213 754.193 351.832 754.017C351.45 753.84 351.152 753.593 350.937 753.275C350.724 752.957 350.619 752.597 350.622 752.193ZM351.96 754.854H353.473V756.689H359.29V757.895H351.96V754.854ZM352.014 752.193C352.011 752.494 352.111 752.728 352.312 752.894C352.514 753.059 352.783 753.142 353.12 753.142C353.452 753.142 353.721 753.059 353.928 752.894C354.136 752.728 354.24 752.494 354.243 752.193C354.24 751.903 354.136 751.677 353.928 751.514C353.721 751.348 353.452 751.262 353.12 751.257C352.786 751.262 352.517 751.347 352.312 751.51C352.111 751.673 352.011 751.901 352.014 752.193ZM361.545 759.465H360.301L360.882 756.13H362.556L361.545 759.465ZM374.862 753.747H373.37V751.228H371.704V750.01H373.37V747.407H374.862V753.747ZM365.804 752.566C366.362 752.381 366.831 752.116 367.212 751.771C367.594 751.425 367.88 751.036 368.07 750.602C368.264 750.169 368.366 749.721 368.377 749.26H366.239V748.058H372.023V749.26H369.898C369.911 749.688 370.009 750.099 370.192 750.494C370.374 750.89 370.646 751.244 371.008 751.559C371.373 751.874 371.82 752.12 372.351 752.297L371.613 753.474C371.041 753.286 370.549 753.011 370.138 752.649C369.729 752.285 369.403 751.855 369.16 751.36C368.92 751.921 368.583 752.407 368.149 752.819C367.718 753.228 367.195 753.539 366.578 753.751L365.804 752.566ZM367.552 756.039C367.552 755.61 367.699 755.243 367.991 754.936C368.287 754.627 368.71 754.391 369.259 754.228C369.809 754.065 370.461 753.983 371.215 753.983C371.972 753.983 372.625 754.065 373.175 754.228C373.728 754.391 374.152 754.627 374.447 754.936C374.743 755.243 374.891 755.61 374.891 756.039C374.891 756.467 374.743 756.834 374.447 757.141C374.152 757.45 373.728 757.686 373.175 757.849C372.625 758.012 371.972 758.094 371.215 758.094C370.461 758.094 369.808 758.011 369.255 757.845C368.706 757.682 368.284 757.448 367.991 757.141C367.699 756.834 367.552 756.467 367.552 756.039ZM369.04 756.039C369.037 756.34 369.218 756.568 369.583 756.722C369.95 756.874 370.485 756.95 371.186 756.95C371.91 756.95 372.46 756.874 372.835 756.722C373.214 756.57 373.404 756.343 373.407 756.039C373.404 755.735 373.217 755.506 372.844 755.351C372.471 755.196 371.928 755.119 371.215 755.119C370.503 755.119 369.961 755.196 369.591 755.351C369.221 755.506 369.037 755.735 369.04 756.039ZM385.842 754.493H381.686V758.081H380.207V754.493H376.113V753.296H385.842V754.493ZM376.59 751.506C377.286 751.423 377.888 751.262 378.396 751.025C378.907 750.787 379.305 750.504 379.59 750.175C379.877 749.847 380.048 749.503 380.103 749.144H376.992V747.975H384.968V749.144H381.86C381.91 749.503 382.076 749.847 382.358 750.175C382.642 750.504 383.04 750.787 383.551 751.025C384.065 751.262 384.674 751.423 385.378 751.506L384.836 752.678C383.916 752.554 383.124 752.305 382.461 751.932C381.801 751.557 381.307 751.09 380.978 750.532C380.649 751.09 380.155 751.557 379.494 751.932C378.837 752.305 378.052 752.554 377.141 752.678L376.59 751.506ZM395.34 755.222H393.848V752.695H391.403C391.144 752.971 390.834 753.185 390.475 753.337C390.116 753.489 389.732 753.565 389.323 753.565C388.79 753.565 388.307 753.446 387.873 753.209C387.439 752.968 387.098 752.638 386.849 752.218C386.604 751.798 386.482 751.329 386.485 750.809C386.482 750.285 386.604 749.812 386.849 749.392C387.098 748.97 387.439 748.64 387.873 748.402C388.307 748.162 388.79 748.041 389.323 748.041C389.732 748.041 390.116 748.119 390.475 748.273C390.837 748.425 391.148 748.64 391.407 748.916H393.848V747.424H395.34V755.222ZM387.902 750.809C387.902 751.102 387.961 751.356 388.08 751.572C388.202 751.787 388.369 751.953 388.582 752.069C388.797 752.182 389.044 752.24 389.323 752.243C389.586 752.24 389.822 752.182 390.032 752.069C390.245 751.953 390.412 751.787 390.533 751.572C390.657 751.354 390.721 751.099 390.724 750.809C390.721 750.517 390.657 750.262 390.533 750.047C390.412 749.829 390.245 749.662 390.032 749.546C389.822 749.43 389.586 749.372 389.323 749.372C389.044 749.372 388.797 749.43 388.582 749.546C388.369 749.662 388.202 749.827 388.08 750.043C387.961 750.258 387.902 750.514 387.902 750.809ZM388.262 754.439H389.754V756.689H395.593V757.895H388.262V754.439ZM392.058 750.113C392.116 750.331 392.145 750.564 392.145 750.809C392.145 751.044 392.117 751.272 392.062 751.493H393.848V750.113H392.058ZM397.822 759.465H396.579L397.159 756.13H398.833L397.822 759.465ZM410.613 750.693H412.047V751.92H410.613V755.388H409.113V747.424H410.613V750.693ZM402.147 748.543H404.571V747.407H406.063V748.543H408.479V749.72H402.147V748.543ZM402.67 752.164C402.67 751.758 402.781 751.399 403.005 751.087C403.229 750.772 403.541 750.529 403.942 750.358C404.345 750.184 404.803 750.097 405.317 750.097C405.826 750.097 406.279 750.184 406.676 750.358C407.074 750.529 407.384 750.772 407.605 751.087C407.828 751.399 407.94 751.758 407.94 752.164C407.94 752.568 407.828 752.924 407.605 753.233C407.384 753.54 407.074 753.778 406.676 753.946C406.281 754.115 405.828 754.199 405.317 754.199C404.801 754.199 404.342 754.115 403.942 753.946C403.541 753.778 403.229 753.54 403.005 753.233C402.781 752.924 402.67 752.568 402.67 752.164ZM403.693 754.771H405.185V756.689H410.994V757.895H403.693V754.771ZM404.124 752.164C404.124 752.452 404.232 752.674 404.447 752.831C404.663 752.986 404.953 753.064 405.317 753.064C405.682 753.064 405.973 752.986 406.192 752.831C406.41 752.674 406.52 752.452 406.523 752.164C406.52 751.872 406.41 751.645 406.192 751.485C405.973 751.322 405.682 751.239 405.317 751.236C404.953 751.239 404.663 751.322 404.447 751.485C404.232 751.645 404.124 751.872 404.124 752.164ZM416.543 749.827C416.54 750.496 416.639 751.141 416.841 751.762C417.043 752.384 417.345 752.936 417.748 753.42C418.154 753.903 418.65 754.268 419.236 754.514L418.353 755.711C417.759 755.441 417.248 755.054 416.82 754.551C416.392 754.048 416.054 753.457 415.805 752.778C415.556 753.521 415.21 754.167 414.765 754.717C414.323 755.267 413.786 755.685 413.153 755.972L412.25 754.729C412.852 754.475 413.36 754.097 413.775 753.594C414.189 753.091 414.5 752.515 414.707 751.866C414.917 751.214 415.023 750.535 415.026 749.827V748.232H416.543V749.827ZM419.804 747.407H421.316V758.106H419.804V747.407ZM432.359 754.108H422.63V752.914H426.728V752.057C426.09 752.001 425.536 751.88 425.066 751.692C424.597 751.501 424.235 751.251 423.981 750.942C423.729 750.633 423.604 750.275 423.604 749.869C423.604 749.427 423.762 749.041 424.08 748.713C424.4 748.381 424.854 748.127 425.439 747.95C426.028 747.771 426.71 747.681 427.486 747.681C428.26 747.681 428.939 747.771 429.525 747.95C430.11 748.127 430.563 748.381 430.884 748.713C431.204 749.041 431.365 749.427 431.365 749.869C431.365 750.275 431.236 750.633 430.979 750.942C430.725 751.251 430.362 751.501 429.889 751.692C429.42 751.88 428.866 752.001 428.228 752.057V752.914H432.359V754.108ZM423.802 754.771H425.302V756.689H431.249V757.895H423.802V754.771ZM425.157 749.869C425.155 750.206 425.354 750.459 425.754 750.627C426.155 750.796 426.732 750.881 427.486 750.884C428.237 750.881 428.815 750.796 429.218 750.627C429.621 750.459 429.823 750.206 429.823 749.869C429.823 749.656 429.731 749.475 429.545 749.326C429.363 749.177 429.097 749.064 428.746 748.986C428.398 748.909 427.978 748.87 427.486 748.87C426.994 748.87 426.573 748.909 426.222 748.986C425.874 749.064 425.609 749.177 425.427 749.326C425.244 749.475 425.155 749.656 425.157 749.869ZM434.099 759.465H432.856L433.437 756.13H435.111L434.099 759.465ZM443.273 754.754C444.06 754.754 444.73 754.819 445.283 754.949C445.838 755.079 446.261 755.268 446.551 755.517C446.841 755.765 446.987 756.069 446.99 756.428C446.987 756.787 446.841 757.09 446.551 757.336C446.261 757.584 445.839 757.771 445.287 757.895C444.734 758.019 444.063 758.08 443.273 758.077C442.475 758.08 441.796 758.019 441.238 757.895C440.683 757.771 440.261 757.586 439.97 757.34C439.683 757.094 439.54 756.79 439.54 756.428C439.54 756.069 439.685 755.765 439.975 755.517C440.265 755.268 440.687 755.079 441.243 754.949C441.801 754.819 442.477 754.754 443.273 754.754ZM438.429 753.184H442.535V752.633C441.616 752.577 440.912 752.423 440.426 752.169C439.94 751.914 439.698 751.569 439.701 751.133C439.698 750.627 440.005 750.244 440.621 749.985C441.24 749.722 442.128 749.593 443.285 749.595C444.451 749.593 445.341 749.722 445.954 749.985C446.567 750.244 446.874 750.627 446.874 751.133C446.874 751.572 446.631 751.919 446.145 752.173C445.661 752.427 444.958 752.58 444.035 752.633V753.184H448.158V754.344H438.429V753.184ZM438.893 748.174H442.535V747.329H444.035V748.174H447.649V749.301H438.893V748.174ZM441.073 756.428C441.07 756.627 441.247 756.772 441.603 756.863C441.959 756.954 442.516 756.997 443.273 756.992C444.03 756.997 444.585 756.954 444.939 756.863C445.295 756.772 445.475 756.627 445.477 756.428C445.475 756.229 445.294 756.083 444.935 755.989C444.578 755.892 444.024 755.843 443.273 755.84C442.519 755.843 441.962 755.892 441.603 755.989C441.247 756.083 441.07 756.229 441.073 756.428ZM441.301 751.133C441.298 751.301 441.459 751.427 441.785 751.51C442.111 751.593 442.611 751.635 443.285 751.638C443.965 751.635 444.465 751.594 444.785 751.514C445.109 751.431 445.272 751.304 445.274 751.133C445.272 750.945 445.111 750.809 444.794 750.727C444.476 750.641 443.973 750.598 443.285 750.598C442.603 750.598 442.1 750.641 441.777 750.727C441.457 750.809 441.298 750.945 441.301 751.133ZM452.704 749.827C452.701 750.515 452.794 751.173 452.982 751.8C453.17 752.424 453.457 752.978 453.844 753.461C454.23 753.942 454.71 754.305 455.281 754.551L454.378 755.74C453.798 755.461 453.305 755.07 452.899 754.568C452.495 754.062 452.179 753.47 451.95 752.79C451.712 753.514 451.384 754.146 450.964 754.688C450.547 755.227 450.042 755.642 449.451 755.935L448.515 754.721C449.1 754.456 449.592 754.069 449.99 753.561C450.391 753.052 450.689 752.477 450.885 751.833C451.081 751.186 451.181 750.518 451.183 749.827V748.232H452.704V749.827ZM454.096 750.768H456.185V747.407H457.664V758.106H456.185V751.974H454.096V750.768ZM461.87 747.988C462.29 747.988 462.682 748.061 463.047 748.207C463.414 748.351 463.728 748.555 463.987 748.82H466.403V747.407H467.895V753.664H466.403V752.388H463.967C463.707 752.648 463.398 752.849 463.038 752.993C462.679 753.137 462.293 753.207 461.878 753.204C461.345 753.204 460.862 753.093 460.428 752.869C459.994 752.645 459.653 752.334 459.404 751.936C459.159 751.539 459.037 751.093 459.04 750.598C459.037 750.101 459.159 749.653 459.404 749.256C459.653 748.858 459.993 748.547 460.424 748.323C460.855 748.099 461.337 747.988 461.87 747.988ZM460.457 750.598C460.457 750.866 460.516 751.102 460.635 751.307C460.757 751.511 460.925 751.669 461.141 751.779C461.356 751.887 461.602 751.941 461.878 751.941C462.146 751.941 462.385 751.887 462.595 751.779C462.808 751.669 462.974 751.511 463.092 751.307C463.214 751.102 463.276 750.866 463.279 750.598C463.276 750.322 463.214 750.083 463.092 749.881C462.974 749.68 462.809 749.526 462.599 749.421C462.389 749.316 462.149 749.265 461.878 749.268C461.599 749.265 461.352 749.316 461.137 749.421C460.924 749.526 460.757 749.68 460.635 749.881C460.516 750.083 460.457 750.322 460.457 750.598ZM460.585 755.981C460.585 755.544 460.733 755.169 461.029 754.854C461.324 754.536 461.747 754.294 462.297 754.128C462.849 753.963 463.5 753.88 464.248 753.88C464.997 753.88 465.648 753.963 466.2 754.128C466.753 754.294 467.178 754.536 467.476 754.854C467.775 755.169 467.924 755.544 467.924 755.981C467.924 756.417 467.775 756.793 467.476 757.108C467.178 757.423 466.753 757.663 466.2 757.829C465.648 757.994 464.997 758.077 464.248 758.077C463.5 758.077 462.849 757.994 462.297 757.829C461.747 757.663 461.324 757.423 461.029 757.108C460.733 756.793 460.585 756.417 460.585 755.981ZM462.052 755.981C462.05 756.287 462.235 756.519 462.608 756.677C462.98 756.834 463.518 756.913 464.219 756.913C464.954 756.913 465.511 756.836 465.889 756.681C466.268 756.523 466.458 756.29 466.461 755.981C466.458 755.663 466.269 755.424 465.893 755.264C465.521 755.104 464.972 755.023 464.248 755.023C463.536 755.023 462.99 755.105 462.612 755.268C462.236 755.428 462.05 755.666 462.052 755.981ZM466.403 751.195V750.006H464.634C464.678 750.21 464.7 750.407 464.7 750.598C464.7 750.8 464.677 750.999 464.63 751.195H466.403Z" fill="#AEAEAE"/>
<path d="M254.104 775.347C254.101 775.963 254.093 776.494 254.079 776.942C254.065 777.387 254.026 777.907 253.963 778.504C253.902 779.101 253.807 779.75 253.677 780.452L252.169 780.294C252.296 779.67 252.39 779.079 252.45 778.521C252.514 777.96 252.554 777.459 252.57 777.017C252.59 776.572 252.601 776.075 252.604 775.525H246.322V774.336H254.104V775.347ZM245.319 781.558H248.8V777.891H250.283V781.558H255.048V782.772H245.319V781.558ZM264.72 779.664H263.303V777.091H262.345V779.623H260.937V773.61H262.345V775.873H263.303V773.424H264.72V779.664ZM255.434 778.633C256.428 778.268 257.189 777.814 257.717 777.269C258.247 776.722 258.568 776.081 258.678 775.347H255.956V774.149H260.203C260.206 775.497 259.876 776.63 259.213 777.547C258.553 778.464 257.529 779.196 256.142 779.743L255.434 778.633ZM257.278 780.083H264.72V784.081H263.232V781.285H257.278V780.083ZM275.539 779.876H271.528V781.715H270.049V779.876H265.785V778.682H275.539V779.876ZM266.928 780.787H268.42V782.689H274.466V783.895H266.928V780.787ZM266.999 773.876H274.292V777.812H266.999V773.876ZM272.821 776.648V775.04H268.462V776.648H272.821ZM279.484 774.124C280.045 774.124 280.549 774.236 280.996 774.46C281.447 774.684 281.8 774.994 282.057 775.392C282.314 775.79 282.444 776.24 282.447 776.743C282.444 777.246 282.314 777.696 282.057 778.094C281.8 778.492 281.447 778.802 280.996 779.026C280.549 779.25 280.045 779.362 279.484 779.362C278.929 779.362 278.426 779.25 277.976 779.026C277.525 778.802 277.17 778.492 276.911 778.094C276.654 777.696 276.525 777.246 276.525 776.743C276.525 776.243 276.654 775.794 276.911 775.396C277.17 774.996 277.525 774.684 277.976 774.46C278.426 774.236 278.929 774.124 279.484 774.124ZM276.082 780.709C277.366 780.709 278.571 780.686 279.695 780.642C280.819 780.598 281.889 780.506 282.902 780.365L283.014 781.442C282.285 781.583 281.528 781.689 280.744 781.761C279.959 781.83 279.22 781.874 278.527 781.894C277.833 781.913 277.075 781.923 276.252 781.923L276.082 780.709ZM278.009 776.743C278.009 777.017 278.072 777.254 278.199 777.456C278.326 777.655 278.502 777.807 278.726 777.912C278.949 778.017 279.202 778.069 279.484 778.069C279.771 778.069 280.028 778.017 280.255 777.912C280.481 777.807 280.659 777.655 280.789 777.456C280.922 777.257 280.988 777.019 280.988 776.743C280.988 776.472 280.922 776.238 280.789 776.039C280.659 775.837 280.481 775.684 280.255 775.579C280.028 775.471 279.771 775.417 279.484 775.417C279.202 775.417 278.949 775.471 278.726 775.579C278.502 775.684 278.326 775.837 278.199 776.039C278.072 776.238 278.009 776.472 278.009 776.743ZM283.507 773.407H284.995V784.106H283.507V773.407Z" fill="#AEAEAE"/>
<path d="M293.659 781.728L296.709 778.923C297.01 778.633 297.242 778.394 297.405 778.206C297.57 778.015 297.699 777.825 297.79 777.634C297.881 777.441 297.927 777.235 297.927 777.017C297.927 776.771 297.867 776.557 297.749 776.374C297.633 776.189 297.472 776.048 297.268 775.952C297.066 775.852 296.837 775.802 296.58 775.802C296.315 775.802 296.081 775.856 295.88 775.964C295.681 776.069 295.528 776.221 295.42 776.42C295.312 776.619 295.258 776.852 295.258 777.12H293.584C293.584 776.573 293.71 776.095 293.961 775.686C294.213 775.275 294.566 774.957 295.022 774.733C295.478 774.51 296.001 774.398 296.593 774.398C297.192 774.398 297.721 774.504 298.18 774.717C298.638 774.93 298.993 775.227 299.244 775.608C299.499 775.986 299.626 776.419 299.626 776.905C299.623 777.239 299.557 777.561 299.427 777.87C299.3 778.177 299.076 778.518 298.756 778.894C298.438 779.269 297.988 779.721 297.405 780.249L296.112 781.496V781.554H299.742V783H293.663L293.659 781.728ZM300.851 781.728L303.901 778.923C304.202 778.633 304.434 778.394 304.597 778.206C304.763 778.015 304.891 777.825 304.982 777.634C305.073 777.441 305.119 777.235 305.119 777.017C305.119 776.771 305.06 776.557 304.941 776.374C304.825 776.189 304.665 776.048 304.46 775.952C304.259 775.852 304.029 775.802 303.772 775.802C303.507 775.802 303.274 775.856 303.072 775.964C302.873 776.069 302.72 776.221 302.612 776.42C302.504 776.619 302.451 776.852 302.451 777.12H300.776C300.776 776.573 300.902 776.095 301.154 775.686C301.405 775.275 301.759 774.957 302.214 774.733C302.67 774.51 303.194 774.398 303.785 774.398C304.384 774.398 304.913 774.504 305.372 774.717C305.83 774.93 306.185 775.227 306.437 775.608C306.691 775.986 306.818 776.419 306.818 776.905C306.815 777.239 306.749 777.561 306.619 777.87C306.492 778.177 306.268 778.518 305.948 778.894C305.63 779.269 305.18 779.721 304.597 780.249L303.304 781.496V781.554H306.934V783H300.855L300.851 781.728ZM311.346 783.182C310.639 783.182 310.029 783.008 309.518 782.66C309.007 782.309 308.615 781.804 308.342 781.144C308.071 780.481 307.937 779.688 307.94 778.765C307.94 777.848 308.076 777.062 308.35 776.407C308.623 775.753 309.014 775.254 309.523 774.912C310.034 774.569 310.641 774.398 311.346 774.398C312.05 774.398 312.658 774.57 313.169 774.916C313.68 775.258 314.071 775.757 314.342 776.412C314.615 777.066 314.752 777.851 314.752 778.765C314.752 779.691 314.615 780.485 314.342 781.148C314.071 781.808 313.68 782.312 313.169 782.66C312.658 783.008 312.05 783.182 311.346 783.182ZM309.734 778.786C309.734 779.424 309.799 779.963 309.929 780.402C310.061 780.838 310.248 781.167 310.488 781.388C310.731 781.606 311.017 781.715 311.346 781.715C311.677 781.715 311.963 781.605 312.203 781.384C312.444 781.163 312.629 780.833 312.759 780.394C312.891 779.952 312.958 779.409 312.958 778.765C312.958 778.13 312.891 777.594 312.759 777.157C312.626 776.721 312.44 776.394 312.199 776.175C311.959 775.957 311.674 775.848 311.346 775.848C311.014 775.848 310.727 775.959 310.484 776.18C310.244 776.401 310.058 776.731 309.929 777.17C309.799 777.609 309.734 778.148 309.734 778.786ZM319.136 783.182C318.428 783.182 317.819 783.008 317.308 782.66C316.797 782.309 316.405 781.804 316.131 781.144C315.861 780.481 315.727 779.688 315.73 778.765C315.73 777.848 315.866 777.062 316.14 776.407C316.413 775.753 316.804 775.254 317.312 774.912C317.823 774.569 318.431 774.398 319.136 774.398C319.84 774.398 320.448 774.57 320.959 774.916C321.47 775.258 321.861 775.757 322.131 776.412C322.405 777.066 322.542 777.851 322.542 778.765C322.542 779.691 322.405 780.485 322.131 781.148C321.861 781.808 321.47 782.312 320.959 782.66C320.448 783.008 319.84 783.182 319.136 783.182ZM317.524 778.786C317.524 779.424 317.589 779.963 317.719 780.402C317.851 780.838 318.038 781.167 318.278 781.388C318.521 781.606 318.807 781.715 319.136 781.715C319.467 781.715 319.753 781.605 319.993 781.384C320.234 781.163 320.419 780.833 320.549 780.394C320.681 779.952 320.748 779.409 320.748 778.765C320.748 778.13 320.681 777.594 320.549 777.157C320.416 776.721 320.23 776.394 319.989 776.175C319.749 775.957 319.464 775.848 319.136 775.848C318.804 775.848 318.517 775.959 318.274 776.18C318.033 776.401 317.848 776.731 317.719 777.17C317.589 777.609 317.524 778.148 317.524 778.786ZM326.926 783.182C326.218 783.182 325.609 783.008 325.098 782.66C324.587 782.309 324.195 781.804 323.921 781.144C323.651 780.481 323.517 779.688 323.519 778.765C323.519 777.848 323.656 777.062 323.93 776.407C324.203 775.753 324.594 775.254 325.102 774.912C325.613 774.569 326.221 774.398 326.926 774.398C327.63 774.398 328.238 774.57 328.749 774.916C329.26 775.258 329.651 775.757 329.921 776.412C330.195 777.066 330.332 777.851 330.332 778.765C330.332 779.691 330.195 780.485 329.921 781.148C329.651 781.808 329.26 782.312 328.749 782.66C328.238 783.008 327.63 783.182 326.926 783.182ZM325.314 778.786C325.314 779.424 325.379 779.963 325.508 780.402C325.641 780.838 325.827 781.167 326.068 781.388C326.311 781.606 326.597 781.715 326.926 781.715C327.257 781.715 327.543 781.605 327.783 781.384C328.024 781.163 328.209 780.833 328.338 780.394C328.471 779.952 328.537 779.409 328.537 778.765C328.537 778.13 328.471 777.594 328.338 777.157C328.206 776.721 328.019 776.394 327.779 776.175C327.539 775.957 327.254 775.848 326.926 775.848C326.594 775.848 326.307 775.959 326.064 776.18C325.823 776.401 325.638 776.731 325.508 777.17C325.379 777.609 325.314 778.148 325.314 778.786ZM334.728 783.116C334.098 783.116 333.525 782.981 333.008 782.71C332.492 782.436 332.075 781.99 331.757 781.372C331.439 780.75 331.28 779.943 331.28 778.952C331.283 778.01 331.427 777.196 331.711 776.511C331.999 775.826 332.405 775.302 332.929 774.941C333.454 774.579 334.069 774.398 334.773 774.398C335.329 774.398 335.827 774.506 336.269 774.721C336.711 774.936 337.066 775.232 337.334 775.608C337.602 775.983 337.765 776.405 337.823 776.872H336.087C336.015 776.573 335.863 776.338 335.631 776.167C335.399 775.996 335.113 775.91 334.773 775.91C334.395 775.91 334.073 776.019 333.808 776.238C333.545 776.453 333.347 776.764 333.211 777.17C333.079 777.573 333.011 778.054 333.008 778.612H333.083C333.279 778.239 333.572 777.948 333.961 777.738C334.351 777.525 334.783 777.419 335.258 777.419C335.761 777.419 336.214 777.536 336.617 777.771C337.023 778.006 337.341 778.331 337.57 778.749C337.8 779.166 337.914 779.635 337.914 780.157C337.914 780.727 337.78 781.236 337.512 781.686C337.247 782.134 336.873 782.485 336.389 782.739C335.906 782.99 335.352 783.116 334.728 783.116ZM333.186 780.215C333.186 780.489 333.251 780.742 333.381 780.974C333.514 781.206 333.695 781.39 333.924 781.525C334.156 781.66 334.414 781.728 334.699 781.728C334.983 781.728 335.24 781.662 335.47 781.529C335.699 781.394 335.878 781.21 336.008 780.978C336.138 780.746 336.203 780.489 336.203 780.207C336.203 779.928 336.138 779.674 336.008 779.445C335.881 779.215 335.704 779.035 335.478 778.902C335.251 778.769 334.996 778.703 334.711 778.703C334.429 778.703 334.173 778.771 333.941 778.906C333.708 779.041 333.525 779.225 333.389 779.457C333.257 779.686 333.189 779.939 333.186 780.215ZM342.079 774.398C342.706 774.398 343.276 774.533 343.79 774.804C344.307 775.075 344.724 775.518 345.042 776.134C345.359 776.75 345.519 777.55 345.522 778.533C345.522 779.483 345.38 780.304 345.095 780.994C344.811 781.682 344.405 782.209 343.877 782.573C343.352 782.935 342.736 783.116 342.029 783.116C341.471 783.116 340.971 783.008 340.529 782.793C340.087 782.577 339.732 782.28 339.464 781.902C339.196 781.521 339.033 781.091 338.975 780.613H340.711C340.783 780.925 340.935 781.169 341.167 781.343C341.399 781.517 341.687 781.604 342.029 781.604C342.408 781.604 342.728 781.494 342.99 781.276C343.256 781.058 343.456 780.746 343.591 780.34C343.727 779.931 343.796 779.443 343.798 778.877H343.72C343.59 779.123 343.414 779.336 343.193 779.515C342.973 779.695 342.721 779.833 342.439 779.93C342.158 780.023 341.861 780.07 341.548 780.07C341.046 780.07 340.591 779.953 340.185 779.718C339.782 779.483 339.464 779.159 339.232 778.744C339.003 778.327 338.888 777.859 338.888 777.34C338.888 776.776 339.021 776.272 339.286 775.827C339.554 775.38 339.93 775.03 340.413 774.779C340.897 774.525 341.452 774.398 342.079 774.398ZM340.604 777.273C340.604 777.555 340.667 777.811 340.794 778.04C340.921 778.269 341.098 778.45 341.325 778.583C341.551 778.715 341.808 778.782 342.095 778.782C342.374 778.782 342.63 778.714 342.862 778.579C343.094 778.443 343.276 778.262 343.409 778.036C343.544 777.807 343.612 777.558 343.612 777.29C343.612 777.022 343.547 776.773 343.417 776.544C343.287 776.312 343.108 776.128 342.879 775.993C342.649 775.855 342.392 775.786 342.108 775.786C341.823 775.786 341.566 775.852 341.337 775.985C341.108 776.115 340.928 776.294 340.798 776.523C340.669 776.75 340.604 777 340.604 777.273ZM349.724 783.116C349.108 783.116 348.556 783.011 348.067 782.801C347.58 782.588 347.198 782.293 346.919 781.914C346.643 781.533 346.5 781.099 346.492 780.613H348.27C348.278 780.818 348.346 781 348.473 781.16C348.603 781.318 348.777 781.441 348.995 781.529C349.213 781.615 349.458 781.657 349.728 781.657C350.007 781.657 350.256 781.609 350.474 781.512C350.695 781.416 350.866 781.28 350.988 781.106C351.112 780.93 351.174 780.729 351.174 780.506C351.174 780.276 351.109 780.072 350.98 779.892C350.85 779.713 350.663 779.573 350.42 779.474C350.177 779.374 349.893 779.325 349.567 779.325H348.779V778.019H349.567C349.846 778.019 350.093 777.972 350.308 777.878C350.524 777.785 350.691 777.652 350.81 777.481C350.929 777.309 350.988 777.113 350.988 776.892C350.988 776.68 350.935 776.49 350.83 776.325C350.728 776.159 350.582 776.03 350.391 775.939C350.203 775.848 349.987 775.802 349.741 775.802C349.489 775.802 349.26 775.847 349.053 775.935C348.846 776.023 348.679 776.149 348.551 776.312C348.427 776.472 348.361 776.659 348.353 776.872H346.662C346.67 776.394 346.81 775.967 347.08 775.591C347.351 775.215 347.72 774.923 348.187 774.713C348.654 774.503 349.174 774.398 349.749 774.398C350.324 774.398 350.835 774.503 351.282 774.713C351.73 774.923 352.076 775.21 352.322 775.575C352.568 775.936 352.69 776.34 352.687 776.785C352.69 777.097 352.623 777.378 352.488 777.63C352.355 777.881 352.166 778.088 351.92 778.251C351.677 778.414 351.395 778.525 351.075 778.583V778.649C351.487 778.699 351.837 778.812 352.127 778.989C352.417 779.166 352.637 779.394 352.786 779.673C352.935 779.952 353.009 780.268 353.006 780.622C353.009 781.099 352.869 781.528 352.587 781.906C352.308 782.285 351.919 782.581 351.419 782.797C350.919 783.01 350.354 783.116 349.724 783.116ZM358.234 781.786C357.883 781.786 357.566 781.695 357.281 781.512C356.996 781.33 356.771 781.061 356.606 780.704C356.443 780.348 356.361 779.919 356.361 779.416C356.361 778.905 356.445 778.472 356.614 778.119C356.785 777.762 357.013 777.496 357.298 777.319C357.582 777.142 357.894 777.052 358.234 777.05C358.56 777.052 358.828 777.131 359.038 777.286C359.248 777.438 359.403 777.622 359.502 777.837H359.552V777.178H360.82V780.145C360.822 780.33 360.86 780.468 360.932 780.559C361.003 780.651 361.111 780.696 361.255 780.696C361.434 780.696 361.59 780.631 361.723 780.501C361.856 780.372 361.956 780.188 362.025 779.95C362.097 779.71 362.133 779.43 362.133 779.109C362.133 778.468 361.991 777.905 361.706 777.419C361.425 776.93 361.023 776.552 360.501 776.287C359.981 776.019 359.378 775.885 358.69 775.885C358.005 775.885 357.401 776.036 356.879 776.337C356.36 776.638 355.958 777.057 355.673 777.593C355.389 778.128 355.246 778.738 355.246 779.42C355.246 780.155 355.375 780.787 355.632 781.318C355.889 781.845 356.27 782.25 356.775 782.532C357.284 782.814 357.905 782.954 358.64 782.954C359.066 782.954 359.454 782.935 359.804 782.896C360.155 782.855 360.494 782.79 360.82 782.702V783.932C360.176 784.123 359.459 784.218 358.669 784.218C357.691 784.218 356.851 784.021 356.15 783.626C355.448 783.233 354.914 782.677 354.546 781.956C354.182 781.235 353.999 780.39 353.999 779.42C353.999 778.503 354.198 777.68 354.596 776.95C354.994 776.221 355.549 775.651 356.262 775.239C356.974 774.827 357.784 774.622 358.69 774.622C359.599 774.622 360.409 774.814 361.122 775.198C361.835 775.579 362.39 776.109 362.788 776.789C363.186 777.465 363.385 778.231 363.385 779.084C363.385 779.662 363.292 780.159 363.107 780.576C362.925 780.99 362.665 781.307 362.328 781.525C361.991 781.74 361.596 781.848 361.143 781.848C360.878 781.848 360.636 781.812 360.418 781.74C360.2 781.666 360.019 781.562 359.875 781.43C359.731 781.297 359.636 781.145 359.589 780.974H359.539C359.437 781.195 359.277 781.385 359.059 781.546C358.84 781.706 358.566 781.786 358.234 781.786ZM357.824 779.399C357.824 779.767 357.901 780.059 358.056 780.278C358.211 780.493 358.427 780.601 358.706 780.601C358.985 780.601 359.201 780.496 359.353 780.286C359.505 780.073 359.582 779.782 359.585 779.412C359.582 779.044 359.503 778.757 359.349 778.55C359.197 778.34 358.98 778.233 358.698 778.231C358.422 778.233 358.206 778.341 358.052 778.554C357.9 778.764 357.824 779.046 357.824 779.399ZM366.212 783H364.476V774.514H366.162V777.754H366.237C366.386 777.373 366.621 777.077 366.941 776.867C367.264 776.657 367.664 776.552 368.139 776.552C368.581 776.552 368.967 776.649 369.299 776.843C369.63 777.033 369.886 777.309 370.065 777.671C370.248 778.03 370.339 778.456 370.339 778.948V783H368.603V779.25C368.606 778.855 368.505 778.547 368.3 778.326C368.099 778.105 367.817 777.994 367.455 777.994C367.212 777.994 366.996 778.047 366.809 778.152C366.621 778.257 366.474 778.409 366.369 778.608C366.264 778.807 366.212 779.043 366.212 779.316V783ZM371.241 781.222C371.241 780.565 371.46 780.084 371.9 779.78C372.339 779.477 372.908 779.302 373.607 779.258C373.811 779.244 374.076 779.231 374.402 779.217C374.728 779.2 374.989 779.189 375.185 779.184V778.67C375.183 778.399 375.093 778.191 374.916 778.044C374.742 777.898 374.495 777.825 374.174 777.825C373.879 777.825 373.64 777.887 373.458 778.011C373.275 778.135 373.159 778.308 373.109 778.529H371.464C371.498 778.153 371.626 777.816 371.85 777.518C372.076 777.22 372.39 776.985 372.79 776.814C373.194 776.64 373.669 776.552 374.216 776.552C374.702 776.552 375.148 776.628 375.554 776.78C375.963 776.932 376.292 777.17 376.54 777.493C376.789 777.816 376.913 778.222 376.913 778.711V783H375.268V782.117H375.219C375.058 782.427 374.821 782.671 374.506 782.851C374.194 783.03 373.811 783.12 373.358 783.12C372.946 783.12 372.58 783.048 372.26 782.905C371.942 782.761 371.692 782.547 371.51 782.262C371.33 781.975 371.241 781.628 371.241 781.222ZM372.902 781.169C372.902 781.409 372.988 781.594 373.159 781.724C373.333 781.851 373.564 781.914 373.851 781.914C374.111 781.914 374.343 781.863 374.547 781.761C374.752 781.656 374.911 781.512 375.024 781.33C375.137 781.148 375.194 780.946 375.194 780.725V780.261C374.591 780.291 374.156 780.319 373.888 780.344C373.582 780.369 373.34 780.453 373.163 780.597C372.989 780.738 372.902 780.928 372.902 781.169ZM379.835 783H378.098V776.635H379.752V777.754H379.826C379.973 777.378 380.212 777.084 380.543 776.872C380.875 776.659 381.274 776.552 381.741 776.552C382.18 776.552 382.564 776.649 382.893 776.843C383.224 777.036 383.48 777.314 383.659 777.675C383.842 778.035 383.933 778.459 383.933 778.948V783H382.196V779.25C382.199 778.858 382.1 778.551 381.898 778.33C381.696 778.106 381.416 777.994 381.057 777.994C380.814 777.994 380.6 778.047 380.415 778.152C380.232 778.257 380.09 778.409 379.988 778.608C379.886 778.807 379.835 779.043 379.835 779.316V783ZM387.488 783.104C386.996 783.104 386.554 782.977 386.162 782.722C385.77 782.468 385.46 782.094 385.234 781.599C385.01 781.105 384.898 780.514 384.898 779.826C384.898 779.124 385.013 778.528 385.242 778.036C385.474 777.544 385.785 777.174 386.174 776.925C386.566 776.677 387.003 776.552 387.484 776.552C387.967 776.552 388.354 776.664 388.644 776.888C388.934 777.112 389.152 777.384 389.299 777.704H389.348V774.514H391.08V783H389.373V781.985H389.299C389.149 782.3 388.927 782.565 388.631 782.78C388.339 782.996 387.957 783.104 387.488 783.104ZM386.671 779.818C386.671 780.196 386.724 780.529 386.829 780.816C386.934 781.101 387.089 781.323 387.293 781.483C387.497 781.641 387.743 781.72 388.031 781.72C388.312 781.72 388.554 781.641 388.756 781.483C388.96 781.326 389.116 781.105 389.224 780.82C389.332 780.533 389.386 780.199 389.386 779.818C389.386 779.434 389.332 779.101 389.224 778.819C389.119 778.537 388.964 778.32 388.76 778.169C388.558 778.017 388.315 777.941 388.031 777.941C387.74 777.941 387.493 778.019 387.289 778.177C387.084 778.331 386.93 778.55 386.825 778.831C386.723 779.113 386.671 779.442 386.671 779.818ZM395.21 783.124C394.577 783.124 394.025 782.988 393.552 782.714C393.08 782.441 392.717 782.057 392.462 781.562C392.208 781.065 392.081 780.492 392.081 779.843C392.081 779.188 392.208 778.613 392.462 778.119C392.717 777.622 393.078 777.236 393.548 776.963C394.02 776.689 394.574 776.552 395.21 776.552C395.842 776.552 396.393 776.689 396.863 776.963C397.335 777.236 397.697 777.622 397.949 778.119C398.203 778.613 398.33 779.188 398.33 779.843C398.33 780.492 398.203 781.065 397.949 781.562C397.697 782.057 397.335 782.441 396.863 782.714C396.393 782.988 395.842 783.124 395.21 783.124ZM393.846 779.83C393.846 780.209 393.897 780.546 394 780.841C394.105 781.134 394.259 781.363 394.464 781.529C394.671 781.695 394.922 781.778 395.218 781.778C395.505 781.778 395.75 781.695 395.951 781.529C396.156 781.36 396.309 781.13 396.411 780.837C396.516 780.544 396.569 780.209 396.569 779.83C396.569 779.454 396.516 779.119 396.411 778.823C396.309 778.528 396.156 778.297 395.951 778.131C395.75 777.963 395.505 777.878 395.218 777.878C394.922 777.878 394.671 777.963 394.464 778.131C394.259 778.297 394.105 778.528 394 778.823C393.897 779.116 393.846 779.452 393.846 779.83ZM401.025 783H399.288V776.635H400.942V777.754H401.016C401.163 777.378 401.402 777.084 401.733 776.872C402.065 776.659 402.464 776.552 402.931 776.552C403.37 776.552 403.754 776.649 404.083 776.843C404.414 777.036 404.67 777.314 404.849 777.675C405.031 778.035 405.123 778.459 405.123 778.948V783H403.386V779.25C403.389 778.858 403.29 778.551 403.088 778.33C402.886 778.106 402.606 777.994 402.247 777.994C402.004 777.994 401.79 778.047 401.605 778.152C401.422 778.257 401.28 778.409 401.178 778.608C401.076 778.807 401.025 779.043 401.025 779.316V783ZM409.187 785.519C408.61 785.519 408.106 785.436 407.675 785.271C407.247 785.108 406.91 784.876 406.664 784.575C406.421 784.276 406.283 783.925 406.249 783.522H407.961C408.008 783.771 408.14 783.956 408.359 784.077C408.58 784.202 408.868 784.264 409.225 784.264C409.65 784.264 409.98 784.166 410.215 783.97C410.453 783.773 410.571 783.464 410.571 783.041V781.869H410.497C410.361 782.164 410.142 782.412 409.838 782.61C409.537 782.809 409.15 782.909 408.678 782.909C408.186 782.909 407.744 782.793 407.352 782.561C406.962 782.329 406.654 781.978 406.428 781.508C406.201 781.039 406.088 780.463 406.088 779.78C406.088 779.087 406.203 778.499 406.432 778.015C406.664 777.529 406.975 777.164 407.364 776.921C407.756 776.675 408.193 776.552 408.674 776.552C409.157 776.552 409.544 776.664 409.834 776.888C410.127 777.112 410.346 777.384 410.493 777.704H410.563V776.635H412.278V783.066C412.278 783.597 412.149 784.046 411.889 784.413C411.629 784.78 411.267 785.057 410.803 785.242C410.339 785.427 409.801 785.519 409.187 785.519ZM407.861 779.797C407.861 780.167 407.914 780.488 408.019 780.758C408.124 781.029 408.277 781.238 408.479 781.384C408.683 781.53 408.93 781.604 409.22 781.604C409.505 781.604 409.748 781.532 409.95 781.388C410.154 781.244 410.309 781.037 410.414 780.767C410.522 780.496 410.575 780.173 410.575 779.797C410.575 779.421 410.522 779.094 410.414 778.815C410.309 778.536 410.154 778.32 409.95 778.169C409.748 778.017 409.505 777.941 409.22 777.941C408.93 777.941 408.683 778.018 408.479 778.173C408.274 778.327 408.12 778.546 408.015 778.827C407.912 779.106 407.861 779.43 407.861 779.797ZM414.516 783.104C414.337 783.104 414.171 783.059 414.019 782.971C413.867 782.883 413.747 782.764 413.659 782.615C413.57 782.463 413.527 782.298 413.53 782.122C413.527 781.945 413.57 781.782 413.659 781.633C413.747 781.483 413.867 781.365 414.019 781.276C414.171 781.188 414.337 781.144 414.516 781.144C414.688 781.144 414.848 781.188 414.997 781.276C415.149 781.365 415.27 781.483 415.362 781.633C415.453 781.782 415.498 781.945 415.498 782.122C415.498 782.298 415.453 782.463 415.362 782.615C415.27 782.764 415.149 782.883 414.997 782.971C414.848 783.059 414.688 783.104 414.516 783.104ZM416.453 781.222C416.453 780.565 416.673 780.084 417.112 779.78C417.551 779.477 418.121 779.302 418.819 779.258C419.024 779.244 419.289 779.231 419.615 779.217C419.941 779.2 420.202 779.189 420.398 779.184V778.67C420.395 778.399 420.306 778.191 420.129 778.044C419.955 777.898 419.708 777.825 419.387 777.825C419.092 777.825 418.853 777.887 418.67 778.011C418.488 778.135 418.372 778.308 418.322 778.529H416.677C416.71 778.153 416.839 777.816 417.062 777.518C417.289 777.22 417.603 776.985 418.003 776.814C418.406 776.64 418.882 776.552 419.429 776.552C419.915 776.552 420.361 776.628 420.767 776.78C421.176 776.932 421.504 777.17 421.753 777.493C422.002 777.816 422.126 778.222 422.126 778.711V783H420.481V782.117H420.431C420.271 782.427 420.033 782.671 419.719 782.851C419.406 783.03 419.024 783.12 418.571 783.12C418.159 783.12 417.793 783.048 417.473 782.905C417.155 782.761 416.905 782.547 416.723 782.262C416.543 781.975 416.453 781.628 416.453 781.222ZM418.115 781.169C418.115 781.409 418.201 781.594 418.372 781.724C418.546 781.851 418.777 781.914 419.064 781.914C419.324 781.914 419.556 781.863 419.76 781.761C419.964 781.656 420.123 781.512 420.237 781.33C420.35 781.148 420.406 780.946 420.406 780.725V780.261C419.804 780.291 419.369 780.319 419.101 780.344C418.795 780.369 418.553 780.453 418.376 780.597C418.202 780.738 418.115 780.928 418.115 781.169ZM426.179 783.124C425.538 783.124 424.981 782.986 424.509 782.71C424.039 782.434 423.679 782.048 423.427 781.554C423.176 781.057 423.05 780.486 423.05 779.843C423.05 779.193 423.177 778.622 423.431 778.127C423.685 777.63 424.047 777.243 424.517 776.967C424.987 776.691 425.538 776.552 426.17 776.552C426.712 776.552 427.192 776.653 427.612 776.855C428.032 777.054 428.362 777.336 428.603 777.7C428.846 778.065 428.98 778.489 429.004 778.972H427.368C427.318 778.649 427.19 778.391 426.982 778.198C426.778 778.004 426.516 777.907 426.195 777.907C425.916 777.907 425.673 777.983 425.466 778.135C425.259 778.285 425.098 778.503 424.985 778.79C424.872 779.077 424.815 779.42 424.815 779.818C424.815 780.221 424.872 780.568 424.985 780.858C425.098 781.145 425.259 781.365 425.466 781.517C425.673 781.669 425.916 781.744 426.195 781.744C426.504 781.744 426.764 781.652 426.974 781.467C427.184 781.282 427.315 781.022 427.368 780.688H429.004C428.977 781.169 428.844 781.594 428.607 781.964C428.372 782.331 428.046 782.617 427.629 782.822C427.214 783.023 426.731 783.124 426.179 783.124ZM430.96 783.104C430.781 783.104 430.615 783.059 430.463 782.971C430.311 782.883 430.191 782.764 430.102 782.615C430.014 782.463 429.971 782.298 429.974 782.122C429.971 781.945 430.014 781.782 430.102 781.633C430.191 781.483 430.311 781.365 430.463 781.276C430.615 781.188 430.781 781.144 430.96 781.144C431.131 781.144 431.292 781.188 431.441 781.276C431.593 781.365 431.714 781.483 431.805 781.633C431.897 781.782 431.942 781.945 431.942 782.122C431.942 782.298 431.897 782.463 431.805 782.615C431.714 782.764 431.593 782.883 431.441 782.971C431.292 783.059 431.131 783.104 430.96 783.104ZM433.196 774.514H434.932V779.068H435.027L437.095 776.635H439.088L436.714 779.391L439.212 783H437.178L435.417 780.414L434.932 780.965V783H433.196V774.514ZM439.755 776.635H441.437V777.742H441.504C441.617 777.358 441.809 777.062 442.08 776.855C442.353 776.648 442.672 776.544 443.037 776.544C443.216 776.544 443.401 776.562 443.592 776.598V778.148C443.509 778.123 443.394 778.101 443.248 778.081C443.102 778.062 442.969 778.052 442.85 778.052C442.591 778.052 442.357 778.109 442.15 778.222C441.946 778.336 441.784 778.493 441.665 778.695C441.549 778.896 441.491 779.126 441.491 779.383V783H439.755V776.635Z" fill="#AEAEAE"/>
<mask id="mask2_1358_4360" style="mask-type:luminance" maskUnits="userSpaceOnUse" x="462" y="208" width="113" height="76">
<path d="M574.9 208H462.9V284H574.9V208Z" fill="white"/>
</mask>
<g mask="url(#mask2_1358_4360)">
<path fill-rule="evenodd" clip-rule="evenodd" d="M484.527 208.112L571.877 231.809C573.406 232.224 574.401 233.695 574.218 235.268L568.942 280.492C568.716 282.433 566.817 283.72 564.929 283.21L465.267 256.289C463.398 255.785 462.402 253.749 463.15 251.964L480.738 209.964C481.358 208.484 482.978 207.692 484.527 208.112ZM492.31 235.698L495.123 236.452C495.364 235.498 495.184 234.617 494.582 233.809C493.881 232.889 492.767 232.225 491.24 231.816C489.981 231.478 488.892 231.473 487.971 231.801C486.918 232.194 486.236 232.973 485.924 234.138C485.734 234.848 485.784 235.464 486.074 235.987C486.293 236.404 486.79 236.853 487.565 237.334L490.591 239.222C491.157 239.574 491.388 239.945 491.284 240.333C491.108 240.989 490.33 241.133 488.951 240.763C488.134 240.544 487.591 240.32 487.322 240.09C487.067 239.864 486.958 239.519 486.996 239.055L484.244 238.318C483.992 239.47 484.187 240.405 484.827 241.123C485.474 241.87 486.708 242.488 488.53 242.976C490.017 243.374 491.238 243.371 492.193 242.967C493.216 242.523 493.873 241.759 494.164 240.674C494.534 239.295 494.074 238.224 492.785 237.462L489.553 235.541C488.957 235.195 488.707 234.841 488.804 234.479C488.969 233.863 489.581 233.697 490.639 233.98C491.362 234.174 491.846 234.404 492.09 234.67C492.338 234.924 492.412 235.266 492.31 235.698ZM502.623 237.062L503.113 235.234L501.245 234.733L502.144 231.378L498.946 232.222L498.472 233.99L497.106 233.624L496.616 235.452L497.982 235.819L496.227 242.368C495.782 244.029 496.464 245.102 498.272 245.586C499.196 245.834 500.136 245.863 501.091 245.674L501.276 243.699C501.245 243.706 501.206 243.717 501.159 243.733C500.612 243.845 500.185 243.859 499.877 243.777C499.502 243.676 499.26 243.533 499.152 243.346C499.058 243.163 499.063 242.877 499.167 242.488L500.755 236.561L502.623 237.062ZM506.113 242.519L513.266 244.436C513.333 244.239 513.385 244.073 513.421 243.939C513.704 242.881 513.806 241.939 513.725 241.114C513.636 240.056 513.254 239.15 512.58 238.395C511.907 237.64 511.028 237.118 509.943 236.827C508.523 236.446 507.259 236.582 506.152 237.232C504.884 237.998 503.998 239.325 503.492 241.214C503.075 242.768 503.121 244.122 503.63 245.278C504.21 246.596 505.31 247.472 506.931 247.907C508.123 248.226 509.242 248.203 510.287 247.837C511.35 247.461 512.175 246.792 512.763 245.83L510.031 245.098C509.453 245.862 508.648 246.106 507.617 245.829C506.786 245.607 506.256 245.149 506.025 244.455C505.895 244.033 505.924 243.387 506.113 242.519ZM509.357 238.931C510.657 239.279 511.165 240.248 510.883 241.838L506.644 240.702C507.234 239.195 508.139 238.605 509.357 238.931ZM519.19 241.178L519.6 239.651L516.827 238.908L512.822 253.856L515.594 254.599L517.091 249.014C517.478 250.194 518.328 250.96 519.641 251.312C520.846 251.635 521.978 251.457 523.035 250.779C524.266 249.989 525.109 248.743 525.565 247.042C525.989 245.462 525.96 244.04 525.48 242.778C525.252 242.185 524.87 241.652 524.337 241.179C523.817 240.71 523.242 240.39 522.612 240.222C521.286 239.866 520.146 240.185 519.19 241.178ZM519.42 242.812C520.01 242.324 520.654 242.173 521.35 242.36C522.047 242.547 522.529 242.999 522.796 243.716C523.066 244.42 523.071 245.261 522.809 246.239C522.55 247.204 522.128 247.923 521.541 248.398C520.955 248.872 520.313 249.016 519.617 248.829C518.92 248.643 518.437 248.197 518.166 247.493C517.895 246.789 517.889 245.955 518.148 244.99C518.41 244.012 518.834 243.286 519.42 242.812ZM531.316 244.427L531.725 242.9L528.952 242.157L524.947 257.105L527.72 257.848L529.216 252.263C529.603 253.443 530.453 254.209 531.766 254.561C532.971 254.884 534.103 254.706 535.16 254.028C536.391 253.238 537.235 251.992 537.691 250.291C538.114 248.711 538.086 247.289 537.606 246.026C537.377 245.434 536.996 244.901 536.462 244.428C535.942 243.958 535.367 243.639 534.738 243.471C533.412 243.115 532.271 243.434 531.316 244.427ZM531.546 246.061C532.136 245.573 532.779 245.422 533.476 245.609C534.172 245.796 534.654 246.248 534.921 246.965C535.192 247.669 535.196 248.51 534.934 249.488C534.676 250.453 534.253 251.172 533.667 251.646C533.08 252.121 532.439 252.265 531.742 252.078C531.046 251.892 530.562 251.446 530.291 250.742C530.021 250.038 530.015 249.204 530.273 248.239C530.535 247.261 530.959 246.535 531.546 246.061ZM541.587 252.024L548.74 253.941C548.807 253.744 548.858 253.578 548.894 253.444C549.177 252.386 549.279 251.444 549.199 250.619C549.109 249.561 548.728 248.655 548.054 247.9C547.381 247.145 546.502 246.623 545.417 246.332C543.997 245.952 542.733 246.087 541.625 246.738C540.358 247.503 539.471 248.83 538.965 250.719C538.549 252.273 538.595 253.627 539.104 254.783C539.684 256.101 540.784 256.977 542.405 257.412C543.597 257.731 544.715 257.708 545.761 257.342C546.824 256.966 547.649 256.297 548.237 255.335L545.505 254.603C544.926 255.367 544.121 255.611 543.09 255.334C542.26 255.112 541.729 254.654 541.499 253.96C541.368 253.538 541.397 252.892 541.587 252.024ZM544.831 248.436C546.13 248.784 546.639 249.753 546.357 251.343L542.117 250.207C542.708 248.7 543.612 248.11 544.831 248.436ZM555.093 249.162L552.321 248.419L549.468 259.067L552.24 259.81L553.769 254.104C554.031 253.126 554.413 252.504 554.915 252.237C555.353 251.995 556.028 251.996 556.938 252.24C557.3 252.337 557.64 252.464 557.957 252.621L558.669 249.883L558.126 249.738C556.492 249.3 555.3 249.784 554.549 251.191L555.093 249.162Z" fill="#90DEA3"/>
</g>
<mask id="mask3_1358_4360" style="mask-type:luminance" maskUnits="userSpaceOnUse" x="584" y="208" width="113" height="76">
<path d="M696.5 208H584.5V284H696.5V208Z" fill="white"/>
</mask>
<g mask="url(#mask3_1358_4360)">
<path fill-rule="evenodd" clip-rule="evenodd" d="M606.127 208.112L693.478 231.809C695.006 232.224 696.002 233.695 695.818 235.268L690.542 280.492C690.316 282.433 688.417 283.72 686.53 283.21L586.867 256.289C584.998 255.785 584.002 253.749 584.75 251.964L602.338 209.964C602.958 208.484 604.578 207.692 606.127 208.112ZM613.91 235.698L616.723 236.452C616.965 235.498 616.784 234.617 616.182 233.809C615.481 232.889 614.367 232.225 612.84 231.816C611.581 231.478 610.492 231.473 609.571 231.801C608.519 232.194 607.836 232.973 607.524 234.138C607.334 234.848 607.384 235.464 607.674 235.987C607.893 236.404 608.39 236.854 609.165 237.334L612.191 239.222C612.757 239.574 612.988 239.945 612.884 240.333C612.708 240.989 611.93 241.133 610.551 240.763C609.734 240.544 609.191 240.32 608.922 240.09C608.667 239.864 608.558 239.519 608.597 239.055L605.844 238.318C605.593 239.47 605.787 240.405 606.428 241.123C607.074 241.87 608.308 242.488 610.13 242.976C611.617 243.374 612.838 243.371 613.793 242.967C614.816 242.523 615.473 241.759 615.764 240.674C616.134 239.295 615.674 238.224 614.385 237.462L611.153 235.541C610.557 235.195 610.307 234.841 610.404 234.479C610.569 233.863 611.181 233.697 612.239 233.98C612.962 234.174 613.446 234.404 613.691 234.671C613.939 234.924 614.012 235.266 613.91 235.698ZM624.224 237.062L624.713 235.234L622.845 234.733L623.744 231.378L620.546 232.222L620.072 233.99L618.706 233.624L618.216 235.452L619.582 235.819L617.827 242.368C617.382 244.029 618.064 245.102 619.872 245.586C620.796 245.834 621.736 245.863 622.691 245.674L622.876 243.699C622.845 243.706 622.806 243.717 622.759 243.733C622.212 243.845 621.785 243.859 621.477 243.777C621.102 243.676 620.86 243.533 620.752 243.346C620.658 243.163 620.663 242.877 620.767 242.488L622.355 236.562L624.224 237.062ZM627.714 242.519L634.866 244.436C634.933 244.239 634.985 244.073 635.021 243.939C635.304 242.881 635.406 241.939 635.326 241.114C635.236 240.056 634.854 239.15 634.181 238.395C633.507 237.64 632.628 237.118 631.543 236.827C630.123 236.446 628.86 236.582 627.752 237.232C626.484 237.998 625.598 239.325 625.092 241.214C624.675 242.768 624.722 244.122 625.23 245.278C625.81 246.596 626.91 247.472 628.531 247.907C629.723 248.226 630.842 248.203 631.887 247.837C632.95 247.461 633.775 246.792 634.363 245.83L631.631 245.098C631.053 245.862 630.248 246.106 629.217 245.829C628.386 245.607 627.856 245.149 627.625 244.455C627.495 244.033 627.524 243.387 627.714 242.519ZM630.958 238.931C632.257 239.279 632.765 240.248 632.483 241.838L628.244 240.702C628.834 239.195 629.739 238.605 630.958 238.931ZM640.791 241.178L641.2 239.651L638.427 238.908L634.422 253.856L637.194 254.599L638.691 249.014C639.078 250.194 639.928 250.96 641.241 251.312C642.446 251.635 643.578 251.457 644.635 250.779C645.866 249.989 646.709 248.743 647.165 247.042C647.589 245.462 647.56 244.04 647.081 242.778C646.852 242.185 646.47 241.652 645.937 241.179C645.417 240.71 644.842 240.39 644.212 240.222C642.886 239.866 641.746 240.185 640.791 241.178ZM641.02 242.812C641.61 242.324 642.254 242.173 642.95 242.36C643.647 242.547 644.129 242.999 644.396 243.716C644.666 244.42 644.671 245.261 644.409 246.239C644.15 247.204 643.728 247.923 643.141 248.398C642.555 248.872 641.913 249.016 641.217 248.829C640.52 248.643 640.037 248.197 639.766 247.493C639.495 246.789 639.489 245.955 639.748 244.99C640.01 244.012 640.434 243.286 641.02 242.812ZM652.916 244.427L653.325 242.9L650.552 242.157L646.547 257.105L649.32 257.848L650.816 252.263C651.204 253.443 652.053 254.209 653.366 254.561C654.572 254.884 655.703 254.706 656.761 254.028C657.991 253.238 658.835 251.992 659.291 250.291C659.714 248.711 659.686 247.289 659.206 246.027C658.977 245.434 658.596 244.901 658.062 244.428C657.542 243.958 656.967 243.639 656.338 243.471C655.012 243.115 653.871 243.434 652.916 244.427ZM653.146 246.061C653.736 245.573 654.379 245.422 655.076 245.609C655.772 245.796 656.254 246.248 656.521 246.965C656.792 247.669 656.796 248.51 656.534 249.488C656.276 250.453 655.853 251.172 655.267 251.646C654.68 252.121 654.039 252.265 653.342 252.078C652.646 251.892 652.162 251.446 651.891 250.742C651.621 250.038 651.615 249.204 651.873 248.239C652.135 247.261 652.559 246.535 653.146 246.061ZM663.187 252.024L670.34 253.941C670.407 253.744 670.458 253.578 670.494 253.444C670.778 252.386 670.879 251.444 670.799 250.619C670.71 249.561 670.328 248.655 669.654 247.9C668.981 247.145 668.102 246.623 667.017 246.332C665.597 245.952 664.333 246.087 663.226 246.738C661.958 247.503 661.071 248.83 660.565 250.719C660.149 252.273 660.195 253.627 660.704 254.783C661.284 256.101 662.384 256.977 664.005 257.412C665.197 257.731 666.315 257.708 667.361 257.342C668.424 256.966 669.249 256.297 669.837 255.335L667.105 254.603C666.526 255.367 665.722 255.611 664.69 255.334C663.86 255.112 663.33 254.654 663.099 253.96C662.968 253.538 662.998 252.892 663.187 252.024ZM666.431 248.436C667.73 248.784 668.239 249.753 667.957 251.343L663.717 250.207C664.308 248.7 665.212 248.11 666.431 248.436ZM676.694 249.162L673.921 248.419L671.068 259.067L673.84 259.81L675.369 254.104C675.631 253.127 676.014 252.504 676.515 252.237C676.954 251.995 677.628 251.996 678.538 252.24C678.9 252.337 679.24 252.464 679.557 252.621L680.269 249.883L679.726 249.738C678.092 249.3 676.9 249.784 676.15 251.191L676.694 249.162Z" fill="#CBB3EB"/>
</g>
<mask id="mask4_1358_4360" style="mask-type:luminance" maskUnits="userSpaceOnUse" x="706" y="208" width="113" height="76">
<path d="M818.1 208H706.1V284H818.1V208Z" fill="white"/>
</mask>
<g mask="url(#mask4_1358_4360)">
<path fill-rule="evenodd" clip-rule="evenodd" d="M727.727 208.112L815.078 231.809C816.606 232.224 817.602 233.695 817.418 235.268L812.142 280.492C811.916 282.433 810.017 283.72 808.13 283.21L708.467 256.289C706.598 255.785 705.602 253.749 706.35 251.964L723.938 209.964C724.558 208.484 726.178 207.692 727.727 208.112ZM735.51 235.698L738.323 236.452C738.565 235.498 738.384 234.617 737.782 233.809C737.081 232.889 735.968 232.225 734.441 231.816C733.182 231.478 732.092 231.473 731.171 231.801C730.119 232.194 729.436 232.973 729.124 234.138C728.934 234.848 728.984 235.464 729.274 235.987C729.493 236.404 729.99 236.853 730.765 237.334L733.791 239.222C734.357 239.574 734.588 239.945 734.484 240.333C734.308 240.989 733.53 241.133 732.151 240.763C731.334 240.544 730.791 240.32 730.522 240.09C730.267 239.864 730.159 239.519 730.197 239.055L727.444 238.318C727.193 239.47 727.387 240.405 728.028 241.123C728.674 241.87 729.908 242.488 731.73 242.976C733.217 243.374 734.438 243.371 735.393 242.967C736.416 242.523 737.074 241.759 737.364 240.674C737.734 239.295 737.274 238.224 735.985 237.462L732.753 235.541C732.157 235.195 731.907 234.841 732.004 234.479C732.169 233.863 732.781 233.697 733.839 233.98C734.562 234.174 735.046 234.404 735.291 234.67C735.539 234.924 735.612 235.266 735.51 235.698ZM745.824 237.062L746.314 235.234L744.445 234.733L745.344 231.378L742.146 232.222L741.672 233.99L740.306 233.624L739.816 235.452L741.183 235.819L739.428 242.368C738.982 244.029 739.664 245.102 741.472 245.586C742.396 245.834 743.336 245.863 744.291 245.674L744.476 243.699C744.445 243.706 744.407 243.717 744.359 243.733C743.812 243.845 743.385 243.859 743.077 243.777C742.702 243.676 742.46 243.533 742.353 243.346C742.258 243.163 742.263 242.877 742.367 242.488L743.955 236.561L745.824 237.062ZM749.314 242.519L756.466 244.436C756.533 244.239 756.585 244.073 756.621 243.939C756.904 242.881 757.006 241.939 756.926 241.114C756.836 240.056 756.454 239.15 755.781 238.395C755.107 237.64 754.228 237.118 753.143 236.827C751.723 236.446 750.46 236.582 749.352 237.232C748.085 237.998 747.198 239.325 746.692 241.214C746.275 242.768 746.322 244.122 746.83 245.278C747.41 246.596 748.51 247.472 750.131 247.907C751.323 248.226 752.442 248.203 753.488 247.837C754.55 247.461 755.375 246.792 755.963 245.83L753.231 245.098C752.653 245.862 751.848 246.106 750.817 245.829C749.987 245.607 749.456 245.149 749.226 244.455C749.095 244.033 749.124 243.387 749.314 242.519ZM752.558 238.931C753.857 239.279 754.365 240.248 754.083 241.838L749.844 240.702C750.434 239.195 751.339 238.605 752.558 238.931ZM762.391 241.178L762.8 239.651L760.027 238.908L756.022 253.856L758.794 254.599L760.291 249.014C760.678 250.194 761.528 250.96 762.841 251.312C764.046 251.635 765.178 251.457 766.235 250.779C767.466 249.989 768.31 248.743 768.765 247.042C769.189 245.462 769.161 244.04 768.681 242.778C768.452 242.185 768.071 241.652 767.537 241.179C767.017 240.71 766.442 240.39 765.812 240.222C764.486 239.866 763.346 240.185 762.391 241.178ZM762.62 242.812C763.211 242.324 763.854 242.173 764.55 242.36C765.247 242.547 765.729 242.999 765.996 243.716C766.266 244.42 766.271 245.261 766.009 246.239C765.75 247.204 765.328 247.923 764.741 248.398C764.155 248.872 763.513 249.016 762.817 248.829C762.12 248.643 761.637 248.197 761.366 247.493C761.095 246.789 761.089 245.955 761.348 244.99C761.61 244.012 762.034 243.286 762.62 242.812ZM774.516 244.427L774.925 242.9L772.153 242.157L768.147 257.105L770.92 257.848L772.416 252.263C772.804 253.443 773.654 254.209 774.966 254.561C776.172 254.884 777.303 254.706 778.361 254.028C779.592 253.238 780.435 251.992 780.891 250.291C781.314 248.711 781.286 247.289 780.806 246.026C780.577 245.434 780.196 244.901 779.662 244.428C779.142 243.958 778.567 243.639 777.938 243.471C776.612 243.115 775.471 243.434 774.516 244.427ZM774.746 246.061C775.336 245.573 775.979 245.422 776.676 245.609C777.372 245.796 777.854 246.248 778.121 246.965C778.392 247.669 778.396 248.51 778.134 249.488C777.876 250.453 777.453 251.172 776.867 251.646C776.28 252.121 775.639 252.265 774.942 252.078C774.246 251.892 773.762 251.446 773.492 250.742C773.221 250.038 773.215 249.204 773.473 248.239C773.735 247.261 774.159 246.535 774.746 246.061ZM784.787 252.024L791.94 253.941C792.007 253.744 792.058 253.578 792.094 253.444C792.378 252.386 792.479 251.444 792.399 250.619C792.31 249.561 791.928 248.655 791.254 247.9C790.581 247.145 789.702 246.623 788.617 246.332C787.197 245.952 785.933 246.087 784.826 246.738C783.558 247.503 782.671 248.83 782.165 250.719C781.749 252.273 781.795 253.627 782.304 254.783C782.884 256.101 783.984 256.977 785.605 257.412C786.797 257.731 787.915 257.708 788.961 257.342C790.024 256.966 790.849 256.297 791.437 255.335L788.705 254.603C788.126 255.367 787.322 255.611 786.29 255.334C785.46 255.112 784.93 254.654 784.699 253.96C784.568 253.538 784.598 252.892 784.787 252.024ZM788.031 248.436C789.33 248.784 789.839 249.753 789.557 251.343L785.317 250.207C785.908 248.7 786.812 248.11 788.031 248.436ZM798.294 249.162L795.521 248.419L792.668 259.067L795.44 259.81L796.969 254.104C797.231 253.126 797.614 252.504 798.115 252.237C798.554 251.995 799.228 251.996 800.138 252.24C800.5 252.337 800.84 252.464 801.157 252.621L801.869 249.883L801.326 249.738C799.692 249.3 798.5 249.784 797.75 251.191L798.294 249.162Z" fill="#FFF96D"/>
</g>
<path d="M484.886 338.881C484.711 337.861 484.208 337.053 483.375 336.456C482.542 335.86 481.479 335.561 480.187 335.561C479.354 335.561 478.595 335.686 477.912 335.934C477.24 336.171 476.712 336.512 476.327 336.96C475.941 337.395 475.749 337.892 475.749 338.452C475.749 339.135 476.035 339.726 476.607 340.223C477.191 340.708 478.129 341.087 479.422 341.36L484.587 342.405C487.359 342.977 489.423 343.896 490.778 345.164C492.133 346.432 492.816 348.098 492.829 350.162C492.829 352.026 492.301 353.667 491.244 355.084C490.187 356.501 488.702 357.602 486.787 358.385C484.873 359.168 482.66 359.559 480.149 359.559C477.601 359.559 475.394 359.199 473.53 358.478C471.665 357.744 470.198 356.706 469.129 355.364C468.073 354.009 467.439 352.393 467.227 350.516H475.059C475.258 351.622 475.792 352.468 476.662 353.052C477.533 353.624 478.695 353.91 480.149 353.91C481.579 353.91 482.723 353.648 483.58 353.126C484.438 352.592 484.873 351.865 484.886 350.945C484.873 350.199 484.556 349.59 483.935 349.117C483.313 348.633 482.331 348.253 480.988 347.98L476.252 347.048C473.517 346.513 471.454 345.556 470.062 344.176C468.669 342.796 467.979 341.044 467.992 338.918C467.992 337.103 468.483 335.524 469.465 334.182C470.447 332.839 471.845 331.807 473.66 331.086C475.488 330.353 477.62 329.986 480.056 329.986C482.443 329.986 484.525 330.347 486.303 331.068C488.08 331.789 489.473 332.82 490.479 334.163C491.486 335.493 492.058 337.066 492.195 338.881H484.886ZM512.746 336.233H507.338V350.218C507.338 351.324 507.587 352.082 508.084 352.492C508.581 352.89 509.315 353.089 510.284 353.089C510.844 353.089 511.788 353.046 513.119 352.959V359.112C511.95 359.298 510.576 359.392 508.998 359.392C506.052 359.392 503.733 358.714 502.043 357.359C500.352 356.004 499.513 353.978 499.525 351.28V336.233H495.591V330.359H499.525V323.497H507.338V330.359H512.746V336.233ZM530.29 359.559C527.393 359.559 524.876 358.963 522.738 357.769C520.612 356.576 518.978 354.873 517.834 352.66C516.69 350.435 516.119 347.818 516.119 344.81C516.119 341.889 516.69 339.309 517.834 337.072C518.978 334.822 520.594 333.081 522.682 331.851C524.783 330.608 527.213 329.986 529.973 329.986C532.534 329.986 534.827 330.533 536.853 331.627C538.892 332.709 540.496 334.337 541.664 336.512C542.833 338.688 543.417 341.354 543.417 344.512V346.693H523.838C523.838 348.123 524.105 349.366 524.64 350.423C525.187 351.479 525.951 352.294 526.933 352.865C527.928 353.425 529.09 353.704 530.42 353.704C531.726 353.704 532.844 353.45 533.777 352.94C534.721 352.418 535.393 351.722 535.791 350.852H543.212C542.839 352.617 542.081 354.152 540.937 355.457C539.793 356.762 538.314 357.776 536.499 358.497C534.684 359.205 532.614 359.559 530.29 359.559ZM536.052 341.808C536.039 340.664 535.778 339.639 535.268 338.731C534.771 337.824 534.075 337.115 533.18 336.606C532.285 336.084 531.266 335.823 530.122 335.823C528.953 335.823 527.903 336.09 526.971 336.624C526.038 337.159 525.299 337.886 524.752 338.806C524.205 339.713 523.9 340.714 523.838 341.808H536.052ZM548.301 330.359H556.002V335.17H556.356C557.015 333.728 557.997 332.503 559.302 331.497C560.608 330.49 562.342 329.986 564.505 329.986C566.668 329.986 568.632 330.546 570.397 331.664C572.162 332.783 573.561 334.449 574.593 336.662C575.624 338.874 576.14 341.559 576.14 344.717C576.14 347.812 575.631 350.472 574.611 352.698C573.604 354.923 572.218 356.607 570.453 357.751C568.7 358.894 566.718 359.466 564.505 359.466C562.392 359.466 560.67 358.981 559.34 358.012C558.01 357.042 557.015 355.849 556.356 354.432H556.114V369.74H548.301V330.359ZM555.946 344.68C555.946 346.395 556.182 347.899 556.655 349.192C557.139 350.472 557.842 351.467 558.762 352.175C559.682 352.884 560.782 353.238 562.062 353.238C563.355 353.238 564.455 352.884 565.363 352.175C566.282 351.454 566.979 350.454 567.451 349.173C567.923 347.881 568.16 346.383 568.16 344.68C568.16 342.989 567.923 341.51 567.451 340.242C566.991 338.974 566.301 337.992 565.381 337.296C564.474 336.587 563.367 336.233 562.062 336.233C560.769 336.233 559.663 336.575 558.743 337.258C557.823 337.942 557.127 338.918 556.655 340.186C556.182 341.454 555.946 342.952 555.946 344.68ZM581.155 330.359H588.856V335.17H589.21C589.869 333.728 590.851 332.503 592.156 331.497C593.461 330.49 595.195 329.986 597.358 329.986C599.521 329.986 601.485 330.546 603.251 331.664C605.016 332.783 606.414 334.449 607.446 336.662C608.478 338.874 608.994 341.559 608.994 344.717C608.994 347.812 608.484 350.472 607.465 352.698C606.458 354.923 605.072 356.607 603.307 357.751C601.554 358.894 599.571 359.466 597.358 359.466C595.245 359.466 593.523 358.981 592.193 358.012C590.863 357.042 589.869 355.849 589.21 354.432H588.967V369.74H581.155V330.359ZM588.8 344.68C588.8 346.395 589.036 347.899 589.508 349.192C589.993 350.472 590.695 351.467 591.615 352.175C592.535 352.884 593.635 353.238 594.916 353.238C596.208 353.238 597.309 352.884 598.216 352.175C599.136 351.454 599.832 350.454 600.304 349.173C600.777 347.881 601.013 346.383 601.013 344.68C601.013 342.989 600.777 341.51 600.304 340.242C599.845 338.974 599.155 337.992 598.235 337.296C597.327 336.587 596.221 336.233 594.916 336.233C593.623 336.233 592.516 336.575 591.597 337.258C590.677 337.942 589.981 338.918 589.508 340.186C589.036 341.454 588.8 342.952 588.8 344.68ZM627.005 359.559C624.108 359.559 621.591 358.963 619.453 357.769C617.327 356.576 615.693 354.873 614.549 352.66C613.405 350.435 612.833 347.818 612.833 344.81C612.833 341.889 613.405 339.309 614.549 337.072C615.693 334.822 617.309 333.081 619.397 331.851C621.498 330.608 623.928 329.986 626.688 329.986C629.248 329.986 631.542 330.533 633.568 331.627C635.607 332.709 637.21 334.337 638.379 336.512C639.547 338.688 640.132 341.354 640.132 344.512V346.693H620.553C620.553 348.123 620.82 349.366 621.355 350.423C621.902 351.479 622.666 352.294 623.648 352.865C624.643 353.425 625.805 353.704 627.135 353.704C628.44 353.704 629.559 353.45 630.492 352.94C631.436 352.418 632.108 351.722 632.505 350.852H639.927C639.554 352.617 638.795 354.152 637.652 355.457C636.508 356.762 635.029 357.776 633.214 358.497C631.399 359.205 629.329 359.559 627.005 359.559ZM632.766 341.808C632.754 340.664 632.493 339.639 631.983 338.731C631.486 337.824 630.79 337.115 629.895 336.606C629 336.084 627.98 335.823 626.837 335.823C625.668 335.823 624.618 336.09 623.686 336.624C622.753 337.159 622.014 337.886 621.467 338.806C620.92 339.713 620.615 340.714 620.553 341.808H632.766ZM645.016 330.359H652.586V335.338H652.885C653.394 333.61 654.258 332.28 655.477 331.347C656.707 330.415 658.143 329.949 659.784 329.949C660.592 329.949 661.425 330.03 662.283 330.191V337.165C661.91 337.053 661.394 336.954 660.735 336.867C660.076 336.78 659.479 336.736 658.945 336.736C657.776 336.736 656.726 336.991 655.794 337.501C654.874 338.01 654.146 338.719 653.612 339.626C653.09 340.534 652.829 341.566 652.829 342.722V359H645.016V330.359Z" fill="url(#paint0_linear_1358_4360)" fill-opacity="0.9"/>
<path d="M678.808 318.705C681.244 318.705 683.463 319.209 685.465 320.215C687.466 321.222 689.045 322.621 690.201 324.411C691.357 326.201 691.941 328.221 691.954 330.471C691.941 332.373 691.519 334.113 690.686 335.692C689.865 337.258 688.722 338.576 687.255 339.645C685.788 340.702 684.11 341.441 682.22 341.864V348.446C686.509 348.21 690.207 347.881 693.315 347.458L693.781 352.436C690.114 353.12 686.291 353.593 682.313 353.854C678.336 354.115 674.196 354.245 669.895 354.245C668.652 354.245 666.961 354.233 664.823 354.208L663.928 348.782H665.886C670.112 348.757 673.32 348.72 675.507 348.67V341.901C673.556 341.503 671.828 340.776 670.324 339.72C668.832 338.651 667.67 337.327 666.837 335.748C666.016 334.157 665.612 332.398 665.625 330.471C665.612 328.209 666.172 326.189 667.303 324.411C668.447 322.621 670.019 321.222 672.021 320.215C674.034 319.209 676.297 318.705 678.808 318.705ZM672.188 330.471C672.188 331.702 672.468 332.777 673.027 333.697C673.599 334.617 674.389 335.319 675.396 335.804C676.402 336.289 677.54 336.525 678.808 336.512C680.039 336.525 681.145 336.289 682.127 335.804C683.121 335.319 683.905 334.617 684.476 333.697C685.048 332.777 685.334 331.702 685.334 330.471C685.334 329.228 685.048 328.153 684.476 327.245C683.905 326.325 683.128 325.629 682.146 325.157C681.164 324.672 680.051 324.423 678.808 324.411C677.527 324.423 676.384 324.672 675.377 325.157C674.382 325.629 673.599 326.325 673.027 327.245C672.468 328.153 672.188 329.228 672.188 330.471ZM695.869 315.834H702.619V334.685H709.146V340.335H702.619V363.867H695.869V315.834ZM761.697 327.693H768.149V333.305H761.697V344.81H754.947V315.834H761.697V327.693ZM723.603 320.197H734.511V315.573H741.224V320.197H752.094V325.511H723.603V320.197ZM725.952 335.617C725.952 333.927 726.449 332.429 727.444 331.124C728.438 329.818 729.837 328.805 731.639 328.084C733.454 327.351 735.53 326.984 737.867 326.984C740.167 326.984 742.212 327.351 744.002 328.084C745.792 328.805 747.184 329.825 748.179 331.142C749.173 332.448 749.67 333.939 749.67 335.617C749.67 337.32 749.173 338.831 748.179 340.148C747.184 341.454 745.792 342.473 744.002 343.206C742.212 343.927 740.167 344.288 737.867 344.288C735.53 344.288 733.454 343.927 731.639 343.206C729.837 342.473 728.438 341.454 727.444 340.148C726.449 338.831 725.952 337.32 725.952 335.617ZM730.315 346.898H761.697V363.326H730.315V346.898ZM732.497 335.617C732.497 336.798 732.982 337.712 733.951 338.358C734.921 338.992 736.226 339.309 737.867 339.309C739.508 339.309 740.82 338.992 741.802 338.358C742.784 337.712 743.281 336.798 743.293 335.617C743.281 334.486 742.79 333.61 741.82 332.988C740.851 332.367 739.558 332.056 737.942 332.056C736.276 332.056 734.952 332.367 733.97 332.988C732.988 333.597 732.497 334.474 732.497 335.617ZM755.041 357.937V352.194H736.954V357.937H755.041ZM782.076 321.372C782.063 325.785 781.858 329.8 781.46 333.417C781.075 337.035 780.348 340.546 779.279 343.952C778.21 347.346 776.706 350.553 774.766 353.574L769.545 350.814C771.149 348.39 772.423 345.935 773.368 343.449C774.313 340.95 775.003 338.371 775.438 335.711C775.873 333.038 776.152 330.055 776.277 326.76H771.112V321.372H782.076ZM780.398 353.145C782.113 350.547 783.443 347.856 784.388 345.071C785.345 342.274 786.01 339.427 786.383 336.531C786.768 333.635 787.005 330.378 787.092 326.76H783.474V321.372H792.835C792.835 326.282 792.679 330.446 792.369 333.865H796.489V316.934H802.811V361.722H796.489V339.253H791.679C791.157 342.361 790.398 345.307 789.404 348.092C788.422 350.864 787.129 353.493 785.525 355.979L780.398 353.145ZM805.831 315.834H812.283V363.867H805.831V315.834ZM387.621 397.264H393.999V402.727H387.621V413.635H380.797V385.834H387.621V397.264ZM351.149 389.078H372.742V394.485H357.825V405.617C362.424 405.593 366.11 405.481 368.882 405.282C371.666 405.083 374.364 404.71 376.974 404.163L377.571 409.552C375.632 409.974 373.637 410.291 371.586 410.503C369.547 410.714 367.272 410.857 364.761 410.932C362.262 411.006 359.055 411.044 355.139 411.044H351.149V389.078ZM355.363 424.115C355.363 422.126 356.028 420.41 357.358 418.968C358.701 417.514 360.609 416.401 363.083 415.631C365.557 414.86 368.459 414.474 371.791 414.474C375.085 414.474 377.95 414.86 380.387 415.631C382.823 416.401 384.7 417.514 386.018 418.968C387.336 420.41 387.994 422.126 387.994 424.115C387.994 426.141 387.336 427.887 386.018 429.354C384.7 430.821 382.823 431.934 380.387 432.692C377.95 433.463 375.085 433.848 371.791 433.848C368.459 433.848 365.557 433.463 363.083 432.692C360.609 431.934 358.701 430.821 357.358 429.354C356.028 427.887 355.363 426.141 355.363 424.115ZM362.001 424.115C361.989 425.557 362.828 426.651 364.519 427.396C366.209 428.142 368.633 428.515 371.791 428.515C374.874 428.515 377.254 428.142 378.932 427.396C380.61 426.638 381.456 425.544 381.468 424.115C381.456 422.722 380.617 421.66 378.951 420.926C377.298 420.193 374.948 419.826 371.903 419.826C368.695 419.826 366.24 420.186 364.537 420.907C362.834 421.628 361.989 422.698 362.001 424.115ZM436.305 420.945H429.555V385.908H436.305V420.945ZM395.954 409.086C398.54 408.215 400.697 406.96 402.425 405.319C404.165 403.666 405.445 401.795 406.266 399.706C407.099 397.606 407.521 395.424 407.534 393.162V388.537H414.508V393.162C414.495 395.362 414.887 397.456 415.682 399.445C416.49 401.434 417.74 403.2 419.43 404.741C421.121 406.282 423.234 407.457 425.77 408.265L422.339 413.561C419.691 412.678 417.423 411.385 415.533 409.682C413.644 407.967 412.152 405.934 411.058 403.585C409.952 406.133 408.423 408.34 406.471 410.204C404.532 412.069 402.195 413.468 399.46 414.4L395.954 409.086ZM404.14 417.532H410.946V427.602H437.573V433.028H404.14V417.532ZM458.325 389.059C460.848 389.059 463.117 389.563 465.131 390.57C467.157 391.577 468.748 392.975 469.904 394.765C471.06 396.555 471.644 398.581 471.657 400.844C471.644 403.106 471.06 405.133 469.904 406.923C468.748 408.713 467.157 410.111 465.131 411.118C463.117 412.125 460.848 412.628 458.325 412.628C455.826 412.628 453.564 412.125 451.537 411.118C449.511 410.111 447.914 408.713 446.745 406.923C445.589 405.133 445.011 403.106 445.011 400.844C445.011 398.594 445.589 396.574 446.745 394.784C447.914 392.981 449.511 391.577 451.537 390.57C453.564 389.563 455.826 389.059 458.325 389.059ZM443.016 418.689C448.796 418.689 454.216 418.589 459.276 418.39C464.335 418.191 469.146 417.775 473.708 417.141L474.211 421.989C470.93 422.623 467.523 423.102 463.993 423.425C460.463 423.735 457.137 423.934 454.017 424.021C450.897 424.108 447.485 424.152 443.78 424.152L443.016 418.689ZM451.686 400.844C451.686 402.075 451.972 403.144 452.544 404.051C453.116 404.946 453.905 405.63 454.912 406.102C455.919 406.575 457.057 406.811 458.325 406.811C459.617 406.811 460.773 406.575 461.793 406.102C462.812 405.63 463.614 404.946 464.198 404.051C464.795 403.156 465.093 402.087 465.093 400.844C465.093 399.626 464.795 398.569 464.198 397.674C463.614 396.767 462.812 396.077 461.793 395.604C460.773 395.119 459.617 394.877 458.325 394.877C457.057 394.877 455.919 395.119 454.912 395.604C453.905 396.077 453.116 396.767 452.544 397.674C451.972 398.569 451.686 399.626 451.686 400.844ZM476.43 385.834H483.124V433.979H476.43V385.834ZM515.146 389.227C517.284 389.227 519.224 389.793 520.964 390.924C522.704 392.043 524.128 393.64 525.234 395.716H535.751V385.834H542.407V433.979H535.751V415.985H525.719C524.65 418.372 523.195 420.218 521.356 421.523C519.528 422.816 517.458 423.462 515.146 423.462C512.722 423.462 510.566 422.766 508.676 421.374C506.787 419.969 505.313 417.974 504.257 415.388C503.2 412.79 502.672 409.763 502.672 406.307C502.672 402.889 503.2 399.887 504.257 397.301C505.313 394.715 506.787 392.727 508.676 391.334C510.566 389.93 512.722 389.227 515.146 389.227ZM509.124 406.307C509.124 408.657 509.372 410.664 509.869 412.33C510.367 413.983 511.069 415.239 511.976 416.097C512.884 416.942 513.941 417.365 515.146 417.365C516.365 417.365 517.421 416.942 518.316 416.097C519.224 415.239 519.926 413.983 520.423 412.33C520.933 410.664 521.188 408.657 521.188 406.307C521.188 403.983 520.933 401.994 520.423 400.34C519.926 398.687 519.224 397.438 518.316 396.593C517.409 395.735 516.352 395.306 515.146 395.306C513.941 395.306 512.884 395.735 511.976 396.593C511.069 397.438 510.367 398.687 509.869 400.34C509.372 401.994 509.124 403.983 509.124 406.307ZM527.099 401.142C527.409 402.796 527.565 404.517 527.565 406.307C527.565 407.787 527.459 409.216 527.248 410.596H535.751V401.142H527.099ZM589.04 414.363H582.327V403.026H574.831V397.544H582.327V385.834H589.04V414.363ZM548.279 409.048C550.79 408.215 552.903 407.022 554.619 405.468C556.334 403.914 557.621 402.162 558.479 400.21C559.349 398.258 559.809 396.244 559.858 394.169H550.237V388.761H576.267V394.169H566.702C566.764 396.095 567.205 397.948 568.025 399.725C568.846 401.503 570.07 403.1 571.699 404.517C573.34 405.934 575.354 407.041 577.74 407.836L574.421 413.132C571.848 412.287 569.635 411.05 567.783 409.421C565.943 407.78 564.476 405.847 563.383 403.622C562.301 406.146 560.784 408.334 558.833 410.186C556.894 412.026 554.538 413.424 551.766 414.381L548.279 409.048ZM556.148 424.674C556.148 422.747 556.807 421.094 558.124 419.714C559.454 418.322 561.356 417.259 563.83 416.526C566.304 415.792 569.238 415.425 572.631 415.425C576.037 415.425 578.977 415.792 581.451 416.526C583.937 417.259 585.845 418.322 587.175 419.714C588.505 421.094 589.171 422.747 589.171 424.674C589.171 426.601 588.505 428.254 587.175 429.634C585.845 431.026 583.937 432.089 581.451 432.823C578.977 433.556 576.037 433.923 572.631 433.923C569.238 433.923 566.298 433.55 563.811 432.804C561.338 432.07 559.442 431.014 558.124 429.634C556.807 428.254 556.148 426.601 556.148 424.674ZM562.842 424.674C562.829 426.029 563.644 427.055 565.284 427.751C566.938 428.434 569.343 428.776 572.501 428.776C575.758 428.776 578.231 428.434 579.922 427.751C581.625 427.067 582.483 426.041 582.495 424.674C582.483 423.307 581.637 422.275 579.959 421.579C578.281 420.883 575.838 420.535 572.631 420.535C569.424 420.535 566.988 420.883 565.322 421.579C563.656 422.275 562.829 423.307 562.842 424.674ZM617.119 386.542C620.799 386.542 623.938 386.859 626.536 387.493C629.146 388.115 631.135 389.035 632.503 390.253C633.883 391.471 634.572 392.956 634.572 394.709C634.572 396.487 633.889 397.991 632.521 399.222C631.154 400.452 629.165 401.385 626.555 402.019C623.956 402.64 620.811 402.951 617.119 402.951C613.427 402.951 610.276 402.64 607.666 402.019C605.055 401.385 603.066 400.452 601.699 399.222C600.331 397.991 599.648 396.487 599.648 394.709C599.648 392.969 600.331 391.49 601.699 390.271C603.066 389.041 605.055 388.115 607.666 387.493C610.276 386.859 613.427 386.542 617.119 386.542ZM595.266 405.226H639.048V410.559H595.266V405.226ZM600.319 413.318H633.696V425.569H606.957V428.459H634.945V433.531H600.356V420.87H627.058V418.26H600.319V413.318ZM606.696 394.709C606.684 395.492 607.057 396.126 607.815 396.611C608.573 397.096 609.717 397.45 611.246 397.674C612.775 397.885 614.733 397.997 617.119 398.01C619.543 397.997 621.52 397.885 623.049 397.674C624.59 397.45 625.74 397.096 626.499 396.611C627.257 396.126 627.636 395.492 627.636 394.709C627.636 393.653 626.778 392.851 625.063 392.304C623.347 391.744 620.755 391.465 617.287 391.465C613.732 391.465 611.072 391.738 609.307 392.285C607.541 392.832 606.671 393.64 606.696 394.709ZM694.695 433.867H687.889V385.834H694.695V433.867ZM654.53 420.273C658.632 418.322 662.014 416.165 664.674 413.803C667.334 411.441 669.373 408.818 670.79 405.934C672.207 403.038 673.096 399.781 673.456 396.164H657.103V390.887H680.318C680.306 396.021 679.61 400.689 678.23 404.89C676.85 409.092 674.519 412.945 671.237 416.451C667.968 419.956 663.568 423.015 658.036 425.625L654.53 420.273ZM744.889 416.973H700.995V411.603H719.623V408.116H706.458V394.914H732.843V391.987H706.384V386.785H739.593V399.762H713.153V402.951H740.47V408.116H726.28V411.603H744.889V416.973ZM705.899 419.695H739.854V433.643H733.067V424.991H705.899V419.695ZM770.861 398.532H747.628V393.18H756.019V387.195H762.638V393.18H770.861V398.532ZM748.784 412.05C748.784 409.875 749.238 407.923 750.145 406.195C751.052 404.468 752.308 403.119 753.912 402.149C755.528 401.18 757.342 400.695 759.356 400.695C761.383 400.695 763.191 401.18 764.782 402.149C766.386 403.119 767.635 404.468 768.53 406.195C769.438 407.911 769.892 409.863 769.892 412.05C769.892 414.263 769.438 416.24 768.53 417.98C767.635 419.72 766.386 421.081 764.782 422.064C763.191 423.033 761.383 423.518 759.356 423.518C757.342 423.518 755.528 423.033 753.912 422.064C752.308 421.081 751.052 419.72 750.145 417.98C749.238 416.24 748.784 414.263 748.784 412.05ZM754.695 412.05C754.695 413.256 754.887 414.294 755.273 415.164C755.658 416.035 756.199 416.7 756.895 417.16C757.604 417.607 758.424 417.825 759.356 417.812C760.264 417.825 761.066 417.607 761.762 417.16C762.458 416.7 762.999 416.035 763.384 415.164C763.782 414.294 763.981 413.256 763.981 412.05C763.981 410.869 763.782 409.844 763.384 408.974C762.999 408.104 762.452 407.439 761.743 406.979C761.047 406.506 760.251 406.27 759.356 406.27C758.436 406.27 757.622 406.506 756.914 406.979C756.205 407.439 755.658 408.104 755.273 408.974C754.887 409.844 754.695 410.869 754.695 412.05ZM772.633 386.785H778.935V405.394H782.832V385.834H789.228V433.867H782.832V410.764H778.935V431.797H772.633V386.785ZM838.284 428.273H794.391V422.809H812.907V413.915H799.034V388.91H805.784V396.387H826.705V388.91H833.418V413.915H819.564V422.809H838.284V428.273ZM826.705 408.545V401.72H805.784V408.545H826.705ZM856.425 397.935C856.425 402.236 857.109 406.152 858.477 409.682C859.856 413.213 862.088 415.966 865.171 417.943L861.497 423.126C857.631 420.789 854.865 416.948 853.2 411.603C852.317 414.425 851.13 416.917 849.638 419.08C848.159 421.231 846.369 422.946 844.268 424.227L840.166 419.229C842.441 417.825 844.299 416.016 845.741 413.803C847.195 411.578 848.252 409.148 848.911 406.512C849.57 403.865 849.899 401.111 849.899 398.252V389.973H856.425V397.935ZM860.099 402.056H866.308V386.579H872.61V431.648H866.308V407.538H860.099V402.056ZM876.209 385.834H882.642V433.867H876.209V385.834ZM931.624 428.235H887.731V422.753H897.52V410.969C895.631 409.825 894.164 408.414 893.12 406.736C892.088 405.046 891.578 403.162 891.591 401.086C891.591 398.55 892.361 396.307 893.903 394.355C895.444 392.403 897.582 390.893 900.317 389.824C903.052 388.742 906.141 388.202 909.584 388.202C913.04 388.202 916.135 388.742 918.87 389.824C921.617 390.893 923.768 392.403 925.322 394.355C926.888 396.307 927.671 398.55 927.671 401.086C927.671 403.137 927.168 404.996 926.161 406.662C925.154 408.315 923.724 409.713 921.872 410.857V422.753H931.624V428.235ZM898.21 401.086C898.21 402.64 898.676 403.989 899.608 405.133C900.553 406.276 901.883 407.159 903.599 407.78C905.314 408.402 907.309 408.713 909.584 408.713C911.847 408.713 913.842 408.402 915.57 407.78C917.298 407.159 918.64 406.276 919.597 405.133C920.555 403.989 921.033 402.64 921.033 401.086C921.033 399.508 920.555 398.146 919.597 397.003C918.64 395.859 917.298 394.989 915.57 394.392C913.854 393.796 911.859 393.503 909.584 393.516C907.297 393.503 905.296 393.796 903.58 394.392C901.877 394.989 900.553 395.859 899.608 397.003C898.676 398.146 898.21 399.508 898.21 401.086ZM915.066 422.753V413.412C913.251 413.747 911.424 413.915 909.584 413.915C907.682 413.915 905.88 413.747 904.177 413.412V422.753H915.066Z" fill="#242424"/>
<path d="M579.373 498.05V499.326C579.367 500.652 579.367 502.105 579.003 504.099H580.898V505.707H575.351V511.453H573.34V505.707H567.925V504.099H576.992C577.351 502.26 577.384 500.867 577.39 499.635H569.412V498.05H579.373ZM593.223 497.801V498.768C593.223 499.674 593.223 500.818 592.947 502.249H594.759V503.812H581.754V502.249H590.936C591.168 501.088 591.218 500.16 591.229 499.37H583.345V497.801H593.223ZM583.223 506.354V504.812H593.162V508.79H585.218V509.79H593.538V511.331H583.234V507.298H591.19V506.354H583.223ZM611.59 497.21V511.442H609.711V497.21H611.59ZM599.054 507.077C601.927 505.37 603.197 503.298 603.474 500.508H599.877V498.906H605.446C605.446 499.619 605.402 500.304 605.313 500.967H606.739V497.536H608.623V510.807H606.739V506.122H604.722V504.508H606.739V502.586H604.982C604.319 504.928 602.871 506.906 600.219 508.475L599.054 507.077ZM625.081 497.21V505.663H623.092V502.304H620.871V500.68H623.092V497.21H625.081ZM613.003 504.088C615.324 503.315 616.39 501.464 616.434 499.68H613.583V498.077H621.296V499.68H618.462C618.512 501.331 619.528 503 621.733 503.729L620.749 505.298C619.18 504.785 618.103 503.757 617.479 502.481C616.86 503.928 615.722 505.088 614.037 505.669L613.003 504.088ZM615.335 508.718C615.329 506.994 617.191 505.978 620.219 505.978C623.258 505.978 625.114 506.994 625.119 508.718C625.114 510.442 623.258 511.453 620.219 511.459C617.191 511.453 615.329 510.442 615.335 508.718ZM617.318 508.718C617.313 509.53 618.335 509.939 620.219 509.934C622.108 509.939 623.136 509.53 623.141 508.718C623.136 507.901 622.108 507.492 620.219 507.492C618.335 507.492 617.313 507.901 617.318 508.718ZM633.401 497.945C636.412 497.945 638.76 499.569 638.76 502.033C638.76 504.514 636.412 506.133 633.401 506.133C630.401 506.133 628.064 504.514 628.069 502.033C628.064 499.569 630.401 497.945 633.401 497.945ZM626.925 509.707V508.094H639.931V509.707H626.925ZM630.003 502.033C629.997 503.58 631.428 504.497 633.401 504.497C635.367 504.497 636.787 503.58 636.793 502.033C636.787 500.508 635.367 499.547 633.401 499.558C631.428 499.547 629.997 500.508 630.003 502.033ZM653.759 508.221V509.851H640.754V508.221H646.24V506.072H642.251V501.287H650.289V499.74H642.229V498.138H652.262V502.851H644.24V504.453H652.593V506.072H648.212V508.221H653.759ZM663.805 500.436C663.794 503.05 664.976 505.669 667.396 506.685L666.219 508.282C664.595 507.541 663.468 506.127 662.822 504.37C662.181 506.287 661.021 507.84 659.286 508.63L658.081 506.972C660.568 505.923 661.772 503.199 661.783 500.436V498.309H663.805V500.436ZM668.153 511.475V497.21H670.17V511.475H668.153ZM680.18 498.05V499.641H677.34C677.346 501.309 678.351 503.011 680.65 503.757L679.639 505.293C678.064 504.785 676.981 503.768 676.357 502.503C675.722 503.89 674.589 504.994 672.937 505.536L671.882 504C674.23 503.238 675.296 501.42 675.329 499.641H672.423V498.05H680.18ZM673.804 507.994V506.403H683.379V511.442H681.379V507.994H673.804ZM681.379 505.796V497.21H683.379V500.669H685.291V502.326H683.379V505.796H681.379ZM697.141 497.21V502.785H699.24V504.425H697.141V511.442H695.169V497.21H697.141ZM685.848 500.934V499.337H689.069V497.436H691.058V499.337H694.207V500.934H685.848ZM686.423 505.122C686.417 503.138 687.964 501.729 690.064 501.729C692.135 501.729 693.688 503.138 693.693 505.122C693.688 507.11 692.135 508.508 690.064 508.514C687.964 508.508 686.417 507.11 686.423 505.122ZM688.334 505.122C688.329 506.227 689.058 506.884 690.064 506.878C691.058 506.884 691.776 506.227 691.787 505.122C691.776 504.033 691.058 503.359 690.064 503.348C689.058 503.359 688.329 504.033 688.334 505.122ZM711.698 497.21V511.442H709.682V497.21H711.698ZM699.798 507.414C703.466 505.674 705.085 503.431 705.405 500.271H700.56V498.707H707.439C707.433 503.017 705.919 506.602 700.836 509L699.798 507.414Z" fill="white"/>
</g>
</g>
<defs>
<linearGradient id="paint0_linear_1358_4360" x1="933" y1="374" x2="348" y2="374" gradientUnits="userSpaceOnUse">
<stop stop-color="#BEA0E6"/>
<stop offset="1" stop-color="#586EFF" stop-opacity="0.9"/>
</linearGradient>
<clipPath id="clip0_1358_4360">
<rect width="1280" height="832" fill="white"/>
</clipPath>
</defs>
</svg>
