<svg width="44" height="44" viewBox="0 0 44 44" fill="none" xmlns="http://www.w3.org/2000/svg">
<path d="M40.5 25.0772H25.0833V40.4938C25.0833 41.3116 24.7584 42.0958 24.1802 42.6741C23.602 43.2523 22.8177 43.5772 22 43.5772C21.1822 43.5772 20.398 43.2523 19.8197 42.6741C19.2415 42.0958 18.9166 41.3116 18.9166 40.4938V25.0772H3.49996C2.68221 25.0772 1.89795 24.7523 1.31971 24.1741C0.741477 23.5958 0.416626 22.8116 0.416626 21.9938C0.416626 21.1761 0.741477 20.3918 1.31971 19.8136C1.89795 19.2353 2.68221 18.9105 3.49996 18.9105H18.9166V3.49383C18.9166 2.67608 19.2415 1.89182 19.8197 1.31359C20.398 0.735349 21.1822 0.4105 22 0.4105C22.8177 0.4105 23.602 0.735349 24.1802 1.31359C24.7584 1.89182 25.0833 2.67608 25.0833 3.49383V18.9105H40.5C41.3177 18.9105 42.102 19.2353 42.6802 19.8136C43.2584 20.3918 43.5833 21.1761 43.5833 21.9938C43.5833 22.8116 43.2584 23.5958 42.6802 24.1741C42.102 24.7523 41.3177 25.0772 40.5 25.0772Z" fill="#C5C5C5"/>
</svg>
