<svg width="4" height="15" viewBox="0 0 4 15" fill="none" xmlns="http://www.w3.org/2000/svg">
<path d="M2 13.5C2.19891 13.5 2.38968 13.421 2.53033 13.2803C2.67098 13.1397 2.75 12.9489 2.75 12.75C2.75 12.5511 2.67098 12.3603 2.53033 12.2197C2.38968 12.079 2.19891 12 2 12C1.80109 12 1.61032 12.079 1.46967 12.2197C1.32902 12.3603 1.25 12.5511 1.25 12.75C1.25 12.9489 1.32902 13.1397 1.46967 13.2803C1.61032 13.421 1.80109 13.5 2 13.5ZM2 8.25C2.19891 8.25 2.38968 8.17098 2.53033 8.03033C2.67098 7.88968 2.75 7.69891 2.75 7.5C2.75 7.30109 2.67098 7.11032 2.53033 6.96967C2.38968 6.82902 2.19891 6.75 2 6.75C1.80109 6.75 1.61032 6.82902 1.46967 6.96967C1.32902 7.11032 1.25 7.30109 1.25 7.5C1.25 7.69891 1.32902 7.88968 1.46967 8.03033C1.61032 8.17098 1.80109 8.25 2 8.25ZM2 3C2.19891 3 2.38968 2.92098 2.53033 2.78033C2.67098 2.63968 2.75 2.44891 2.75 2.25C2.75 2.05109 2.67098 1.86032 2.53033 1.71967C2.38968 1.57902 2.19891 1.5 2 1.5C1.80109 1.5 1.61032 1.57902 1.46967 1.71967C1.32902 1.86032 1.25 2.05109 1.25 2.25C1.25 2.44891 1.32902 2.63968 1.46967 2.78033C1.61032 2.92098 1.80109 3 2 3Z" fill="#AEAEAE" stroke="#AEAEAE" stroke-width="2"/>
</svg>
