<svg width="28" height="28" viewBox="0 0 28 28" fill="none" xmlns="http://www.w3.org/2000/svg">
<path fill-rule="evenodd" clip-rule="evenodd" d="M19.5999 8.55999V11.098C19.9151 11.098 20.2272 11.1584 20.5184 11.2758C20.8096 11.3932 21.0742 11.5653 21.297 11.7823C21.5199 11.9992 21.6967 12.2568 21.8173 12.5402C21.9379 12.8237 22 13.1275 22 13.4343C22 13.7411 21.9379 14.0449 21.8173 14.3283C21.6967 14.6118 21.5199 14.8693 21.297 15.0863C21.0742 15.3032 20.8096 15.4753 20.5184 15.5927C20.2272 15.7101 19.9151 15.7706 19.5999 15.7706V18.1068C19.5999 19.3902 18.095 20.1231 17.0398 19.3529L15.3917 18.1489C14.5108 17.506 13.485 17.0767 12.3996 16.8966V19.1114C12.3997 19.6206 12.2107 20.1125 11.8675 20.4967C11.5243 20.8809 11.05 21.1313 10.532 21.2019C10.0141 21.2724 9.48735 21.1584 9.04898 20.8807C8.61062 20.603 8.29015 20.1804 8.14664 19.6908L6.89059 15.4108C6.43859 14.8912 6.14443 14.2591 6.04119 13.5857C5.93795 12.9123 6.02971 12.2243 6.30616 11.5988C6.58261 10.9734 7.03279 10.4354 7.6061 10.0454C8.17941 9.65536 8.85312 9.42871 9.5515 9.39093L11.966 9.2601C13.1474 9.19622 14.2963 8.86018 15.3181 8.27964L17.1934 7.21429C18.2606 6.60919 19.5999 7.35758 19.5999 8.55999ZM8.90667 16.6101L9.68511 19.2633C9.72257 19.3917 9.8065 19.5026 9.92141 19.5755C10.0363 19.6484 10.1744 19.6784 10.3103 19.6599C10.4461 19.6414 10.5705 19.5756 10.6604 19.4748C10.7503 19.374 10.7998 19.245 10.7996 19.1114V16.7674L9.5515 16.6996C9.33441 16.6869 9.11876 16.6569 8.90667 16.6101ZM17.9998 8.55999L16.1238 9.62612C14.9845 10.2738 13.7133 10.6709 12.3996 10.7896V15.3212C13.8293 15.5128 15.1901 16.0556 16.3518 16.9029L17.9998 18.1068V8.55999ZM10.7996 10.883L9.6395 10.9453C9.09984 10.9743 8.59095 11.1992 8.2133 11.5756C7.83564 11.952 7.61666 12.4525 7.59959 12.9784C7.58251 13.5042 7.76857 14.0172 8.12104 14.416C8.47352 14.8149 8.96679 15.0706 9.5035 15.1327L9.6395 15.1444L10.7996 15.2067V10.883ZM19.5999 12.6555V14.213C19.8038 14.2128 19.9999 14.1368 20.1482 14.0005C20.2965 13.8643 20.3857 13.6781 20.3977 13.4799C20.4096 13.2818 20.3434 13.0866 20.2125 12.9344C20.0816 12.7822 19.896 12.6844 19.6935 12.661L19.5999 12.6555Z" fill="#09A64D"/>
</svg>
