<svg width="24" height="32" viewBox="0 0 24 32" fill="none" xmlns="http://www.w3.org/2000/svg">
<g filter="url(#filter0_d_953_2702)">
<path d="M4 5.30317C4 2.9266 5.89868 1 8.24084 1H15.5175C17.8597 1 19.7584 2.9266 19.7584 5.30317C19.7584 6.80804 18.9971 8.13252 17.844 8.90162C18.9971 9.67078 19.7584 10.9952 19.7584 12.5001C19.7584 14.8767 17.8597 16.8033 15.5175 16.8033H15.4255C14.3275 16.8033 13.3269 16.3799 12.5738 15.6851V19.6501C12.5738 22.0583 10.6254 24 8.26368 24C5.92738 24 4 22.0793 4 19.6968C4 18.192 4.76121 16.8676 5.91424 16.0985C4.76121 15.3293 4 14.0049 4 12.5001C4 10.9952 4.76128 9.67078 5.91438 8.90162C4.76128 8.13252 4 6.80804 4 5.30317ZM11.1846 9.60645H8.24084C6.66587 9.60645 5.38912 10.902 5.38912 12.5001C5.38912 14.092 6.65602 15.3837 8.2226 15.3937C8.22866 15.3936 8.23473 15.3936 8.24084 15.3936H11.1846V9.60645ZM12.5738 12.5001C12.5738 14.0982 13.8505 15.3937 15.4255 15.3937H15.5175C17.0925 15.3937 18.3692 14.0982 18.3692 12.5001C18.3692 10.902 17.0925 9.60645 15.5175 9.60645H15.4255C13.8505 9.60645 12.5738 10.902 12.5738 12.5001ZM8.24084 16.8033C8.23473 16.8033 8.22866 16.8032 8.2226 16.8032C6.65602 16.8132 5.38912 18.1049 5.38912 19.6968C5.38912 21.2891 6.68292 22.5904 8.26368 22.5904C9.86991 22.5904 11.1846 21.2681 11.1846 19.6501V16.8033H8.24084ZM8.24084 2.40955C6.66587 2.40955 5.38912 3.70507 5.38912 5.30317C5.38912 6.9013 6.66587 8.1968 8.24084 8.1968H11.1846V2.40955H8.24084ZM12.5738 8.1968H15.5175C17.0925 8.1968 18.3692 6.9013 18.3692 5.30317C18.3692 3.70507 17.0925 2.40955 15.5175 2.40955H12.5738V8.1968Z" fill="#AEAEAE"/>
</g>
<defs>
<filter id="filter0_d_953_2702" x="-4" y="0" width="32" height="32" filterUnits="userSpaceOnUse" color-interpolation-filters="sRGB">
<feFlood flood-opacity="0" result="BackgroundImageFix"/>
<feColorMatrix in="SourceAlpha" type="matrix" values="0 0 0 0 0 0 0 0 0 0 0 0 0 0 0 0 0 0 127 0" result="hardAlpha"/>
<feOffset dy="4"/>
<feGaussianBlur stdDeviation="2"/>
<feComposite in2="hardAlpha" operator="out"/>
<feColorMatrix type="matrix" values="0 0 0 0 0 0 0 0 0 0 0 0 0 0 0 0 0 0 0.25 0"/>
<feBlend mode="normal" in2="BackgroundImageFix" result="effect1_dropShadow_953_2702"/>
<feBlend mode="normal" in="SourceGraphic" in2="effect1_dropShadow_953_2702" result="shape"/>
</filter>
</defs>
</svg>
