<svg width="16" height="23" viewBox="0 0 16 23" fill="none" xmlns="http://www.w3.org/2000/svg">
<path d="M0 4.30317C0 1.9266 1.89868 0 4.24084 0H11.5175C13.8597 0 15.7584 1.9266 15.7584 4.30317C15.7584 5.80804 14.9971 7.13252 13.844 7.90162C14.9971 8.67078 15.7584 9.99521 15.7584 11.5001C15.7584 13.8767 13.8597 15.8033 11.5175 15.8033H11.4255C10.3275 15.8033 9.32689 15.3799 8.57375 14.6851V18.6501C8.57375 21.0583 6.62544 23 4.26368 23C1.92738 23 0 21.0793 0 18.6968C0 17.192 0.761215 15.8676 1.91424 15.0985C0.761215 14.3293 0 13.0049 0 11.5001C0 9.99521 0.761281 8.67078 1.91438 7.90162C0.761281 7.13252 0 5.80804 0 4.30317ZM7.18462 8.60645H4.24084C2.66587 8.60645 1.38912 9.90199 1.38912 11.5001C1.38912 13.092 2.65602 14.3837 4.2226 14.3937C4.22866 14.3936 4.23473 14.3936 4.24084 14.3936H7.18462V8.60645ZM8.57375 11.5001C8.57375 13.0982 9.85048 14.3937 11.4255 14.3937H11.5175C13.0925 14.3937 14.3692 13.0982 14.3692 11.5001C14.3692 9.90199 13.0925 8.60645 11.5175 8.60645H11.4255C9.85048 8.60645 8.57375 9.90199 8.57375 11.5001ZM4.24084 15.8033C4.23473 15.8033 4.22866 15.8032 4.2226 15.8032C2.65602 15.8132 1.38912 17.1049 1.38912 18.6968C1.38912 20.2891 2.68292 21.5904 4.26368 21.5904C5.86991 21.5904 7.18462 20.2681 7.18462 18.6501V15.8033H4.24084ZM4.24084 1.40955C2.66587 1.40955 1.38912 2.70507 1.38912 4.30317C1.38912 5.9013 2.66587 7.1968 4.24084 7.1968H7.18462V1.40955H4.24084ZM8.57375 7.1968H11.5175C13.0925 7.1968 14.3692 5.9013 14.3692 4.30317C14.3692 2.70507 13.0925 1.40955 11.5175 1.40955H8.57375V7.1968Z" fill="#AEAEAE"/>
</svg>
