<svg width="28" height="28" viewBox="0 0 28 28" fill="none" xmlns="http://www.w3.org/2000/svg">
<g clip-path="url(#clip0_1397_3608)">
<mask id="mask0_1397_3608" style="mask-type:luminance" maskUnits="userSpaceOnUse" x="0" y="0" width="28" height="28">
<path d="M28 0H0V28H28V0Z" fill="white"/>
</mask>
<g mask="url(#mask0_1397_3608)">
<path fill-rule="evenodd" clip-rule="evenodd" d="M6.23927 1.95782L20.3059 0.017588C21.2204 -0.108546 22.0814 0.456359 22.272 1.30753L27.7588 25.8064C27.9881 26.8302 27.1581 27.7933 26.0464 27.7933H1.75058C0.647721 27.7933 -0.180198 26.8447 0.0338651 25.8264L4.7763 3.26776C4.92012 2.58366 5.50614 2.05894 6.23927 1.95782ZM5.23792 21.3464H6.05459C6.05071 21.0866 5.93792 20.8742 5.71626 20.7095C5.45959 20.5229 5.10959 20.4295 4.66626 20.4295C4.30071 20.4295 4.00514 20.5028 3.77959 20.6492C3.52292 20.8212 3.39459 21.0664 3.39459 21.3848C3.39459 21.5788 3.45292 21.7326 3.56959 21.846C3.65905 21.9375 3.82626 22.018 4.07126 22.0876L5.02792 22.3621C5.2068 22.4133 5.29626 22.492 5.29626 22.5982C5.29626 22.7775 5.09597 22.8672 4.69542 22.8672C4.45821 22.8672 4.29488 22.8471 4.20542 22.8068C4.11988 22.7666 4.06542 22.686 4.04209 22.5652H3.24292C3.25847 22.8764 3.37905 23.1015 3.60459 23.2405C3.83405 23.3869 4.21321 23.4601 4.74209 23.4601C5.17376 23.4601 5.5043 23.376 5.73376 23.2076C5.97876 23.0246 6.10126 22.7848 6.10126 22.4884C6.10126 22.1114 5.89905 21.8698 5.49459 21.7637L4.47959 21.4946C4.29292 21.4471 4.19959 21.3739 4.19959 21.275C4.19959 21.1067 4.35321 21.0225 4.66042 21.0225C4.87042 21.0225 5.01821 21.0481 5.10376 21.0993C5.1893 21.1469 5.23405 21.2293 5.23792 21.3464ZM8.13067 20.9895V20.4899H7.58817V19.5731L6.78317 20.0068V20.4899H6.38651V20.9895H6.78317V22.7793C6.78317 23.2332 7.04567 23.4601 7.57067 23.4601C7.83901 23.4601 8.09567 23.4034 8.34067 23.2899L8.24734 22.7739C8.23955 22.7775 8.22984 22.783 8.21817 22.7903C8.07817 22.8562 7.96343 22.8891 7.87401 22.8891C7.7651 22.8891 7.68927 22.869 7.64651 22.8288C7.6076 22.7885 7.58817 22.7153 7.58817 22.6092V20.9895H8.13067ZM9.4722 22.1425H11.5489C11.5527 22.0876 11.5547 22.0418 11.5547 22.0052C11.5547 21.7161 11.5139 21.469 11.4322 21.2641C11.3311 21.0005 11.1619 20.7956 10.9247 20.6492C10.6875 20.5028 10.4114 20.4295 10.0964 20.4295C9.68415 20.4295 9.35165 20.5503 9.09886 20.7919C8.81107 21.0737 8.6672 21.4727 8.6672 21.9888C8.6672 22.4133 8.77803 22.7556 8.9997 23.0154C9.25248 23.3119 9.61415 23.4601 10.0847 23.4601C10.4308 23.4601 10.7322 23.3778 10.9889 23.2131C11.2494 23.0447 11.4244 22.8178 11.5139 22.5323H10.7205C10.6194 22.7666 10.4191 22.8837 10.1197 22.8837C9.87857 22.8837 9.70165 22.8031 9.58886 22.6421C9.52274 22.5433 9.48386 22.3768 9.4722 22.1425ZM10.0905 21.006C10.4677 21.006 10.6758 21.2183 10.7147 21.6429H9.48386C9.53441 21.2183 9.73665 21.006 10.0905 21.006ZM12.9173 20.9072V20.4899H12.1123V24.5746H12.9173V23.0484C13.1079 23.3229 13.3937 23.4601 13.7748 23.4601C14.1248 23.4601 14.4184 23.3375 14.6557 23.0923C14.9318 22.8068 15.0698 22.4317 15.0698 21.9668C15.0698 21.5349 14.959 21.1744 14.7373 20.8852C14.6323 20.7498 14.4904 20.64 14.3115 20.5558C14.1365 20.4717 13.9576 20.4295 13.7748 20.4295C13.3898 20.4295 13.104 20.5888 12.9173 20.9072ZM13.0982 21.308C13.2226 21.1433 13.3859 21.0609 13.5882 21.0609C13.7904 21.0609 13.9537 21.1433 14.0782 21.308C14.2026 21.469 14.2648 21.6831 14.2648 21.9503C14.2648 22.2139 14.2026 22.4262 14.0782 22.5872C13.9537 22.7482 13.7904 22.8288 13.5882 22.8288C13.3859 22.8288 13.2226 22.7482 13.0982 22.5872C12.9737 22.4262 12.9115 22.2139 12.9115 21.9503C12.9115 21.6831 12.9737 21.469 13.0982 21.308ZM16.4378 20.9072V20.4899H15.6328V24.5746H16.4378V23.0484C16.6284 23.3229 16.9142 23.4601 17.2953 23.4601C17.6453 23.4601 17.9389 23.3375 18.1762 23.0923C18.4523 22.8068 18.5903 22.4317 18.5903 21.9668C18.5903 21.5349 18.4795 21.1744 18.2578 20.8852C18.1528 20.7498 18.0109 20.64 17.832 20.5558C17.657 20.4717 17.4781 20.4295 17.2953 20.4295C16.9103 20.4295 16.6245 20.5888 16.4378 20.9072ZM16.6187 21.308C16.7431 21.1433 16.9064 21.0609 17.1087 21.0609C17.3109 21.0609 17.4742 21.1433 17.5987 21.308C17.7231 21.469 17.7853 21.6831 17.7853 21.9503C17.7853 22.2139 17.7231 22.4262 17.5987 22.5872C17.4742 22.7482 17.3109 22.8288 17.1087 22.8288C16.9064 22.8288 16.7431 22.7482 16.6187 22.5872C16.4942 22.4262 16.432 22.2139 16.432 21.9503C16.432 21.6831 16.4942 21.469 16.6187 21.308ZM19.7717 22.1425H21.8483C21.8522 22.0876 21.8542 22.0418 21.8542 22.0052C21.8542 21.7161 21.8133 21.469 21.7317 21.2641C21.6306 21.0005 21.4614 20.7956 21.2242 20.6492C20.987 20.5028 20.7108 20.4295 20.3958 20.4295C19.9836 20.4295 19.6511 20.5503 19.3983 20.7919C19.1106 21.0737 18.9667 21.4727 18.9667 21.9888C18.9667 22.4133 19.0775 22.7556 19.2992 23.0154C19.552 23.3119 19.9136 23.4601 20.3842 23.4601C20.7303 23.4601 21.0317 23.3778 21.2883 23.2131C21.5489 23.0447 21.7239 22.8178 21.8133 22.5323H21.02C20.9189 22.7666 20.7186 22.8837 20.4192 22.8837C20.1781 22.8837 20.0011 22.8031 19.8883 22.6421C19.8222 22.5433 19.7833 22.3768 19.7717 22.1425ZM20.39 21.006C20.7672 21.006 20.9753 21.2183 21.0142 21.6429H19.7833C19.8339 21.2183 20.0361 21.006 20.39 21.006ZM23.2226 20.4899H22.4176V23.3997H23.2226V21.8405C23.2226 21.5733 23.281 21.3885 23.3976 21.286C23.4987 21.1945 23.6815 21.1488 23.946 21.1488C24.051 21.1488 24.1521 21.1579 24.2493 21.1762L24.2435 20.4295H24.086C23.6115 20.4295 23.3237 20.6345 23.2226 21.0444V20.4899Z" fill="#90DEA3"/>
</g>
</g>
<defs>
<clipPath id="clip0_1397_3608">
<rect width="28" height="28" fill="white"/>
</clipPath>
</defs>
</svg>
