<svg width="28" height="28" viewBox="0 0 28 28" fill="none" xmlns="http://www.w3.org/2000/svg">
<path d="M13.111 1.72546C13.4834 1.00278 14.5166 1.00278 14.889 1.72546L16.8269 5.48705C17.0506 5.9213 17.5554 6.13036 18.0206 5.9815L22.0508 4.692C22.8251 4.44426 23.5557 5.17489 23.308 5.94918L22.0185 9.97938C21.8696 10.4446 22.0787 10.9493 22.5129 11.1731L26.2745 13.111C26.9972 13.4834 26.9972 14.5166 26.2745 14.889L22.5129 16.8269C22.0787 17.0506 21.8696 17.5554 22.0185 18.0206L23.308 22.0508C23.5557 22.8251 22.8251 23.5557 22.0508 23.308L18.0206 22.0185C17.5554 21.8696 17.0506 22.0787 16.8269 22.5129L14.889 26.2745C14.5166 26.9972 13.4834 26.9972 13.111 26.2745L11.1731 22.5129C10.9493 22.0787 10.4446 21.8696 9.97938 22.0185L5.94918 23.308C5.17489 23.5557 4.44426 22.8251 4.692 22.0508L5.9815 18.0206C6.13036 17.5554 5.9213 17.0506 5.48705 16.8269L1.72546 14.889C1.00278 14.5166 1.00278 13.4834 1.72546 13.111L5.48705 11.1731C5.9213 10.9493 6.13036 10.4446 5.9815 9.97938L4.692 5.94918C4.44426 5.17489 5.17489 4.44426 5.94918 4.692L9.97938 5.9815C10.4446 6.13036 10.9493 5.9213 11.1731 5.48705L13.111 1.72546Z" fill="#8F9EFF"/>
</svg>
