<svg width="259" height="48" viewBox="0 0 259 48" fill="none" xmlns="http://www.w3.org/2000/svg">
<g clip-path="url(#clip0_1397_3561)">
<path d="M251 0H8C3.58172 0 0 3.58172 0 8V40C0 44.4183 3.58172 48 8 48H251C255.418 48 259 44.4183 259 40V8C259 3.58172 255.418 0 251 0Z" fill="url(#paint0_linear_1397_3561)" fill-opacity="0.9"/>
<path d="M63.2226 23.5486C63.1582 23.1711 62.9717 22.8718 62.6632 22.6509C62.3548 22.4299 61.9611 22.3194 61.4823 22.3194C61.1738 22.3194 60.893 22.3654 60.6398 22.4575C60.3911 22.545 60.1955 22.6716 60.0527 22.8373C59.91 22.9985 59.8387 23.1826 59.8387 23.3898C59.8387 23.643 59.9445 23.8617 60.1563 24.0459C60.3727 24.2254 60.7203 24.3659 61.1991 24.4672L63.1121 24.8539C64.1388 25.0657 64.9031 25.4064 65.405 25.876C65.9068 26.3456 66.16 26.9625 66.1646 27.7268C66.1646 28.4174 65.9689 29.0252 65.5776 29.55C65.1863 30.0749 64.6361 30.4823 63.9271 30.7724C63.218 31.0625 62.3985 31.2075 61.4685 31.2075C60.5247 31.2075 59.7074 31.074 59.0168 30.8069C58.3262 30.5353 57.7829 30.1509 57.387 29.6536C56.9956 29.1518 56.7608 28.5532 56.6826 27.858H59.5831C59.6568 28.2678 59.8548 28.5809 60.177 28.7973C60.4993 29.009 60.9298 29.1149 61.4685 29.1149C61.998 29.1149 62.4215 29.0183 62.7392 28.8249C63.0569 28.6269 63.218 28.3576 63.2226 28.0169C63.218 27.7406 63.1006 27.515 62.8704 27.3401C62.6402 27.1605 62.2765 27.0201 61.7793 26.9188L60.0251 26.5735C59.0122 26.3755 58.248 26.021 57.7323 25.51C57.2166 24.9989 56.9611 24.3497 56.9657 23.5625C56.9657 22.8903 57.1476 22.3055 57.5113 21.8083C57.875 21.3111 58.393 20.9289 59.0652 20.6619C59.742 20.3903 60.5316 20.2544 61.434 20.2544C62.3179 20.2544 63.0891 20.388 63.7475 20.655C64.4059 20.922 64.9215 21.3042 65.2945 21.8014C65.6674 22.294 65.8792 22.8765 65.9298 23.5486H63.2226ZM73.5412 22.568H71.5384V27.7475C71.5384 28.1573 71.6305 28.4381 71.8147 28.5901C71.9988 28.7374 72.2705 28.8111 72.6296 28.8111C72.8368 28.8111 73.1867 28.795 73.6793 28.7627V31.0417C73.2465 31.1108 72.7378 31.1453 72.1531 31.1453C71.0619 31.1453 70.2032 30.8944 69.5771 30.3926C68.9509 29.8907 68.6402 29.1403 68.6448 28.1412V22.568H67.1876V20.3926H68.6448V17.8511H71.5384V20.3926H73.5412V22.568ZM80.039 31.2075C78.9663 31.2075 78.034 30.9865 77.2421 30.5445C76.4548 30.1025 75.8493 29.4718 75.4258 28.6522C75.0022 27.8281 74.7904 26.859 74.7904 25.7448C74.7904 24.6628 75.0022 23.7075 75.4258 22.8788C75.8493 22.0454 76.4479 21.4009 77.2214 20.9451C77.9994 20.4846 78.8995 20.2544 79.9216 20.2544C80.8701 20.2544 81.7195 20.457 82.47 20.8622C83.225 21.2627 83.819 21.8659 84.2517 22.6716C84.6845 23.4773 84.9009 24.4648 84.9009 25.6343V26.4423H77.6495C77.6495 26.9718 77.7485 27.4322 77.9465 27.8235C78.1491 28.2148 78.4322 28.5164 78.7959 28.7282C79.1643 28.9354 79.5947 29.039 80.0874 29.039C80.5708 29.039 80.9852 28.9446 81.3305 28.7558C81.6804 28.5625 81.929 28.3046 82.0763 27.9823H84.8249C84.6868 28.6361 84.406 29.2047 83.9824 29.6881C83.5588 30.1716 83.011 30.5468 82.3388 30.8138C81.6666 31.0763 80.9 31.2075 80.039 31.2075ZM82.173 24.6329C82.1684 24.2093 82.0717 23.8295 81.883 23.4934C81.6988 23.1573 81.441 22.8949 81.1095 22.7061C80.778 22.5127 80.4005 22.416 79.9769 22.416C79.5441 22.416 79.1551 22.515 78.8098 22.713C78.4645 22.911 78.1905 23.1803 77.9879 23.521C77.7854 23.8571 77.6726 24.2277 77.6495 24.6329H82.173ZM86.7099 20.3926H89.5621V22.1743H89.6933C89.9373 21.6403 90.301 21.1868 90.7845 20.8138C91.2679 20.4409 91.9102 20.2544 92.7113 20.2544C93.5124 20.2544 94.2398 20.4616 94.8936 20.876C95.5474 21.2904 96.0653 21.9073 96.4474 22.7268C96.8296 23.5463 97.0206 24.5408 97.0206 25.7102C97.0206 26.8567 96.8319 27.8419 96.4544 28.666C96.0814 29.4902 95.5681 30.114 94.9143 30.5376C94.2651 30.9612 93.5308 31.173 92.7113 31.173C91.9286 31.173 91.2909 30.9934 90.7983 30.6343C90.3056 30.2752 89.9373 29.8332 89.6933 29.3083H89.6035V34.9782H86.7099V20.3926ZM89.5414 25.6964C89.5414 26.3318 89.6288 26.8889 89.8038 27.3677C89.9834 27.8419 90.2435 28.2102 90.5842 28.4727C90.9249 28.7351 91.3323 28.8663 91.8066 28.8663C92.2854 28.8663 92.6928 28.7351 93.0289 28.4727C93.3696 28.2056 93.6275 27.835 93.8024 27.3608C93.9774 26.882 94.0648 26.3272 94.0648 25.6964C94.0648 25.0703 93.9774 24.5224 93.8024 24.0528C93.6321 23.5832 93.3765 23.2195 93.0358 22.9616C92.6997 22.6992 92.29 22.568 91.8066 22.568C91.3277 22.568 90.918 22.6946 90.5773 22.9478C90.2366 23.201 89.9788 23.5625 89.8038 24.0321C89.6288 24.5017 89.5414 25.0565 89.5414 25.6964ZM98.8778 20.3926H101.73V22.1743H101.861C102.105 21.6403 102.469 21.1868 102.952 20.8138C103.436 20.4409 104.078 20.2544 104.879 20.2544C105.68 20.2544 106.408 20.4616 107.061 20.876C107.715 21.2904 108.233 21.9073 108.615 22.7268C108.997 23.5463 109.188 24.5408 109.188 25.7102C109.188 26.8567 109 27.8419 108.622 28.666C108.249 29.4902 107.736 30.114 107.082 30.5376C106.433 30.9612 105.699 31.173 104.879 31.173C104.096 31.173 103.459 30.9934 102.966 30.6343C102.473 30.2752 102.105 29.8332 101.861 29.3083H101.771V34.9782H98.8778V20.3926ZM101.709 25.6964C101.709 26.3318 101.797 26.8889 101.972 27.3677C102.151 27.8419 102.411 28.2102 102.752 28.4727C103.093 28.7351 103.5 28.8663 103.974 28.8663C104.453 28.8663 104.861 28.7351 105.197 28.4727C105.537 28.2056 105.795 27.835 105.97 27.3608C106.145 26.882 106.233 26.3272 106.233 25.6964C106.233 25.0703 106.145 24.5224 105.97 24.0528C105.8 23.5832 105.544 23.2195 105.204 22.9616C104.868 22.6992 104.458 22.568 103.974 22.568C103.496 22.568 103.086 22.6946 102.745 22.9478C102.404 23.201 102.147 23.5625 101.972 24.0321C101.797 24.5017 101.709 25.0565 101.709 25.6964ZM115.859 31.2075C114.786 31.2075 113.854 30.9865 113.062 30.5445C112.275 30.1025 111.669 29.4718 111.246 28.6522C110.822 27.8281 110.611 26.859 110.611 25.7448C110.611 24.6628 110.822 23.7075 111.246 22.8788C111.669 22.0454 112.268 21.4009 113.041 20.9451C113.82 20.4846 114.72 20.2544 115.742 20.2544C116.69 20.2544 117.54 20.457 118.29 20.8622C119.045 21.2627 119.639 21.8659 120.072 22.6716C120.505 23.4773 120.721 24.4648 120.721 25.6343V26.4423H113.47C113.47 26.9718 113.569 27.4322 113.767 27.8235C113.969 28.2148 114.252 28.5164 114.616 28.7282C114.984 28.9354 115.415 29.039 115.907 29.039C116.391 29.039 116.805 28.9446 117.151 28.7558C117.5 28.5625 117.749 28.3046 117.896 27.9823H120.645C120.507 28.6361 120.226 29.2047 119.803 29.6881C119.379 30.1716 118.831 30.5468 118.159 30.8138C117.487 31.0763 116.72 31.2075 115.859 31.2075ZM117.993 24.6329C117.989 24.2093 117.892 23.8295 117.703 23.4934C117.519 23.1573 117.261 22.8949 116.93 22.7061C116.598 22.5127 116.221 22.416 115.797 22.416C115.364 22.416 114.975 22.515 114.63 22.713C114.285 22.911 114.011 23.1803 113.808 23.521C113.605 23.8571 113.493 24.2277 113.47 24.6329H117.993ZM122.53 20.3926H125.334V22.2365H125.444C125.633 21.5965 125.953 21.1039 126.404 20.7586C126.86 20.4133 127.392 20.2406 128 20.2406C128.299 20.2406 128.607 20.2706 128.925 20.3304V22.9133C128.787 22.8718 128.596 22.835 128.352 22.8028C128.108 22.7706 127.887 22.7544 127.689 22.7544C127.256 22.7544 126.867 22.8488 126.522 23.0376C126.181 23.2264 125.912 23.4888 125.714 23.8249C125.52 24.161 125.424 24.5431 125.424 24.9713V31.0003H122.53V20.3926ZM141.278 19.0459C141.273 20.1601 141.439 21.2351 141.775 22.271C142.111 23.3069 142.615 24.2277 143.287 25.0334C143.964 25.8392 144.791 26.4469 145.767 26.8567L144.296 28.8525C143.306 28.4013 142.454 27.7567 141.741 26.9188C141.027 26.0809 140.463 25.0956 140.049 23.963C139.634 25.2015 139.056 26.2788 138.315 27.1951C137.578 28.1113 136.683 28.8088 135.629 29.2876L134.123 27.2158C135.127 26.7922 135.974 26.1614 136.665 25.3235C137.355 24.4856 137.873 23.5256 138.218 22.4437C138.568 21.3571 138.746 20.2245 138.75 19.0459V16.387H141.278V19.0459ZM146.713 15.0127H149.234V32.8442H146.713V15.0127ZM161.747 18.0514H158.197C158.202 18.7742 158.351 19.4695 158.646 20.137C158.945 20.8046 159.403 21.4078 160.02 21.9464C160.642 22.4805 161.413 22.8972 162.334 23.1964L161.07 25.1163C160.112 24.8079 159.29 24.3544 158.604 23.7558C157.918 23.1527 157.373 22.4437 156.968 21.6288C156.558 22.5219 155.994 23.2954 155.276 23.9492C154.557 24.5984 153.697 25.0887 152.693 25.4202L151.374 23.5003C152.318 23.1964 153.109 22.7613 153.749 22.1951C154.389 21.6288 154.868 20.9888 155.186 20.2752C155.504 19.5615 155.669 18.8203 155.683 18.0514H152.051V16.0625H161.747V18.0514ZM153.777 26.5044H165.745V32.8028H163.245V28.4934H153.777V26.5044ZM163.245 15.0127H165.745V19.3359H168.135V21.4078H165.745V25.7448H163.245V15.0127ZM182.948 21.981H185.572V24.0321H182.948V32.8028H180.482V15.0127H182.948V21.981ZM168.832 17.6716H172.858V15.2959H175.344V17.6716H179.28V19.6674H168.832V17.6716ZM169.55 24.9022C169.55 24.0873 169.745 23.3576 170.137 22.713C170.528 22.0684 171.069 21.5666 171.76 21.2075C172.455 20.8438 173.235 20.6619 174.101 20.6619C174.957 20.6619 175.728 20.8438 176.414 21.2075C177.105 21.5666 177.648 22.0684 178.044 22.713C178.44 23.3576 178.638 24.0873 178.638 24.9022C178.638 25.7172 178.44 26.4469 178.044 27.0915C177.648 27.736 177.105 28.2402 176.414 28.6039C175.728 28.963 174.957 29.1426 174.101 29.1426C173.235 29.1426 172.455 28.963 171.76 28.6039C171.069 28.2402 170.528 27.736 170.137 27.0915C169.745 26.4469 169.55 25.7172 169.55 24.9022ZM171.939 24.9022C171.939 25.3534 172.029 25.7448 172.209 26.0763C172.393 26.4078 172.648 26.6633 172.975 26.8428C173.307 27.0178 173.682 27.103 174.101 27.0984C174.515 27.103 174.884 27.0178 175.206 26.8428C175.533 26.6633 175.788 26.4078 175.972 26.0763C176.157 25.7448 176.251 25.3534 176.256 24.9022C176.251 24.4556 176.157 24.0666 175.972 23.7351C175.788 23.4036 175.533 23.1481 175.206 22.9685C174.884 22.7844 174.515 22.69 174.101 22.6854C173.682 22.69 173.307 22.7844 172.975 22.9685C172.648 23.1481 172.393 23.4036 172.209 23.7351C172.029 24.0666 171.939 24.4556 171.939 24.9022ZM201.144 32.8028H198.624V15.0127H201.144V32.8028ZM186.269 27.7683C187.788 27.0454 189.04 26.2466 190.026 25.3718C191.011 24.4971 191.766 23.5256 192.291 22.4575C192.816 21.3847 193.145 20.1785 193.278 18.8387H187.222V16.8843H195.82C195.815 18.7858 195.557 20.5146 195.046 22.0707C194.535 23.6269 193.672 25.0542 192.457 26.3525C191.246 27.6509 189.616 28.7834 187.567 29.7503L186.269 27.7683Z" fill="white"/>
</g>
<defs>
<linearGradient id="paint0_linear_1397_3561" x1="327" y1="24" x2="0" y2="24" gradientUnits="userSpaceOnUse">
<stop stop-color="#BEA0E6"/>
<stop offset="1" stop-color="#586EFF" stop-opacity="0.9"/>
</linearGradient>
<clipPath id="clip0_1397_3561">
<rect width="259" height="48" fill="white"/>
</clipPath>
</defs>
</svg>
