<svg width="122" height="25" viewBox="0 0 122 25" fill="none" xmlns="http://www.w3.org/2000/svg">
<path d="M9.87997 9.47082L23.6633 0.0922241L24.22 4.0533L10.159 13.4611L9.87997 9.47082Z" fill="#BEA0E6"/>
<path d="M8 16.9078L25.841 8.35472L26.12 12.345L8 20.9078V16.9078Z" fill="#BEA0E6"/>
<path d="M8 16.9078H28V20.9078H8V16.9078Z" fill="#586EFF"/>
<path d="M9.87997 9.47082L25.841 8.35472L26.12 12.345L10.159 13.4611L9.87997 9.47082Z" fill="#586EFF"/>
<path d="M11.78 1.7623L23.6633 0.0922241L24.22 4.0533L12.3367 5.72337L11.78 1.7623Z" fill="#586EFF"/>
<path d="M44.416 10.048H42.256C42.192 8.816 41.368 8.2 39.784 8.2C38.968 8.2 38.32 8.36 37.84 8.68C37.376 8.984 37.144 9.4 37.144 9.928C37.144 10.728 37.904 11.304 39.424 11.656L41.32 12.088C42.552 12.376 43.44 12.784 43.984 13.312C44.528 13.84 44.8 14.56 44.8 15.472C44.8 16.64 44.344 17.568 43.432 18.256C42.52 18.928 41.288 19.264 39.736 19.264C38.04 19.264 36.752 18.864 35.872 18.064C35.136 17.408 34.744 16.536 34.696 15.448H36.928C37.056 16.008 37.232 16.416 37.456 16.672C37.888 17.184 38.696 17.44 39.88 17.44C40.76 17.44 41.456 17.28 41.968 16.96C42.496 16.624 42.76 16.184 42.76 15.64C42.76 14.824 42.128 14.264 40.864 13.96L39.016 13.528C37.608 13.192 36.624 12.792 36.064 12.328C35.424 11.8 35.104 11.04 35.104 10.048C35.104 8.928 35.528 8.04 36.376 7.384C37.24 6.728 38.392 6.4 39.832 6.4C41.336 6.4 42.504 6.776 43.336 7.528C44.056 8.184 44.416 9.024 44.416 10.048ZM52.2691 6.664V8.248H49.7491V16.456C49.7491 16.744 49.8451 16.992 50.0371 17.2C50.2451 17.392 50.5091 17.488 50.8291 17.488C51.1331 17.488 51.5971 17.416 52.2211 17.272L52.4371 19C51.4451 19.176 50.6931 19.264 50.1811 19.264C48.5971 19.264 47.8051 18.616 47.8051 17.32V8.248H46.1251V6.664H47.8051V4.144L49.7491 3.256V6.664H52.2691ZM64.9861 13.408H55.8901C55.9061 14.464 56.1301 15.304 56.5621 15.928C57.2501 16.936 58.2421 17.44 59.5381 17.44C61.1381 17.44 62.2181 16.68 62.7781 15.16H64.7461C64.4901 16.456 63.8981 17.464 62.9701 18.184C62.0421 18.904 60.8741 19.264 59.4661 19.264C57.5941 19.264 56.1621 18.624 55.1701 17.344C54.2901 16.224 53.8501 14.744 53.8501 12.904C53.8501 10.776 54.4261 9.12 55.5781 7.936C56.5861 6.912 57.8901 6.4 59.4901 6.4C60.6581 6.4 61.6821 6.68 62.5621 7.24C63.4581 7.8 64.0981 8.568 64.4821 9.544C64.8181 10.376 64.9861 11.64 64.9861 13.336V13.408ZM62.8741 11.8C62.8741 10.728 62.5541 9.864 61.9141 9.208C61.2901 8.536 60.4821 8.2 59.4901 8.2C58.4821 8.2 57.6581 8.528 57.0181 9.184C56.3941 9.824 56.0421 10.696 55.9621 11.8H62.8741ZM67.2876 24.136V6.664H69.1116V8.56C70.0236 7.12 71.3356 6.4 73.0476 6.4C74.7916 6.4 76.1356 7.072 77.0796 8.416C77.9116 9.584 78.3276 11.12 78.3276 13.024C78.3276 15.056 77.7836 16.64 76.6956 17.776C75.7516 18.768 74.5276 19.264 73.0236 19.264C71.5036 19.264 70.2476 18.712 69.2556 17.608V24.136H67.2876ZM72.7116 8.224C71.6716 8.224 70.8316 8.648 70.1916 9.496C69.5676 10.344 69.2556 11.48 69.2556 12.904C69.2556 14.376 69.6156 15.528 70.3356 16.36C70.9436 17.064 71.7356 17.416 72.7116 17.416C73.7996 17.416 74.6636 17.008 75.3036 16.192C75.9596 15.36 76.2876 14.264 76.2876 12.904C76.2876 11.4 75.9196 10.216 75.1836 9.352C74.5276 8.6 73.7036 8.224 72.7116 8.224ZM80.3892 24.136V6.664H82.2132V8.56C83.1252 7.12 84.4372 6.4 86.1492 6.4C87.8932 6.4 89.2372 7.072 90.1812 8.416C91.0132 9.584 91.4292 11.12 91.4292 13.024C91.4292 15.056 90.8852 16.64 89.7972 17.776C88.8532 18.768 87.6292 19.264 86.1252 19.264C84.6052 19.264 83.3492 18.712 82.3572 17.608V24.136H80.3892ZM85.8132 8.224C84.7732 8.224 83.9332 8.648 83.2932 9.496C82.6692 10.344 82.3572 11.48 82.3572 12.904C82.3572 14.376 82.7172 15.528 83.4372 16.36C84.0452 17.064 84.8372 17.416 85.8132 17.416C86.9012 17.416 87.7652 17.008 88.4052 16.192C89.0612 15.36 89.3892 14.264 89.3892 12.904C89.3892 11.4 89.0212 10.216 88.2852 9.352C87.6292 8.6 86.8052 8.224 85.8132 8.224ZM104.291 13.408H95.1948C95.2108 14.464 95.4348 15.304 95.8668 15.928C96.5548 16.936 97.5468 17.44 98.8428 17.44C100.443 17.44 101.523 16.68 102.083 15.16H104.051C103.795 16.456 103.203 17.464 102.275 18.184C101.347 18.904 100.179 19.264 98.7708 19.264C96.8988 19.264 95.4668 18.624 94.4748 17.344C93.5948 16.224 93.1548 14.744 93.1548 12.904C93.1548 10.776 93.7308 9.12 94.8828 7.936C95.8908 6.912 97.1948 6.4 98.7948 6.4C99.9628 6.4 100.987 6.68 101.867 7.24C102.763 7.8 103.403 8.568 103.787 9.544C104.123 10.376 104.291 11.64 104.291 13.336V13.408ZM102.179 11.8C102.179 10.728 101.859 9.864 101.219 9.208C100.595 8.536 99.7868 8.2 98.7948 8.2C97.7868 8.2 96.9628 8.528 96.3228 9.184C95.6988 9.824 95.3468 10.696 95.2668 11.8H102.179ZM106.952 6.664H108.776V8.92C109.496 7.224 110.632 6.376 112.184 6.376C112.376 6.376 112.608 6.4 112.88 6.448V8.464C111.6 8.48 110.72 8.664 110.24 9.016C109.36 9.656 108.92 10.848 108.92 12.592V19H106.952V6.664Z" fill="#242424"/>
</svg>
