<svg width="808" height="126" viewBox="0 0 808 126" fill="none" xmlns="http://www.w3.org/2000/svg">
<g filter="url(#filter0_d_1128_5815)">
<g clip-path="url(#clip0_1128_5815)">
<path d="M8 16C8 9.37258 13.3726 4 20 4H788C794.627 4 800 9.37258 800 16V102C800 108.627 794.627 114 788 114H16C11.5817 114 8 110.418 8 106V16Z" fill="url(#paint0_linear_1128_5815)" fill-opacity="0.9" shape-rendering="crispEdges"/>
<path d="M602.496 35.8594L779.955 -55.0279L789.082 -21.0127L607.975 70.3182L602.496 35.8594Z" fill="#90DEA3" fill-opacity="0.8"/>
<path d="M581.071 101.728L812.393 15.2285L817.873 49.6874L582.877 136.463L581.071 101.728Z" fill="#90DEA3" fill-opacity="0.8"/>
<path d="M581.071 101.728L844.715 88.0211L846.521 122.756L582.877 136.463L581.071 101.728Z" fill="#798BFF" fill-opacity="0.7"/>
<path d="M602.496 35.8594L812.393 15.2285L817.873 49.6874L607.975 70.3182L602.496 35.8594Z" fill="#798BFF" fill-opacity="0.7"/>
<path d="M624.063 -32.3812L779.955 -55.0279L789.082 -21.0127L633.189 1.63394L624.063 -32.3812Z" fill="#798BFF" fill-opacity="0.7"/>
<path d="M30.5471 30.9744C30.5471 33.5663 31.8835 36.3322 34.5623 37.4448L33.3565 39.2037C31.467 38.4081 30.168 36.817 29.447 34.8778C28.726 36.9848 27.4021 38.7376 25.5126 39.6015L24.2384 37.8425C26.8862 36.6554 28.2598 33.6906 28.2661 30.9744V29.9924H24.8662V28.1588H33.8973V29.9924H30.5471V30.9744ZM35.476 42.6222V26.6112H37.7446V42.6222H35.476ZM52.8165 27.3508V28.625C52.8165 29.8681 52.8165 31.2541 52.4311 33.0877H54.5444V34.8964H39.9132V33.0877H50.1687C50.5168 31.4965 50.5665 30.2597 50.5789 29.1409H41.7032V27.3508H52.8165ZM41.6411 42.442V36.5932H52.7543V42.442H41.6411ZM43.8413 40.6457H50.523V38.346H43.8413V40.6457ZM64.1617 27.0898C66.5982 27.0898 68.4318 28.6126 68.4442 30.7445C68.4318 32.8702 66.5982 34.3805 64.1617 34.3867C61.6942 34.3805 59.8544 32.8702 59.8606 30.7445C59.8544 28.6126 61.6942 27.0898 64.1617 27.0898ZM62.0361 30.7445C62.0236 31.9006 62.9311 32.578 64.1617 32.578C65.3738 32.578 66.2688 31.9006 66.2688 30.7445C66.2688 29.6008 65.3738 28.9233 64.1617 28.9233C62.9373 28.9233 62.0236 29.6008 62.0361 30.7445ZM62.2722 37.0283V35.3004H73.0064V39.645H64.4974V40.6768H73.4414V42.442H62.3095V38.0041H70.7688V37.0283H62.2722ZM70.7564 34.6416V26.6112H73.0064V34.6416H70.7564ZM81.3655 30.9744C81.3655 33.5663 82.7018 36.3322 85.3807 37.4448L84.1749 39.2037C82.2854 38.4081 80.9863 36.817 80.2653 34.8778C79.5444 36.9848 78.2205 38.7376 76.331 39.6015L75.0568 37.8425C77.7046 36.6554 79.0782 33.6906 79.0844 30.9744V29.9924H75.6845V28.1588H84.7156V29.9924H81.3655V30.9744ZM86.2944 42.6222V26.6112H88.563V42.6222H86.2944ZM105.344 33.7901V35.4558H90.7129V33.7901H105.344ZM92.3848 37.8052V36.2514H103.598V40.0304H94.6286V40.9441H104.064V42.4731H92.3973V38.607H101.372V37.8052H92.3848ZM92.5091 28.4323V26.9095H103.579V30.6637H94.7654V31.5214H103.852V33.038H92.534V29.2403H101.329V28.4323H92.5091ZM119.53 27.5559V29.346H116.335C116.341 31.2231 117.473 33.1374 120.058 33.9765L118.921 35.7044C117.149 35.1326 115.931 33.989 115.229 32.5656C114.514 34.1257 113.24 35.3688 111.381 35.9779L110.194 34.25C112.836 33.3923 114.035 31.3474 114.073 29.346H110.803V27.5559H119.53ZM112.357 38.7438V36.9537H123.129V42.6222H120.879V38.7438H112.357ZM120.879 36.27V26.6112H123.129V30.5021H125.279V32.3667H123.129V36.27H120.879ZM132.035 28.7928C132.022 30.9372 133.129 32.9137 135.702 33.7093L134.508 35.462C132.787 34.8715 131.624 33.7652 130.953 32.3294C130.238 33.9952 128.952 35.3066 127.031 35.953L125.838 34.163C128.585 33.2804 129.76 31.136 129.772 28.8985V27.4503H132.035V28.7928ZM128.511 39.5207C128.504 37.5566 130.599 36.4068 134.005 36.4068C137.423 36.4068 139.512 37.5566 139.518 39.5207C139.512 41.4972 137.423 42.6222 134.005 42.616C130.599 42.6222 128.504 41.4972 128.511 39.5207ZM130.742 39.5207C130.736 40.4095 131.886 40.8757 134.005 40.8695C136.131 40.8757 137.287 40.4095 137.293 39.5207C137.287 38.607 136.131 38.1471 134.005 38.1471C131.886 38.1471 130.736 38.607 130.742 39.5207ZM134.235 31.3847V29.5511H137.237V26.6112H139.475V35.9965H137.237V31.3847H134.235ZM154.167 26.6112V32.8826H156.529V34.7286H154.167V42.6222H151.948V26.6112H154.167ZM141.463 30.8004V29.0041H145.086V26.866H147.324V29.0041H150.867V30.8004H141.463ZM142.109 35.5117C142.103 33.2804 143.843 31.6954 146.205 31.6954C148.536 31.6954 150.283 33.2804 150.289 35.5117C150.283 37.7493 148.536 39.3218 146.205 39.328C143.843 39.3218 142.103 37.7493 142.109 35.5117ZM144.26 35.5117C144.254 36.7548 145.074 37.4945 146.205 37.4883C147.324 37.4945 148.132 36.7548 148.144 35.5117C148.132 34.2873 147.324 33.529 146.205 33.5166C145.074 33.529 144.254 34.2873 144.26 35.5117ZM163.297 30.9744C163.297 33.5663 164.633 36.3322 167.312 37.4448L166.107 39.2037C164.217 38.4081 162.918 36.817 162.197 34.8778C161.476 36.9848 160.152 38.7376 158.263 39.6015L156.988 37.8425C159.636 36.6554 161.01 33.6906 161.016 30.9744V29.9924H157.616V28.1588H166.647V29.9924H163.297V30.9744ZM168.226 42.6222V26.6112H170.495V42.6222H168.226ZM181.225 27.3881C183.686 27.3881 185.507 28.9544 185.507 31.1112C185.507 33.3115 183.686 34.8653 181.225 34.8653C178.776 34.8653 176.911 33.3115 176.923 31.1112C176.911 28.9544 178.776 27.3881 181.225 27.3881ZM178.247 42.1996V36.0649H180.435V40.366C181.318 40.3101 182.151 40.1733 182.977 39.9061L183.301 41.6464C181.946 42.1374 180.659 42.1996 179.13 42.1996H178.247ZM179.105 31.1112C179.093 32.2983 180.013 33.0318 181.225 33.038C182.43 33.0318 183.332 32.2983 183.338 31.1112C183.332 29.9551 182.43 29.2341 181.225 29.2341C180.013 29.2341 179.093 29.9551 179.105 31.1112ZM182.747 37.7244V36.0773H185.706V34.9523H187.888V36.0773H190.803V37.7244H182.747ZM183.673 40.3722C183.661 38.9862 184.917 38.1036 186.763 38.0974C188.59 38.1036 189.858 38.9862 189.87 40.3722C189.858 41.7521 188.59 42.6222 186.763 42.616C184.917 42.6222 183.661 41.7521 183.673 40.3722ZM185.662 40.3722C185.656 40.8508 186.129 41.087 186.763 41.087C187.397 41.087 187.856 40.8508 187.863 40.3722C187.856 39.9061 187.397 39.6575 186.763 39.6512C186.129 39.6575 185.656 39.9061 185.662 40.3722ZM187.254 34.5173V26.6112H189.504V29.9427H191.654V31.7887H189.504V34.5173H187.254ZM199.653 27.4378C203.04 27.4378 205.682 29.2652 205.682 32.0373C205.682 34.828 203.04 36.6492 199.653 36.6492C196.278 36.6492 193.649 34.828 193.655 32.0373C193.649 29.2652 196.278 27.4378 199.653 27.4378ZM192.368 40.6706V38.8557H206.999V40.6706H192.368ZM195.83 32.0373C195.824 33.7776 197.434 34.8094 199.653 34.8094C201.865 34.8094 203.463 33.7776 203.469 32.0373C203.463 30.3218 201.865 29.2403 199.653 29.2528C197.434 29.2403 195.824 30.3218 195.83 32.0373ZM216.191 27.9164V29.1347H219.169V26.636H221.406V38.2714H219.169V34.3619H216.191V35.7106H208.59V27.9164H216.191ZM210.753 42.3425V37.1775H213.022V40.5338H221.748V42.3425H210.753ZM210.815 33.9641H213.991V29.6941H210.815V33.9641ZM216.191 32.5843H219.169V30.9434H216.191V32.5843ZM226.85 39.6948L225.334 44.6982H223.469L224.339 39.6948H226.85ZM246.01 26.6112V42.6222H243.853V34.6167H242.355V41.8391H240.254V26.8909H242.355V32.8018H243.853V26.6112H246.01ZM232.858 38.7127V28.3888H235.108V36.7548C236.395 36.7175 237.806 36.6057 239.347 36.3073L239.571 38.2403C237.439 38.6133 235.605 38.7189 233.946 38.7127H232.858ZM252.318 27.0898C254.754 27.0898 256.588 28.6126 256.6 30.7445C256.588 32.8702 254.754 34.3805 252.318 34.3867C249.85 34.3805 248.011 32.8702 248.017 30.7445C248.011 28.6126 249.85 27.0898 252.318 27.0898ZM250.192 30.7445C250.18 31.9006 251.087 32.578 252.318 32.578C253.53 32.578 254.425 31.9006 254.425 30.7445C254.425 29.6008 253.53 28.9233 252.318 28.9233C251.094 28.9233 250.18 29.6008 250.192 30.7445ZM250.428 37.0283V35.3004H261.163V39.645H252.654V40.6768H261.598V42.442H250.466V38.0041H258.925V37.0283H250.428ZM258.913 34.6416V26.6112H261.163V34.6416H258.913ZM268.502 27.6865C271.051 27.6865 272.934 29.3211 272.946 31.6146C272.934 33.9144 271.051 35.5428 268.502 35.5428C265.985 35.5428 264.058 33.9144 264.065 31.6146C264.058 29.3211 265.985 27.6865 268.502 27.6865ZM263.4 37.5628C266.252 37.5628 270.205 37.5256 273.63 37.047L273.798 38.663C270.255 39.3529 266.458 39.384 263.654 39.384L263.4 37.5628ZM266.29 31.6146C266.29 32.8826 267.247 33.6036 268.502 33.6036C269.783 33.6036 270.752 32.8826 270.759 31.6146C270.752 30.3653 269.789 29.6257 268.502 29.6257C267.241 29.6257 266.29 30.3653 266.29 31.6146ZM274.538 42.6595V26.6112H276.769V42.6595H274.538ZM296.474 26.6112V42.6222H294.205V26.6112H296.474ZM283.086 38.0912C287.213 36.1333 289.034 33.6098 289.395 30.0546H283.944V28.2956H291.682C291.676 33.1436 289.973 37.1775 284.254 39.875L283.086 38.0912ZM312.031 26.6112V42.6222H309.799V26.6112H312.031ZM298.661 38.1036C299.879 38.0974 301.278 38.0912 302.732 38.0601V36.7051C300.98 36.3881 299.842 35.2942 299.848 33.8025C299.842 32.0062 301.471 30.788 303.826 30.788C306.201 30.788 307.854 32.0062 307.854 33.8025C307.854 35.288 306.71 36.3757 304.964 36.6989V37.9793C306.3 37.9109 307.649 37.8052 308.923 37.6312L309.072 39.297C305.579 39.8999 301.806 39.9309 298.953 39.9309L298.661 38.1036ZM298.978 30.1602V28.4012H302.732V26.692H304.976V28.4012H308.693V30.1602H298.978ZM301.98 33.8025C301.974 34.6416 302.739 35.0953 303.826 35.0953C304.951 35.0953 305.71 34.6416 305.71 33.8025C305.71 32.9696 304.951 32.4972 303.826 32.4972C302.739 32.4972 301.974 32.9696 301.98 33.8025ZM328.762 33.7901V35.4558H314.131V33.7901H328.762ZM315.803 37.8052V36.2514H327.016V40.0304H318.047V40.9441H327.482V42.4731H315.815V38.607H324.79V37.8052H315.803ZM315.927 28.4323V26.9095H326.997V30.6637H318.183V31.5214H327.27V33.038H315.952V29.2403H324.747V28.4323H315.927ZM347.087 36.096V37.768H335.166V36.096H340.002V34.971H342.252V36.096H347.087ZM333.836 34.4986V32.721H340.107V31.5525H335.725V26.866H337.969V29.8122H346.882V31.5525H342.339V32.721H348.467V34.4986H333.836ZM336.204 40.4157C336.204 39.0173 338.013 38.2279 341.108 38.2279C344.21 38.2279 346.043 39.0173 346.049 40.4157C346.043 41.8391 344.21 42.6222 341.108 42.616C338.013 42.6222 336.204 41.8391 336.204 40.4157ZM338.585 40.4157C338.578 40.913 339.43 41.087 341.108 41.087C342.78 41.087 343.669 40.913 343.675 40.4157C343.669 39.9185 342.78 39.7631 341.108 39.7569C339.43 39.7631 338.578 39.9185 338.585 40.4157ZM362.799 26.6112V35.462H360.549V26.6112H362.799ZM349.536 33.8273C351.972 33.1747 353.196 31.5836 353.352 29.9054H350.095V28.1402H353.37V26.5428H355.639V28.1402H358.896V29.9054H355.639C355.807 31.4593 357.044 32.9261 359.505 33.5539L358.486 35.288C356.603 34.8156 355.291 33.7963 354.545 32.4786C353.818 33.933 352.5 35.0642 350.586 35.5863L349.536 33.8273ZM352.103 42.442V36.096H354.309V37.5193H360.562V36.096H362.799V42.442H352.103ZM354.309 40.6457H360.562V39.2535H354.309V40.6457ZM378.418 26.6112V42.6222H376.187V26.6112H378.418ZM365.826 38.6692V28.1464H368.045V36.7548C370.201 36.7175 372.526 36.5186 374.875 36.0587L375.155 37.9109C372.352 38.4952 369.704 38.6754 367.236 38.6692H365.826ZM393.142 26.6112V32.5594H395.504V34.393H393.142V42.6595H390.898V26.6112H393.142ZM381.158 38.7686V28.1029H388.661V29.9116H383.39V36.9227C385.708 36.904 387.629 36.7797 389.742 36.413L389.991 38.2901C387.511 38.7127 385.329 38.7749 382.501 38.7686H381.158ZM399.723 28.2707L399.487 37.1899H397.237L397.001 28.2707H399.723ZM396.889 39.6823C396.877 38.8743 397.554 38.2155 398.368 38.2155C399.152 38.2155 399.835 38.8743 399.841 39.6823C399.835 40.4965 399.152 41.1554 398.368 41.1554C397.554 41.1554 396.877 40.4965 396.889 39.6823Z" fill="white"/>
<path d="M33.5069 58.9586V62.1298H35.3246V63.029H33.5069V66.2099H32.424V58.9586H33.5069ZM24.5539 65.2141V59.8867H29.9489V60.7762H25.6077V64.3343C28.0684 64.3246 29.48 64.2521 31.1091 63.9185L31.2251 64.808C29.5235 65.1464 28.0635 65.2141 25.4917 65.2141H24.5539ZM25.5691 68.7624C25.5691 67.3025 27.116 66.4517 29.6008 66.442C32.076 66.4517 33.6036 67.3025 33.6036 68.7624C33.6036 70.232 32.076 71.0829 29.6008 71.0829C27.116 71.0829 25.5691 70.232 25.5691 68.7624ZM26.6229 68.7624C26.6229 69.6616 27.7638 70.2127 29.6008 70.2127C31.4185 70.2127 32.5691 69.6616 32.5691 68.7624C32.5691 67.8633 31.4185 67.3218 29.6008 67.3315C27.7638 67.3218 26.6229 67.8633 26.6229 68.7624ZM46.1286 58.9682V67.8826H45.0554V58.9682H46.1286ZM36.2184 65.2818C38.0554 64.5663 39.3026 62.7873 39.3026 60.8633V59.645H40.3952V60.8633C40.3855 62.7196 41.6521 64.3826 43.4601 65.0401L42.8993 65.9006C41.4926 65.3543 40.3952 64.2617 39.8586 62.8598C39.3317 64.3536 38.2294 65.5477 36.8082 66.1229L36.2184 65.2818ZM38.2778 70.8412V67.0608H39.351V69.9517H46.5057V70.8412H38.2778ZM52.1661 59.8481C54.0804 59.8481 55.434 61.0083 55.4437 62.7003C55.434 64.3923 54.0804 65.5525 52.1661 65.5525C50.2517 65.5525 48.8788 64.3923 48.8884 62.7003C48.8788 61.0083 50.2517 59.8481 52.1661 59.8481ZM48.26 67.5345C50.5031 67.5442 53.597 67.5249 56.2849 67.1285L56.3719 67.9213C53.5873 68.4434 50.5998 68.453 48.405 68.453L48.26 67.5345ZM49.9423 62.7003C49.9326 63.8315 50.8705 64.6146 52.1661 64.6146C53.452 64.6146 54.3898 63.8315 54.3898 62.7003C54.3898 61.5691 53.452 60.7859 52.1661 60.7859C50.8705 60.7859 49.9326 61.5691 49.9423 62.7003ZM57.0873 71.1312V58.9586H58.1605V71.1312H57.0873ZM74.1799 58.9586V71.1119H73.1357V64.8177H71.376V70.4738H70.3608V59.2293H71.376V63.9088H73.1357V58.9586H74.1799ZM64.4147 67.9599V60.4378H65.4879V67.0028C66.6868 66.9979 67.9872 66.9109 69.4713 66.616L69.597 67.5635C67.905 67.8729 66.5128 67.9599 65.1785 67.9599H64.4147ZM79.3472 59.4033C81.1649 59.413 82.4895 60.5152 82.4991 62.1008C82.4895 63.6865 81.1649 64.779 79.3472 64.779C77.5102 64.779 76.1856 63.6865 76.1856 62.1008C76.1856 60.5152 77.5102 59.413 79.3472 59.4033ZM77.2395 62.1008C77.2298 63.1644 78.129 63.8992 79.3472 63.8992C80.5558 63.8992 81.4549 63.1644 81.4549 62.1008C81.4549 61.047 80.5558 60.3025 79.3472 60.3122C78.129 60.3025 77.2298 61.047 77.2395 62.1008ZM78.0323 66.6547V65.7845H85.9411V68.7141H79.1151V70.0773H86.3762V70.9475H78.0709V67.9019H84.8776V66.6547H78.0323ZM84.8679 65.1948V58.9586H85.9411V65.1948H84.8679ZM99.0849 65.3688V66.239H88.0048V65.3688H99.0849ZM89.2327 61.7914C89.2327 60.2735 90.9054 59.3743 93.5352 59.384C96.1554 59.3743 97.828 60.2735 97.828 61.7914C97.828 63.3094 96.1554 64.2182 93.5352 64.2182C90.9054 64.2182 89.2327 63.3094 89.2327 61.7914ZM89.4358 70.8412V67.3122H90.5186V69.9517H97.8474V70.8412H89.4358ZM90.3446 61.7914C90.3349 62.7583 91.5822 63.3384 93.5352 63.3384C95.4882 63.3384 96.7355 62.7583 96.7355 61.7914C96.7355 60.8439 95.4882 60.2541 93.5352 60.2541C91.5822 60.2541 90.3349 60.8439 90.3446 61.7914ZM109.148 59.7514C111.74 59.761 113.596 61.018 113.596 62.9323C113.596 64.7403 111.991 65.9392 109.68 66.0939V68.6464H114.747V69.5456H103.618V68.6464H108.617V66.0939C106.325 65.9344 104.711 64.7403 104.711 62.9323C104.711 61.018 106.577 59.761 109.148 59.7514ZM105.745 62.9323C105.745 64.3343 107.186 65.2431 109.148 65.2528C111.121 65.2431 112.561 64.3343 112.561 62.9323C112.561 61.5594 111.121 60.6312 109.148 60.6409C107.186 60.6312 105.745 61.5594 105.745 62.9323ZM125.522 61.8785V62.768H117.226V59.1519H118.27V61.8785H125.522ZM115.698 64.8467V63.9669H126.827V64.8467H115.698ZM117.1 66.7901V65.9392H125.396V68.7818H118.203V70.087H125.831V70.9475H117.129V67.9696H124.342V66.7901H117.1ZM131.791 59.8481C133.705 59.8481 135.059 61.0083 135.069 62.7003C135.059 64.3923 133.705 65.5525 131.791 65.5525C129.877 65.5525 128.504 64.3923 128.513 62.7003C128.504 61.0083 129.877 59.8481 131.791 59.8481ZM127.885 67.5345C130.128 67.5442 133.222 67.5249 135.91 67.1285L135.997 67.9213C133.212 68.4434 130.225 68.453 128.03 68.453L127.885 67.5345ZM129.567 62.7003C129.558 63.8315 130.495 64.6146 131.791 64.6146C133.077 64.6146 134.015 63.8315 134.015 62.7003C134.015 61.5691 133.077 60.7859 131.791 60.7859C130.495 60.7859 129.558 61.5691 129.567 62.7003ZM136.712 71.1312V58.9586H137.786V71.1312H136.712ZM153.476 58.9586V71.1119H152.403V58.9586H153.476ZM143.585 67.9503C146.873 66.3936 148.55 64.0539 148.787 61.1533H144.146V60.2831H149.879C149.87 63.7735 148.246 66.8674 144.165 68.8301L143.585 67.9503ZM166.639 65.6492V66.5387H155.511V65.6492H160.548V64.3633H156.961V61.395H164.135V60.1381H156.922V59.268H165.208V62.2072H158.025V63.5028H165.469V64.3633H161.602V65.6492H166.639ZM156.758 68.3467V67.4669H165.276V70.9959H164.193V68.3467H156.758ZM178.043 58.9586V71.1119H177.008V58.9586H178.043ZM167.785 64.1989C167.785 61.6174 168.809 59.9834 170.385 59.9834C171.865 59.9834 172.865 61.4047 173.001 63.6961H174.572V59.2196H175.606V70.4931H174.572V64.5856H173.006C172.899 66.9544 171.889 68.4337 170.385 68.424C168.809 68.4337 167.785 66.7901 167.785 64.1989ZM168.79 64.1989C168.78 66.1713 169.409 67.4185 170.385 67.4088C171.381 67.4185 172.01 66.1713 172.01 64.1989C172.01 62.2265 171.381 60.989 170.385 60.989C169.409 60.989 168.78 62.2265 168.79 64.1989ZM189.199 59.6644V60.5442H184.858V63.7445C187.246 63.7493 188.677 63.6623 190.34 63.3287L190.475 64.1892C188.735 64.5566 187.246 64.6243 184.742 64.6146H183.804V59.6644H189.199ZM184.993 66.5677V65.6975H192.747V68.6851H186.076V70.0677H193.192V70.9475H185.022V67.8439H191.684V66.5677H184.993ZM191.674 65.0884V58.9586H192.747V61.5304H194.575V62.4296H192.747V65.0884H191.674ZM205.408 58.9586V71.1312H204.344V65.9586H201.811V65.0497H204.344V62.6326H201.898V61.7334H204.344V58.9586H205.408ZM195.768 60.9503V60.0608H201.115V64.3826H196.87V67.3798C198.703 67.375 200.211 67.3025 202.053 67.0221L202.149 67.9213C200.206 68.221 198.649 68.2887 196.706 68.2887H195.807V63.5124H200.061V60.9503H195.768ZM211.551 67.1091C211.551 68.1872 212.136 69.3329 213.287 69.9903C214.447 69.2749 215.061 68.0518 215.061 67.1091V66.442H216.115V67.1091C216.105 68.366 217.024 69.6133 218.59 70.145L218.049 70.9378C216.835 70.5124 215.984 69.6616 215.564 68.6416C215.187 69.6326 214.447 70.5656 213.321 71.0442C212.136 70.5898 211.387 69.7003 211.024 68.6802C210.585 69.6616 209.748 70.5028 208.583 70.9378L208.042 70.145C209.579 69.5746 210.507 68.279 210.517 67.1091V66.442H211.551V67.1091ZM207.723 62.5166C207.723 60.8246 209.067 59.674 210.913 59.674C212.76 59.674 214.094 60.8246 214.094 62.5166C214.094 64.1892 212.76 65.3398 210.913 65.3398C209.067 65.3398 207.723 64.1892 207.723 62.5166ZM208.777 62.5166C208.767 63.6478 209.666 64.4406 210.913 64.4503C212.151 64.4406 213.05 63.6478 213.05 62.5166C213.05 61.3854 212.151 60.5829 210.913 60.5925C209.666 60.5829 208.767 61.3854 208.777 62.5166ZM216.405 65.9102V58.9682H217.478V65.9102H216.405ZM222.017 66.2486V67.6699H228.089V66.2486H229.172V70.9475H220.954V66.2486H222.017ZM219.542 65.3978V64.4986H230.622V65.3978H219.542ZM220.17 62.7873C222.336 62.4876 224.531 61.2113 224.531 59.6644V59.0939H225.633V59.6644C225.633 61.163 227.847 62.5069 229.984 62.7873L229.588 63.6381C227.707 63.3577 225.855 62.3957 225.087 61.0421C224.313 62.4102 222.452 63.3577 220.576 63.6381L220.17 62.7873ZM222.017 70.0773H228.089V68.5207H222.017V70.0773ZM241.658 58.9586V71.1119H240.595V58.9586H241.658ZM232.434 67.9793V60.1575H233.488V67.0414C235.345 67.0366 237.254 66.8916 239.299 66.4613L239.444 67.3798C237.288 67.8246 235.364 67.9793 233.421 67.9793H232.434ZM253.149 58.9586V63.7638H255.179V64.663H253.149V71.1312H252.075V58.9586H253.149ZM244.273 68.0856V60.1478H249.948V61.0276H245.346V67.1768C247.546 67.172 249.102 67.0849 250.906 66.7514L251.041 67.6796C249.136 68.018 247.541 68.0856 245.23 68.0856H244.273ZM257.127 70.0773C256.643 70.0773 256.237 69.6809 256.247 69.1975C256.237 68.7141 256.643 68.3177 257.127 68.3177C257.61 68.3177 258.006 68.7141 258.006 69.1975C258.006 69.6809 257.61 70.0773 257.127 70.0773ZM30.1326 81.6699C30.1229 83.3039 32.2887 84.6865 34.4157 84.9959L34.0097 85.8467C32.1146 85.5228 30.268 84.5124 29.5283 83.0525C28.7887 84.5124 26.9372 85.5228 25.0663 85.8467L24.6506 84.9959C26.7583 84.6865 28.924 83.3039 28.9337 81.6699V81.5925H25.0373V80.7224H34.0097V81.5925H30.1326V81.6699ZM23.9931 87.7707V86.8812H35.0732V87.7707H30.0359V92.1022H28.982V87.7707H23.9931ZM46.1673 79.9586V92.1312H45.0941V85.2762H42.4256V84.3867H45.0941V79.9586H46.1673ZM35.9863 88.8633C37.746 88.0124 39.2156 85.721 39.2253 83.5649V82.105H36.4504V81.2058H43.0927V82.105H40.3082V83.5649C40.3082 85.5856 41.7584 87.7901 43.5278 88.5925L42.88 89.453C41.4974 88.7714 40.3275 87.297 39.7812 85.605C39.2301 87.4081 38.0312 88.9744 36.6438 89.7044L35.9863 88.8633ZM57.5998 79.9586V84.9669H59.6302V85.866H57.5998V92.1119H56.5362V79.9586H57.5998ZM48.1246 82.8011V81.9116H51.2476V80.1036H52.3208V81.9116H55.3567V82.8011H48.1246ZM48.8208 86.6008C48.8111 84.9572 50.068 83.8066 51.7987 83.8066C53.5197 83.8066 54.7669 84.9572 54.7766 86.6008C54.7669 88.2445 53.5197 89.3854 51.7987 89.3854C50.068 89.3854 48.8111 88.2445 48.8208 86.6008ZM49.8456 86.6008C49.836 87.703 50.6675 88.4862 51.7987 88.4765C52.9202 88.4862 53.742 87.703 53.7517 86.6008C53.742 85.4986 52.9202 84.7058 51.7987 84.7058C50.6675 84.7058 49.836 85.4986 49.8456 86.6008ZM64.6428 83.6906C64.6428 85.75 66.1414 87.8481 67.93 88.6215L67.3306 89.4724C65.9093 88.8246 64.6863 87.4275 64.1158 85.75C63.5454 87.529 62.3175 89.076 60.93 89.7721L60.2919 88.9213C62.0323 88.0898 63.5502 85.7887 63.5599 83.6906V82.105H60.6883V81.2058H67.5336V82.105H64.6428V83.6906ZM69.2353 92.1119V79.9586H70.3085V92.1119H69.2353ZM85.4093 79.9586V82.5981H87.2367V83.4972H85.4093V86.1464H84.3361V79.9586H85.4093ZM76.4273 85.5083V80.6547H82.0447V85.5083H76.4273ZM77.4715 84.6478H81.0005V81.5249H77.4715V84.6478ZM77.6552 87.587V86.7265H85.4093V89.6851H78.7381V91.0773H85.8541V91.9475H77.6842V88.8729H84.3458V87.587H77.6552ZM97.7507 81.1865V82.395C97.741 83.8936 97.741 85.5566 97.2962 88.0028L96.2134 87.8771C96.6678 85.5566 96.6678 83.855 96.6775 82.395V82.076H89.1844V81.1865H97.7507ZM88.0048 90.3909V89.4917H92.346V85.1506H93.4095V89.4917H99.0849V90.3909H88.0048ZM107.969 83.6906C107.969 85.75 109.468 87.8481 111.256 88.6215L110.657 89.4724C109.235 88.8246 108.012 87.4275 107.442 85.75C106.872 87.529 105.644 89.076 104.256 89.7721L103.618 88.9213C105.358 88.0898 106.876 85.7887 106.886 83.6906V82.105H104.015V81.2058H110.86V82.105H107.969V83.6906ZM112.561 92.1119V79.9586H113.635V92.1119H112.561ZM125.386 80.6064V81.5055C125.386 82.453 125.386 83.5649 125.057 85.0829H126.846V85.9724H115.718V85.0829H123.979C124.323 83.5552 124.323 82.4579 124.323 81.5055V81.4959H117.129V80.6064H125.386ZM117.091 91.9475V87.645H125.435V91.9475H117.091ZM118.144 91.0677H124.371V88.4959H118.144V91.0677ZM140.738 79.9586V84.7445H142.769V85.6727H140.738V92.1119H139.665V79.9586H140.738ZM131.834 89.192V80.9931H132.897V84.203H136.455V80.9931H137.519V89.192H131.834ZM132.897 88.2928H136.455V85.0635H132.897V88.2928ZM154.559 89.6948V90.6036H143.431V89.6948H148.429V87.4033H144.823V83.6519H152.094V81.7472H144.794V80.8577H153.157V84.5318H145.886V86.5138H153.438V87.4033H149.493V89.6948H154.559ZM162.486 80.4033C164.304 80.413 165.628 81.5152 165.638 83.1008C165.628 84.6865 164.304 85.779 162.486 85.779C160.649 85.779 159.324 84.6865 159.324 83.1008C159.324 81.5152 160.649 80.413 162.486 80.4033ZM160.378 83.1008C160.368 84.1644 161.268 84.8992 162.486 84.8992C163.694 84.8992 164.594 84.1644 164.594 83.1008C164.594 82.047 163.694 81.3025 162.486 81.3122C161.268 81.3025 160.368 82.047 160.378 83.1008ZM161.171 87.6547V86.7845H169.08V89.7141H162.254V91.0773H169.515V91.9475H161.21V88.9019H168.016V87.6547H161.171ZM168.007 86.1948V79.9586H169.08V86.1948H168.007ZM175.494 83.6906C175.494 85.75 176.993 87.8481 178.782 88.6215L178.182 89.4724C176.761 88.8246 175.538 87.4275 174.967 85.75C174.397 87.529 173.169 89.076 171.782 89.7721L171.143 88.9213C172.884 88.0898 174.402 85.7887 174.411 83.6906V82.105H171.54V81.2058H178.385V82.105H175.494V83.6906ZM180.087 92.1119V79.9586H181.16V92.1119H180.087ZM194.352 85.605V86.4461H183.224V85.605H194.352ZM184.568 88.2251V87.4227H192.96V90.0041H185.66V91.1644H193.356V91.9475H184.587V89.2597H191.896V88.2251H184.568ZM184.635 81.0994V80.326H192.921V82.8398H185.738V83.9033H193.134V84.6865H184.674V82.105H191.848V81.0994H184.635ZM202.975 82.2113C202.975 83.826 204.164 85.3052 205.963 85.924L205.412 86.7555C204.029 86.2673 202.975 85.2762 202.453 84.0242C201.931 85.4019 200.819 86.4751 199.388 86.9972L198.808 86.1657C200.635 85.518 201.902 83.9517 201.912 82.2113V81.6892H199.137V80.8094H205.702V81.6892H202.975V82.2113ZM200.403 88.8052V87.9254H208.361V92.1119H207.287V88.8052H200.403ZM207.287 87.2776V79.9586H208.361V83.1685H210.188V84.087H208.361V87.2776H207.287ZM215.133 81.8729C215.123 83.6036 216.361 85.1312 218.149 85.7307L217.55 86.5718C216.206 86.0691 215.152 85.0829 214.625 83.8018C214.108 85.2569 212.996 86.3881 211.526 86.9392L210.946 86.0691C212.812 85.4116 214.06 83.797 214.069 81.9116V80.6547H215.133V81.8729ZM212.928 89.8108C212.919 88.3508 214.466 87.5097 216.999 87.5097C219.522 87.5097 221.069 88.3508 221.069 89.8108C221.069 91.261 219.522 92.0829 216.999 92.0829C214.466 92.0829 212.919 91.261 212.928 89.8108ZM213.992 89.8108C213.982 90.6906 215.133 91.2224 216.999 91.2224C218.855 91.2224 220.006 90.6906 220.006 89.8108C220.006 88.9019 218.855 88.3605 216.999 88.3605C215.133 88.3605 213.982 88.9019 213.992 89.8108ZM217.25 83.4489V82.5594H219.957V79.9586H221.031V87.1616H219.957V83.4489H217.25ZM232.463 79.9586V84.9669H234.493V85.866H232.463V92.1119H231.4V79.9586H232.463ZM222.988 82.8011V81.9116H226.111V80.1036H227.184V81.9116H230.22V82.8011H222.988ZM223.684 86.6008C223.674 84.9572 224.931 83.8066 226.662 83.8066C228.383 83.8066 229.63 84.9572 229.64 86.6008C229.63 88.2445 228.383 89.3854 226.662 89.3854C224.931 89.3854 223.674 88.2445 223.684 86.6008ZM224.709 86.6008C224.699 87.703 225.531 88.4862 226.662 88.4765C227.783 88.4862 228.605 87.703 228.615 86.6008C228.605 85.4986 227.783 84.7058 226.662 84.7058C225.531 84.7058 224.699 85.4986 224.709 86.6008ZM238.762 83.4102C238.762 85.3439 239.709 87.4323 241.324 88.3895L240.705 89.221C239.53 88.5152 238.694 87.2148 238.264 85.7403C237.819 87.3501 236.92 88.7424 235.706 89.482L235.02 88.6796C236.702 87.6934 237.727 85.5373 237.727 83.4586V81.0994H238.762V83.4102ZM239.98 85.2279V84.3191H242.039V80.2196H243.054V91.4931H242.039V85.2279H239.98ZM244.534 92.1119V79.9586H245.568V92.1119H244.534ZM258.383 89.6464V90.5456H247.255V89.6464H250.01V86.3688C248.976 85.8273 248.347 84.9523 248.347 83.855C248.347 81.9696 250.194 80.732 252.785 80.7224C255.386 80.732 257.233 81.9696 257.233 83.855C257.233 84.9378 256.624 85.7983 255.618 86.3398V89.6464H258.383ZM249.382 83.855C249.382 85.2086 250.793 86.1174 252.785 86.1174C254.767 86.1174 256.198 85.2086 256.198 83.855C256.198 82.4917 254.767 81.5925 252.785 81.6022C250.793 81.5925 249.382 82.4917 249.382 83.855ZM251.064 89.6464H254.535V86.7604C254.008 86.8957 253.418 86.9682 252.785 86.9682C252.162 86.9682 251.586 86.8957 251.064 86.7652V89.6464ZM260.64 91.0773C260.157 91.0773 259.751 90.6809 259.76 90.1975C259.751 89.7141 260.157 89.3177 260.64 89.3177C261.124 89.3177 261.52 89.7141 261.52 90.1975C261.52 90.6809 261.124 91.0773 260.64 91.0773ZM272.597 81.1188V82.018H268.101V88.2155C270.291 88.2106 271.736 88.143 273.428 87.8191L273.554 88.7086C271.765 89.047 270.286 89.1243 267.956 89.1243H267.018V81.1188H272.597ZM271.872 85.2762V84.3771H275.42V79.9586H276.493V92.1312H275.42V85.2762H271.872ZM293.402 84.8122V85.7113H291.43V92.1022H290.357V79.9586H291.43V84.8122H293.402ZM282.525 89.018V81.1575H283.589V88.1188C285.368 88.114 287.185 87.9738 289.187 87.558L289.322 88.4765C287.224 88.8923 285.339 89.018 283.492 89.018H282.525ZM305.202 86.3688V87.239H294.122V86.3688H305.202ZM295.35 82.7914C295.35 81.2735 297.023 80.3743 299.652 80.384C302.273 80.3743 303.945 81.2735 303.945 82.7914C303.945 84.3094 302.273 85.2182 299.652 85.2182C297.023 85.2182 295.35 84.3094 295.35 82.7914ZM295.553 91.8412V88.3122H296.636V90.9517H303.965V91.8412H295.553ZM296.462 82.7914C296.452 83.7583 297.699 84.3384 299.652 84.3384C301.605 84.3384 302.853 83.7583 302.853 82.7914C302.853 81.8439 301.605 81.2541 299.652 81.2541C297.699 81.2541 296.452 81.8439 296.462 82.7914ZM319.249 79.9586V83.1298H321.067V84.029H319.249V87.2099H318.166V79.9586H319.249ZM310.296 86.2141V80.8867H315.691V81.7762H311.35V85.3343C313.811 85.3246 315.222 85.2521 316.851 84.9185L316.967 85.808C315.266 86.1464 313.806 86.2141 311.234 86.2141H310.296ZM311.311 89.7624C311.311 88.3025 312.858 87.4517 315.343 87.442C317.818 87.4517 319.346 88.3025 319.346 89.7624C319.346 91.232 317.818 92.0829 315.343 92.0829C312.858 92.0829 311.311 91.232 311.311 89.7624ZM312.365 89.7624C312.365 90.6616 313.506 91.2127 315.343 91.2127C317.161 91.2127 318.311 90.6616 318.311 89.7624C318.311 88.8633 317.161 88.3218 315.343 88.3315C313.506 88.3218 312.365 88.8633 312.365 89.7624ZM331.871 79.9682V88.8826H330.798V79.9682H331.871ZM321.961 86.2818C323.798 85.5663 325.045 83.7873 325.045 81.8633V80.645H326.137V81.8633C326.128 83.7196 327.394 85.3826 329.202 86.0401L328.642 86.9006C327.235 86.3543 326.137 85.2617 325.601 83.8598C325.074 85.3536 323.972 86.5477 322.55 87.1229L321.961 86.2818ZM324.02 91.8412V88.0608H325.093V90.9517H332.248V91.8412H324.02ZM339.465 80.1713C342.172 80.1713 343.758 80.9157 343.758 82.2693C343.758 83.6423 342.172 84.3867 339.465 84.3964C336.758 84.3867 335.162 83.6423 335.162 82.2693C335.162 80.9157 336.758 80.1713 339.465 80.1713ZM333.935 86.0884V85.2182H345.015V86.0884H333.935ZM335.278 87.9641V87.1423H343.584V89.8591H336.361V91.1257H343.951V91.9765H335.307V89.0663H342.53V87.9641H335.278ZM336.284 82.2693C336.274 83.1105 337.454 83.5746 339.465 83.5746C341.486 83.5746 342.665 83.1105 342.665 82.2693C342.665 81.4669 341.486 80.9834 339.465 80.9834C337.454 80.9834 336.274 81.4669 336.284 82.2693ZM353.551 80.5483C355.368 80.5387 356.673 81.5442 356.673 83.0331C356.673 84.5124 355.368 85.5276 353.551 85.518C351.733 85.5276 350.437 84.5124 350.437 83.0331C350.437 81.5442 351.733 80.5387 353.551 80.5483ZM349.519 86.5622C351.801 86.5622 354.923 86.5138 357.621 86.1174L357.698 86.9296C356.538 87.1423 355.33 87.268 354.16 87.3453V91.7348H353.086V87.4033C351.849 87.4565 350.679 87.4662 349.664 87.471L349.519 86.5622ZM351.481 83.0331C351.472 83.9807 352.342 84.6381 353.551 84.6285C354.778 84.6381 355.649 83.9807 355.649 83.0331C355.649 82.0856 354.778 81.4185 353.551 81.4282C352.342 81.4185 351.472 82.0856 351.481 83.0331ZM358.52 92.1215V79.9682H359.574V92.1215H358.52ZM367.719 82.0566V82.9365H361.618V82.0566H364.142V80.326H365.215V82.0566H367.719ZM362.063 86.5138C362.053 84.8992 363.156 83.7583 364.674 83.7583C366.201 83.7583 367.294 84.8992 367.303 86.5138C367.294 88.1478 366.201 89.2983 364.674 89.2983C363.156 89.2983 362.053 88.1478 362.063 86.5138ZM363.011 86.5138C363.011 87.5967 363.707 88.3702 364.674 88.3605C365.64 88.3702 366.346 87.5967 366.346 86.5138C366.346 85.4503 365.64 84.6671 364.674 84.6575C363.707 84.6671 363.011 85.4503 363.011 86.5138ZM368.348 91.5124V80.2486H369.363V85.0829H370.978V79.9586H372.002V92.1119H370.978V85.9724H369.363V91.5124H368.348ZM375.719 81.0994L375.623 88.2058H374.472L374.375 81.0994H375.719ZM374.172 90.1975C374.163 89.7141 374.569 89.3177 375.052 89.3177C375.536 89.3177 375.932 89.7141 375.932 90.1975C375.932 90.6809 375.536 91.0773 375.052 91.0773C374.569 91.0773 374.163 90.6809 374.172 90.1975Z" fill="#FEFEFE"/>
</g>
</g>
<defs>
<filter id="filter0_d_1128_5815" x="0" y="0" width="808" height="126" filterUnits="userSpaceOnUse" color-interpolation-filters="sRGB">
<feFlood flood-opacity="0" result="BackgroundImageFix"/>
<feColorMatrix in="SourceAlpha" type="matrix" values="0 0 0 0 0 0 0 0 0 0 0 0 0 0 0 0 0 0 127 0" result="hardAlpha"/>
<feOffset dy="4"/>
<feGaussianBlur stdDeviation="4"/>
<feComposite in2="hardAlpha" operator="out"/>
<feColorMatrix type="matrix" values="0 0 0 0 0 0 0 0 0 0 0 0 0 0 0 0 0 0 0.08 0"/>
<feBlend mode="normal" in2="BackgroundImageFix" result="effect1_dropShadow_1128_5815"/>
<feBlend mode="normal" in="SourceGraphic" in2="effect1_dropShadow_1128_5815" result="shape"/>
</filter>
<linearGradient id="paint0_linear_1128_5815" x1="800" y1="59" x2="8" y2="59" gradientUnits="userSpaceOnUse">
<stop stop-color="#90DEA3"/>
<stop offset="1" stop-color="#798BFF"/>
</linearGradient>
<clipPath id="clip0_1128_5815">
<path d="M8 16C8 9.37258 13.3726 4 20 4H788C794.627 4 800 9.37258 800 16V102C800 108.627 794.627 114 788 114H16C11.5817 114 8 110.418 8 106V16Z" fill="white"/>
</clipPath>
</defs>
</svg>
