<svg width="808" height="126" viewBox="0 0 808 126" fill="none" xmlns="http://www.w3.org/2000/svg">
<g filter="url(#filter0_d_1128_5835)">
<g clip-path="url(#clip0_1128_5835)">
<path d="M8 16C8 9.37258 13.3726 4 20 4H788C794.627 4 800 9.37258 800 16V102C800 108.627 794.627 114 788 114H16C11.5817 114 8 110.418 8 106V16Z" fill="url(#paint0_linear_1128_5835)" fill-opacity="0.9" shape-rendering="crispEdges"/>
<path d="M602.496 35.8594L779.955 -55.0279L789.082 -21.0127L607.975 70.3182L602.496 35.8594Z" fill="#90DEA3" fill-opacity="0.8"/>
<path d="M581.071 101.728L812.393 15.2285L817.873 49.6874L582.877 136.463L581.071 101.728Z" fill="#90DEA3" fill-opacity="0.8"/>
<path d="M581.071 101.728L844.715 88.0211L846.521 122.756L582.877 136.463L581.071 101.728Z" fill="#798BFF" fill-opacity="0.7"/>
<path d="M602.496 35.8594L812.393 15.2285L817.873 49.6874L607.975 70.3182L602.496 35.8594Z" fill="#798BFF" fill-opacity="0.7"/>
<path d="M624.063 -32.3812L779.955 -55.0279L789.082 -21.0127L633.189 1.63394L624.063 -32.3812Z" fill="#798BFF" fill-opacity="0.7"/>
<path d="M31.8207 27.4441C35.2703 27.4441 37.8497 29.1906 37.8497 31.8198C37.8497 34.2376 35.8049 35.8598 32.9271 36.183V38.9178H39.1674V40.7452H24.5362V38.9178H30.7082V36.1768C27.8491 35.8536 25.8166 34.2314 25.8228 31.8198C25.8166 29.1906 28.3898 27.4441 31.8207 27.4441ZM28.0293 31.8198C28.0293 33.5104 29.5894 34.4551 31.8207 34.4613C34.077 34.4551 35.6308 33.5104 35.637 31.8198C35.6308 30.2224 34.077 29.2341 31.8207 29.2341C29.5894 29.2341 28.0293 30.2224 28.0293 31.8198ZM53.0272 29.8619V31.6395H41.9078V26.8039H44.1267V29.8619H53.0272ZM40.0742 34.48V32.7086H54.7054V34.48H40.0742ZM41.7462 37.1713V35.4496H52.9527V39.701H44.0272V40.7079H53.4561V42.442H41.7648V38.0849H50.7337V37.1713H41.7462ZM68.6833 33.7838V35.5552H64.0404V38.9675H70.2807V40.7949H55.6495V38.9675H61.8215V35.5552H57.3712V27.7486H68.5715V29.5325H59.615V33.7838H68.6833ZM79.8981 27.0898C82.3345 27.0898 84.1681 28.6126 84.1805 30.7445C84.1681 32.8702 82.3345 34.3805 79.8981 34.3867C77.4305 34.3805 75.5908 32.8702 75.597 30.7445C75.5908 28.6126 77.4305 27.0898 79.8981 27.0898ZM77.7724 30.7445C77.76 31.9006 78.6674 32.578 79.8981 32.578C81.1101 32.578 82.0051 31.9006 82.0051 30.7445C82.0051 29.6008 81.1101 28.9233 79.8981 28.9233C78.6736 28.9233 77.76 29.6008 77.7724 30.7445ZM78.0086 37.0283V35.3004H88.7427V39.645H80.2337V40.6768H89.1778V42.442H78.0459V38.0041H86.5051V37.0283H78.0086ZM86.4927 34.6416V26.6112H88.7427V34.6416H86.4927ZM97.1018 30.9744C97.1018 33.5663 98.4381 36.3322 101.117 37.4448L99.9112 39.2037C98.0217 38.4081 96.7227 36.817 96.0017 34.8778C95.2807 36.9848 93.9568 38.7376 92.0673 39.6015L90.7931 37.8425C93.4409 36.6554 94.8145 33.6906 94.8207 30.9744V29.9924H91.4209V28.1588H100.452V29.9924H97.1018V30.9744ZM102.031 42.6222V26.6112H104.299V42.6222H102.031ZM121.08 33.7901V35.4558H106.449V33.7901H121.08ZM108.121 37.8052V36.2514H119.334V40.0304H110.365V40.9441H119.8V42.4731H108.134V38.607H117.109V37.8052H108.121ZM108.245 28.4323V26.9095H119.315V30.6637H110.502V31.5214H119.589V33.038H108.27V29.2403H117.065V28.4323H108.245ZM135.266 27.5559V29.346H132.071C132.078 31.2231 133.209 33.1374 135.794 33.9765L134.657 35.7044C132.886 35.1326 131.667 33.989 130.965 32.5656C130.25 34.1257 128.976 35.3688 127.118 35.9779L125.931 34.25C128.572 33.3923 129.772 31.3474 129.809 29.346H126.54V27.5559H135.266ZM128.094 38.7438V36.9537H138.865V42.6222H136.615V38.7438H128.094ZM136.615 36.27V26.6112H138.865V30.5021H141.015V32.3667H138.865V36.27H136.615ZM147.771 28.7928C147.759 30.9372 148.865 32.9137 151.438 33.7093L150.245 35.462C148.523 34.8715 147.361 33.7652 146.69 32.3294C145.975 33.9952 144.688 35.3066 142.768 35.953L141.574 34.163C144.321 33.2804 145.496 31.136 145.509 28.8985V27.4503H147.771V28.7928ZM144.247 39.5207C144.241 37.5566 146.335 36.4068 149.741 36.4068C153.16 36.4068 155.248 37.5566 155.254 39.5207C155.248 41.4972 153.16 42.6222 149.741 42.616C146.335 42.6222 144.241 41.4972 144.247 39.5207ZM146.478 39.5207C146.472 40.4095 147.622 40.8757 149.741 40.8695C151.867 40.8757 153.023 40.4095 153.029 39.5207C153.023 38.607 151.867 38.1471 149.741 38.1471C147.622 38.1471 146.472 38.607 146.478 39.5207ZM149.971 31.3847V29.5511H152.973V26.6112H155.211V35.9965H152.973V31.3847H149.971ZM169.904 26.6112V32.8826H172.265V34.7286H169.904V42.6222H167.685V26.6112H169.904ZM157.199 30.8004V29.0041H160.823V26.866H163.06V29.0041H166.603V30.8004H157.199ZM157.846 35.5117C157.839 33.2804 159.58 31.6954 161.942 31.6954C164.272 31.6954 166.019 33.2804 166.025 35.5117C166.019 37.7493 164.272 39.3218 161.942 39.328C159.58 39.3218 157.839 37.7493 157.846 35.5117ZM159.996 35.5117C159.99 36.7548 160.81 37.4945 161.942 37.4883C163.06 37.4945 163.868 36.7548 163.881 35.5117C163.868 34.2873 163.06 33.529 161.942 33.5166C160.81 33.529 159.99 34.2873 159.996 35.5117ZM186.318 26.6112V42.6595H184.087V34.2189H181.513V32.3854H184.087V26.6112H186.318ZM173.365 29.7686V27.9599H180.618V33.9517H175.64V37.078C177.84 37.0594 179.705 36.9786 181.768 36.6243L181.949 38.4454C179.574 38.8432 177.399 38.9302 174.72 38.9302H173.402V32.1678H178.424V29.7686H173.365ZM207.142 34.8715V36.6616H192.548V34.8715H198.695V33.5849C195.823 33.3363 194.002 32.1492 194.009 30.3032C194.002 28.2894 196.315 27.0276 199.832 27.0214C203.338 27.0276 205.644 28.2894 205.65 30.3032C205.644 32.1554 203.817 33.3425 200.945 33.5849V34.8715H207.142ZM194.307 42.3425V37.6561H196.557V40.5338H205.476V42.3425H194.307ZM196.339 30.3032C196.327 31.3287 197.614 31.8198 199.832 31.826C202.045 31.8198 203.338 31.3287 203.338 30.3032C203.338 29.3398 202.045 28.8052 199.832 28.8052C197.614 28.8052 196.327 29.3398 196.339 30.3032ZM224.97 26.6112V30.4213H227.096V32.2424H224.97V35.8785H222.695V26.6112H224.97ZM212.812 35.0145V27.6927H220.01V29.4952H215.038V33.2058C218.009 33.1934 219.637 33.0939 221.421 32.721L221.62 34.5173C219.643 34.9461 217.76 35.0145 214.143 35.0145H212.812ZM214.217 39.3715C214.211 37.3577 216.355 36.1644 219.693 36.1581C222.993 36.1644 225.094 37.3577 225.094 39.3715C225.094 41.4227 222.993 42.6222 219.693 42.616C216.355 42.6222 214.211 41.4227 214.217 39.3715ZM216.43 39.3715C216.424 40.3349 217.598 40.8384 219.693 40.8384C221.732 40.8384 222.913 40.3349 222.919 39.3715C222.913 38.4268 221.732 37.9358 219.693 37.942C217.598 37.9358 216.424 38.4268 216.43 39.3715ZM241.198 26.636V38.3149H238.948V26.636H241.198ZM227.747 34.3619C230.439 33.4606 231.601 31.2355 231.607 29.0539V27.5124H233.932V29.0539C233.919 31.1796 235.057 33.2493 237.686 34.0884L236.542 35.8536C234.734 35.2507 233.491 34.0573 232.782 32.5283C232.067 34.1754 230.787 35.4931 228.916 36.1333L227.747 34.3619ZM230.476 42.3425V37.1775H232.745V40.5338H241.62V42.3425H230.476ZM247.009 28.2707L246.772 37.1899H244.522L244.286 28.2707H247.009ZM244.174 39.6823C244.162 38.8743 244.839 38.2155 245.654 38.2155C246.437 38.2155 247.12 38.8743 247.127 39.6823C247.12 40.4965 246.437 41.1554 245.654 41.1554C244.839 41.1554 244.162 40.4965 244.174 39.6823ZM259.076 28.7928C259.063 30.9372 260.17 32.9137 262.743 33.7093L261.549 35.462C259.828 34.8715 258.665 33.7652 257.994 32.3294C257.279 33.9952 255.993 35.3066 254.072 35.953L252.879 34.163C255.626 33.2804 256.801 31.136 256.813 28.8985V27.4503H259.076V28.7928ZM255.552 39.5207C255.545 37.5566 257.64 36.4068 261.046 36.4068C264.465 36.4068 266.553 37.5566 266.559 39.5207C266.553 41.4972 264.465 42.6222 261.046 42.616C257.64 42.6222 255.545 41.4972 255.552 39.5207ZM257.783 39.5207C257.777 40.4095 258.927 40.8757 261.046 40.8695C263.172 40.8757 264.328 40.4095 264.334 39.5207C264.328 38.607 263.172 38.1471 261.046 38.1471C258.927 38.1471 257.777 38.607 257.783 39.5207ZM261.276 31.3847V29.5511H264.278V26.6112H266.516V35.9965H264.278V31.3847H261.276ZM277.684 27.6927V29.4827H274.489C274.502 31.3474 275.633 33.1499 278.181 33.9081L277.119 35.6609C275.341 35.1264 274.116 34.0511 273.408 32.6837C272.699 34.2873 271.4 35.5677 269.486 36.1954L268.348 34.424C270.996 33.5849 272.202 31.5152 272.227 29.4827H268.958V27.6927H277.684ZM270.555 39.5083C270.549 37.5566 272.65 36.4192 276.031 36.4254C279.369 36.4192 281.432 37.5566 281.432 39.5083C281.432 41.4599 279.369 42.6222 276.031 42.616C272.65 42.6222 270.549 41.4599 270.555 39.5083ZM272.799 39.5083C272.793 40.422 273.936 40.8757 276.031 40.8695C278.113 40.8757 279.219 40.422 279.219 39.5083C279.219 38.607 278.113 38.1657 276.031 38.172C273.936 38.1657 272.793 38.607 272.799 39.5083ZM279.033 36.1146V26.6112H281.283V30.3343H283.433V32.1616H281.283V36.1146H279.033ZM291.432 26.8474C295.118 26.8474 297.244 27.8108 297.25 29.5698C297.244 31.3598 295.118 32.317 291.432 32.317C287.74 32.317 285.602 31.3598 285.608 29.5698C285.602 27.8108 287.74 26.8474 291.432 26.8474ZM284.148 34.8529V33.0753H298.741V34.8529H284.148ZM285.832 37.4199V35.7728H296.958V39.8564H288.045V40.8198H297.374V42.5104H285.844V38.2901H294.745V37.4199H285.832ZM287.958 29.5698C287.945 30.3591 289.089 30.6637 291.432 30.6699C293.806 30.6637 294.938 30.3591 294.938 29.5698C294.938 28.8674 293.806 28.482 291.432 28.4883C289.089 28.482 287.945 28.8674 287.958 29.5698ZM317.334 26.6112V35.692H315.096V32.1119H312.119V34.971H304.518V27.6865H312.119V30.2907H315.096V26.6112H317.334ZM306.581 42.442V36.3943H317.334V42.442H306.581ZM306.743 33.1934H309.919V29.4703H306.743V33.1934ZM308.825 40.6457H315.14V38.172H308.825V40.6457ZM334.003 36.1954V38.029H327.794V42.6347H325.569V38.029H319.409V36.1954H334.003ZM320.143 33.5912C323.456 33.2058 325.264 31.6457 325.531 30.2286H320.727V28.4634H325.569V26.636H327.794V28.4634H332.661V30.2286H327.85C328.117 31.6271 329.913 33.2058 333.22 33.5912L332.412 35.3501C329.702 35.0331 327.744 33.9206 326.7 32.4662C325.656 33.933 323.685 35.0269 320.957 35.3501L320.143 33.5912ZM341.157 30.9744C341.157 33.5663 342.493 36.3322 345.172 37.4448L343.966 39.2037C342.076 38.4081 340.777 36.817 340.056 34.8778C339.335 36.9848 338.011 38.7376 336.122 39.6015L334.848 37.8425C337.496 36.6554 338.869 33.6906 338.875 30.9744V29.9924H335.476V28.1588H344.507V29.9924H341.157V30.9744ZM346.085 42.6222V26.6112H348.354V42.6222H346.085ZM362.863 28.134V38.7127H355.174V28.134H362.863ZM357.387 36.9351H360.632V29.893H357.387V36.9351ZM365.045 42.6222V26.6112H367.288V32.6526H369.65V34.5235H367.288V42.6222H365.045ZM375.349 30.645C375.349 33.2369 376.07 35.9095 378.264 37.3142L377.04 39.0421C375.66 38.2093 374.784 36.8356 374.274 35.201C373.708 37.0097 372.745 38.5262 371.297 39.4088L369.929 37.7431C372.297 36.2762 373.174 33.4606 373.174 30.7507V27.991H375.349V30.645ZM376.574 33.846V32.0186H378.643V26.8598H380.744V41.8826H378.643V33.846H376.574ZM381.944 42.6222V26.6112H384.088V42.6222H381.944ZM400.415 38.9178V40.7452H385.784V38.9178H389.047V34.9896C387.81 34.2438 387.065 33.1064 387.071 31.6954C387.065 29.1098 389.601 27.4006 393.069 27.4006C396.537 27.4006 399.098 29.1098 399.098 31.6954C399.098 33.0877 398.371 34.2065 397.165 34.9523V38.9178H400.415ZM389.277 31.6954C389.277 33.268 390.781 34.2314 393.069 34.2376C395.337 34.2314 396.879 33.268 396.885 31.6954C396.879 30.0919 395.337 29.1595 393.069 29.172C390.781 29.1595 389.277 30.0919 389.277 31.6954ZM391.266 38.9178H394.896V35.8039C394.324 35.9095 393.715 35.9717 393.069 35.9717C392.435 35.9717 391.832 35.9157 391.266 35.8039V38.9178ZM403.404 41.1554C402.59 41.1554 401.913 40.4965 401.925 39.6823C401.913 38.8743 402.59 38.2155 403.404 38.2155C404.188 38.2155 404.871 38.8743 404.877 39.6823C404.871 40.4965 404.188 41.1554 403.404 41.1554Z" fill="white"/>
<path d="M27.9351 59.4033C29.7528 59.413 31.0773 60.5152 31.087 62.1008C31.0773 63.6865 29.7528 64.779 27.9351 64.779C26.0981 64.779 24.7735 63.6865 24.7735 62.1008C24.7735 60.5152 26.0981 59.413 27.9351 59.4033ZM25.8273 62.1008C25.8177 63.1644 26.7169 63.8992 27.9351 63.8992C29.1436 63.8992 30.0428 63.1644 30.0428 62.1008C30.0428 61.047 29.1436 60.3025 27.9351 60.3122C26.7169 60.3025 25.8177 61.047 25.8273 62.1008ZM26.6202 66.6547V65.7845H34.529V68.7141H27.703V70.0773H34.9641V70.9475H26.6588V67.9019H33.4655V66.6547H26.6202ZM33.4558 65.1948V58.9586H34.529V65.1948H33.4558ZM40.9435 62.6906C40.9435 64.75 42.4422 66.8481 44.2308 67.6215L43.6314 68.4724C42.2101 67.8246 40.987 66.4275 40.4166 64.75C39.8462 66.529 38.6183 68.076 37.2308 68.7721L36.5927 67.9213C38.333 67.0898 39.851 64.7887 39.8607 62.6906V61.105H36.9891V60.2058H43.8344V61.105H40.9435V62.6906ZM45.5361 71.1119V58.9586H46.6093V71.1119H45.5361ZM63.3151 65.0691V65.9586H52.206V65.0691H57.2143V63.1934H58.2681V65.0691H63.3151ZM52.8731 62.9807C55.0195 62.6906 57.1949 61.337 57.1949 59.7127V59.1423H58.2778V59.7127C58.2778 61.337 60.4629 62.6906 62.6093 62.9807L62.1742 63.8412C60.3324 63.5269 58.505 62.5504 57.7412 61.1533C56.9774 62.5601 55.1452 63.5221 53.2792 63.8412L52.8731 62.9807ZM53.4339 68.0083V67.1478H61.9132V71.1119H60.8303V68.0083H53.4339ZM74.7186 58.9586V71.1119H73.684V58.9586H74.7186ZM64.4603 64.1989C64.4603 61.6174 65.4852 59.9834 67.0611 59.9834C68.5404 59.9834 69.5411 61.4047 69.6765 63.6961H71.2476V59.2196H72.2821V70.4931H71.2476V64.5856H69.6813C69.5749 66.9544 68.5646 68.4337 67.0611 68.424C65.4852 68.4337 64.4603 66.7901 64.4603 64.1989ZM65.4658 64.1989C65.4561 66.1713 66.0846 67.4185 67.0611 67.4088C68.057 67.4185 68.6854 66.1713 68.6854 64.1989C68.6854 62.2265 68.057 60.989 67.0611 60.989C66.0846 60.989 65.4561 62.2265 65.4658 64.1989ZM89.6647 58.9586V61.6077H91.26V62.5069H89.6647V65.4365H88.6012V58.9586H89.6647ZM79.8222 63.8992C81.1951 63.1257 81.7269 61.4627 81.7366 60.3218V59.471H82.7517V60.3218C82.7517 61.2113 83.0031 62.6278 83.9458 63.5801C84.8546 62.6568 85.1109 61.2742 85.1109 60.3315V59.4903H85.3429V59.471H86.1164V60.3218C86.1164 61.6077 86.6482 63.1837 88.0501 63.8992L87.4603 64.6727C86.5128 64.1699 85.9424 63.2997 85.6378 62.3329C85.3671 63.3094 84.8498 64.2569 83.9313 64.808L83.9216 64.7935C82.9983 64.2231 82.4859 63.2465 82.22 62.2652C81.9106 63.232 81.3401 64.1506 80.412 64.6727L79.8222 63.8992ZM81.5529 66.9931V66.1423H85.3429V64.9337H86.4161V66.1423H90.1675V66.9931H81.5529ZM82.307 69.3232C82.2973 68.2017 83.6122 67.5732 85.8747 67.5635C88.1081 67.5732 89.423 68.2017 89.423 69.3232C89.423 70.4738 88.1081 71.0829 85.8747 71.0829C83.6122 71.0829 82.2973 70.4738 82.307 69.3232ZM83.3705 69.3232C83.3609 69.9517 84.26 70.2997 85.8747 70.2901C87.4506 70.2997 88.3692 69.9517 88.3692 69.3232C88.3692 68.7141 87.4506 68.3564 85.8747 68.3467C84.26 68.3564 83.3609 68.7141 83.3705 69.3232ZM102.035 58.9586V71.1312H100.962V58.9586H102.035ZM92.4729 64.1312C92.4729 61.5497 93.7588 59.9061 95.5765 59.8964C97.3748 59.9061 98.6801 61.5497 98.6801 64.1312C98.6801 66.7224 97.3748 68.366 95.5765 68.366C93.7588 68.366 92.4729 66.7224 92.4729 64.1312ZM93.5074 64.1312C93.5074 66.1133 94.3583 67.4088 95.5765 67.4088C96.7947 67.4088 97.6359 66.1133 97.6359 64.1312C97.6359 62.1588 96.7947 60.8633 95.5765 60.8536C94.3583 60.8633 93.5074 62.1588 93.5074 64.1312ZM113.941 62.6423V63.5124H105.626V59.4033H106.69V62.6423H113.941ZM104.099 66.0359V65.1657H115.227V66.0359H104.099ZM105.549 70.8122V67.2735H106.613V69.9227H114.019V70.8122H105.549ZM126.47 60.3025V60.9406C126.461 61.8978 126.461 63.5028 126.113 65.7555L125.039 65.6685C125.368 63.6333 125.397 62.1492 125.397 61.1823H120.292V60.3025H126.47ZM119.606 67.5345C120.403 67.5297 121.293 67.5249 122.226 67.5007V63.7735H123.289V67.4717C124.633 67.4185 126.011 67.3315 127.273 67.1768L127.331 67.989C124.778 68.3854 121.916 68.4434 119.741 68.4337L119.606 67.5345ZM128.037 71.1119V58.9586H129.11V64.0442H131.082V64.9724H129.11V71.1119H128.037ZM141.906 58.9586V66.2003H140.832V63.0193H138.377V62.1298H140.832V58.9586H141.906ZM131.879 65.2334C133.687 64.576 134.973 62.9323 134.973 61.192V60.7376H132.227V59.8481H138.773V60.7376H136.056V61.1823C136.056 62.768 137.274 64.2762 139.053 64.8854L138.493 65.7459C137.124 65.2528 136.066 64.2327 135.539 62.9807C135.017 64.4019 133.89 65.538 132.44 66.0843L131.879 65.2334ZM133.803 68.8398C133.794 67.4088 135.341 66.5773 137.874 66.5773C140.397 66.5773 141.944 67.4088 141.944 68.8398C141.944 70.2707 140.397 71.0925 137.874 71.1022C135.341 71.0925 133.794 70.2707 133.803 68.8398ZM134.867 68.8398C134.857 69.7196 136.008 70.2514 137.874 70.2417C139.73 70.2514 140.881 69.7196 140.881 68.8398C140.881 67.9503 139.73 67.4185 137.874 67.4185C136.008 67.4185 134.857 67.9503 134.867 68.8398ZM155.02 64.0635V64.9337H143.931V64.0635H155.02ZM145.275 66.8577V66.0166H153.58V68.8398H146.357V70.0967H153.947V70.9669H145.304V68.0276H152.526V66.8577H145.275ZM145.41 63.0677V59.3743H153.57V60.2445H146.483V62.1878H153.696V63.0677H145.41ZM166.047 58.9586V71.1312H164.974V58.9586H166.047ZM156.485 64.1312C156.485 61.5497 157.771 59.9061 159.588 59.8964C161.387 59.9061 162.692 61.5497 162.692 64.1312C162.692 66.7224 161.387 68.366 159.588 68.366C157.771 68.366 156.485 66.7224 156.485 64.1312ZM157.519 64.1312C157.519 66.1133 158.37 67.4088 159.588 67.4088C160.806 67.4088 161.648 66.1133 161.648 64.1312C161.648 62.1588 160.806 60.8633 159.588 60.8536C158.37 60.8633 157.519 62.1588 157.519 64.1312ZM175.695 62.913C175.695 64.866 176.961 66.8577 178.721 67.7086L178.092 68.5304C176.758 67.8778 175.699 66.5532 175.187 64.9869C174.66 66.674 173.529 68.0856 172.146 68.7528L171.527 67.9213C173.316 67.0898 174.641 65.011 174.65 62.913V61.9461H171.866V61.076H174.641V59.1809H175.714V61.076H178.45V61.9461H175.695V62.913ZM179.978 71.1119V58.9586H181.051V63.9475H183.081V64.866H181.051V71.1119H179.978ZM194.814 64.7403V65.6298H183.753V64.7403H188.336V62.2749H189.39V64.7403H194.814ZM184.932 67.9019V67.0221H193.402V71.1119H192.319V67.9019H184.932ZM185.068 60.4959V59.6257H193.412V60.5442C193.402 61.4724 193.402 62.5166 193.112 63.8992L192.029 63.7928C192.338 62.4296 192.338 61.453 192.338 60.5442V60.4959H185.068ZM199.894 62.913C199.894 64.866 201.16 66.8577 202.92 67.7086L202.292 68.5304C200.957 67.8778 199.899 66.5532 199.386 64.9869C198.859 66.674 197.728 68.0856 196.345 68.7528L195.727 67.9213C197.515 67.0898 198.84 65.011 198.85 62.913V61.9461H196.065V61.076H198.84V59.1809H199.913V61.076H202.649V61.9461H199.894V62.913ZM204.177 71.1119V58.9586H205.25V63.9475H207.281V64.866H205.25V71.1119H204.177ZM219.013 64.7403V65.6298H207.952V64.7403H212.535V62.2749H213.589V64.7403H219.013ZM209.132 67.9019V67.0221H217.601V71.1119H216.518V67.9019H209.132ZM209.267 60.4959V59.6257H217.611V60.5442C217.601 61.4724 217.601 62.5166 217.311 63.8992L216.228 63.7928C216.538 62.4296 216.538 61.453 216.538 60.5442V60.4959H209.267ZM234.684 68.6464V69.5456H223.556V68.6464H228.554V65.6782H224.871V59.9738H233.301V65.6782H229.618V68.6464H234.684ZM225.915 64.8177H232.257V60.8439H225.915V64.8177ZM238.923 59.8964C240.04 59.9012 240.949 60.5539 241.471 61.6754H244.666V58.9586H245.73V71.1312H244.666V66.413H241.548C241.041 67.6457 240.098 68.366 238.923 68.366C237.125 68.366 235.868 66.7224 235.878 64.1312C235.868 61.5497 237.125 59.9061 238.923 59.8964ZM236.902 64.1312C236.902 66.1133 237.724 67.4088 238.923 67.4088C240.112 67.4088 240.944 66.1133 240.944 64.1312C240.944 62.1588 240.112 60.8633 238.923 60.8536C237.724 60.8633 236.902 62.1588 236.902 64.1312ZM241.78 62.5746C241.896 63.0435 241.959 63.5656 241.959 64.1312C241.959 64.634 241.911 65.0981 241.819 65.5235H244.666V62.5746H241.78ZM260.782 58.9586V62.1298H262.6V63.029H260.782V66.2099H259.699V58.9586H260.782ZM251.829 65.2141V59.8867H257.224V60.7762H252.883V64.3343C255.344 64.3246 256.755 64.2521 258.385 63.9185L258.501 64.808C256.799 65.1464 255.339 65.2141 252.767 65.2141H251.829ZM252.844 68.7624C252.844 67.3025 254.391 66.4517 256.876 66.442C259.351 66.4517 260.879 67.3025 260.879 68.7624C260.879 70.232 259.351 71.0829 256.876 71.0829C254.391 71.0829 252.844 70.232 252.844 68.7624ZM253.898 68.7624C253.898 69.6616 255.039 70.2127 256.876 70.2127C258.694 70.2127 259.844 69.6616 259.844 68.7624C259.844 67.8633 258.694 67.3218 256.876 67.3315C255.039 67.3218 253.898 67.8633 253.898 68.7624ZM273.404 58.9682V67.8826H272.331V58.9682H273.404ZM263.494 65.2818C265.331 64.5663 266.578 62.7873 266.578 60.8633V59.645H267.671V60.8633C267.661 62.7196 268.927 64.3826 270.735 65.0401L270.175 65.9006C268.768 65.3543 267.671 64.2617 267.134 62.8598C266.607 64.3536 265.505 65.5477 264.084 66.1229L263.494 65.2818ZM265.553 70.8412V67.0608H266.626V69.9517H273.781V70.8412H265.553ZM279.441 59.8481C281.356 59.8481 282.709 61.0083 282.719 62.7003C282.709 64.3923 281.356 65.5525 279.441 65.5525C277.527 65.5525 276.154 64.3923 276.164 62.7003C276.154 61.0083 277.527 59.8481 279.441 59.8481ZM275.535 67.5345C277.778 67.5442 280.872 67.5249 283.56 67.1285L283.647 67.9213C280.863 68.4434 277.875 68.453 275.68 68.453L275.535 67.5345ZM277.218 62.7003C277.208 63.8315 278.146 64.6146 279.441 64.6146C280.727 64.6146 281.665 63.8315 281.665 62.7003C281.665 61.5691 280.727 60.7859 279.441 60.7859C278.146 60.7859 277.208 61.5691 277.218 62.7003ZM284.363 71.1312V58.9586H285.436V71.1312H284.363ZM295.258 60.8729C295.248 62.6036 296.486 64.1312 298.274 64.7307L297.675 65.5718C296.331 65.0691 295.277 64.0829 294.75 62.8018C294.233 64.2569 293.121 65.3881 291.651 65.9392L291.071 65.0691C292.937 64.4116 294.185 62.797 294.194 60.9116V59.6547H295.258V60.8729ZM293.053 68.8108C293.044 67.3508 294.591 66.5097 297.124 66.5097C299.647 66.5097 301.194 67.3508 301.194 68.8108C301.194 70.261 299.647 71.0829 297.124 71.0829C294.591 71.0829 293.044 70.261 293.053 68.8108ZM294.117 68.8108C294.107 69.6906 295.258 70.2224 297.124 70.2224C298.98 70.2224 300.131 69.6906 300.131 68.8108C300.131 67.9019 298.98 67.3605 297.124 67.3605C295.258 67.3605 294.107 67.9019 294.117 68.8108ZM297.375 62.4489V61.5594H300.082V58.9586H301.156V66.1616H300.082V62.4489H297.375ZM307.299 61.2597C307.299 62.855 308.489 64.2762 310.277 64.866L309.765 65.7072C308.368 65.2431 307.309 64.2762 306.787 63.058C306.265 64.4503 305.143 65.538 303.683 66.0649L303.132 65.2044C304.96 64.5856 306.226 63.0193 306.236 61.2693V60.7472H303.461V59.8577H310.026V60.7472H307.299V61.2597ZM304.757 68.8398C304.757 67.4378 306.284 66.6257 308.788 66.6257C311.283 66.6257 312.791 67.4378 312.791 68.8398C312.791 70.261 311.283 71.0829 308.788 71.0829C306.284 71.0829 304.757 70.261 304.757 68.8398ZM305.83 68.8398C305.82 69.7099 306.951 70.2224 308.788 70.2224C310.625 70.2224 311.747 69.7099 311.747 68.8398C311.747 67.989 310.625 67.4862 308.788 67.4862C306.951 67.4862 305.82 67.989 305.83 68.8398ZM311.612 66.297V58.9586H312.685V62.0622H314.512V62.9613H312.685V66.297H311.612ZM325.297 58.9586V71.1312H324.224V58.9586H325.297ZM315.735 64.1312C315.735 61.5497 317.021 59.9061 318.838 59.8964C320.637 59.9061 321.942 61.5497 321.942 64.1312C321.942 66.7224 320.637 68.366 318.838 68.366C317.021 68.366 315.735 66.7224 315.735 64.1312ZM316.769 64.1312C316.769 66.1133 317.62 67.4088 318.838 67.4088C320.056 67.4088 320.898 66.1133 320.898 64.1312C320.898 62.1588 320.056 60.8633 318.838 60.8536C317.62 60.8633 316.769 62.1588 316.769 64.1312ZM337.961 62.1685V63.0097H335.515V64.2521C336.666 64.1941 337.816 64.1119 338.889 63.9862L338.947 64.7403C336.347 65.1367 333.417 65.2141 331.106 65.2141L330.961 64.3536C332.03 64.3488 333.219 64.3343 334.432 64.2956V63.0097H332.083V59.4903H337.826V60.3218H333.185V62.1685H337.961ZM332.866 66.9254V66.0649H340.929V68.8785H333.949V70.0967H341.364V70.9765H332.885V68.0566H339.876V66.9254H332.866ZM339.866 65.5138V58.9682H340.929V65.5138H339.866ZM353.058 58.9586V71.1119H351.994V64.7403H349.094V63.8412H351.994V58.9586H353.058ZM343.003 67.9406C346.3 66.3405 347.823 63.9959 348.04 61.1533H343.535V60.2831H349.123C349.113 63.7251 347.653 66.7804 343.593 68.7914L343.003 67.9406ZM365.506 58.9586V71.1119H364.471V58.9586H365.506ZM355.247 64.1989C355.247 61.6174 356.272 59.9834 357.848 59.9834C358.892 59.9834 359.695 60.6892 360.125 61.9075H362.064V59.2196H363.089V70.4931H362.064V66.5H360.125C359.695 67.7231 358.892 68.4289 357.848 68.424C356.272 68.4337 355.247 66.7901 355.247 64.1989ZM356.243 64.1989C356.234 66.1713 356.852 67.4185 357.848 67.4088C358.844 67.4185 359.482 66.1713 359.482 64.1989C359.482 62.2265 358.844 60.989 357.848 60.989C356.852 60.989 356.234 62.2265 356.243 64.1989ZM360.357 62.797C360.435 63.2224 360.478 63.6913 360.478 64.1989C360.478 64.7017 360.435 65.1754 360.357 65.6008H362.064V62.797H360.357ZM378.321 68.6464V69.5456H367.192V68.6464H369.948V65.3688C368.913 64.8273 368.285 63.9523 368.285 62.855C368.285 60.9696 370.132 59.732 372.723 59.7224C375.324 59.732 377.17 60.9696 377.17 62.855C377.17 63.9378 376.561 64.7983 375.556 65.3398V68.6464H378.321ZM369.319 62.855C369.319 64.2086 370.731 65.1174 372.723 65.1174C374.705 65.1174 376.136 64.2086 376.136 62.855C376.136 61.4917 374.705 60.5925 372.723 60.6022C370.731 60.5925 369.319 61.4917 369.319 62.855ZM371.002 68.6464H374.473V65.7604C373.946 65.8957 373.356 65.9682 372.723 65.9682C372.099 65.9682 371.524 65.8957 371.002 65.7652V68.6464ZM380.578 70.0773C380.094 70.0773 379.688 69.6809 379.698 69.1975C379.688 68.7141 380.094 68.3177 380.578 68.3177C381.061 68.3177 381.458 68.7141 381.458 69.1975C381.458 69.6809 381.061 70.0773 380.578 70.0773ZM35.6022 86.9199V87.8287H30.5359V92.1119H29.482V87.8287H24.4738V86.9199H35.6022ZM25.7403 83.1202C25.7403 81.4765 27.4613 80.4517 30.0138 80.442C32.5663 80.4517 34.297 81.4765 34.297 83.1202C34.297 84.7445 32.5663 85.7693 30.0138 85.7693C27.4613 85.7693 25.7403 84.7445 25.7403 83.1202ZM26.8425 83.1202C26.8329 84.203 28.1188 84.8992 30.0138 84.8992C31.9088 84.8992 33.1948 84.203 33.1948 83.1202C33.1948 82.0276 31.9088 81.3218 30.0138 81.3218C28.1188 81.3218 26.8329 82.0276 26.8425 83.1202ZM46.6286 79.9586V92.1312H45.5651V79.9586H46.6286ZM37.2792 81.9793V81.0898H42.9352V85.4116H38.4007V88.2831C40.4166 88.2783 42.2101 88.1913 44.3855 87.8384L44.4919 88.7376C42.2584 89.0953 40.4118 89.1823 38.3137 89.1823H37.2985V84.5318H41.8524V81.9793H37.2792ZM58.5155 83.6423V84.5124H50.2006V80.4033H51.2641V83.6423H58.5155ZM48.673 87.0359V86.1657H59.8014V87.0359H48.673ZM50.1233 91.8122V88.2735H51.1868V90.9227H58.5929V91.8122H50.1233ZM74.3802 79.9682V88.9213H73.307V84.232H70.7545C70.5176 85.7258 69.2607 86.7459 67.6509 86.7459C65.8332 86.7459 64.4893 85.4986 64.499 83.739C64.4893 81.9793 65.8332 80.7514 67.6509 80.7514C69.2945 80.7514 70.5708 81.7956 70.769 83.3425H73.307V79.9682H74.3802ZM65.5238 83.739C65.5238 84.9475 66.4327 85.808 67.6509 85.8177C68.8498 85.808 69.7586 84.9475 69.7586 83.739C69.7586 82.5401 68.8498 81.6989 67.6509 81.6892C66.4327 81.6989 65.5238 82.5401 65.5238 83.739ZM66.5777 91.8412V88.0124H67.6509V90.9517H74.7186V91.8412H66.5777ZM86.7892 79.9586V92.1119H85.7643V79.9586H86.7892ZM76.2602 88.8729C77.9522 87.8577 78.9384 85.634 78.9384 83.4199V82.279H76.5889V81.3895H82.1966V82.279H79.9729V83.4199C79.9729 85.5276 80.9204 87.6257 82.593 88.5925L81.9453 89.3854C80.7512 88.6699 79.9004 87.3598 79.4701 85.8128C79.035 87.4855 78.1552 88.9116 76.937 89.6754L76.2602 88.8729ZM81.2685 85.2182V84.3384H83.3182V80.2486H84.3334V91.4738H83.3182V85.2182H81.2685ZM99.8846 84.8122V85.7113H97.9123V92.1022H96.8391V79.9586H97.9123V84.8122H99.8846ZM89.0076 89.018V81.1575H90.0711V88.1188C91.8501 88.114 93.6678 87.9738 95.6692 87.558L95.8045 88.4765C93.7065 88.8923 91.8211 89.018 89.9744 89.018H89.0076ZM113.632 79.9586V83.1298H115.45V84.029H113.632V87.2099H112.549V79.9586H113.632ZM104.679 86.2141V80.8867H110.074V81.7762H105.733V85.3343C108.193 85.3246 109.605 85.2521 111.234 84.9185L111.35 85.808C109.648 86.1464 108.189 86.2141 105.617 86.2141H104.679ZM105.694 89.7624C105.694 88.3025 107.241 87.4517 109.726 87.442C112.201 87.4517 113.729 88.3025 113.729 89.7624C113.729 91.232 112.201 92.0829 109.726 92.0829C107.241 92.0829 105.694 91.232 105.694 89.7624ZM106.748 89.7624C106.748 90.6616 107.889 91.2127 109.726 91.2127C111.544 91.2127 112.694 90.6616 112.694 89.7624C112.694 88.8633 111.544 88.3218 109.726 88.3315C107.889 88.3218 106.748 88.8633 106.748 89.7624ZM126.254 79.9682V88.8826H125.18V79.9682H126.254ZM116.343 86.2818C118.18 85.5663 119.428 83.7873 119.428 81.8633V80.645H120.52V81.8633C120.511 83.7196 121.777 85.3826 123.585 86.0401L123.024 86.9006C121.618 86.3543 120.52 85.2617 119.984 83.8598C119.457 85.3536 118.354 86.5477 116.933 87.1229L116.343 86.2818ZM118.403 91.8412V88.0608H119.476V90.9517H126.631V91.8412H118.403ZM132.291 80.8481C134.205 80.8481 135.559 82.0083 135.569 83.7003C135.559 85.3923 134.205 86.5525 132.291 86.5525C130.377 86.5525 129.004 85.3923 129.013 83.7003C129.004 82.0083 130.377 80.8481 132.291 80.8481ZM128.385 88.5345C130.628 88.5442 133.722 88.5249 136.41 88.1285L136.497 88.9213C133.712 89.4434 130.725 89.453 128.53 89.453L128.385 88.5345ZM130.067 83.7003C130.058 84.8315 130.995 85.6146 132.291 85.6146C133.577 85.6146 134.515 84.8315 134.515 83.7003C134.515 82.5691 133.577 81.7859 132.291 81.7859C130.995 81.7859 130.058 82.5691 130.067 83.7003ZM137.212 92.1312V79.9586H138.286V92.1312H137.212ZM148.107 81.8729C148.098 83.6036 149.335 85.1312 151.124 85.7307L150.525 86.5718C149.181 86.0691 148.127 85.0829 147.6 83.8018C147.083 85.2569 145.971 86.3881 144.501 86.9392L143.921 86.0691C145.787 85.4116 147.034 83.797 147.044 81.9116V80.6547H148.107V81.8729ZM145.903 89.8108C145.893 88.3508 147.44 87.5097 149.973 87.5097C152.497 87.5097 154.044 88.3508 154.044 89.8108C154.044 91.261 152.497 92.0829 149.973 92.0829C147.44 92.0829 145.893 91.261 145.903 89.8108ZM146.967 89.8108C146.957 90.6906 148.107 91.2224 149.973 91.2224C151.83 91.2224 152.98 90.6906 152.98 89.8108C152.98 88.9019 151.83 88.3605 149.973 88.3605C148.107 88.3605 146.957 88.9019 146.967 89.8108ZM150.225 83.4489V82.5594H152.932V79.9586H154.005V87.1616H152.932V83.4489H150.225ZM160.149 82.2597C160.149 83.855 161.338 85.2762 163.127 85.866L162.614 86.7072C161.217 86.2431 160.159 85.2762 159.637 84.058C159.114 85.4503 157.993 86.538 156.533 87.0649L155.982 86.2044C157.809 85.5856 159.076 84.0193 159.085 82.2693V81.7472H156.311V80.8577H162.876V81.7472H160.149V82.2597ZM157.606 89.8398C157.606 88.4378 159.134 87.6257 161.638 87.6257C164.132 87.6257 165.641 88.4378 165.641 89.8398C165.641 91.261 164.132 92.0829 161.638 92.0829C159.134 92.0829 157.606 91.261 157.606 89.8398ZM158.679 89.8398C158.67 90.7099 159.801 91.2224 161.638 91.2224C163.475 91.2224 164.597 90.7099 164.597 89.8398C164.597 88.989 163.475 88.4862 161.638 88.4862C159.801 88.4862 158.67 88.989 158.679 89.8398ZM164.461 87.297V79.9586H165.534V83.0622H167.362V83.9613H165.534V87.297H164.461ZM173.66 80.1713C176.367 80.1713 177.953 80.9157 177.953 82.2693C177.953 83.6423 176.367 84.3867 173.66 84.3964C170.953 84.3867 169.358 83.6423 169.358 82.2693C169.358 80.9157 170.953 80.1713 173.66 80.1713ZM168.13 86.0884V85.2182H179.21V86.0884H168.13ZM169.474 87.9641V87.1423H177.779V89.8591H170.557V91.1257H178.146V91.9765H169.503V89.0663H176.725V87.9641H169.474ZM170.479 82.2693C170.47 83.1105 171.649 83.5746 173.66 83.5746C175.681 83.5746 176.86 83.1105 176.86 82.2693C176.86 81.4669 175.681 80.9834 173.66 80.9834C171.649 80.9834 170.47 81.4669 170.479 82.2693ZM194.823 85.8757V86.7459H183.743V85.8757H194.823ZM184.971 82.5787C184.971 81.1381 186.634 80.268 189.273 80.268C191.913 80.268 193.566 81.1381 193.566 82.5787C193.566 84.029 191.913 84.8798 189.273 84.8798C186.634 84.8798 184.971 84.029 184.971 82.5787ZM185.077 89.9365C185.077 88.5442 186.644 87.7707 189.273 87.7804C191.884 87.7707 193.45 88.5442 193.46 89.9365C193.45 91.3384 191.884 92.1119 189.273 92.1119C186.644 92.1119 185.077 91.3384 185.077 89.9365ZM186.083 82.5787C186.073 83.4876 187.311 84.029 189.273 84.029C191.227 84.029 192.474 83.4876 192.474 82.5787C192.474 81.6699 191.227 81.1285 189.273 81.1381C187.311 81.1285 186.073 81.6699 186.083 82.5787ZM186.17 89.9365C186.16 90.7776 187.33 91.261 189.273 91.2514C191.207 91.261 192.377 90.7776 192.387 89.9365C192.377 89.0856 191.207 88.6022 189.273 88.6022C187.33 88.6022 186.16 89.0856 186.17 89.9365ZM205.859 79.9682V89.2017H204.776V87.9351H202.272V87.1519H204.776V79.9682H205.859ZM195.775 85.5953C198.037 85.5856 201.083 85.5663 203.684 85.2376L203.761 86.0207C202.674 86.1948 201.537 86.3059 200.416 86.3736V88.7762H199.343V86.4268C198.115 86.4751 196.94 86.48 195.92 86.4751L195.775 85.5953ZM196.752 82.5787C196.752 81.3025 197.97 80.4613 199.768 80.4613C201.547 80.4613 202.765 81.3025 202.775 82.5787C202.765 83.8743 201.547 84.6865 199.768 84.6865C197.97 84.6865 196.752 83.8743 196.752 82.5787ZM197.525 91.8412V88.2928H198.598V90.9517H206.159V91.8412H197.525ZM197.776 82.5787C197.767 83.3715 198.579 83.884 199.768 83.884C200.919 83.884 201.74 83.3715 201.75 82.5787C201.74 81.7956 200.919 81.2638 199.768 81.2735C198.579 81.2638 197.767 81.7956 197.776 82.5787ZM217.35 79.9586V84.9669H219.38V85.866H217.35V92.1119H216.286V79.9586H217.35ZM207.875 82.8011V81.9116H210.998V80.1036H212.071V81.9116H215.107V82.8011H207.875ZM208.571 86.6008C208.561 84.9572 209.818 83.8066 211.549 83.8066C213.27 83.8066 214.517 84.9572 214.527 86.6008C214.517 88.2445 213.27 89.3854 211.549 89.3854C209.818 89.3854 208.561 88.2445 208.571 86.6008ZM209.596 86.6008C209.586 87.703 210.417 88.4862 211.549 88.4765C212.67 88.4862 213.492 87.703 213.502 86.6008C213.492 85.4986 212.67 84.7058 211.549 84.7058C210.417 84.7058 209.586 85.4986 209.596 86.6008ZM229.788 81.1865V82.395C229.778 83.8936 229.778 85.5566 229.333 88.0028L228.25 87.8771C228.705 85.5566 228.705 83.855 228.715 82.395V82.076H221.221V81.1865H229.788ZM220.042 90.3909V89.4917H224.383V85.1506H225.447V89.4917H231.122V90.3909H220.042ZM239.764 88.1091C239.764 89.1872 240.349 90.3329 241.5 90.9903C242.66 90.2749 243.274 89.0518 243.274 88.1091V87.442H244.328V88.1091C244.318 89.366 245.237 90.6133 246.803 91.145L246.262 91.9378C245.048 91.5124 244.197 90.6616 243.777 89.6416C243.4 90.6326 242.66 91.5656 241.534 92.0442C240.349 91.5898 239.6 90.7003 239.237 89.6802C238.797 90.6616 237.961 91.5028 236.796 91.9378L236.255 91.145C237.792 90.5746 238.72 89.279 238.73 88.1091V87.442H239.764V88.1091ZM235.936 83.5166C235.936 81.8246 237.28 80.674 239.126 80.674C240.973 80.674 242.307 81.8246 242.307 83.5166C242.307 85.1892 240.973 86.3398 239.126 86.3398C237.28 86.3398 235.936 85.1892 235.936 83.5166ZM236.989 83.5166C236.98 84.6478 237.879 85.4406 239.126 85.4503C240.364 85.4406 241.263 84.6478 241.263 83.5166C241.263 82.3854 240.364 81.5829 239.126 81.5925C237.879 81.5829 236.98 82.3854 236.989 83.5166ZM244.618 86.9102V79.9682H245.691V86.9102H244.618ZM253.285 80.1713C255.992 80.1713 257.578 80.9157 257.578 82.2693C257.578 83.6423 255.992 84.3867 253.285 84.3964C250.578 84.3867 248.983 83.6423 248.983 82.2693C248.983 80.9157 250.578 80.1713 253.285 80.1713ZM247.755 86.0884V85.2182H258.835V86.0884H247.755ZM249.099 87.9641V87.1423H257.404V89.8591H250.182V91.1257H257.771V91.9765H249.128V89.0663H256.35V87.9641H249.099ZM250.104 82.2693C250.095 83.1105 251.274 83.5746 253.285 83.5746C255.306 83.5746 256.485 83.1105 256.485 82.2693C256.485 81.4669 255.306 80.9834 253.285 80.9834C251.274 80.9834 250.095 81.4669 250.104 82.2693ZM270.258 79.9586V92.1119H269.233V79.9586H270.258ZM259.864 88.7086C262.504 87.1423 263.828 84.9475 264.031 82.4047H260.386V81.5055H265.104C265.1 82.7044 264.911 83.8646 264.495 84.9475H266.68V80.2873H267.705V91.4931H266.68V85.8177H264.099C263.364 87.2293 262.189 88.4814 260.493 89.482L259.864 88.7086ZM283.082 89.6464V90.5456H271.954V89.6464H274.71V86.3688C273.675 85.8273 273.047 84.9523 273.047 83.855C273.047 81.9696 274.893 80.732 277.484 80.7224C280.085 80.732 281.932 81.9696 281.932 83.855C281.932 84.9378 281.323 85.7983 280.317 86.3398V89.6464H283.082ZM274.081 83.855C274.081 85.2086 275.493 86.1174 277.484 86.1174C279.466 86.1174 280.897 85.2086 280.897 83.855C280.897 82.4917 279.466 81.5925 277.484 81.6022C275.493 81.5925 274.081 82.4917 274.081 83.855ZM275.763 89.6464H279.234V86.7604C278.707 86.8957 278.118 86.9682 277.484 86.9682C276.861 86.9682 276.286 86.8957 275.763 86.7652V89.6464ZM288.089 88.0704C288.06 86.4558 289.008 85.8273 290.004 85.8273C290.661 85.8273 291.135 86.0981 291.841 86.7072C292.315 87.1133 292.537 87.268 292.885 87.268C293.426 87.268 293.784 86.8619 293.765 86.0884H294.838C294.867 87.703 293.91 88.3412 292.914 88.3412C292.257 88.3412 291.783 88.0704 291.077 87.4517C290.603 87.0456 290.381 86.8909 290.042 86.8909C289.52 86.8909 289.134 87.2293 289.153 88.0704H288.089Z" fill="#FEFEFE"/>
</g>
</g>
<defs>
<filter id="filter0_d_1128_5835" x="0" y="0" width="808" height="126" filterUnits="userSpaceOnUse" color-interpolation-filters="sRGB">
<feFlood flood-opacity="0" result="BackgroundImageFix"/>
<feColorMatrix in="SourceAlpha" type="matrix" values="0 0 0 0 0 0 0 0 0 0 0 0 0 0 0 0 0 0 127 0" result="hardAlpha"/>
<feOffset dy="4"/>
<feGaussianBlur stdDeviation="4"/>
<feComposite in2="hardAlpha" operator="out"/>
<feColorMatrix type="matrix" values="0 0 0 0 0 0 0 0 0 0 0 0 0 0 0 0 0 0 0.08 0"/>
<feBlend mode="normal" in2="BackgroundImageFix" result="effect1_dropShadow_1128_5835"/>
<feBlend mode="normal" in="SourceGraphic" in2="effect1_dropShadow_1128_5835" result="shape"/>
</filter>
<linearGradient id="paint0_linear_1128_5835" x1="800" y1="59" x2="8" y2="59" gradientUnits="userSpaceOnUse">
<stop stop-color="#90DEA3"/>
<stop offset="1" stop-color="#798BFF"/>
</linearGradient>
<clipPath id="clip0_1128_5835">
<path d="M8 16C8 9.37258 13.3726 4 20 4H788C794.627 4 800 9.37258 800 16V102C800 108.627 794.627 114 788 114H16C11.5817 114 8 110.418 8 106V16Z" fill="white"/>
</clipPath>
</defs>
</svg>
