<svg width="808" height="126" viewBox="0 0 808 126" fill="none" xmlns="http://www.w3.org/2000/svg">
<g filter="url(#filter0_d_1128_5845)">
<g clip-path="url(#clip0_1128_5845)">
<path d="M8 16C8 9.37258 13.3726 4 20 4H788C794.627 4 800 9.37258 800 16V102C800 108.627 794.627 114 788 114H16C11.5817 114 8 110.418 8 106V16Z" fill="url(#paint0_linear_1128_5845)" fill-opacity="0.9" shape-rendering="crispEdges"/>
<path d="M602.496 35.8594L779.955 -55.0279L789.082 -21.0127L607.975 70.3182L602.496 35.8594Z" fill="#90DEA3" fill-opacity="0.8"/>
<path d="M581.071 101.728L812.393 15.2285L817.873 49.6874L582.877 136.463L581.071 101.728Z" fill="#90DEA3" fill-opacity="0.8"/>
<path d="M581.071 101.728L844.715 88.0211L846.521 122.756L582.877 136.463L581.071 101.728Z" fill="#798BFF" fill-opacity="0.7"/>
<path d="M602.496 35.8594L812.393 15.2285L817.873 49.6874L607.975 70.3182L602.496 35.8594Z" fill="#798BFF" fill-opacity="0.7"/>
<path d="M624.063 -32.3812L779.955 -55.0279L789.082 -21.0127L633.189 1.63394L624.063 -32.3812Z" fill="#798BFF" fill-opacity="0.7"/>
<path d="M31.9194 27.4441C35.369 27.4441 37.9484 29.1906 37.9484 31.8198C37.9484 34.2376 35.9035 35.8598 33.0257 36.183V38.9178H39.2661V40.7452H24.6348V38.9178H30.8068V36.1768C27.9477 35.8536 25.9152 34.2314 25.9214 31.8198C25.9152 29.1906 28.4884 27.4441 31.9194 27.4441ZM28.1279 31.8198C28.1279 33.5104 29.688 34.4551 31.9194 34.4613C34.1756 34.4551 35.7295 33.5104 35.7357 31.8198C35.7295 30.2224 34.1756 29.2341 31.9194 29.2341C29.688 29.2341 28.1279 30.2224 28.1279 31.8198ZM53.1259 29.8619V31.6395H42.0064V26.8039H44.2253V29.8619H53.1259ZM40.1728 34.48V32.7086H54.8041V34.48H40.1728ZM41.8448 37.1713V35.4496H53.0513V39.701H44.1259V40.7079H53.5547V42.442H41.8634V38.0849H50.8324V37.1713H41.8448ZM72.514 26.6112V32.8826H74.8758V34.7286H72.514V42.6222H70.295V26.6112H72.514ZM59.8095 30.8004V29.0041H63.4332V26.866H65.6707V29.0041H69.2135V30.8004H59.8095ZM60.456 35.5117C60.4497 33.2804 62.1901 31.6954 64.5519 31.6954C66.8827 31.6954 68.6293 33.2804 68.6355 35.5117C68.6293 37.7493 66.8827 39.3218 64.5519 39.328C62.1901 39.3218 60.4497 37.7493 60.456 35.5117ZM62.6065 35.5117C62.6003 36.7548 63.4207 37.4945 64.5519 37.4883C65.6707 37.4945 66.4787 36.7548 66.4912 35.5117C66.4787 34.2873 65.6707 33.529 64.5519 33.5166C63.4207 33.529 62.6003 34.2873 62.6065 35.5117ZM88.3876 27.1209V31.8695H79.4311V33.2182H88.7605V35.0021H77.1687V30.1851H86.0817V28.9171H77.1189V27.1209H88.3876ZM75.4346 37.9917V36.2079H90.0658V37.9917H83.8441V42.6595H81.5941V37.9917H75.4346ZM103.627 26.6112V32.7459H105.89V34.5981H103.627V42.5849H101.383V26.6112H103.627ZM90.8358 38.1036C94.6148 36.2017 96.6473 33.6533 97.0699 30.0856H91.7371V28.2521H99.3572C99.3448 33.038 97.4739 37.1775 92.0975 39.8191L90.8358 38.1036ZM124.103 26.6112V36.2949H121.853V26.6112H124.103ZM110.889 29.8432V28.0532H114.624V26.5055H116.906V28.0532H120.61V29.8432H110.889ZM111.747 33.2058C111.74 31.4655 113.356 30.328 115.774 30.328C118.186 30.328 119.79 31.4655 119.79 33.2058C119.79 34.9648 118.186 36.0898 115.774 36.096C113.363 36.0898 111.74 34.9648 111.747 33.2058ZM113.381 42.442V36.9662H124.103V42.442H113.381ZM113.897 33.2058C113.885 34.0076 114.612 34.4365 115.774 34.4365C116.918 34.4365 117.639 34.0076 117.651 33.2058C117.639 32.3978 116.918 31.9814 115.774 31.9814C114.612 31.9814 113.885 32.3978 113.897 33.2058ZM115.594 40.6457H121.903V38.7314H115.594V40.6457ZM140.89 32.8702V34.6291H126.272V32.8702H140.89ZM127.956 37.2583V35.5615H139.082V39.7445H130.169V40.7452H139.498V42.4793H127.968V38.1471H136.869V37.2583H127.956ZM128.093 31.9814V26.9468H139.026V28.7244H130.33V30.2162H139.15V31.9814H128.093ZM147.851 36.8356C147.845 38.1471 148.379 39.4896 149.691 40.3971C151.002 39.4337 151.543 38.0228 151.555 36.8356V36.1892H153.762V36.8356C153.762 38.5076 154.638 40.0863 156.82 40.7576L155.682 42.4047C154.16 41.8764 153.165 40.8943 152.618 39.645C152.084 40.8819 151.145 41.9696 149.691 42.5477C148.224 42.0007 147.285 40.9565 146.763 39.7072C146.191 40.9006 145.209 41.8702 143.755 42.4047L142.667 40.7576C144.774 40.0552 145.663 38.4268 145.669 36.8356V36.1892H147.851V36.8356ZM142.021 31.2666C142.015 29.0539 143.848 27.4316 146.285 27.4378C148.311 27.4316 149.958 28.6126 150.399 30.3405H153.072V26.6112H155.31V35.5863H153.072V32.1492H150.412C149.989 33.9206 148.33 35.1202 146.285 35.114C143.848 35.1202 142.015 33.5104 142.021 31.2666ZM144.171 31.2666C144.165 32.4848 145.06 33.2555 146.285 33.2555C147.484 33.2555 148.373 32.4848 148.379 31.2666C148.373 30.0359 147.484 29.3025 146.285 29.3025C145.06 29.3025 144.165 30.0359 144.171 31.2666ZM170.002 26.6112V32.5594H172.364V34.393H170.002V42.6595H167.758V26.6112H170.002ZM158.019 38.7686V28.1029H165.521V29.9116H160.25V36.9227C162.569 36.904 164.489 36.7797 166.602 36.413L166.851 38.2901C164.371 38.7127 162.189 38.7749 159.361 38.7686H158.019ZM181.208 27.9164V29.1347H184.185V26.636H186.423V38.2714H184.185V34.3619H181.208V35.7106H173.607V27.9164H181.208ZM175.77 42.3425V37.1775H178.038V40.5338H186.765V42.3425H175.77ZM175.832 33.9641H179.008V29.6941H175.832V33.9641ZM181.208 32.5843H184.185V30.9434H181.208V32.5843ZM191.867 39.6948L190.35 44.6982H188.486L189.356 39.6948H191.867ZM210.026 28.0905V30.0048C210.02 32.2051 210.02 34.3805 209.454 37.6934L207.179 37.5131C207.782 34.424 207.782 32.143 207.788 30.0048V29.893H198.745V28.0905H210.026ZM197.234 40.5152V38.6878H211.828V40.5152H197.234ZM230.533 33.4917V35.2756H224.74V27.9599H230.408V29.7438H226.984V33.4917H230.533ZM216.94 40.7452V38.9489H223.08V35.9655H225.299V38.9489H231.571V40.7452H216.94ZM218.058 35.2756V27.9599H223.739V29.75H220.302V33.442C221.558 33.4109 222.645 33.3177 223.845 33.0815L223.994 34.9151C222.378 35.2569 220.992 35.2818 219.09 35.2756H218.058ZM245.188 26.636V31.5401H247.339V33.3798H245.188V38.5822H242.938V26.636H245.188ZM232.49 30.0794V28.3142H236.126V26.6112H238.364V28.3142H241.987V30.0794H232.49ZM233.273 33.7465C233.267 31.8881 234.908 30.645 237.245 30.645C239.557 30.645 241.179 31.8881 241.179 33.7465C241.179 35.5863 239.557 36.8046 237.245 36.7983C234.908 36.8046 233.267 35.5863 233.273 33.7465ZM234.808 42.3425V37.6561H237.046V40.5338H245.76V42.3425H234.808ZM235.455 33.7465C235.455 34.6229 236.17 35.0953 237.245 35.0953C238.314 35.0953 239.047 34.6229 239.053 33.7465C239.047 32.8515 238.314 32.3605 237.245 32.3543C236.17 32.3605 235.455 32.8515 235.455 33.7465ZM266.832 38.9116V40.7079H252.201V38.9116H258.323V35.2942H260.549V38.9116H266.832ZM252.543 33.933C256.173 33.3736 258.212 30.9372 258.224 28.6747V27.5373H260.617V28.6747C260.611 30.962 262.668 33.3736 266.335 33.933L265.378 35.8039C262.562 35.288 260.474 33.7838 259.424 31.7887C258.367 33.7776 256.291 35.3004 253.5 35.8039L252.543 33.933ZM282.352 33.8895V35.6858H276.149V36.8729C278.933 37.078 280.587 38.0787 280.599 39.7258C280.587 41.5843 278.486 42.6222 275.024 42.616C271.524 42.6222 269.424 41.5843 269.424 39.7258C269.424 38.0725 271.089 37.0718 273.93 36.8729V35.6858H267.758V33.8895H282.352ZM268.398 31.5214C271.357 31.2666 272.998 30.1789 273.408 29.0725H269.082V27.3011H281.034V29.0725H276.671C277.069 30.1913 278.697 31.2666 281.73 31.5214L280.947 33.2804C277.92 32.9945 275.888 31.857 275.03 30.297C274.185 31.8508 272.177 32.9945 269.15 33.2804L268.398 31.5214ZM271.711 39.7258C271.698 40.509 272.811 40.9316 275.024 40.9254C277.199 40.9316 278.343 40.509 278.349 39.7258C278.343 38.9302 277.199 38.5387 275.024 38.5262C272.811 38.5387 271.698 38.9302 271.711 39.7258ZM296.007 26.636V31.5401H298.157V33.3798H296.007V38.5822H293.757V26.636H296.007ZM283.308 30.0794V28.3142H286.944V26.6112H289.182V28.3142H292.806V30.0794H283.308ZM284.091 33.7465C284.085 31.8881 285.726 30.645 288.063 30.645C290.375 30.645 291.998 31.8881 291.998 33.7465C291.998 35.5863 290.375 36.8046 288.063 36.7983C285.726 36.8046 284.085 35.5863 284.091 33.7465ZM285.627 42.3425V37.6561H287.864V40.5338H296.578V42.3425H285.627ZM286.273 33.7465C286.273 34.6229 286.988 35.0953 288.063 35.0953C289.132 35.0953 289.866 34.6229 289.872 33.7465C289.866 32.8515 289.132 32.3605 288.063 32.3543C286.988 32.3605 286.273 32.8515 286.273 33.7465ZM312.007 28.2148V29.5014C312.001 31.0055 312.001 32.9758 311.572 35.636L309.366 35.462C309.732 33.1374 309.77 31.422 309.776 30.0048H303.716V28.2148H312.007ZM302.877 37.5628C303.778 37.5566 304.772 37.5504 305.817 37.5256V32.8018H308.023V37.4572C309.596 37.3888 311.193 37.2769 312.666 37.0905L312.797 38.75C309.515 39.3094 305.891 39.3653 303.088 39.3529L302.877 37.5628ZM313.418 42.6222V26.6112H315.681V33.0442H317.862V34.9213H315.681V42.6222H313.418ZM332.058 26.6112V36.1209H329.82V32.3419H327.321V30.5145H329.82V26.6112H332.058ZM318.471 34.3494C321.081 33.4793 322.281 31.3971 322.33 29.3895H319.123V27.587H327.8V29.3895H324.611C324.667 31.2479 325.811 33.125 328.291 33.9454L327.185 35.7106C325.419 35.1326 324.207 33.9765 323.505 32.5407C322.809 34.1692 321.529 35.4744 319.633 36.1271L318.471 34.3494ZM321.094 39.558C321.087 37.6188 323.182 36.4751 326.588 36.4751C330.006 36.4751 332.095 37.6188 332.101 39.558C332.095 41.4972 330.006 42.6347 326.588 42.6409C323.182 42.6347 321.087 41.4972 321.094 39.558ZM323.325 39.558C323.319 40.4717 324.469 40.9316 326.588 40.9254C328.714 40.9316 329.87 40.4717 329.876 39.558C329.87 38.6381 328.714 38.1782 326.588 38.1782C324.469 38.1782 323.319 38.6381 323.325 39.558ZM347.521 26.6112V35.2196H345.271V26.6112H347.521ZM334.375 31.0801C334.369 28.8363 336.252 27.2762 338.751 27.2825C341.243 27.2762 343.12 28.8363 343.12 31.0801C343.12 33.268 341.243 34.828 338.751 34.828C336.252 34.828 334.369 33.268 334.375 31.0801ZM336.569 31.0801C336.557 32.2735 337.471 32.982 338.751 32.9883C340 32.982 340.908 32.2735 340.908 31.0801C340.908 29.8805 340 29.1471 338.751 29.1533C337.471 29.1471 336.557 29.8805 336.569 31.0801ZM336.824 42.442V35.922H339.031V37.4075H345.283V35.922H347.521V42.442H336.824ZM339.031 40.6271H345.283V39.1478H339.031V40.6271ZM363.14 26.6112V42.6222H360.908V26.6112H363.14ZM350.547 38.6692V28.1464H352.766V36.7548C354.923 36.7175 357.248 36.5186 359.597 36.0587L359.877 37.9109C357.074 38.4952 354.426 38.6754 351.958 38.6692H350.547ZM377.864 26.6112V32.5594H380.225V34.393H377.864V42.6595H375.62V26.6112H377.864ZM365.88 38.7686V28.1029H373.382V29.9116H368.112V36.9227C370.43 36.904 372.35 36.7797 374.464 36.413L374.712 38.2901C372.232 38.7127 370.051 38.7749 367.223 38.7686H365.88ZM384.445 28.2707L384.209 37.1899H381.959L381.723 28.2707H384.445ZM381.611 39.6823C381.598 38.8743 382.276 38.2155 383.09 38.2155C383.873 38.2155 384.557 38.8743 384.563 39.6823C384.557 40.4965 383.873 41.1554 383.09 41.1554C382.276 41.1554 381.598 40.4965 381.611 39.6823Z" fill="white"/>
<path d="M34.1519 59.471V63.5801H30.5649V65.1271H35.5732V66.0069H24.4931V65.1271H29.5014V63.5801H25.924V59.471H34.1519ZM25.721 68.1436V67.2831H34.2003V71.1119H33.1174V68.1436H25.721ZM26.9779 62.7099H33.0884V60.3315H26.9779V62.7099ZM47.7212 68.7334V69.6229H36.5927V68.7334H39.6963V65.8329H37.5982V64.9434H39.5029V60.9793H37.5789V60.0898H46.6576V60.9793H44.7239V64.9434H46.6286V65.8329H44.5402V68.7334H47.7212ZM40.5665 64.9434H43.6701V60.9793H40.5665V64.9434ZM40.7695 68.7334H43.467V65.8329H40.7695V68.7334ZM58.1618 59.6644V60.5442H53.8206V63.7445C56.2087 63.7493 57.6397 63.6623 59.3027 63.3287L59.438 64.1892C57.6977 64.5566 56.2087 64.6243 53.7046 64.6146H52.7668V59.6644H58.1618ZM53.956 66.5677V65.6975H61.7101V68.6851H55.0389V70.0677H62.1549V70.9475H53.985V67.8439H60.6466V66.5677H53.956ZM60.6369 65.0884V58.9586H61.7101V61.5304H63.5375V62.4296H61.7101V65.0884H60.6369ZM68.4824 60.8729C68.4727 62.6036 69.7103 64.1312 71.499 64.7307L70.8995 65.5718C69.5556 65.0691 68.5017 64.0829 67.9748 62.8018C67.4575 64.2569 66.3456 65.3881 64.876 65.9392L64.2959 65.0691C66.1619 64.4116 67.4092 62.797 67.4189 60.9116V59.6547H68.4824V60.8729ZM66.278 68.8108C66.2683 67.3508 67.8153 66.5097 70.3484 66.5097C72.8719 66.5097 74.4189 67.3508 74.4189 68.8108C74.4189 70.261 72.8719 71.0829 70.3484 71.0829C67.8153 71.0829 66.2683 70.261 66.278 68.8108ZM67.3415 68.8108C67.3318 69.6906 68.4824 70.2224 70.3484 70.2224C72.2048 70.2224 73.3553 69.6906 73.3553 68.8108C73.3553 67.9019 72.2048 67.3605 70.3484 67.3605C68.4824 67.3605 67.3318 67.9019 67.3415 68.8108ZM70.5998 62.4489V61.5594H73.307V58.9586H74.3802V66.1616H73.307V62.4489H70.5998ZM86.6578 60.3025V60.9406C86.6482 61.8978 86.6482 63.5028 86.3001 65.7555L85.2269 65.6685C85.5556 63.6333 85.5846 62.1492 85.5846 61.1823H80.4796V60.3025H86.6578ZM79.7932 67.5345C80.5908 67.5297 81.4803 67.5249 82.4134 67.5007V63.7735H83.4769V67.4717C84.8208 67.4185 86.1986 67.3315 87.4603 67.1768L87.5183 67.989C84.9658 68.3854 82.104 68.4434 79.9285 68.4337L79.7932 67.5345ZM88.2241 71.1119V58.9586H89.2973V64.0442H91.2697V64.9724H89.2973V71.1119H88.2241ZM102.093 58.9586V66.2003H101.02V63.0193H98.5641V62.1298H101.02V58.9586H102.093ZM92.0668 65.2334C93.8748 64.576 95.1608 62.9323 95.1608 61.192V60.7376H92.4149V59.8481H98.9605V60.7376H96.2436V61.1823C96.2436 62.768 97.4619 64.2762 99.2409 64.8854L98.6801 65.7459C97.312 65.2528 96.2533 64.2327 95.7264 62.9807C95.2043 64.4019 94.0779 65.538 92.6276 66.0843L92.0668 65.2334ZM93.9909 68.8398C93.9812 67.4088 95.5282 66.5773 98.0613 66.5773C100.585 66.5773 102.132 67.4088 102.132 68.8398C102.132 70.2707 100.585 71.0925 98.0613 71.1022C95.5282 71.0925 93.9812 70.2707 93.9909 68.8398ZM95.0544 68.8398C95.0447 69.7196 96.1953 70.2514 98.0613 70.2417C99.9177 70.2514 101.068 69.7196 101.068 68.8398C101.068 67.9503 99.9177 67.4185 98.0613 67.4185C96.1953 67.4185 95.0447 67.9503 95.0544 68.8398ZM114.135 58.9586V71.1312H113.061V58.9586H114.135ZM104.573 64.1312C104.573 61.5497 105.858 59.9061 107.676 59.8964C109.474 59.9061 110.78 61.5497 110.78 64.1312C110.78 66.7224 109.474 68.366 107.676 68.366C105.858 68.366 104.573 66.7224 104.573 64.1312ZM105.607 64.1312C105.607 66.1133 106.458 67.4088 107.676 67.4088C108.894 67.4088 109.735 66.1133 109.735 64.1312C109.735 62.1588 108.894 60.8633 107.676 60.8536C106.458 60.8633 105.607 62.1588 105.607 64.1312ZM129.767 58.9586V66.326H128.694V58.9586H129.767ZM119.905 61.1436V60.2638H123.096V58.8619H124.179V60.2638H127.36V61.1436H119.905ZM120.66 63.9088C120.65 62.5843 121.839 61.7431 123.637 61.7431C125.436 61.7431 126.615 62.5843 126.615 63.9088C126.615 65.2334 125.436 66.0746 123.637 66.0746C121.839 66.0746 120.65 65.2334 120.66 63.9088ZM121.684 63.9088C121.675 64.7307 122.448 65.2431 123.637 65.2528C124.817 65.2431 125.59 64.7307 125.6 63.9088C125.59 63.0967 124.817 62.5649 123.637 62.5649C122.448 62.5649 121.675 63.0967 121.684 63.9088ZM121.858 70.9475V66.9738H129.767V70.9475H121.858ZM122.922 70.0677H128.713V67.8343H122.922V70.0677ZM142.921 64.0635V64.9337H131.831V64.0635H142.921ZM133.175 66.8577V66.0166H141.48V68.8398H134.258V70.0967H141.848V70.9669H133.204V68.0276H140.426V66.8577H133.175ZM133.31 63.0677V59.3743H141.47V60.2445H134.383V62.1878H141.596V63.0677H133.31ZM155.498 59.2293V63.9282H156.968V58.9586H157.993V71.1119H156.968V64.8177H155.498V70.5028H154.493V59.2293H155.498ZM147.812 67.9406V60.4959H150.451V61.3854H148.808V67.0221C149.267 67.0028 149.866 66.9496 150.529 66.7804L150.625 67.6989C149.6 67.9309 148.808 67.9406 148.295 67.9406H147.812ZM150.983 67.9406V60.4959H153.68V61.3854H151.959V67.0269C152.53 67.0124 153.202 66.9593 153.932 66.7417L154.038 67.6602C153.023 67.9309 152.182 67.9406 151.476 67.9406H150.983ZM169.357 64.6533V65.5235H165.606V68.6754H170.672V69.5746H159.544V68.6754H164.542V65.5235H160.965V59.9448H169.241V60.8246H162.038V64.6533H169.357ZM179.266 67.1091C179.266 68.1872 179.851 69.3329 181.002 69.9903C182.162 69.2749 182.776 68.0518 182.776 67.1091V66.442H183.83V67.1091C183.82 68.366 184.739 69.6133 186.305 70.145L185.764 70.9378C184.55 70.5124 183.699 69.6616 183.279 68.6416C182.902 69.6326 182.162 70.5656 181.036 71.0442C179.851 70.5898 179.102 69.7003 178.739 68.6802C178.299 69.6616 177.463 70.5028 176.298 70.9378L175.757 70.145C177.294 69.5746 178.222 68.279 178.232 67.1091V66.442H179.266V67.1091ZM175.438 62.5166C175.438 60.8246 176.781 59.674 178.628 59.674C180.475 59.674 181.809 60.8246 181.809 62.5166C181.809 64.1892 180.475 65.3398 178.628 65.3398C176.781 65.3398 175.438 64.1892 175.438 62.5166ZM176.491 62.5166C176.482 63.6478 177.381 64.4406 178.628 64.4503C179.866 64.4406 180.765 63.6478 180.765 62.5166C180.765 61.3854 179.866 60.5829 178.628 60.5925C177.381 60.5829 176.482 61.3854 176.491 62.5166ZM184.12 65.9102V58.9682H185.193V65.9102H184.12ZM191.608 62.6906C191.608 64.75 193.106 66.8481 194.895 67.6215L194.295 68.4724C192.874 67.8246 191.651 66.4275 191.081 64.75C190.51 66.529 189.282 68.076 187.895 68.7721L187.257 67.9213C188.997 67.0898 190.515 64.7887 190.525 62.6906V61.105H187.653V60.2058H194.498V61.105H191.608V62.6906ZM196.2 71.1119V58.9586H197.273V71.1119H196.2ZM205.496 60.0608V65.6588H199.878V60.0608H205.496ZM200.923 64.7887H204.452V60.9406H200.923V64.7887ZM201.251 70.8412V67.0221H202.315V69.9517H209.421V70.8412H201.251ZM207.787 67.8633V58.9489H208.861V62.6519H210.688V63.5608H208.861V67.8633H207.787ZM213.448 69.0718L212.394 72.7942H211.379L212.133 69.0718H213.448ZM228.079 58.9586V62.1298H229.897V63.029H228.079V66.2099H226.996V58.9586H228.079ZM219.126 65.2141V59.8867H224.521V60.7762H220.18V64.3343C222.641 64.3246 224.052 64.2521 225.681 63.9185L225.797 64.808C224.096 65.1464 222.636 65.2141 220.064 65.2141H219.126ZM220.141 68.7624C220.141 67.3025 221.688 66.4517 224.173 66.442C226.648 66.4517 228.176 67.3025 228.176 68.7624C228.176 70.232 226.648 71.0829 224.173 71.0829C221.688 71.0829 220.141 70.232 220.141 68.7624ZM221.195 68.7624C221.195 69.6616 222.336 70.2127 224.173 70.2127C225.991 70.2127 227.141 69.6616 227.141 68.7624C227.141 67.8633 225.991 67.3218 224.173 67.3315C222.336 67.3218 221.195 67.8633 221.195 68.7624ZM240.701 58.9682V67.8826H239.628V58.9682H240.701ZM230.791 65.2818C232.628 64.5663 233.875 62.7873 233.875 60.8633V59.645H234.967V60.8633C234.958 62.7196 236.224 64.3826 238.032 65.0401L237.472 65.9006C236.065 65.3543 234.967 64.2617 234.431 62.8598C233.904 64.3536 232.802 65.5477 231.38 66.1229L230.791 65.2818ZM232.85 70.8412V67.0608H233.923V69.9517H241.078V70.8412H232.85ZM253.845 65.3688V66.239H242.765V65.3688H253.845ZM243.992 61.7914C243.992 60.2735 245.665 59.3743 248.295 59.384C250.915 59.3743 252.588 60.2735 252.588 61.7914C252.588 63.3094 250.915 64.2182 248.295 64.2182C245.665 64.2182 243.992 63.3094 243.992 61.7914ZM244.196 70.8412V67.3122H245.278V69.9517H252.607V70.8412H244.196ZM245.104 61.7914C245.095 62.7583 246.342 63.3384 248.295 63.3384C250.248 63.3384 251.495 62.7583 251.495 61.7914C251.495 60.8439 250.248 60.2541 248.295 60.2541C246.342 60.2541 245.095 60.8439 245.104 61.7914ZM262.487 60.8826C262.477 62.3329 263.734 63.6478 265.533 64.1796L265.02 65.011C263.613 64.5953 262.511 63.6961 261.975 62.5456C261.448 63.8557 260.297 64.8612 258.813 65.3301L258.281 64.489C260.118 63.9185 261.404 62.4972 261.414 60.9019V60.5249H258.649V59.6547H265.204V60.5249H262.487V60.8826ZM260.128 66.645V65.7942H267.882V68.7044H261.211V70.145H268.327V70.9959H260.157V67.9116H266.818V66.645H260.128ZM266.809 65.2334V58.9586H267.882V61.6174H269.709V62.5069H267.882V65.2334H266.809ZM283.399 58.9586V63.9669H285.429V64.866H283.399V71.1119H282.335V58.9586H283.399ZM273.923 61.8011V60.9116H277.046V59.1036H278.12V60.9116H281.156V61.8011H273.923ZM274.62 65.6008C274.61 63.9572 275.867 62.8066 277.597 62.8066C279.318 62.8066 280.566 63.9572 280.575 65.6008C280.566 67.2445 279.318 68.3854 277.597 68.3854C275.867 68.3854 274.61 67.2445 274.62 65.6008ZM275.644 65.6008C275.635 66.703 276.466 67.4862 277.597 67.4765C278.719 67.4862 279.541 66.703 279.551 65.6008C279.541 64.4986 278.719 63.7058 277.597 63.7058C276.466 63.7058 275.635 64.4986 275.644 65.6008ZM295.837 60.1865V61.395C295.827 62.8936 295.827 64.5566 295.382 67.0028L294.299 66.8771C294.754 64.5566 294.754 62.855 294.763 61.395V61.076H287.27V60.1865H295.837ZM286.091 69.3909V68.4917H290.432V64.1506H291.495V68.4917H297.171V69.3909H286.091ZM305.813 67.1091C305.813 68.1872 306.398 69.3329 307.549 69.9903C308.709 69.2749 309.323 68.0518 309.323 67.1091V66.442H310.377V67.1091C310.367 68.366 311.286 69.6133 312.852 70.145L312.31 70.9378C311.097 70.5124 310.246 69.6616 309.826 68.6416C309.449 69.6326 308.709 70.5656 307.582 71.0442C306.398 70.5898 305.649 69.7003 305.286 68.6802C304.846 69.6616 304.01 70.5028 302.845 70.9378L302.303 70.145C303.841 69.5746 304.769 68.279 304.779 67.1091V66.442H305.813V67.1091ZM301.984 62.5166C301.984 60.8246 303.328 59.674 305.175 59.674C307.022 59.674 308.356 60.8246 308.356 62.5166C308.356 64.1892 307.022 65.3398 305.175 65.3398C303.328 65.3398 301.984 64.1892 301.984 62.5166ZM303.038 62.5166C303.029 63.6478 303.928 64.4406 305.175 64.4503C306.413 64.4406 307.312 63.6478 307.312 62.5166C307.312 61.3854 306.413 60.5829 305.175 60.5925C303.928 60.5829 303.029 61.3854 303.038 62.5166ZM310.667 65.9102V58.9682H311.74V65.9102H310.667ZM317.072 59.8964C318.725 59.9061 319.919 61.3273 320.088 63.5994H322.815V58.9586H323.878V71.1312H322.815V64.489H320.098C319.982 66.8722 318.768 68.366 317.072 68.366C315.273 68.366 314.016 66.7224 314.026 64.1312C314.016 61.5497 315.273 59.9061 317.072 59.8964ZM315.051 64.1312C315.051 66.1133 315.873 67.4088 317.072 67.4088C318.261 67.4088 319.092 66.1133 319.092 64.1312C319.092 62.1588 318.261 60.8633 317.072 60.8536C315.873 60.8633 315.051 62.1588 315.051 64.1312ZM337.032 68.6464V69.5456H325.903V68.6464H328.659V65.3688C327.624 64.8273 326.996 63.9523 326.996 62.855C326.996 60.9696 328.842 59.732 331.434 59.7224C334.034 59.732 335.881 60.9696 335.881 62.855C335.881 63.9378 335.272 64.7983 334.267 65.3398V68.6464H337.032ZM328.03 62.855C328.03 64.2086 329.442 65.1174 331.434 65.1174C333.416 65.1174 334.847 64.2086 334.847 62.855C334.847 61.4917 333.416 60.5925 331.434 60.6022C329.442 60.5925 328.03 61.4917 328.03 62.855ZM329.713 68.6464H333.184V65.7604C332.657 65.8957 332.067 65.9682 331.434 65.9682C330.81 65.9682 330.235 65.8957 329.713 65.7652V68.6464ZM339.975 60.0994L339.879 67.2058H338.728L338.631 60.0994H339.975ZM338.428 69.1975C338.419 68.7141 338.825 68.3177 339.308 68.3177C339.792 68.3177 340.188 68.7141 340.188 69.1975C340.188 69.6809 339.792 70.0773 339.308 70.0773C338.825 70.0773 338.419 69.6809 338.428 69.1975ZM30.0235 80.7514C32.6146 80.761 34.471 82.018 34.471 83.9323C34.471 85.7403 32.866 86.9392 30.5552 87.0939V89.6464H35.6215V90.5456H24.4931V89.6464H29.4917V87.0939C27.2003 86.9344 25.5856 85.7403 25.5856 83.9323C25.5856 82.018 27.4517 80.761 30.0235 80.7514ZM26.6202 83.9323C26.6202 85.3343 28.0608 86.2431 30.0235 86.2528C31.9959 86.2431 33.4365 85.3343 33.4365 83.9323C33.4365 82.5594 31.9959 81.6312 30.0235 81.6409C28.0608 81.6312 26.6202 82.5594 26.6202 83.9323ZM46.3966 82.8785V83.768H38.101V80.1519H39.1452V82.8785H46.3966ZM36.5734 85.8467V84.9669H47.7018V85.8467H36.5734ZM37.9753 87.7901V86.9392H46.2709V89.7818H39.0775V91.087H46.706V91.9475H38.0043V88.9696H45.217V87.7901H37.9753ZM52.6661 80.8481C54.5804 80.8481 55.934 82.0083 55.9437 83.7003C55.934 85.3923 54.5804 86.5525 52.6661 86.5525C50.7517 86.5525 49.3788 85.3923 49.3884 83.7003C49.3788 82.0083 50.7517 80.8481 52.6661 80.8481ZM48.76 88.5345C51.0031 88.5442 54.097 88.5249 56.7849 88.1285L56.8719 88.9213C54.0873 89.4434 51.0998 89.453 48.905 89.453L48.76 88.5345ZM50.4423 83.7003C50.4326 84.8315 51.3705 85.6146 52.6661 85.6146C53.952 85.6146 54.8898 84.8315 54.8898 83.7003C54.8898 82.5691 53.952 81.7859 52.6661 81.7859C51.3705 81.7859 50.4326 82.5691 50.4423 83.7003ZM57.5873 92.1312V79.9586H58.6605V92.1312H57.5873ZM68.4244 82.2113C68.4244 83.826 69.6136 85.3052 71.4119 85.924L70.8608 86.7555C69.4782 86.2673 68.4244 85.2762 67.9023 84.0242C67.3802 85.4019 66.2683 86.4751 64.8374 86.9972L64.2573 86.1657C66.0846 85.518 67.3512 83.9517 67.3608 82.2113V81.6892H64.586V80.8094H71.1509V81.6892H68.4244V82.2113ZM65.8526 88.8052V87.9254H73.8097V92.1119H72.7365V88.8052H65.8526ZM72.7365 87.2776V79.9586H73.8097V83.1685H75.6371V84.087H73.8097V87.2776H72.7365ZM87.4853 86.3688V87.239H76.4052V86.3688H87.4853ZM77.6331 82.7914C77.6331 81.2735 79.3058 80.3743 81.9356 80.384C84.5558 80.3743 86.2284 81.2735 86.2284 82.7914C86.2284 84.3094 84.5558 85.2182 81.9356 85.2182C79.3058 85.2182 77.6331 84.3094 77.6331 82.7914ZM77.8361 91.8412V88.3122H78.919V90.9517H86.2477V91.8412H77.8361ZM78.745 82.7914C78.7353 83.7583 79.9826 84.3384 81.9356 84.3384C83.8886 84.3384 85.1359 83.7583 85.1359 82.7914C85.1359 81.8439 83.8886 81.2541 81.9356 81.2541C79.9826 81.2541 78.7353 81.8439 78.745 82.7914ZM93.5945 80.471V82.221H97.1331V80.471H98.1967V85.7597H92.5406V80.471H93.5945ZM93.5945 84.8895H97.1331V83.0622H93.5945V84.8895ZM93.7685 87.674V86.8135H101.523V89.7528H94.8514V91.0967H101.967V91.9765H93.7975V88.9406H100.459V87.674H93.7685ZM100.449 86.2431V79.9586H101.523V82.5981H103.35V83.4876H101.523V86.2431H100.449ZM114.193 79.9586V86.1948H113.119V83.7776H110.422V82.8978H113.119V79.9586H114.193ZM104.311 85.576C107.217 84.8702 108.962 83.4006 109.18 81.4475H104.94V80.558H110.325C110.325 83.5746 108.189 85.576 104.689 86.4558L104.311 85.576ZM106.313 87.5967V86.7265H114.193V89.6851H107.405V91.116H114.608V91.9959H106.342V88.8633H113.119V87.5967H106.313ZM121.748 80.2293C124.397 80.2293 126.041 81.0801 126.041 82.5401C126.041 83.971 124.397 84.8122 121.748 84.8122C119.109 84.8122 117.446 83.971 117.446 82.5401C117.446 81.0801 119.109 80.2293 121.748 80.2293ZM116.218 86.7459V85.866H127.298V86.7459H116.218ZM117.571 91.9475V87.9544H125.935V91.9475H117.571ZM118.557 82.5401C118.548 83.4199 119.785 83.9517 121.748 83.9613C123.701 83.9517 124.948 83.4199 124.948 82.5401C124.948 81.6312 123.701 81.0898 121.748 81.0898C119.785 81.0898 118.548 81.6312 118.557 82.5401ZM118.635 91.0677H124.89V88.8149H118.635V91.0677ZM138.334 79.9586V92.1312H137.261V79.9586H138.334ZM128.772 85.1312C128.772 82.5497 130.058 80.9061 131.875 80.8964C133.674 80.9061 134.979 82.5497 134.979 85.1312C134.979 87.7224 133.674 89.366 131.875 89.366C130.058 89.366 128.772 87.7224 128.772 85.1312ZM129.806 85.1312C129.806 87.1133 130.657 88.4088 131.875 88.4088C133.094 88.4088 133.935 87.1133 133.935 85.1312C133.935 83.1588 133.094 81.8633 131.875 81.8536C130.657 81.8633 129.806 83.1588 129.806 85.1312ZM154.305 79.9586V92.1119H153.261V85.8177H151.501V91.4738H150.486V80.2293H151.501V84.9088H153.261V79.9586H154.305ZM144.54 88.9599V81.4378H145.613V88.0028C146.812 87.9979 148.112 87.9109 149.596 87.616L149.722 88.5635C148.03 88.8729 146.638 88.9599 145.304 88.9599H144.54ZM159.472 80.4033C161.29 80.413 162.614 81.5152 162.624 83.1008C162.614 84.6865 161.29 85.779 159.472 85.779C157.635 85.779 156.311 84.6865 156.311 83.1008C156.311 81.5152 157.635 80.413 159.472 80.4033ZM157.364 83.1008C157.355 84.1644 158.254 84.8992 159.472 84.8992C160.681 84.8992 161.58 84.1644 161.58 83.1008C161.58 82.047 160.681 81.3025 159.472 81.3122C158.254 81.3025 157.355 82.047 157.364 83.1008ZM158.157 87.6547V86.7845H166.066V89.7141H159.24V91.0773H166.501V91.9475H158.196V88.9019H165.003V87.6547H158.157ZM164.993 86.1948V79.9586H166.066V86.1948H164.993ZM172.104 80.8481C174.018 80.8481 175.372 82.0083 175.381 83.7003C175.372 85.3923 174.018 86.5525 172.104 86.5525C170.189 86.5525 168.816 85.3923 168.826 83.7003C168.816 82.0083 170.189 80.8481 172.104 80.8481ZM168.197 88.5345C170.441 88.5442 173.535 88.5249 176.222 88.1285L176.309 88.9213C173.525 89.4434 170.537 89.453 168.343 89.453L168.197 88.5345ZM169.88 83.7003C169.87 84.8315 170.808 85.6146 172.104 85.6146C173.389 85.6146 174.327 84.8315 174.327 83.7003C174.327 82.5691 173.389 81.7859 172.104 81.7859C170.808 81.7859 169.87 82.5691 169.88 83.7003ZM177.025 92.1312V79.9586H178.098V92.1312H177.025ZM193.412 80.6064V81.6409C193.412 82.8011 193.412 84.1112 193.068 85.9434H194.852V86.8329H183.743V85.9434H191.981C192.14 85.1602 192.232 84.4641 192.28 83.8356L185 84.174L184.865 83.2652L192.329 83.0331C192.348 82.5304 192.348 82.0711 192.348 81.6409V81.4959H185.155V80.6064H193.412ZM185.155 91.8412V88.0511H186.228V90.9517H193.673V91.8412H185.155ZM203.533 81.8729C203.524 83.6036 204.761 85.1312 206.55 85.7307L205.95 86.5718C204.606 86.0691 203.553 85.0829 203.026 83.8018C202.508 85.2569 201.396 86.3881 199.927 86.9392L199.347 86.0691C201.213 85.4116 202.46 83.797 202.47 81.9116V80.6547H203.533V81.8729ZM201.329 89.8108C201.319 88.3508 202.866 87.5097 205.399 87.5097C207.923 87.5097 209.47 88.3508 209.47 89.8108C209.47 91.261 207.923 92.0829 205.399 92.0829C202.866 92.0829 201.319 91.261 201.329 89.8108ZM202.392 89.8108C202.383 90.6906 203.533 91.2224 205.399 91.2224C207.256 91.2224 208.406 90.6906 208.406 89.8108C208.406 88.9019 207.256 88.3605 205.399 88.3605C203.533 88.3605 202.383 88.9019 202.392 89.8108ZM205.651 83.4489V82.5594H208.358V79.9586H209.431V87.1616H208.358V83.4489H205.651ZM218.195 81.3025V81.9406C218.185 82.8978 218.185 84.5028 217.837 86.7555L216.764 86.6685C217.093 84.6333 217.122 83.1492 217.122 82.1823H212.017V81.3025H218.195ZM211.33 88.5345C212.128 88.5297 213.017 88.5249 213.95 88.5007V84.7735H215.014V88.4717C216.358 88.4185 217.736 88.3315 218.997 88.1768L219.055 88.989C216.503 89.3854 213.641 89.4434 211.466 89.4337L211.33 88.5345ZM219.761 92.1119V79.9586H220.834V85.0442H222.807V85.9724H220.834V92.1119H219.761ZM234.684 89.6948V90.6036H223.556V89.6948H228.554V87.4033H224.948V83.6519H232.219V81.7472H224.919V80.8577H233.282V84.5318H226.011V86.5138H233.562V87.4033H229.618V89.6948H234.684ZM249.243 79.9682V88.9503H248.17V85.663H245.023C244.458 86.3785 243.558 86.8135 242.514 86.8135C240.696 86.8135 239.353 85.5566 239.362 83.7776C239.353 81.9986 240.696 80.7417 242.514 80.732C243.549 80.7369 244.438 81.1671 245.009 81.8729H248.17V79.9682H249.243ZM240.387 83.7776C240.387 84.9959 241.277 85.866 242.514 85.866C243.713 85.866 244.622 84.9959 244.622 83.7776C244.622 82.5691 243.713 81.6989 242.514 81.6892C241.277 81.6989 240.387 82.5691 240.387 83.7776ZM241.441 91.8412V88.0124H242.514V90.9517H249.582V91.8412H241.441ZM245.492 82.7624C245.598 83.0767 245.656 83.4151 245.656 83.7776C245.656 84.1305 245.598 84.4641 245.497 84.7735H248.17V82.7624H245.492ZM261.343 79.9586V86.1754H260.27V84.8992H257.021V84.0483H260.27V82.5884H257.2C256.441 84.5028 254.556 85.8032 251.858 86.4461L251.472 85.5566C254.454 84.8653 256.19 83.4151 256.383 81.4572H252.09V80.5677H257.572C257.572 80.9738 257.534 81.3605 257.456 81.7279H260.27V79.9586H261.343ZM253.463 87.5967V86.7265H261.343V89.6851H254.556V91.116H261.759V91.9959H253.492V88.8633H260.27V87.5967H253.463ZM270.436 83.1685V84.0097H267.99V85.2521C269.14 85.1941 270.291 85.1119 271.364 84.9862L271.422 85.7403C268.821 86.1367 265.892 86.2141 263.581 86.2141L263.436 85.3536C264.504 85.3488 265.693 85.3343 266.907 85.2956V84.0097H264.557V80.4903H270.3V81.3218H265.66V83.1685H270.436ZM265.34 87.9254V87.0649H273.404V89.8785H266.423V91.0967H273.839V91.9765H265.36V89.0566H272.35V87.9254H265.34ZM272.34 86.5138V79.9682H273.404V86.5138H272.34ZM289.046 79.9586V92.1119H287.983V85.7403H285.082V84.8412H287.983V79.9586H289.046ZM278.991 88.9406C282.288 87.3405 283.811 84.9959 284.028 82.1533H279.523V81.2831H285.111C285.102 84.7251 283.642 87.7804 279.581 89.7914L278.991 88.9406ZM301.098 79.9586V92.1119H300.034V79.9586H301.098ZM291.874 88.9793V81.1575H292.928V88.0414C294.784 88.0366 296.694 87.8916 298.738 87.4613L298.883 88.3798C296.727 88.8246 294.803 88.9793 292.86 88.9793H291.874ZM312.801 79.9586V84.9765H314.647V85.8757H312.801V92.1119H311.728V79.9586H312.801ZM303.132 88.7472C304.974 86.8715 305.714 84.6043 305.844 82.1823H303.519V81.2831H306.864C306.855 84.174 306.207 87.0262 304.002 89.3564L303.132 88.7472ZM306.623 89.5691C308.527 87.4178 309.098 84.7155 309.199 82.1823H307.251V81.2831H310.21C310.2 84.1644 309.775 87.5193 307.502 90.1685L306.623 89.5691ZM317.272 90.0718L316.218 93.7942H315.203L315.957 90.0718H317.272ZM331.894 79.9586V83.1878H333.721V84.116H331.894V87.2776H330.821V79.9586H331.894ZM322.419 82.134V81.2541H325.513V79.8619H326.576V81.2541H329.66V82.134H322.419ZM323.115 84.9088C323.105 83.6036 324.275 82.7431 326.044 82.7431C327.785 82.7431 328.954 83.6036 328.964 84.9088C328.954 86.2238 327.785 87.0746 326.044 87.0746C324.275 87.0746 323.105 86.2238 323.115 84.9088ZM324.14 84.9088C324.13 85.7307 324.894 86.2431 326.044 86.2528C327.175 86.2431 327.939 85.7307 327.949 84.9088C327.939 84.1064 327.175 83.5746 326.044 83.5746C324.894 83.5746 324.13 84.1064 324.14 84.9088ZM324.217 91.9475V87.9738H331.894V91.9475H324.217ZM325.271 91.0677H330.83V88.8343H325.271V91.0677ZM337.506 81.4282C337.496 83.9807 337.138 86.8522 335.369 89.2113L334.518 88.7182C336.036 86.8135 336.486 84.5608 336.573 82.3177H334.76V81.4282H337.506ZM337.245 89.511C338.922 87.3646 339.217 84.5946 339.265 82.3177H337.893V81.4282H340.203C340.198 82.4192 340.174 83.5552 340.024 84.7348H341.644V80.2873H342.669V91.4931H341.644V85.6243H339.884C339.604 87.1423 339.077 88.6796 338.086 90.0138L337.245 89.511ZM343.906 92.1119V79.9586H344.941V92.1119H343.906ZM360.138 79.9586V87.326H359.065V79.9586H360.138ZM350.277 82.1436V81.2638H353.467V79.8619H354.55V81.2638H357.731V82.1436H350.277ZM351.031 84.9088C351.021 83.5843 352.21 82.7431 354.009 82.7431C355.807 82.7431 356.986 83.5843 356.986 84.9088C356.986 86.2334 355.807 87.0746 354.009 87.0746C352.21 87.0746 351.021 86.2334 351.031 84.9088ZM352.056 84.9088C352.046 85.7307 352.819 86.2431 354.009 86.2528C355.188 86.2431 355.962 85.7307 355.971 84.9088C355.962 84.0967 355.188 83.5649 354.009 83.5649C352.819 83.5649 352.046 84.0967 352.056 84.9088ZM352.23 91.9475V87.9738H360.138V91.9475H352.23ZM353.293 91.0677H359.085V88.8343H353.293V91.0677ZM372.576 79.9586V92.1119H371.532V85.8177H369.773V91.4738H368.757V80.2293H369.773V84.9088H371.532V79.9586H372.576ZM362.811 88.9599V81.4378H363.884V88.0028C365.083 87.9979 366.384 87.9109 367.868 87.616L367.994 88.5635C366.302 88.8729 364.909 88.9599 363.575 88.9599H362.811ZM376.042 80.9641V82.8204H379.987V80.9641H381.05V86.4365H378.546V88.6167C379.668 88.5684 380.799 88.4862 381.843 88.3508L381.92 89.1533C379.339 89.5691 376.467 89.6077 374.331 89.6174L374.147 88.6989C375.138 88.6941 376.284 88.6892 377.473 88.6554V86.4365H374.969V80.9641H376.042ZM376.042 85.5566H379.987V83.6519H376.042V85.5566ZM382.626 92.1119V79.9586H383.69V85.0635H385.672V85.9724H383.69V92.1119H382.626ZM397.53 89.6464V90.5456H386.401V89.6464H389.157V86.3688C388.122 85.8273 387.494 84.9523 387.494 83.855C387.494 81.9696 389.341 80.732 391.932 80.7224C394.533 80.732 396.379 81.9696 396.379 83.855C396.379 84.9378 395.77 85.7983 394.765 86.3398V89.6464H397.53ZM388.528 83.855C388.528 85.2086 389.94 86.1174 391.932 86.1174C393.914 86.1174 395.345 85.2086 395.345 83.855C395.345 82.4917 393.914 81.5925 391.932 81.6022C389.94 81.5925 388.528 82.4917 388.528 83.855ZM390.211 89.6464H393.682V86.7604C393.155 86.8957 392.565 86.9682 391.932 86.9682C391.308 86.9682 390.733 86.8957 390.211 86.7652V89.6464ZM400.473 81.0994L400.377 88.2058H399.226L399.129 81.0994H400.473ZM398.926 90.1975C398.917 89.7141 399.323 89.3177 399.806 89.3177C400.29 89.3177 400.686 89.7141 400.686 90.1975C400.686 90.6809 400.29 91.0773 399.806 91.0773C399.323 91.0773 398.917 90.6809 398.926 90.1975Z" fill="#FEFEFE"/>
</g>
</g>
<defs>
<filter id="filter0_d_1128_5845" x="0" y="0" width="808" height="126" filterUnits="userSpaceOnUse" color-interpolation-filters="sRGB">
<feFlood flood-opacity="0" result="BackgroundImageFix"/>
<feColorMatrix in="SourceAlpha" type="matrix" values="0 0 0 0 0 0 0 0 0 0 0 0 0 0 0 0 0 0 127 0" result="hardAlpha"/>
<feOffset dy="4"/>
<feGaussianBlur stdDeviation="4"/>
<feComposite in2="hardAlpha" operator="out"/>
<feColorMatrix type="matrix" values="0 0 0 0 0 0 0 0 0 0 0 0 0 0 0 0 0 0 0.08 0"/>
<feBlend mode="normal" in2="BackgroundImageFix" result="effect1_dropShadow_1128_5845"/>
<feBlend mode="normal" in="SourceGraphic" in2="effect1_dropShadow_1128_5845" result="shape"/>
</filter>
<linearGradient id="paint0_linear_1128_5845" x1="800" y1="59" x2="8" y2="59" gradientUnits="userSpaceOnUse">
<stop stop-color="#90DEA3"/>
<stop offset="1" stop-color="#798BFF"/>
</linearGradient>
<clipPath id="clip0_1128_5845">
<path d="M8 16C8 9.37258 13.3726 4 20 4H788C794.627 4 800 9.37258 800 16V102C800 108.627 794.627 114 788 114H16C11.5817 114 8 110.418 8 106V16Z" fill="white"/>
</clipPath>
</defs>
</svg>
