<svg width="808" height="126" viewBox="0 0 808 126" fill="none" xmlns="http://www.w3.org/2000/svg">
<g filter="url(#filter0_d_1128_5825)">
<g clip-path="url(#clip0_1128_5825)">
<path d="M8 16C8 9.37258 13.3726 4 20 4H788C794.627 4 800 9.37258 800 16V102C800 108.627 794.627 114 788 114H16C11.5817 114 8 110.418 8 106V16Z" fill="url(#paint0_linear_1128_5825)" fill-opacity="0.9" shape-rendering="crispEdges"/>
<path d="M602.496 35.8594L779.955 -55.0279L789.082 -21.0127L607.975 70.3182L602.496 35.8594Z" fill="#90DEA3" fill-opacity="0.8"/>
<path d="M581.071 101.728L812.393 15.2285L817.873 49.6874L582.877 136.463L581.071 101.728Z" fill="#90DEA3" fill-opacity="0.8"/>
<path d="M581.071 101.728L844.715 88.0211L846.521 122.756L582.877 136.463L581.071 101.728Z" fill="#798BFF" fill-opacity="0.7"/>
<path d="M602.496 35.8594L812.393 15.2285L817.873 49.6874L607.975 70.3182L602.496 35.8594Z" fill="#798BFF" fill-opacity="0.7"/>
<path d="M624.063 -32.3812L779.955 -55.0279L789.082 -21.0127L633.189 1.63394L624.063 -32.3812Z" fill="#798BFF" fill-opacity="0.7"/>
<path d="M30.303 30.9744C30.303 33.5663 31.6393 36.3322 34.3182 37.4448L33.1124 39.2037C31.2229 38.4081 29.9238 36.817 29.2028 34.8778C28.4819 36.9848 27.158 38.7376 25.2685 39.6015L23.9943 37.8425C26.6421 36.6554 28.0157 33.6906 28.0219 30.9744V29.9924H24.622V28.1588H33.6531V29.9924H30.303V30.9744ZM35.2319 42.6222V26.6112H37.5005V42.6222H35.2319ZM52.5723 27.3508V28.625C52.5723 29.8681 52.5723 31.2541 52.187 33.0877H54.3002V34.8964H39.669V33.0877H49.9245C50.2726 31.4965 50.3223 30.2597 50.3348 29.1409H41.4591V27.3508H52.5723ZM41.3969 42.442V36.5932H52.5102V42.442H41.3969ZM43.5972 40.6457H50.2788V38.346H43.5972V40.6457ZM72.091 26.6112V30.4213H74.2166V32.2424H72.091V35.8785H69.8161V26.6112H72.091ZM59.9335 35.0145V27.6927H67.131V29.4952H62.1586V33.2058C65.1296 33.1934 66.7581 33.0939 68.5419 32.721L68.7408 34.5173C66.7643 34.9461 64.881 35.0145 61.2636 35.0145H59.9335ZM61.3382 39.3715C61.332 37.3577 63.4763 36.1644 66.814 36.1581C70.1144 36.1644 72.2153 37.3577 72.2153 39.3715C72.2153 41.4227 70.1144 42.6222 66.814 42.616C63.4763 42.6222 61.332 41.4227 61.3382 39.3715ZM63.5509 39.3715C63.5447 40.3349 64.7194 40.8384 66.814 40.8384C68.8527 40.8384 70.0336 40.3349 70.0398 39.3715C70.0336 38.4268 68.8527 37.9358 66.814 37.942C64.7194 37.9358 63.5447 38.4268 63.5509 39.3715ZM84.024 27.6927V29.4827H80.8292C80.8417 31.3474 81.9729 33.1499 84.5212 33.9081L83.4584 35.6609C81.6807 35.1264 80.4563 34.0511 79.7477 32.6837C79.0392 34.2873 77.7401 35.5677 75.8258 36.1954L74.6883 34.424C77.3361 33.5849 78.5419 31.5152 78.5668 29.4827H75.2975V27.6927H84.024ZM76.8948 39.5083C76.8886 37.5566 78.9894 36.4192 82.3707 36.4254C85.7084 36.4192 87.7719 37.5566 87.7719 39.5083C87.7719 41.4599 85.7084 42.6222 82.3707 42.616C78.9894 42.6222 76.8886 41.4599 76.8948 39.5083ZM79.1386 39.5083C79.1324 40.422 80.276 40.8757 82.3707 40.8695C84.4528 40.8757 85.5592 40.422 85.5592 39.5083C85.5592 38.607 84.4528 38.1657 82.3707 38.172C80.276 38.1657 79.1324 38.607 79.1386 39.5083ZM85.3727 36.1146V26.6112H87.6227V30.3343H89.7733V32.1616H87.6227V36.1146H85.3727ZM99.1793 27.0898C101.616 27.0898 103.449 28.6126 103.462 30.7445C103.449 32.8702 101.616 34.3805 99.1793 34.3867C96.7118 34.3805 94.872 32.8702 94.8782 30.7445C94.872 28.6126 96.7118 27.0898 99.1793 27.0898ZM97.0536 30.7445C97.0412 31.9006 97.9487 32.578 99.1793 32.578C100.391 32.578 101.286 31.9006 101.286 30.7445C101.286 29.6008 100.391 28.9233 99.1793 28.9233C97.9549 28.9233 97.0412 29.6008 97.0536 30.7445ZM97.2898 37.0283V35.3004H108.024V39.645H99.515V40.6768H108.459V42.442H97.3271V38.0041H105.786V37.0283H97.2898ZM105.774 34.6416V26.6112H108.024V34.6416H105.774ZM116.383 30.9744C116.383 33.5663 117.719 36.3322 120.398 37.4448L119.192 39.2037C117.303 38.4081 116.004 36.817 115.283 34.8778C114.562 36.9848 113.238 38.7376 111.349 39.6015L110.074 37.8425C112.722 36.6554 114.096 33.6906 114.102 30.9744V29.9924H110.702V28.1588H119.733V29.9924H116.383V30.9744ZM121.312 42.6222V26.6112H123.581V42.6222H121.312ZM140.362 33.7901V35.4558H125.73V33.7901H140.362ZM127.402 37.8052V36.2514H138.615V40.0304H129.646V40.9441H139.081V42.4731H127.415V38.607H136.39V37.8052H127.402ZM127.527 28.4323V26.9095H138.596V30.6637H129.783V31.5214H138.87V33.038H127.552V29.2403H136.346V28.4323H127.527ZM154.547 27.5559V29.346H151.353C151.359 31.2231 152.49 33.1374 155.076 33.9765L153.938 35.7044C152.167 35.1326 150.949 33.989 150.246 32.5656C149.532 34.1257 148.257 35.3688 146.399 35.9779L145.212 34.25C147.853 33.3923 149.053 31.3474 149.09 29.346H145.821V27.5559H154.547ZM147.375 38.7438V36.9537H158.146V42.6222H155.896V38.7438H147.375ZM155.896 36.27V26.6112H158.146V30.5021H160.297V32.3667H158.146V36.27H155.896ZM167.052 28.7928C167.04 30.9372 168.146 32.9137 170.719 33.7093L169.526 35.462C167.804 34.8715 166.642 33.7652 165.971 32.3294C165.256 33.9952 163.969 35.3066 162.049 35.953L160.855 34.163C163.603 33.2804 164.777 31.136 164.79 28.8985V27.4503H167.052V28.7928ZM163.528 39.5207C163.522 37.5566 165.616 36.4068 169.023 36.4068C172.441 36.4068 174.529 37.5566 174.536 39.5207C174.529 41.4972 172.441 42.6222 169.023 42.616C165.616 42.6222 163.522 41.4972 163.528 39.5207ZM165.759 39.5207C165.753 40.4095 166.903 40.8757 169.023 40.8695C171.148 40.8757 172.304 40.4095 172.311 39.5207C172.304 38.607 171.148 38.1471 169.023 38.1471C166.903 38.1471 165.753 38.607 165.759 39.5207ZM169.253 31.3847V29.5511H172.255V26.6112H174.492V35.9965H172.255V31.3847H169.253ZM189.185 26.6112V32.8826H191.547V34.7286H189.185V42.6222H186.966V26.6112H189.185ZM176.48 30.8004V29.0041H180.104V26.866H182.342V29.0041H185.884V30.8004H176.48ZM177.127 35.5117C177.121 33.2804 178.861 31.6954 181.223 31.6954C183.554 31.6954 185.3 33.2804 185.306 35.5117C185.3 37.7493 183.554 39.3218 181.223 39.328C178.861 39.3218 177.121 37.7493 177.127 35.5117ZM179.277 35.5117C179.271 36.7548 180.092 37.4945 181.223 37.4883C182.342 37.4945 183.15 36.7548 183.162 35.5117C183.15 34.2873 182.342 33.529 181.223 33.5166C180.092 33.529 179.271 34.2873 179.277 35.5117ZM197.246 30.645C197.246 33.2369 197.967 35.9095 200.161 37.3142L198.936 39.0421C197.556 38.2093 196.68 36.8356 196.17 35.201C195.605 37.0097 194.641 38.5262 193.193 39.4088L191.826 37.7431C194.194 36.2762 195.07 33.4606 195.07 30.7507V27.991H197.246V30.645ZM198.47 33.846V32.0186H200.54V26.8598H202.641V41.8826H200.54V33.846H198.47ZM203.84 42.6222V26.6112H205.985V42.6222H203.84ZM222.312 38.9178V40.7452H207.681V38.9178H210.944V34.9896C209.707 34.2438 208.961 33.1064 208.967 31.6954C208.961 29.1098 211.497 27.4006 214.965 27.4006C218.434 27.4006 220.994 29.1098 220.994 31.6954C220.994 33.0877 220.267 34.2065 219.061 34.9523V38.9178H222.312ZM211.174 31.6954C211.174 33.268 212.678 34.2314 214.965 34.2376C217.234 34.2314 218.775 33.268 218.782 31.6954C218.775 30.0919 217.234 29.1595 214.965 29.172C212.678 29.1595 211.174 30.0919 211.174 31.6954ZM213.163 38.9178H216.793V35.8039C216.221 35.9095 215.612 35.9717 214.965 35.9717C214.331 35.9717 213.728 35.9157 213.163 35.8039V38.9178ZM226.88 28.2707L226.643 37.1899H224.393L224.157 28.2707H226.88ZM224.045 39.6823C224.033 38.8743 224.71 38.2155 225.525 38.2155C226.308 38.2155 226.992 38.8743 226.998 39.6823C226.992 40.4965 226.308 41.1554 225.525 41.1554C224.71 41.1554 224.033 40.4965 224.045 39.6823ZM246.387 26.6112V34.6789H244.149V33.4358H240.494V31.7327H244.149V30.3343H240.662C239.674 32.7334 237.393 34.2686 233.856 35.0331L233.098 33.212C236.765 32.4848 238.456 30.962 238.748 29.0414H233.999V27.2452H241.228C241.228 27.73 241.191 28.1899 241.128 28.6312H244.149V26.6112H246.387ZM235.746 37.0097V35.2507H246.387V39.6326H238.014V40.683H246.741V42.4606H235.771V37.9731H244.137V37.0097H235.746ZM261.595 27.9599V29.3709C261.583 31.3039 261.614 33.5725 260.868 37.0221L258.674 36.8046C258.935 35.5925 259.103 34.511 259.202 33.529L249.916 34.0511L249.606 32.143L259.333 31.8198C259.37 31.0677 259.383 30.384 259.389 29.7562H250.128V27.9599H261.595ZM248.462 40.77V38.9427H253.683V35.0829H255.908V38.9427H263.056V40.77H248.462ZM281.996 28.2769V30.0732H268.863V28.2769H274.339V26.5988H276.558V28.2769H281.996ZM268.167 38.7749V36.9599H282.798V38.7749H276.558V42.6347H274.339V38.7749H268.167ZM269.932 33.4482C269.926 31.6644 272.002 30.701 275.452 30.701C278.895 30.701 280.965 31.6644 280.971 33.4482C280.965 35.2072 278.895 36.1768 275.452 36.1768C272.002 36.1768 269.926 35.2072 269.932 33.4482ZM272.263 33.4482C272.257 34.1692 273.313 34.5173 275.452 34.511C277.571 34.5173 278.634 34.1692 278.646 33.4482C278.634 32.7086 277.571 32.3605 275.452 32.3605C273.313 32.3605 272.257 32.7086 272.263 33.4482ZM297.162 26.6112V42.6222H294.93V26.6112H297.162ZM283.792 38.1036C285.01 38.0974 286.409 38.0912 287.863 38.0601V36.7051C286.11 36.3881 284.973 35.2942 284.979 33.8025C284.973 32.0062 286.601 30.788 288.957 30.788C291.331 30.788 292.985 32.0062 292.985 33.8025C292.985 35.288 291.841 36.3757 290.095 36.6989V37.9793C291.431 37.9109 292.78 37.8052 294.054 37.6312L294.203 39.297C290.71 39.8999 286.937 39.9309 284.084 39.9309L283.792 38.1036ZM284.109 30.1602V28.4012H287.863V26.692H290.107V28.4012H293.824V30.1602H284.109ZM287.111 33.8025C287.105 34.6416 287.869 35.0953 288.957 35.0953C290.082 35.0953 290.84 34.6416 290.84 33.8025C290.84 32.9696 290.082 32.4972 288.957 32.4972C287.869 32.4972 287.105 32.9696 287.111 33.8025ZM311.898 26.6112V32.8826H314.26V34.7286H311.898V42.6222H309.679V26.6112H311.898ZM299.193 30.8004V29.0041H302.817V26.866H305.055V29.0041H308.597V30.8004H299.193ZM299.84 35.5117C299.834 33.2804 301.574 31.6954 303.936 31.6954C306.267 31.6954 308.013 33.2804 308.019 35.5117C308.013 37.7493 306.267 39.3218 303.936 39.328C301.574 39.3218 299.834 37.7493 299.84 35.5117ZM301.99 35.5117C301.984 36.7548 302.805 37.4945 303.936 37.4883C305.055 37.4945 305.863 36.7548 305.875 35.5117C305.863 34.2873 305.055 33.529 303.936 33.5166C302.805 33.529 301.984 34.2873 301.99 35.5117ZM321.028 30.9744C321.028 33.5663 322.364 36.3322 325.043 37.4448L323.837 39.2037C321.947 38.4081 320.648 36.817 319.927 34.8778C319.206 36.9848 317.883 38.7376 315.993 39.6015L314.719 37.8425C317.367 36.6554 318.74 33.6906 318.747 30.9744V29.9924H315.347V28.1588H324.378V29.9924H321.028V30.9744ZM325.956 42.6222V26.6112H328.225V42.6222H325.956ZM338.955 27.3881C341.416 27.3881 343.238 28.9544 343.238 31.1112C343.238 33.3115 341.416 34.8653 338.955 34.8653C336.506 34.8653 334.642 33.3115 334.654 31.1112C334.642 28.9544 336.506 27.3881 338.955 27.3881ZM335.978 42.1996V36.0649H338.166V40.366C339.048 40.3101 339.881 40.1733 340.708 39.9061L341.031 41.6464C339.676 42.1374 338.389 42.1996 336.86 42.1996H335.978ZM336.836 31.1112C336.823 32.2983 337.743 33.0318 338.955 33.038C340.161 33.0318 341.062 32.2983 341.068 31.1112C341.062 29.9551 340.161 29.2341 338.955 29.2341C337.743 29.2341 336.823 29.9551 336.836 31.1112ZM340.478 37.7244V36.0773H343.436V34.9523H345.618V36.0773H348.533V37.7244H340.478ZM341.404 40.3722C341.392 38.9862 342.647 38.1036 344.493 38.0974C346.32 38.1036 347.588 38.9862 347.601 40.3722C347.588 41.7521 346.32 42.6222 344.493 42.616C342.647 42.6222 341.392 41.7521 341.404 40.3722ZM343.393 40.3722C343.387 40.8508 343.859 41.087 344.493 41.087C345.127 41.087 345.587 40.8508 345.593 40.3722C345.587 39.9061 345.127 39.6575 344.493 39.6512C343.859 39.6575 343.387 39.9061 343.393 40.3722ZM344.984 34.5173V26.6112H347.234V29.9427H349.385V31.7887H347.234V34.5173H344.984ZM357.383 26.8474C361.069 26.8474 363.195 27.8108 363.201 29.5698C363.195 31.3598 361.069 32.317 357.383 32.317C353.691 32.317 351.553 31.3598 351.559 29.5698C351.553 27.8108 353.691 26.8474 357.383 26.8474ZM350.099 34.8529V33.0753H364.693V34.8529H350.099ZM351.783 37.4199V35.7728H362.909V39.8564H353.996V40.8198H363.325V42.5104H351.796V38.2901H360.696V37.4199H351.783ZM353.909 29.5698C353.896 30.3591 355.04 30.6637 357.383 30.6699C359.758 30.6637 360.889 30.3591 360.889 29.5698C360.889 28.8674 359.758 28.482 357.383 28.4883C355.04 28.482 353.896 28.8674 353.909 29.5698ZM379.13 26.6112V42.6222H376.899V34.6043H373.723V32.7707H376.899V26.6112H379.13ZM365.5 38.0787C369.54 36.0898 371.212 33.5539 371.541 30.0546H366.246V28.2956H373.81C373.798 33.1188 372.238 37.0656 366.644 39.8315L365.5 38.0787ZM395.072 26.6112V42.6222H392.928V26.6112H395.072ZM381.349 33.5414C381.343 29.9675 382.716 27.761 384.823 27.761C386.166 27.761 387.216 28.6312 387.813 30.1664H389.69V26.8598H391.803V41.8826H389.69V36.9289H387.819C387.222 38.4827 386.172 39.3653 384.823 39.3591C382.716 39.3653 381.343 37.1464 381.349 33.5414ZM383.381 33.5414C383.375 36.009 383.891 37.2148 384.823 37.2086C385.755 37.2148 386.315 36.009 386.321 33.5414C386.315 31.0988 385.749 29.8743 384.823 29.8805C383.891 29.8743 383.375 31.0988 383.381 33.5414ZM388.254 31.9627C388.322 32.4537 388.36 32.982 388.36 33.5414C388.36 34.0946 388.322 34.6229 388.26 35.1077H389.69V31.9627H388.254ZM411.4 38.9178V40.7452H396.769V38.9178H400.032V34.9896C398.795 34.2438 398.049 33.1064 398.055 31.6954C398.049 29.1098 400.585 27.4006 404.053 27.4006C407.521 27.4006 410.082 29.1098 410.082 31.6954C410.082 33.0877 409.355 34.2065 408.149 34.9523V38.9178H411.4ZM400.262 31.6954C400.262 33.268 401.766 34.2314 404.053 34.2376C406.322 34.2314 407.863 33.268 407.869 31.6954C407.863 30.0919 406.322 29.1595 404.053 29.172C401.766 29.1595 400.262 30.0919 400.262 31.6954ZM402.251 38.9178H405.881V35.8039C405.309 35.9095 404.7 35.9717 404.053 35.9717C403.419 35.9717 402.816 35.9157 402.251 35.8039V38.9178ZM415.968 28.2707L415.731 37.1899H413.481L413.245 28.2707H415.968ZM413.133 39.6823C413.121 38.8743 413.798 38.2155 414.613 38.2155C415.396 38.2155 416.079 38.8743 416.086 39.6823C416.079 40.4965 415.396 41.1554 414.613 41.1554C413.798 41.1554 413.121 40.4965 413.133 39.6823Z" fill="white"/>
<path d="M33.5069 58.9586V62.1298H35.3246V63.029H33.5069V66.2099H32.424V58.9586H33.5069ZM24.5539 65.2141V59.8867H29.9489V60.7762H25.6077V64.3343C28.0684 64.3246 29.48 64.2521 31.1091 63.9185L31.2251 64.808C29.5235 65.1464 28.0635 65.2141 25.4917 65.2141H24.5539ZM25.5691 68.7624C25.5691 67.3025 27.116 66.4517 29.6008 66.442C32.076 66.4517 33.6036 67.3025 33.6036 68.7624C33.6036 70.232 32.076 71.0829 29.6008 71.0829C27.116 71.0829 25.5691 70.232 25.5691 68.7624ZM26.6229 68.7624C26.6229 69.6616 27.7638 70.2127 29.6008 70.2127C31.4185 70.2127 32.5691 69.6616 32.5691 68.7624C32.5691 67.8633 31.4185 67.3218 29.6008 67.3315C27.7638 67.3218 26.6229 67.8633 26.6229 68.7624ZM46.1286 58.9682V67.8826H45.0554V58.9682H46.1286ZM36.2184 65.2818C38.0554 64.5663 39.3026 62.7873 39.3026 60.8633V59.645H40.3952V60.8633C40.3855 62.7196 41.6521 64.3826 43.4601 65.0401L42.8993 65.9006C41.4926 65.3543 40.3952 64.2617 39.8586 62.8598C39.3317 64.3536 38.2294 65.5477 36.8082 66.1229L36.2184 65.2818ZM38.2778 70.8412V67.0608H39.351V69.9517H46.5057V70.8412H38.2778ZM52.1661 59.8481C54.0804 59.8481 55.434 61.0083 55.4437 62.7003C55.434 64.3923 54.0804 65.5525 52.1661 65.5525C50.2517 65.5525 48.8788 64.3923 48.8884 62.7003C48.8788 61.0083 50.2517 59.8481 52.1661 59.8481ZM48.26 67.5345C50.5031 67.5442 53.597 67.5249 56.2849 67.1285L56.3719 67.9213C53.5873 68.4434 50.5998 68.453 48.405 68.453L48.26 67.5345ZM49.9423 62.7003C49.9326 63.8315 50.8705 64.6146 52.1661 64.6146C53.452 64.6146 54.3898 63.8315 54.3898 62.7003C54.3898 61.5691 53.452 60.7859 52.1661 60.7859C50.8705 60.7859 49.9326 61.5691 49.9423 62.7003ZM57.0873 71.1312V58.9586H58.1605V71.1312H57.0873ZM67.9824 60.8729C67.9727 62.6036 69.2103 64.1312 70.999 64.7307L70.3995 65.5718C69.0556 65.0691 68.0017 64.0829 67.4748 62.8018C66.9575 64.2569 65.8456 65.3881 64.376 65.9392L63.7959 65.0691C65.6619 64.4116 66.9092 62.797 66.9189 60.9116V59.6547H67.9824V60.8729ZM65.778 68.8108C65.7683 67.3508 67.3153 66.5097 69.8484 66.5097C72.3719 66.5097 73.9189 67.3508 73.9189 68.8108C73.9189 70.261 72.3719 71.0829 69.8484 71.0829C67.3153 71.0829 65.7683 70.261 65.778 68.8108ZM66.8415 68.8108C66.8318 69.6906 67.9824 70.2224 69.8484 70.2224C71.7048 70.2224 72.8553 69.6906 72.8553 68.8108C72.8553 67.9019 71.7048 67.3605 69.8484 67.3605C67.9824 67.3605 66.8318 67.9019 66.8415 68.8108ZM70.0998 62.4489V61.5594H72.807V58.9586H73.8802V66.1616H72.807V62.4489H70.0998ZM80.024 61.2597C80.024 62.855 81.2132 64.2762 83.0019 64.866L82.4895 65.7072C81.0924 65.2431 80.0337 64.2762 79.5116 63.058C78.9895 64.4503 77.8679 65.538 76.408 66.0649L75.8569 65.2044C77.6842 64.5856 78.9508 63.0193 78.9605 61.2693V60.7472H76.1856V59.8577H82.7505V60.7472H80.024V61.2597ZM77.4812 68.8398C77.4812 67.4378 79.0088 66.6257 81.5129 66.6257C84.0074 66.6257 85.5157 67.4378 85.5157 68.8398C85.5157 70.261 84.0074 71.0829 81.5129 71.0829C79.0088 71.0829 77.4812 70.261 77.4812 68.8398ZM78.5544 68.8398C78.5447 69.7099 79.6759 70.2224 81.5129 70.2224C83.35 70.2224 84.4715 69.7099 84.4715 68.8398C84.4715 67.989 83.35 67.4862 81.5129 67.4862C79.6759 67.4862 78.5447 67.989 78.5544 68.8398ZM84.3361 66.297V58.9586H85.4093V62.0622H87.2367V62.9613H85.4093V66.297H84.3361ZM99.0849 65.3688V66.239H88.0048V65.3688H99.0849ZM89.2327 61.7914C89.2327 60.2735 90.9054 59.3743 93.5352 59.384C96.1554 59.3743 97.828 60.2735 97.828 61.7914C97.828 63.3094 96.1554 64.2182 93.5352 64.2182C90.9054 64.2182 89.2327 63.3094 89.2327 61.7914ZM89.4358 70.8412V67.3122H90.5186V69.9517H97.8474V70.8412H89.4358ZM90.3446 61.7914C90.3349 62.7583 91.5822 63.3384 93.5352 63.3384C95.4882 63.3384 96.7355 62.7583 96.7355 61.7914C96.7355 60.8439 95.4882 60.2541 93.5352 60.2541C91.5822 60.2541 90.3349 60.8439 90.3446 61.7914ZM114.031 58.9586V71.1119H112.997V64.6727H111.295V70.4931H110.27V59.2196H111.295V63.7735H112.997V58.9586H114.031ZM104.063 67.8343V60.3798H108.723V67.8343H104.063ZM105.078 66.9738H107.708V61.2403H105.078V66.9738ZM119.16 59.4033C120.977 59.413 122.302 60.5152 122.312 62.1008C122.302 63.6865 120.977 64.779 119.16 64.779C117.323 64.779 115.998 63.6865 115.998 62.1008C115.998 60.5152 117.323 59.413 119.16 59.4033ZM117.052 62.1008C117.042 63.1644 117.941 63.8992 119.16 63.8992C120.368 63.8992 121.267 63.1644 121.267 62.1008C121.267 61.047 120.368 60.3025 119.16 60.3122C117.941 60.3025 117.042 61.047 117.052 62.1008ZM117.845 66.6547V65.7845H125.754V68.7141H118.928V70.0773H126.189V70.9475H117.883V67.9019H124.69V66.6547H117.845ZM124.68 65.1948V58.9586H125.754V65.1948H124.68ZM131.791 59.8481C133.705 59.8481 135.059 61.0083 135.069 62.7003C135.059 64.3923 133.705 65.5525 131.791 65.5525C129.877 65.5525 128.504 64.3923 128.513 62.7003C128.504 61.0083 129.877 59.8481 131.791 59.8481ZM127.885 67.5345C130.128 67.5442 133.222 67.5249 135.91 67.1285L135.997 67.9213C133.212 68.4434 130.225 68.453 128.03 68.453L127.885 67.5345ZM129.567 62.7003C129.558 63.8315 130.495 64.6146 131.791 64.6146C133.077 64.6146 134.015 63.8315 134.015 62.7003C134.015 61.5691 133.077 60.7859 131.791 60.7859C130.495 60.7859 129.558 61.5691 129.567 62.7003ZM136.712 71.1312V58.9586H137.786V71.1312H136.712ZM153.476 58.9586V71.1119H152.403V58.9586H153.476ZM143.585 67.9503C146.873 66.3936 148.55 64.0539 148.787 61.1533H144.146V60.2831H149.879C149.87 63.7735 148.246 66.8674 144.165 68.8301L143.585 67.9503ZM166.639 65.6492V66.5387H155.511V65.6492H160.548V64.3633H156.961V61.395H164.135V60.1381H156.922V59.268H165.208V62.2072H158.025V63.5028H165.469V64.3633H161.602V65.6492H166.639ZM156.758 68.3467V67.4669H165.276V70.9959H164.193V68.3467H156.758ZM178.043 58.9586V71.1119H177.008V58.9586H178.043ZM167.785 64.1989C167.785 61.6174 168.809 59.9834 170.385 59.9834C171.865 59.9834 172.865 61.4047 173.001 63.6961H174.572V59.2196H175.606V70.4931H174.572V64.5856H173.006C172.899 66.9544 171.889 68.4337 170.385 68.424C168.809 68.4337 167.785 66.7901 167.785 64.1989ZM168.79 64.1989C168.78 66.1713 169.409 67.4185 170.385 67.4088C171.381 67.4185 172.01 66.1713 172.01 64.1989C172.01 62.2265 171.381 60.989 170.385 60.989C169.409 60.989 168.78 62.2265 168.79 64.1989ZM189.199 59.6644V60.5442H184.858V63.7445C187.246 63.7493 188.677 63.6623 190.34 63.3287L190.475 64.1892C188.735 64.5566 187.246 64.6243 184.742 64.6146H183.804V59.6644H189.199ZM184.993 66.5677V65.6975H192.747V68.6851H186.076V70.0677H193.192V70.9475H185.022V67.8439H191.684V66.5677H184.993ZM191.674 65.0884V58.9586H192.747V61.5304H194.575V62.4296H192.747V65.0884H191.674ZM205.408 58.9586V71.1312H204.344V65.9586H201.811V65.0497H204.344V62.6326H201.898V61.7334H204.344V58.9586H205.408ZM195.768 60.9503V60.0608H201.115V64.3826H196.87V67.3798C198.703 67.375 200.211 67.3025 202.053 67.0221L202.149 67.9213C200.206 68.221 198.649 68.2887 196.706 68.2887H195.807V63.5124H200.061V60.9503H195.768ZM211.551 67.1091C211.551 68.1872 212.136 69.3329 213.287 69.9903C214.447 69.2749 215.061 68.0518 215.061 67.1091V66.442H216.115V67.1091C216.105 68.366 217.024 69.6133 218.59 70.145L218.049 70.9378C216.835 70.5124 215.984 69.6616 215.564 68.6416C215.187 69.6326 214.447 70.5656 213.321 71.0442C212.136 70.5898 211.387 69.7003 211.024 68.6802C210.585 69.6616 209.748 70.5028 208.583 70.9378L208.042 70.145C209.579 69.5746 210.507 68.279 210.517 67.1091V66.442H211.551V67.1091ZM207.723 62.5166C207.723 60.8246 209.067 59.674 210.913 59.674C212.76 59.674 214.094 60.8246 214.094 62.5166C214.094 64.1892 212.76 65.3398 210.913 65.3398C209.067 65.3398 207.723 64.1892 207.723 62.5166ZM208.777 62.5166C208.767 63.6478 209.666 64.4406 210.913 64.4503C212.151 64.4406 213.05 63.6478 213.05 62.5166C213.05 61.3854 212.151 60.5829 210.913 60.5925C209.666 60.5829 208.767 61.3854 208.777 62.5166ZM216.405 65.9102V58.9682H217.478V65.9102H216.405ZM222.017 66.2486V67.6699H228.089V66.2486H229.172V70.9475H220.954V66.2486H222.017ZM219.542 65.3978V64.4986H230.622V65.3978H219.542ZM220.17 62.7873C222.336 62.4876 224.531 61.2113 224.531 59.6644V59.0939H225.633V59.6644C225.633 61.163 227.847 62.5069 229.984 62.7873L229.588 63.6381C227.707 63.3577 225.855 62.3957 225.087 61.0421C224.313 62.4102 222.452 63.3577 220.576 63.6381L220.17 62.7873ZM222.017 70.0773H228.089V68.5207H222.017V70.0773ZM241.658 58.9586V71.1119H240.595V58.9586H241.658ZM232.434 67.9793V60.1575H233.488V67.0414C235.345 67.0366 237.254 66.8916 239.299 66.4613L239.444 67.3798C237.288 67.8246 235.364 67.9793 233.421 67.9793H232.434ZM253.149 58.9586V63.7638H255.179V64.663H253.149V71.1312H252.075V58.9586H253.149ZM244.273 68.0856V60.1478H249.948V61.0276H245.346V67.1768C247.546 67.172 249.102 67.0849 250.906 66.7514L251.041 67.6796C249.136 68.018 247.541 68.0856 245.23 68.0856H244.273ZM257.127 70.0773C256.643 70.0773 256.237 69.6809 256.247 69.1975C256.237 68.7141 256.643 68.3177 257.127 68.3177C257.61 68.3177 258.006 68.7141 258.006 69.1975C258.006 69.6809 257.61 70.0773 257.127 70.0773ZM29.5235 80.7514C32.1146 80.761 33.971 82.018 33.971 83.9323C33.971 85.7403 32.366 86.9392 30.0552 87.0939V89.6464H35.1215V90.5456H23.9931V89.6464H28.9917V87.0939C26.7003 86.9344 25.0856 85.7403 25.0856 83.9323C25.0856 82.018 26.9517 80.761 29.5235 80.7514ZM26.1202 83.9323C26.1202 85.3343 27.5608 86.2431 29.5235 86.2528C31.4959 86.2431 32.9365 85.3343 32.9365 83.9323C32.9365 82.5594 31.4959 81.6312 29.5235 81.6409C27.5608 81.6312 26.1202 82.5594 26.1202 83.9323ZM45.8966 82.8785V83.768H37.601V80.1519H38.6452V82.8785H45.8966ZM36.0734 85.8467V84.9669H47.2018V85.8467H36.0734ZM37.4753 87.7901V86.9392H45.7709V89.7818H38.5775V91.087H46.206V91.9475H37.5043V88.9696H44.717V87.7901H37.4753ZM52.1661 80.8481C54.0804 80.8481 55.434 82.0083 55.4437 83.7003C55.434 85.3923 54.0804 86.5525 52.1661 86.5525C50.2517 86.5525 48.8788 85.3923 48.8884 83.7003C48.8788 82.0083 50.2517 80.8481 52.1661 80.8481ZM48.26 88.5345C50.5031 88.5442 53.597 88.5249 56.2849 88.1285L56.3719 88.9213C53.5873 89.4434 50.5998 89.453 48.405 89.453L48.26 88.5345ZM49.9423 83.7003C49.9326 84.8315 50.8705 85.6146 52.1661 85.6146C53.452 85.6146 54.3898 84.8315 54.3898 83.7003C54.3898 82.5691 53.452 81.7859 52.1661 81.7859C50.8705 81.7859 49.9326 82.5691 49.9423 83.7003ZM57.0873 92.1312V79.9586H58.1605V92.1312H57.0873ZM67.9824 81.8729C67.9727 83.6036 69.2103 85.1312 70.999 85.7307L70.3995 86.5718C69.0556 86.0691 68.0017 85.0829 67.4748 83.8018C66.9575 85.2569 65.8456 86.3881 64.376 86.9392L63.7959 86.0691C65.6619 85.4116 66.9092 83.797 66.9189 81.9116V80.6547H67.9824V81.8729ZM65.778 89.8108C65.7683 88.3508 67.3153 87.5097 69.8484 87.5097C72.3719 87.5097 73.9189 88.3508 73.9189 89.8108C73.9189 91.261 72.3719 92.0829 69.8484 92.0829C67.3153 92.0829 65.7683 91.261 65.778 89.8108ZM66.8415 89.8108C66.8318 90.6906 67.9824 91.2224 69.8484 91.2224C71.7048 91.2224 72.8553 90.6906 72.8553 89.8108C72.8553 88.9019 71.7048 88.3605 69.8484 88.3605C67.9824 88.3605 66.8318 88.9019 66.8415 89.8108ZM70.0998 83.4489V82.5594H72.807V79.9586H73.8802V87.1616H72.807V83.4489H70.0998ZM80.4881 82.25C80.4881 83.4779 81.6966 84.5221 83.4273 84.9088L82.9826 85.7597C81.5806 85.4164 80.5026 84.6768 79.9708 83.6906C79.4535 84.759 78.3562 85.5663 76.9204 85.924L76.4563 85.0732C78.2063 84.6768 79.4149 83.5456 79.4149 82.25V82.2017H76.7077V81.3508H79.4149V79.9876H80.4881V81.3508H83.1953V82.2017H80.4881V82.25ZM75.8762 86.7845C78.2063 86.7845 81.2906 86.7652 83.9784 86.4171L84.0558 87.2003C82.8955 87.3936 81.6918 87.5097 80.5171 87.5822V91.7541H79.4439V87.6354C78.216 87.6837 77.0461 87.6934 76.0212 87.6934L75.8762 86.7845ZM84.8776 92.1215V79.9682H85.9314V92.1215H84.8776ZM99.1139 85.605V86.4461H87.9855V85.605H99.1139ZM89.3294 88.2251V87.4227H97.7217V90.0041H90.4219V91.1644H98.1181V91.9475H89.3487V89.2597H96.6581V88.2251H89.3294ZM89.3971 81.0994V80.326H97.683V82.8398H90.4993V83.9033H97.8957V84.6865H89.4358V82.105H96.6098V81.0994H89.3971ZM113.673 87.384V88.2348H104.653V87.384H108.626V86.2624H109.69V87.384H113.673ZM103.599 85.7887V84.9185H108.655V83.6809H105.146V80.1423H106.209V82.8204H113.461V83.6809H109.719V84.9185H114.727V85.7887H103.599ZM105.484 90.4489C105.484 89.366 106.799 88.7956 109.148 88.7956C111.498 88.7956 112.832 89.366 112.832 90.4489C112.832 91.5221 111.498 92.0829 109.148 92.0829C106.799 92.0829 105.484 91.5221 105.484 90.4489ZM106.596 90.4489C106.586 91.029 107.524 91.3094 109.148 91.3094C110.773 91.3094 111.72 91.029 111.72 90.4489C111.72 89.8591 110.773 89.5691 109.148 89.5691C107.524 89.5691 106.586 89.8591 106.596 90.4489ZM125.734 79.9586V92.1119H124.661V79.9586H125.734ZM115.959 88.9213C117.767 88.0994 119.15 86.0497 119.15 83.913V82.9461H116.288V82.076H119.14V80.1809H120.204V82.076H123.027V82.9461H120.204V83.913C120.204 85.953 121.625 87.9254 123.453 88.6989L122.853 89.5401C121.451 88.9164 120.262 87.5967 119.696 85.9917C119.145 87.6934 117.97 89.0905 116.569 89.7528L115.959 88.9213ZM132.168 83.6906C132.168 85.75 133.667 87.8481 135.455 88.6215L134.856 89.4724C133.435 88.8246 132.212 87.4275 131.641 85.75C131.071 87.529 129.843 89.076 128.455 89.7721L127.817 88.9213C129.558 88.0898 131.076 85.7887 131.085 83.6906V82.105H128.214V81.2058H135.059V82.105H132.168V83.6906ZM136.761 92.1119V79.9586H137.834V92.1119H136.761ZM149.541 81.1865V89.018H143.933V81.1865H149.541ZM144.978 88.1381H148.468V82.047H144.978V88.1381ZM151.765 92.1119V79.9586H152.838V84.8122H154.868V85.7307H152.838V92.1119H151.765ZM159.137 83.4102C159.137 85.3439 160.084 87.4323 161.699 88.3895L161.08 89.221C159.905 88.5152 159.069 87.2148 158.639 85.7403C158.194 87.3501 157.295 88.7424 156.081 89.482L155.395 88.6796C157.077 87.6934 158.102 85.5373 158.102 83.4586V81.0994H159.137V83.4102ZM160.355 85.2279V84.3191H162.414V80.2196H163.429V91.4931H162.414V85.2279H160.355ZM164.909 92.1119V79.9586H165.943V92.1119H164.909ZM178.758 89.6464V90.5456H167.63V89.6464H170.385V86.3688C169.351 85.8273 168.722 84.9523 168.722 83.855C168.722 81.9696 170.569 80.732 173.16 80.7224C175.761 80.732 177.608 81.9696 177.608 83.855C177.608 84.9378 176.999 85.7983 175.993 86.3398V89.6464H178.758ZM169.757 83.855C169.757 85.2086 171.168 86.1174 173.16 86.1174C175.142 86.1174 176.573 85.2086 176.573 83.855C176.573 82.4917 175.142 81.5925 173.16 81.6022C171.168 81.5925 169.757 82.4917 169.757 83.855ZM171.439 89.6464H174.91V86.7604C174.383 86.8957 173.793 86.9682 173.16 86.9682C172.537 86.9682 171.961 86.8957 171.439 86.7652V89.6464ZM181.015 91.0773C180.532 91.0773 180.126 90.6809 180.135 90.1975C180.126 89.7141 180.532 89.3177 181.015 89.3177C181.499 89.3177 181.895 89.7141 181.895 90.1975C181.895 90.6809 181.499 91.0773 181.015 91.0773ZM196.859 79.9586V86.1754H195.785V84.8992H192.537V84.0483H195.785V82.5884H192.716C191.957 84.5028 190.071 85.8032 187.374 86.4461L186.987 85.5566C189.97 84.8653 191.705 83.4151 191.899 81.4572H187.606V80.5677H193.088C193.088 80.9738 193.049 81.3605 192.972 81.7279H195.785V79.9586H196.859ZM188.979 87.5967V86.7265H196.859V89.6851H190.071V91.116H197.274V91.9959H189.008V88.8633H195.785V87.5967H188.979ZM208.601 81.1478V82.3177C208.591 83.797 208.601 85.4599 208.098 87.9351L207.044 87.8191C207.281 86.7169 207.407 85.7548 207.474 84.8992L200.044 85.3343L199.87 84.3964L207.523 84.0773C207.552 83.4392 207.552 82.8591 207.556 82.3177V82.0373H200.218V81.1478H208.601ZM198.884 90.4489V89.5401H203.225V86.3881H204.288V89.5401H209.964V90.4489H198.884ZM224.572 79.9586V86.9392H223.498V83.855H220.646V86.1851H215.067V80.8191H220.646V82.9655H223.498V79.9586H224.572ZM216.131 85.3246H219.592V81.6892H216.131V85.3246ZM216.624 91.9475V87.5677H224.572V91.9475H216.624ZM217.697 91.0677H223.518V88.4378H217.697V91.0677ZM237.677 87.3066V88.2058H232.659V92.1312H231.605V88.2058H226.597V87.3066H237.677ZM227.293 85.4986C229.458 85.2086 231.595 83.884 231.605 82.3564V82.3467H227.67V81.4669H231.605V79.9489H232.659V81.4669H236.604V82.3467H232.668V82.3564C232.668 83.8743 234.786 85.2086 236.961 85.4986L236.565 86.3688C234.684 86.0787 232.915 85.136 232.141 83.8115C231.363 85.1506 229.57 86.0787 227.689 86.3688L227.293 85.4986ZM243.047 83.6906C243.047 85.75 244.546 87.8481 246.334 88.6215L245.735 89.4724C244.314 88.8246 243.091 87.4275 242.52 85.75C241.95 87.529 240.722 89.076 239.334 89.7721L238.696 88.9213C240.437 88.0898 241.955 85.7887 241.964 83.6906V82.105H239.093V81.2058H245.938V82.105H243.047V83.6906ZM247.64 92.1119V79.9586H248.713V92.1119H247.64ZM260.42 81.1865V89.018H254.812V81.1865H260.42ZM255.856 88.1381H259.347V82.047H255.856V88.1381ZM262.644 92.1119V79.9586H263.717V84.8122H265.747V85.7307H263.717V92.1119H262.644ZM270.015 83.4102C270.015 85.3439 270.963 87.4323 272.578 88.3895L271.959 89.221C270.784 88.5152 269.948 87.2148 269.518 85.7403C269.073 87.3501 268.174 88.7424 266.96 89.482L266.274 88.6796C267.956 87.6934 268.981 85.5373 268.981 83.4586V81.0994H270.015V83.4102ZM271.234 85.2279V84.3191H273.293V80.2196H274.308V91.4931H273.293V85.2279H271.234ZM275.788 92.1119V79.9586H276.822V92.1119H275.788ZM289.637 89.6464V90.5456H278.509V89.6464H281.264V86.3688C280.23 85.8273 279.601 84.9523 279.601 83.855C279.601 81.9696 281.448 80.732 284.039 80.7224C286.64 80.732 288.487 81.9696 288.487 83.855C288.487 84.9378 287.878 85.7983 286.872 86.3398V89.6464H289.637ZM280.636 83.855C280.636 85.2086 282.047 86.1174 284.039 86.1174C286.021 86.1174 287.452 85.2086 287.452 83.855C287.452 82.4917 286.021 81.5925 284.039 81.6022C282.047 81.5925 280.636 82.4917 280.636 83.855ZM282.318 89.6464H285.789V86.7604C285.262 86.8957 284.672 86.9682 284.039 86.9682C283.415 86.9682 282.84 86.8957 282.318 86.7652V89.6464ZM292.581 81.0994L292.484 88.2058H291.333L291.237 81.0994H292.581ZM291.034 90.1975C291.024 89.7141 291.43 89.3177 291.914 89.3177C292.397 89.3177 292.793 89.7141 292.793 90.1975C292.793 90.6809 292.397 91.0773 291.914 91.0773C291.43 91.0773 291.024 90.6809 291.034 90.1975Z" fill="#FEFEFE"/>
</g>
</g>
<defs>
<filter id="filter0_d_1128_5825" x="0" y="0" width="808" height="126" filterUnits="userSpaceOnUse" color-interpolation-filters="sRGB">
<feFlood flood-opacity="0" result="BackgroundImageFix"/>
<feColorMatrix in="SourceAlpha" type="matrix" values="0 0 0 0 0 0 0 0 0 0 0 0 0 0 0 0 0 0 127 0" result="hardAlpha"/>
<feOffset dy="4"/>
<feGaussianBlur stdDeviation="4"/>
<feComposite in2="hardAlpha" operator="out"/>
<feColorMatrix type="matrix" values="0 0 0 0 0 0 0 0 0 0 0 0 0 0 0 0 0 0 0.08 0"/>
<feBlend mode="normal" in2="BackgroundImageFix" result="effect1_dropShadow_1128_5825"/>
<feBlend mode="normal" in="SourceGraphic" in2="effect1_dropShadow_1128_5825" result="shape"/>
</filter>
<linearGradient id="paint0_linear_1128_5825" x1="800" y1="59" x2="8" y2="59" gradientUnits="userSpaceOnUse">
<stop stop-color="#90DEA3"/>
<stop offset="1" stop-color="#798BFF"/>
</linearGradient>
<clipPath id="clip0_1128_5825">
<path d="M8 16C8 9.37258 13.3726 4 20 4H788C794.627 4 800 9.37258 800 16V102C800 108.627 794.627 114 788 114H16C11.5817 114 8 110.418 8 106V16Z" fill="white"/>
</clipPath>
</defs>
</svg>
