<svg width="282" height="168" viewBox="0 0 282 168" fill="none" xmlns="http://www.w3.org/2000/svg">
<g clip-path="url(#clip0_1109_2247)">
<rect width="282" height="168" transform="matrix(-1 0 0 1 282 0)" fill="#FFDAE5"/>
<path d="M210.912 117.974L231.517 85.4564L222.353 53.4999L204 85.4565L210.912 117.974Z" fill="#FE89AB" fill-opacity="0.7"/>
<path d="M153.104 70.9208L80.8404 145.622L73.9285 113.104L148.477 37.9999L153.104 70.9208Z" fill="#FE89AB" fill-opacity="0.7"/>
<path d="M153.104 70.9208L-11.5 94.0544L-16.1268 61.1335L148.477 37.9999L153.104 70.9208Z" fill="#FD5E2B" fill-opacity="0.7"/>
<path d="M210.912 117.974L80.8404 145.622L73.9285 113.104L204 85.4565L210.912 117.974Z" fill="#FD5E2B" fill-opacity="0.7"/>
<path d="M327.386 57.9662L231.517 85.4564L222.353 53.4999L318.223 26.0097L327.386 57.9662Z" fill="#FD5E2B" fill-opacity="0.7"/>
<circle cx="13" cy="13" r="13" transform="matrix(-1 0 0 1 105 25)" fill="#878787"/>
<circle cx="13" cy="13" r="13" transform="matrix(-1 0 0 1 105 25)" fill="black" fill-opacity="0.2"/>
<ellipse cx="91.1875" cy="34.3125" rx="2.4375" ry="4.0625" fill="white"/>
<ellipse cx="97.6875" cy="34.3125" rx="2.4375" ry="4.0625" fill="white"/>
<circle cx="92" cy="31.875" r="1.625" transform="rotate(180 92 31.875)" fill="#878787"/>
<circle cx="92" cy="31.875" r="1.625" transform="rotate(180 92 31.875)" fill="black" fill-opacity="0.2"/>
<circle cx="98.5" cy="31.875" r="1.625" transform="rotate(180 98.5 31.875)" fill="#878787"/>
<circle cx="98.5" cy="31.875" r="1.625" transform="rotate(180 98.5 31.875)" fill="black" fill-opacity="0.2"/>
</g>
<defs>
<clipPath id="clip0_1109_2247">
<rect width="282" height="168" fill="white" transform="matrix(-1 0 0 1 282 0)"/>
</clipPath>
</defs>
</svg>
