<svg width="140" height="95" viewBox="0 0 140 95" fill="none" xmlns="http://www.w3.org/2000/svg">
<path fill-rule="evenodd" clip-rule="evenodd" d="M27.0339 0.140157L136.222 29.7614C138.133 30.2799 139.377 32.1186 139.148 34.0854L132.553 90.6145C132.27 93.0416 129.896 94.6499 127.537 94.0127L2.95867 60.3617C0.622903 59.7307 -0.622352 57.1867 0.312204 54.955L22.297 2.45557C23.072 0.605111 25.0977 -0.385101 27.0339 0.140157ZM36.763 34.623L40.2789 35.5651C40.5807 34.3719 40.3554 33.2707 39.6029 32.2616C38.7267 31.1116 37.3343 30.2809 35.4256 29.7695C33.8518 29.3478 32.4896 29.3417 31.3391 29.7512C30.0232 30.242 29.1701 31.2158 28.7798 32.6724C28.5421 33.5597 28.6048 34.3302 28.968 34.9838C29.2409 35.5056 29.8622 36.0668 30.8317 36.6676L34.614 39.0269C35.3213 39.4677 35.6099 39.9308 35.4798 40.4163C35.26 41.2367 34.2879 41.4159 32.5634 40.9538C31.542 40.6802 30.8635 40.3997 30.5278 40.1123C30.2088 39.8294 30.0731 39.3983 30.1207 38.8189L26.6801 37.8969C26.3657 39.338 26.6088 40.5068 27.4094 41.4032C28.2178 42.3376 29.7605 43.1098 32.0375 43.72C33.8959 44.2179 35.4223 44.2142 36.6164 43.7087C37.8955 43.1542 38.7168 42.1989 39.0802 40.8427C39.5422 39.1182 38.9677 37.7799 37.3566 36.8278L33.3165 34.4263C32.5711 33.9933 32.259 33.5508 32.3802 33.0987C32.5865 32.3286 33.351 32.1207 34.6737 32.4751C35.5778 32.7174 36.1826 33.005 36.4882 33.3381C36.7982 33.6545 36.8898 34.0828 36.763 34.623ZM49.6544 36.3277L50.2668 34.0423L47.9312 33.4165L49.055 29.2224L45.0576 30.2778L44.4654 32.4878L42.7577 32.0302L42.1453 34.3156L43.8531 34.7732L41.6593 42.9604C41.103 45.0365 41.955 46.3774 44.2153 46.983C45.3705 47.2925 46.5451 47.3291 47.7389 47.0927L47.9697 44.6243C47.9317 44.6321 47.8831 44.646 47.8239 44.666C47.1404 44.8059 46.6061 44.8242 46.2211 44.7211C45.7523 44.5954 45.4504 44.4159 45.3156 44.1824C45.1975 43.9533 45.2036 43.596 45.3337 43.1105L47.3188 35.7018L49.6544 36.3277ZM54.0169 43.1492L62.9575 45.5448C63.0416 45.2982 63.106 45.0911 63.1509 44.9237C63.5053 43.601 63.6323 42.4238 63.5319 41.392C63.4196 40.0699 62.9425 38.9371 62.1007 37.9938C61.2588 37.0504 60.1598 36.397 58.8037 36.0337C57.0289 35.5581 55.4494 35.7271 54.065 36.5405C52.4806 37.4977 51.3721 39.1566 50.7396 41.5174C50.2192 43.4595 50.2769 45.1528 50.9127 46.5973C51.6376 48.245 53.013 49.3403 55.0389 49.8832C56.529 50.2824 57.9275 50.2534 59.2343 49.7961C60.5625 49.3265 61.594 48.4903 62.329 47.2876L58.9135 46.3724C58.1911 47.3273 57.1853 47.632 55.8961 47.2866C54.8581 47.0084 54.195 46.436 53.9068 45.5692C53.7433 45.0409 53.78 44.2342 54.0169 43.1492ZM58.072 38.6639C59.696 39.0991 60.3315 40.3102 59.9786 42.2972L54.6795 40.8773C55.4176 38.9935 56.5484 38.2557 58.072 38.6639ZM70.3632 41.4728L70.8746 39.5642L67.4089 38.6355L62.4023 57.3204L65.868 58.249L67.7388 51.2673C68.2227 52.7428 69.2851 53.7004 70.9259 54.1401C72.4327 54.5438 73.8471 54.3217 75.1689 53.4735C76.7076 52.4861 77.7618 50.9293 78.3315 48.8029C78.8609 46.8273 78.8256 45.0503 78.2257 43.4719C77.9396 42.7313 77.4631 42.0653 76.7961 41.4738C76.1459 40.8869 75.4273 40.488 74.6404 40.2771C72.9829 39.833 71.5572 40.2315 70.3632 41.4728ZM70.6505 43.5148C71.3882 42.9049 72.1923 42.7166 73.0629 42.9499C73.9335 43.1832 74.5358 43.7483 74.8697 44.6453C75.208 45.5255 75.2135 46.5767 74.886 47.799C74.563 49.0044 74.0349 49.9037 73.3017 50.4969C72.5686 51.09 71.7667 51.2699 70.8961 51.0366C70.0254 50.8033 69.421 50.2466 69.0826 49.3663C68.7442 48.4861 68.7365 47.4432 69.0595 46.2378C69.387 45.0155 69.9173 44.1079 70.6505 43.5148ZM85.5199 45.5341L86.0314 43.6254L82.5656 42.6967L77.559 61.3816L81.0248 62.3103L82.8955 55.3285C83.3794 56.8041 84.4418 57.7617 86.0826 58.2013C87.5894 58.6051 89.0038 58.3829 90.3257 57.5348C91.8643 56.5474 92.9185 54.9905 93.4883 52.8642C94.0177 50.8885 93.9824 49.1115 93.3825 47.5331C93.0964 46.7925 92.6199 46.1265 91.9529 45.5351C91.3026 44.9481 90.5841 44.5492 89.7972 44.3383C88.1396 43.8942 86.7139 44.2928 85.5199 45.5341ZM85.8072 47.576C86.5449 46.9661 87.349 46.7778 88.2196 47.0111C89.0903 47.2444 89.6925 47.8095 90.0264 48.7065C90.3648 49.5868 90.3702 50.638 90.0427 51.8602C89.7197 53.0657 89.1916 53.965 88.4585 54.5581C87.7253 55.1512 86.9234 55.3311 86.0528 55.0978C85.1822 54.8646 84.5777 54.3078 84.2393 53.4276C83.9009 52.5473 83.8933 51.5045 84.2163 50.299C84.5438 49.0768 85.0741 48.1691 85.8072 47.576ZM98.3589 55.0306L107.3 57.4262C107.384 57.1796 107.448 56.9726 107.493 56.8051C107.847 55.4824 107.974 54.3052 107.874 53.2734C107.762 51.9513 107.285 50.8186 106.443 49.8752C105.601 48.9318 104.502 48.2784 103.146 47.9151C101.371 47.4395 99.7914 47.6085 98.407 48.4219C96.8226 49.3791 95.7142 51.0381 95.0816 53.3988C94.5612 55.3409 94.6189 57.0342 95.2547 58.4787C95.9796 60.1264 97.355 61.2217 99.3809 61.7646C100.871 62.1638 102.269 62.1348 103.576 61.6775C104.905 61.2079 105.936 60.3717 106.671 59.169L103.256 58.2538C102.533 59.2087 101.527 59.5134 100.238 59.168C99.2001 58.8898 98.537 58.3174 98.2489 57.4506C98.0854 56.9223 98.122 56.1156 98.3589 55.0306ZM102.414 50.5453C104.038 50.9805 104.674 52.1916 104.321 54.1786L99.0215 52.7587C99.7596 50.8749 100.89 50.1371 102.414 50.5453ZM115.242 51.4523L111.776 50.5236L108.21 63.8341L111.675 64.7628L113.586 57.6304C113.914 56.4081 114.392 55.6299 115.019 55.2957C115.567 54.9938 116.41 54.9954 117.548 55.3004C118 55.4215 118.425 55.58 118.821 55.7759L119.711 52.3537L119.033 52.172C116.99 51.6247 115.5 52.2303 114.562 53.9888L115.242 51.4523Z" fill="#90DEA3"/>
</svg>
